%TF.GenerationSoftware,KiCad,Pcbnew,8.0.6*%
%TF.CreationDate,2025-03-19T14:20:47+02:00*%
%TF.ProjectId,UPD_PCB,5550445f-5043-4422-9e6b-696361645f70,1.1*%
%TF.SameCoordinates,Original*%
%TF.FileFunction,Copper,L6,Bot*%
%TF.FilePolarity,Positive*%
%FSLAX46Y46*%
G04 Gerber Fmt 4.6, Leading zero omitted, Abs format (unit mm)*
G04 Created by KiCad (PCBNEW 8.0.6) date 2025-03-19 14:20:47*
%MOMM*%
%LPD*%
G01*
G04 APERTURE LIST*
G04 Aperture macros list*
%AMRoundRect*
0 Rectangle with rounded corners*
0 $1 Rounding radius*
0 $2 $3 $4 $5 $6 $7 $8 $9 X,Y pos of 4 corners*
0 Add a 4 corners polygon primitive as box body*
4,1,4,$2,$3,$4,$5,$6,$7,$8,$9,$2,$3,0*
0 Add four circle primitives for the rounded corners*
1,1,$1+$1,$2,$3*
1,1,$1+$1,$4,$5*
1,1,$1+$1,$6,$7*
1,1,$1+$1,$8,$9*
0 Add four rect primitives between the rounded corners*
20,1,$1+$1,$2,$3,$4,$5,0*
20,1,$1+$1,$4,$5,$6,$7,0*
20,1,$1+$1,$6,$7,$8,$9,0*
20,1,$1+$1,$8,$9,$2,$3,0*%
G04 Aperture macros list end*
%TA.AperFunction,ComponentPad*%
%ADD10R,1.950000X1.950000*%
%TD*%
%TA.AperFunction,ComponentPad*%
%ADD11C,1.950000*%
%TD*%
%TA.AperFunction,ComponentPad*%
%ADD12C,2.100000*%
%TD*%
%TA.AperFunction,ComponentPad*%
%ADD13C,2.400000*%
%TD*%
%TA.AperFunction,ComponentPad*%
%ADD14RoundRect,0.250000X-0.600000X-0.725000X0.600000X-0.725000X0.600000X0.725000X-0.600000X0.725000X0*%
%TD*%
%TA.AperFunction,ComponentPad*%
%ADD15O,1.700000X1.950000*%
%TD*%
%TA.AperFunction,ComponentPad*%
%ADD16C,2.900000*%
%TD*%
%TA.AperFunction,ComponentPad*%
%ADD17C,1.000000*%
%TD*%
%TA.AperFunction,ComponentPad*%
%ADD18R,0.850000X0.850000*%
%TD*%
%TA.AperFunction,ComponentPad*%
%ADD19O,0.850000X0.850000*%
%TD*%
%TA.AperFunction,ViaPad*%
%ADD20C,0.600000*%
%TD*%
G04 APERTURE END LIST*
D10*
%TO.P,J10,1,1*%
%TO.N,+42V_out*%
X205290000Y-102370000D03*
D11*
%TO.P,J10,2,2*%
%TO.N,GND*%
X214810000Y-102370000D03*
%TD*%
D12*
%TO.P,J9,1,1*%
%TO.N,+24V_out*%
X187970000Y-106020000D03*
%TO.P,J9,2,2*%
%TO.N,GND*%
X193050000Y-106020000D03*
%TD*%
%TO.P,J8,1,1*%
%TO.N,+5V_out*%
X113120001Y-106020000D03*
%TO.P,J8,2,2*%
%TO.N,GND*%
X118200001Y-106020000D03*
%TD*%
%TO.P,J7,1,1*%
%TO.N,+12V_2_out*%
X142920000Y-106020000D03*
%TO.P,J7,2,2*%
%TO.N,GND*%
X148000000Y-106020000D03*
%TD*%
%TO.P,J6,1,1*%
%TO.N,+12V_1_out*%
X128050000Y-106019999D03*
%TO.P,J6,2,2*%
%TO.N,GND*%
X133130000Y-106019999D03*
%TD*%
%TO.P,J5,1,1*%
%TO.N,+16V_out*%
X158050000Y-106020000D03*
%TO.P,J5,2,2*%
%TO.N,GND*%
X163130000Y-106020000D03*
%TD*%
%TO.P,J4,1,1*%
%TO.N,+19V_out*%
X173050001Y-106020000D03*
%TO.P,J4,2,2*%
%TO.N,GND*%
X178130001Y-106020000D03*
%TD*%
D10*
%TO.P,J2,1,1*%
%TO.N,IP+*%
X232650000Y-71260001D03*
D11*
%TO.P,J2,2,2*%
%TO.N,GND*%
X232650000Y-61740001D03*
%TD*%
D13*
%TO.P,J1,1,1*%
%TO.N,+42V*%
X239500000Y-92265000D03*
%TO.P,J1,2,2*%
%TO.N,+42V_out*%
X239500000Y-105735000D03*
%TO.P,J1,3,3*%
%TO.N,+42V*%
X236100000Y-92265000D03*
%TO.P,J1,4,4*%
%TO.N,+42V_out*%
X236100000Y-105735000D03*
%TD*%
D14*
%TO.P,J11,1,Pin_1*%
%TO.N,GND*%
X223700000Y-108200000D03*
D15*
%TO.P,J11,2,Pin_2*%
%TO.N,+5V_out*%
X226200000Y-108200000D03*
%TO.P,J11,3,Pin_3*%
%TO.N,INA_SDA*%
X228700000Y-108200000D03*
%TO.P,J11,4,Pin_4*%
%TO.N,INA_SCL*%
X231200000Y-108200000D03*
%TD*%
D16*
%TO.P,REF\u002A\u002A,1*%
%TO.N,N/C*%
X102800000Y-53000000D03*
%TD*%
D17*
%TO.P,TP1,1,1*%
%TO.N,GND*%
X103000000Y-105000000D03*
%TD*%
D18*
%TO.P,J3,1,Pin_1*%
%TO.N,GND*%
X106250000Y-105000000D03*
D19*
%TO.P,J3,2,Pin_2*%
%TO.N,+5V_out*%
X107250000Y-105000000D03*
%TD*%
D17*
%TO.P,TP7,1,1*%
%TO.N,+5V_out*%
X120050000Y-98020000D03*
%TD*%
%TO.P,TP2,1,1*%
%TO.N,+24V_out*%
X195050000Y-98020000D03*
%TD*%
%TO.P,TP5,1,1*%
%TO.N,+12V_2_out*%
X150050000Y-98020000D03*
%TD*%
%TO.P,TP6,1,1*%
%TO.N,+16V_out*%
X165050000Y-98020000D03*
%TD*%
%TO.P,TP3,1,1*%
%TO.N,+12V_1_out*%
X135050000Y-98020000D03*
%TD*%
D16*
%TO.P,REF\u002A\u002A,1*%
%TO.N,N/C*%
X242200000Y-112200000D03*
%TD*%
%TO.P,REF\u002A\u002A,1*%
%TO.N,N/C*%
X102800000Y-112200000D03*
%TD*%
D18*
%TO.P,J12,1,Pin_1*%
%TO.N,GND*%
X235750001Y-110750000D03*
D19*
%TO.P,J12,2,Pin_2*%
%TO.N,VIOUT*%
X236750001Y-110750000D03*
%TD*%
D17*
%TO.P,TP8,1,1*%
%TO.N,+42V_out*%
X243250000Y-100250000D03*
%TD*%
%TO.P,TP4,1,1*%
%TO.N,+19V_out*%
X180050000Y-98020000D03*
%TD*%
D16*
%TO.P,REF\u002A\u002A,1*%
%TO.N,N/C*%
X242000000Y-53000000D03*
%TD*%
D20*
%TO.N,GND*%
X109034207Y-69760446D03*
X208600000Y-70600000D03*
X143000000Y-74800000D03*
X148200001Y-70000000D03*
X238949999Y-86050000D03*
X169600000Y-70800000D03*
X129077800Y-69840307D03*
X151915000Y-92000000D03*
X209600000Y-70600000D03*
X110034208Y-69760446D03*
X127227117Y-99997643D03*
X122800000Y-74800000D03*
X150076825Y-77099611D03*
X168600000Y-70800000D03*
X150200000Y-70000000D03*
X231108777Y-92200000D03*
X109000000Y-77000000D03*
X131280000Y-86920000D03*
X184632498Y-68970000D03*
X130010000Y-91800000D03*
X187200001Y-100000000D03*
X145032498Y-68969997D03*
X189400000Y-70600000D03*
X222400000Y-74912500D03*
X182600000Y-75000000D03*
X220990824Y-99520244D03*
X108034207Y-69760446D03*
X242699999Y-82800000D03*
X110000000Y-77000000D03*
X128081115Y-77081115D03*
X165032499Y-69000000D03*
X124682498Y-68950000D03*
X163000000Y-74800000D03*
X190400000Y-70600000D03*
X111280000Y-91800000D03*
X130081115Y-77081115D03*
X142136143Y-99992071D03*
X130077800Y-69840307D03*
X202200000Y-74800000D03*
X148076825Y-77099611D03*
X149200000Y-70000000D03*
X108000000Y-77000000D03*
X204294999Y-68720000D03*
X188400000Y-70600000D03*
X128077800Y-69840307D03*
X234449999Y-81550000D03*
X224407500Y-68657500D03*
X233170246Y-90675000D03*
X129081115Y-77081115D03*
X112162500Y-99991249D03*
X171915000Y-91999999D03*
X157250000Y-99991249D03*
X149076825Y-77099611D03*
X212590000Y-88000000D03*
X210600000Y-70600000D03*
X172250000Y-99991250D03*
X193887500Y-87087500D03*
X170600000Y-70800000D03*
%TO.N,+42V*%
X236199999Y-77800000D03*
X186200000Y-70700000D03*
X165600001Y-72700000D03*
X145600000Y-71699999D03*
X225000000Y-70500000D03*
X235199999Y-79799999D03*
X234200000Y-78800000D03*
X234199999Y-77800000D03*
X226000000Y-70500000D03*
X225000000Y-72500000D03*
X166600000Y-72700000D03*
X165600000Y-71700000D03*
X125200000Y-70700000D03*
X233199999Y-77799999D03*
X236199999Y-78800000D03*
X233199999Y-79800000D03*
X204800000Y-72500000D03*
X185200000Y-72700000D03*
X186200000Y-72700000D03*
X235199999Y-77800000D03*
X232200000Y-77799999D03*
X185200000Y-70700000D03*
X226000000Y-71500000D03*
X166600000Y-71700000D03*
X233199999Y-78800000D03*
X225000000Y-71499999D03*
X166600000Y-70700000D03*
X125200000Y-71700000D03*
X146600000Y-71699999D03*
X126200000Y-71700000D03*
X165600000Y-70700000D03*
X126200000Y-72700000D03*
X205800000Y-70500000D03*
X235199999Y-78800000D03*
X232199999Y-79800000D03*
X146600000Y-72700000D03*
X146600000Y-70700000D03*
X185200000Y-71700000D03*
X204800000Y-71499999D03*
X205800000Y-71500000D03*
X125200001Y-72700000D03*
X234200000Y-79799999D03*
X186200000Y-71700000D03*
X145600001Y-70700000D03*
X226000000Y-72500000D03*
X126200000Y-70700000D03*
X204800000Y-70500000D03*
X232199999Y-78800000D03*
X145600000Y-72700000D03*
X205800000Y-72500000D03*
%TO.N,+5V_out*%
X239121248Y-81628751D03*
X170645000Y-88200000D03*
X121740146Y-92276866D03*
X230949999Y-82800000D03*
X210000000Y-88000000D03*
X150645000Y-88400000D03*
X233170246Y-91675001D03*
X226399999Y-92954754D03*
X121740147Y-90276866D03*
X114837501Y-97519999D03*
X237699999Y-86050000D03*
X168630001Y-92770000D03*
X128740001Y-88400000D03*
X214400000Y-83200000D03*
X190645000Y-88000000D03*
X231599999Y-92954754D03*
X175200000Y-83400000D03*
X122740146Y-91276865D03*
X110010000Y-88000000D03*
X121740147Y-91276866D03*
X154800000Y-83200000D03*
X122740146Y-90276866D03*
%TO.N,IP+*%
X241199999Y-79800000D03*
X241199999Y-78800000D03*
X240199999Y-79799999D03*
X240199999Y-78800000D03*
X240199999Y-77800000D03*
X238199999Y-77799999D03*
X241200000Y-77799999D03*
X238199999Y-78800000D03*
X237199999Y-77799999D03*
X238199999Y-79800000D03*
X237199999Y-78800000D03*
X239199999Y-77800000D03*
X239200000Y-79800000D03*
X239200000Y-78800000D03*
%TO.N,INA_SDA*%
X228262500Y-89200000D03*
X229875000Y-89275000D03*
%TO.N,INA_SCL*%
X151318750Y-82000000D03*
X175168751Y-79013750D03*
X214200000Y-79000000D03*
X154000000Y-79575000D03*
X132481250Y-79551250D03*
X171600000Y-82000000D03*
X191400000Y-82000000D03*
X210700000Y-82100000D03*
X129600000Y-82000000D03*
X194800000Y-79000000D03*
%TO.N,+24V*%
X221483513Y-85000000D03*
X216000000Y-74000000D03*
X221483513Y-84000000D03*
X221483513Y-86000000D03*
X216000000Y-75000000D03*
X216000000Y-73000000D03*
X222483513Y-86000000D03*
X222483513Y-85000000D03*
X217000000Y-73000000D03*
X217000000Y-74000000D03*
X217000000Y-75000000D03*
%TO.N,+12V_1*%
X137000000Y-72000000D03*
X140483513Y-86000000D03*
X135999999Y-73000000D03*
X141483513Y-85000000D03*
X140483513Y-84000000D03*
X137000000Y-71000000D03*
X136000000Y-71000000D03*
X140483513Y-85000000D03*
X141483513Y-86000000D03*
X137000000Y-73000000D03*
X136000000Y-72000000D03*
%TO.N,+19V*%
X203050016Y-84965777D03*
X197000001Y-75000000D03*
X197000000Y-74000000D03*
X202050016Y-84965777D03*
X202050016Y-85965777D03*
X196000000Y-73999999D03*
X196000000Y-75000000D03*
X196000000Y-73000000D03*
X202050016Y-83965777D03*
X197000000Y-73000000D03*
X203050016Y-85965777D03*
%TO.N,+12V_2*%
X156000000Y-72000000D03*
X162269080Y-83941147D03*
X157000000Y-71000000D03*
X157000000Y-72000000D03*
X163269080Y-84941148D03*
X163269080Y-85941146D03*
X162269080Y-85941147D03*
X162269080Y-84941147D03*
X157000000Y-73000000D03*
X156000001Y-71000000D03*
X156000000Y-73000000D03*
%TO.N,+16V*%
X176000001Y-73000000D03*
X182312396Y-83908738D03*
X176000001Y-73999999D03*
X182312396Y-85908738D03*
X176000000Y-75000000D03*
X183312397Y-84908738D03*
X177000000Y-73999999D03*
X182312396Y-84908738D03*
X177000000Y-75000000D03*
X183312396Y-85908738D03*
X177000000Y-73000001D03*
%TO.N,+5V_NS*%
X121750000Y-83921959D03*
X117000001Y-73000000D03*
X116000000Y-73000000D03*
X117000000Y-71000000D03*
X116000000Y-72000000D03*
X116000000Y-71000000D03*
X122750000Y-85921959D03*
X121750000Y-85921958D03*
X121750000Y-84921959D03*
X122750000Y-84921959D03*
X117000000Y-72000000D03*
%TO.N,+24V_out*%
X221483513Y-91400000D03*
X222483514Y-90400000D03*
X221483513Y-92400000D03*
X221483513Y-90400000D03*
X190000000Y-97520000D03*
X222483514Y-91399999D03*
%TO.N,+12V_1_out*%
X141470567Y-90280581D03*
X140470567Y-92280581D03*
X140470567Y-90280581D03*
X140470567Y-91280580D03*
X129902118Y-97526393D03*
X141470567Y-91280581D03*
%TO.N,+19V_out*%
X175000000Y-97600000D03*
X203026068Y-90297736D03*
X202026068Y-91297736D03*
X202026068Y-90297736D03*
X202026069Y-92297736D03*
X203026068Y-91297736D03*
%TO.N,+12V_2_out*%
X144811143Y-97530820D03*
X163244211Y-90306474D03*
X162244212Y-90306474D03*
X162244212Y-91306474D03*
X162244211Y-92306474D03*
X163244211Y-91306473D03*
%TO.N,+16V_out*%
X182239014Y-92307606D03*
X183239014Y-90307606D03*
X182239014Y-91307606D03*
X182239014Y-90307606D03*
X183239014Y-91307606D03*
X159925001Y-97519999D03*
%TO.N,+42V_out*%
X225000000Y-98000001D03*
%TD*%
%TA.AperFunction,Conductor*%
%TO.N,+42V_out*%
G36*
X242615677Y-96019685D02*
G01*
X242636319Y-96036319D01*
X244713180Y-98113180D01*
X244746665Y-98174503D01*
X244749499Y-98200861D01*
X244749499Y-112496248D01*
X244749273Y-112503735D01*
X244733550Y-112763659D01*
X244731745Y-112778523D01*
X244685484Y-113030964D01*
X244681900Y-113045504D01*
X244605550Y-113290518D01*
X244600241Y-113304518D01*
X244494910Y-113538555D01*
X244487951Y-113551814D01*
X244355182Y-113771442D01*
X244346676Y-113783765D01*
X244188398Y-113985791D01*
X244178468Y-113996999D01*
X243997000Y-114178467D01*
X243985792Y-114188397D01*
X243783765Y-114346675D01*
X243771442Y-114355181D01*
X243551814Y-114487951D01*
X243538555Y-114494910D01*
X243304517Y-114600242D01*
X243290516Y-114605551D01*
X243045506Y-114681899D01*
X243030968Y-114685483D01*
X242778525Y-114731745D01*
X242763660Y-114733550D01*
X242503736Y-114749273D01*
X242496249Y-114749499D01*
X200200861Y-114749499D01*
X200133822Y-114729814D01*
X200113180Y-114713180D01*
X198436319Y-113036319D01*
X198402834Y-112974996D01*
X198400000Y-112948638D01*
X198400000Y-112199998D01*
X240344773Y-112199998D01*
X240344773Y-112200001D01*
X240363657Y-112464027D01*
X240363658Y-112464034D01*
X240419921Y-112722673D01*
X240512426Y-112970690D01*
X240512428Y-112970694D01*
X240639280Y-113203005D01*
X240639285Y-113203013D01*
X240797906Y-113414907D01*
X240797922Y-113414925D01*
X240985074Y-113602077D01*
X240985092Y-113602093D01*
X241196986Y-113760714D01*
X241196994Y-113760719D01*
X241429305Y-113887571D01*
X241429309Y-113887573D01*
X241429311Y-113887574D01*
X241677322Y-113980077D01*
X241677325Y-113980077D01*
X241677326Y-113980078D01*
X241872552Y-114022546D01*
X241935974Y-114036343D01*
X242179660Y-114053772D01*
X242199999Y-114055227D01*
X242200000Y-114055227D01*
X242200001Y-114055227D01*
X242218885Y-114053876D01*
X242464026Y-114036343D01*
X242722678Y-113980077D01*
X242970689Y-113887574D01*
X243203011Y-113760716D01*
X243414915Y-113602087D01*
X243602087Y-113414915D01*
X243760716Y-113203011D01*
X243887574Y-112970689D01*
X243980077Y-112722678D01*
X244036343Y-112464026D01*
X244055227Y-112200000D01*
X244036343Y-111935974D01*
X243980077Y-111677322D01*
X243887574Y-111429311D01*
X243878854Y-111413342D01*
X243760719Y-111196994D01*
X243760714Y-111196986D01*
X243602093Y-110985092D01*
X243602077Y-110985074D01*
X243414925Y-110797922D01*
X243414907Y-110797906D01*
X243203013Y-110639285D01*
X243203005Y-110639280D01*
X242970694Y-110512428D01*
X242970690Y-110512426D01*
X242722673Y-110419921D01*
X242464034Y-110363658D01*
X242464027Y-110363657D01*
X242200001Y-110344773D01*
X242199999Y-110344773D01*
X241935972Y-110363657D01*
X241935965Y-110363658D01*
X241677326Y-110419921D01*
X241429309Y-110512426D01*
X241429305Y-110512428D01*
X241196994Y-110639280D01*
X241196986Y-110639285D01*
X240985092Y-110797906D01*
X240985074Y-110797922D01*
X240797922Y-110985074D01*
X240797906Y-110985092D01*
X240639285Y-111196986D01*
X240639280Y-111196994D01*
X240512428Y-111429305D01*
X240512426Y-111429309D01*
X240419921Y-111677326D01*
X240363658Y-111935965D01*
X240363657Y-111935972D01*
X240344773Y-112199998D01*
X198400000Y-112199998D01*
X198400000Y-110293475D01*
X234924501Y-110293475D01*
X234924501Y-111206517D01*
X234929470Y-111237889D01*
X234939355Y-111300304D01*
X234996951Y-111413342D01*
X234996953Y-111413344D01*
X234996955Y-111413347D01*
X235086653Y-111503045D01*
X235086655Y-111503046D01*
X235086659Y-111503050D01*
X235199695Y-111560645D01*
X235199699Y-111560647D01*
X235293476Y-111575499D01*
X235293482Y-111575500D01*
X236206519Y-111575499D01*
X236300305Y-111560646D01*
X236359928Y-111530265D01*
X236428596Y-111517369D01*
X236466659Y-111527470D01*
X236493502Y-111539422D01*
X236663237Y-111575500D01*
X236663238Y-111575500D01*
X236836763Y-111575500D01*
X236836765Y-111575500D01*
X237006500Y-111539422D01*
X237006502Y-111539420D01*
X237006505Y-111539420D01*
X237087375Y-111503414D01*
X237165025Y-111468842D01*
X237305411Y-111366845D01*
X237421523Y-111237889D01*
X237508287Y-111087611D01*
X237561909Y-110922576D01*
X237580048Y-110750000D01*
X237561909Y-110577424D01*
X237510735Y-110419923D01*
X237508288Y-110412391D01*
X237469248Y-110344773D01*
X237421523Y-110262111D01*
X237305411Y-110133155D01*
X237165025Y-110031158D01*
X237165024Y-110031157D01*
X237006505Y-109960579D01*
X237006499Y-109960577D01*
X236872842Y-109932168D01*
X236836765Y-109924500D01*
X236663237Y-109924500D01*
X236627160Y-109932168D01*
X236493503Y-109960577D01*
X236493498Y-109960579D01*
X236466655Y-109972530D01*
X236397405Y-109981813D01*
X236359930Y-109969734D01*
X236337646Y-109958380D01*
X236300302Y-109939352D01*
X236206525Y-109924500D01*
X235293483Y-109924500D01*
X235212520Y-109937323D01*
X235199697Y-109939354D01*
X235086659Y-109996950D01*
X235086658Y-109996951D01*
X235086653Y-109996954D01*
X234996955Y-110086652D01*
X234996952Y-110086657D01*
X234939353Y-110199698D01*
X234924501Y-110293475D01*
X198400000Y-110293475D01*
X198400000Y-107409298D01*
X222449500Y-107409298D01*
X222449500Y-108990701D01*
X222452401Y-109027567D01*
X222452402Y-109027573D01*
X222498254Y-109185393D01*
X222498255Y-109185396D01*
X222581917Y-109326862D01*
X222581923Y-109326870D01*
X222698129Y-109443076D01*
X222698133Y-109443079D01*
X222698135Y-109443081D01*
X222839602Y-109526744D01*
X222881224Y-109538836D01*
X222997426Y-109572597D01*
X222997429Y-109572597D01*
X222997431Y-109572598D01*
X223034306Y-109575500D01*
X223034314Y-109575500D01*
X224365686Y-109575500D01*
X224365694Y-109575500D01*
X224402569Y-109572598D01*
X224402571Y-109572597D01*
X224402573Y-109572597D01*
X224444191Y-109560505D01*
X224560398Y-109526744D01*
X224701865Y-109443081D01*
X224818081Y-109326865D01*
X224901744Y-109185398D01*
X224939009Y-109057133D01*
X224976615Y-108998247D01*
X225040087Y-108969041D01*
X225109274Y-108978787D01*
X225158401Y-109018840D01*
X225246172Y-109139646D01*
X225385354Y-109278828D01*
X225544595Y-109394524D01*
X225627455Y-109436743D01*
X225719970Y-109483882D01*
X225719972Y-109483882D01*
X225719975Y-109483884D01*
X225820317Y-109516487D01*
X225907173Y-109544709D01*
X226101578Y-109575500D01*
X226101583Y-109575500D01*
X226298422Y-109575500D01*
X226492826Y-109544709D01*
X226548116Y-109526744D01*
X226680025Y-109483884D01*
X226855405Y-109394524D01*
X227014646Y-109278828D01*
X227153828Y-109139646D01*
X227269524Y-108980405D01*
X227339515Y-108843038D01*
X227387489Y-108792243D01*
X227455310Y-108775448D01*
X227521445Y-108797985D01*
X227560484Y-108843038D01*
X227630476Y-108980405D01*
X227746172Y-109139646D01*
X227885354Y-109278828D01*
X228044595Y-109394524D01*
X228127455Y-109436743D01*
X228219970Y-109483882D01*
X228219972Y-109483882D01*
X228219975Y-109483884D01*
X228320317Y-109516487D01*
X228407173Y-109544709D01*
X228601578Y-109575500D01*
X228601583Y-109575500D01*
X228798422Y-109575500D01*
X228992826Y-109544709D01*
X229048116Y-109526744D01*
X229180025Y-109483884D01*
X229355405Y-109394524D01*
X229514646Y-109278828D01*
X229653828Y-109139646D01*
X229769524Y-108980405D01*
X229839515Y-108843038D01*
X229887489Y-108792243D01*
X229955310Y-108775448D01*
X230021445Y-108797985D01*
X230060484Y-108843038D01*
X230130476Y-108980405D01*
X230246172Y-109139646D01*
X230385354Y-109278828D01*
X230544595Y-109394524D01*
X230627455Y-109436743D01*
X230719970Y-109483882D01*
X230719972Y-109483882D01*
X230719975Y-109483884D01*
X230820317Y-109516487D01*
X230907173Y-109544709D01*
X231101578Y-109575500D01*
X231101583Y-109575500D01*
X231298422Y-109575500D01*
X231492826Y-109544709D01*
X231548116Y-109526744D01*
X231680025Y-109483884D01*
X231855405Y-109394524D01*
X232014646Y-109278828D01*
X232153828Y-109139646D01*
X232269524Y-108980405D01*
X232358884Y-108805025D01*
X232419709Y-108617826D01*
X232450500Y-108423422D01*
X232450500Y-107976577D01*
X232419709Y-107782173D01*
X232368494Y-107624551D01*
X232358884Y-107594975D01*
X232358882Y-107594972D01*
X232358882Y-107594970D01*
X232274724Y-107429801D01*
X232269524Y-107419595D01*
X232153828Y-107260354D01*
X232014646Y-107121172D01*
X231855405Y-107005476D01*
X231680029Y-106916117D01*
X231492826Y-106855290D01*
X231298422Y-106824500D01*
X231298417Y-106824500D01*
X231101583Y-106824500D01*
X231101578Y-106824500D01*
X230907173Y-106855290D01*
X230719970Y-106916117D01*
X230544594Y-107005476D01*
X230453741Y-107071485D01*
X230385354Y-107121172D01*
X230385352Y-107121174D01*
X230385351Y-107121174D01*
X230246174Y-107260351D01*
X230246174Y-107260352D01*
X230246172Y-107260354D01*
X230196485Y-107328741D01*
X230130476Y-107419594D01*
X230060485Y-107556960D01*
X230012510Y-107607756D01*
X229944689Y-107624551D01*
X229878554Y-107602014D01*
X229839515Y-107556960D01*
X229774724Y-107429801D01*
X229769524Y-107419595D01*
X229653828Y-107260354D01*
X229514646Y-107121172D01*
X229355405Y-107005476D01*
X229180029Y-106916117D01*
X228992826Y-106855290D01*
X228798422Y-106824500D01*
X228798417Y-106824500D01*
X228601583Y-106824500D01*
X228601578Y-106824500D01*
X228407173Y-106855290D01*
X228219970Y-106916117D01*
X228044594Y-107005476D01*
X227953741Y-107071485D01*
X227885354Y-107121172D01*
X227885352Y-107121174D01*
X227885351Y-107121174D01*
X227746174Y-107260351D01*
X227746174Y-107260352D01*
X227746172Y-107260354D01*
X227696485Y-107328741D01*
X227630476Y-107419594D01*
X227560485Y-107556960D01*
X227512510Y-107607756D01*
X227444689Y-107624551D01*
X227378554Y-107602014D01*
X227339515Y-107556960D01*
X227274724Y-107429801D01*
X227269524Y-107419595D01*
X227153828Y-107260354D01*
X227014646Y-107121172D01*
X226855405Y-107005476D01*
X226680029Y-106916117D01*
X226492826Y-106855290D01*
X226298422Y-106824500D01*
X226298417Y-106824500D01*
X226101583Y-106824500D01*
X226101578Y-106824500D01*
X225907173Y-106855290D01*
X225719970Y-106916117D01*
X225544594Y-107005476D01*
X225453741Y-107071485D01*
X225385354Y-107121172D01*
X225385352Y-107121174D01*
X225385351Y-107121174D01*
X225246173Y-107260352D01*
X225158403Y-107381157D01*
X225103072Y-107423822D01*
X225033459Y-107429801D01*
X224971664Y-107397195D01*
X224939009Y-107342866D01*
X224901745Y-107214606D01*
X224901744Y-107214603D01*
X224901744Y-107214602D01*
X224818081Y-107073135D01*
X224818079Y-107073133D01*
X224818076Y-107073129D01*
X224701870Y-106956923D01*
X224701862Y-106956917D01*
X224560396Y-106873255D01*
X224560393Y-106873254D01*
X224402573Y-106827402D01*
X224402567Y-106827401D01*
X224365701Y-106824500D01*
X224365694Y-106824500D01*
X223034306Y-106824500D01*
X223034298Y-106824500D01*
X222997432Y-106827401D01*
X222997426Y-106827402D01*
X222839606Y-106873254D01*
X222839603Y-106873255D01*
X222698137Y-106956917D01*
X222698129Y-106956923D01*
X222581923Y-107073129D01*
X222581917Y-107073137D01*
X222498255Y-107214603D01*
X222498254Y-107214606D01*
X222452402Y-107372426D01*
X222452401Y-107372432D01*
X222449500Y-107409298D01*
X198400000Y-107409298D01*
X198400000Y-102369993D01*
X213429786Y-102369993D01*
X213429786Y-102370006D01*
X213448608Y-102597168D01*
X213448610Y-102597179D01*
X213504569Y-102818155D01*
X213596137Y-103026908D01*
X213720814Y-103217742D01*
X213875208Y-103385458D01*
X213875212Y-103385461D01*
X214055094Y-103525469D01*
X214055096Y-103525470D01*
X214055099Y-103525472D01*
X214171646Y-103588543D01*
X214255574Y-103633963D01*
X214367529Y-103672397D01*
X214471173Y-103707979D01*
X214471175Y-103707979D01*
X214471177Y-103707980D01*
X214696023Y-103745500D01*
X214696024Y-103745500D01*
X214923976Y-103745500D01*
X214923977Y-103745500D01*
X215148823Y-103707980D01*
X215364426Y-103633963D01*
X215564906Y-103525469D01*
X215744794Y-103385456D01*
X215899183Y-103217745D01*
X216023862Y-103026909D01*
X216115430Y-102818155D01*
X216171390Y-102597176D01*
X216190214Y-102370000D01*
X216190214Y-102369993D01*
X216171391Y-102142831D01*
X216171389Y-102142820D01*
X216115430Y-101921844D01*
X216023862Y-101713091D01*
X215899185Y-101522257D01*
X215744791Y-101354541D01*
X215744787Y-101354538D01*
X215564909Y-101214533D01*
X215564900Y-101214527D01*
X215364432Y-101106040D01*
X215364429Y-101106039D01*
X215364426Y-101106037D01*
X215364420Y-101106035D01*
X215364418Y-101106034D01*
X215148826Y-101032020D01*
X214980188Y-101003880D01*
X214923977Y-100994500D01*
X214696023Y-100994500D01*
X214651053Y-101002004D01*
X214471173Y-101032020D01*
X214255581Y-101106034D01*
X214255567Y-101106040D01*
X214055099Y-101214527D01*
X214055090Y-101214533D01*
X213875212Y-101354538D01*
X213875208Y-101354541D01*
X213720814Y-101522257D01*
X213596137Y-101713091D01*
X213504569Y-101921844D01*
X213448610Y-102142820D01*
X213448608Y-102142831D01*
X213429786Y-102369993D01*
X198400000Y-102369993D01*
X198400000Y-99520244D01*
X220285179Y-99520244D01*
X220305683Y-99689113D01*
X220305684Y-99689118D01*
X220366006Y-99848175D01*
X220428299Y-99938421D01*
X220462641Y-99988173D01*
X220568329Y-100081804D01*
X220589974Y-100100980D01*
X220740597Y-100180033D01*
X220740599Y-100180034D01*
X220905768Y-100220744D01*
X221075880Y-100220744D01*
X221241049Y-100180034D01*
X221320516Y-100138325D01*
X221391673Y-100100980D01*
X221391674Y-100100978D01*
X221391676Y-100100978D01*
X221519007Y-99988173D01*
X221615642Y-99848174D01*
X221675964Y-99689116D01*
X221696469Y-99520244D01*
X221675964Y-99351372D01*
X221615642Y-99192314D01*
X221519007Y-99052315D01*
X221391676Y-98939510D01*
X221391673Y-98939507D01*
X221241050Y-98860454D01*
X221075880Y-98819744D01*
X220905768Y-98819744D01*
X220740597Y-98860454D01*
X220589974Y-98939507D01*
X220462640Y-99052316D01*
X220366006Y-99192312D01*
X220305684Y-99351369D01*
X220305683Y-99351374D01*
X220285179Y-99520244D01*
X198400000Y-99520244D01*
X198400000Y-97851362D01*
X198419685Y-97784323D01*
X198436319Y-97763681D01*
X200163681Y-96036319D01*
X200225004Y-96002834D01*
X200251362Y-96000000D01*
X242548638Y-96000000D01*
X242615677Y-96019685D01*
G37*
%TD.AperFunction*%
%TD*%
%TA.AperFunction,Conductor*%
%TO.N,+42V*%
G36*
X226666177Y-50270185D02*
G01*
X226686819Y-50286819D01*
X228481074Y-52081074D01*
X228514559Y-52142397D01*
X228517393Y-52168755D01*
X228517393Y-74000076D01*
X229147405Y-74630088D01*
X236276000Y-74630088D01*
X236343039Y-74649773D01*
X236388794Y-74702577D01*
X236400000Y-74754088D01*
X236400000Y-80840000D01*
X238628238Y-80840000D01*
X238695277Y-80859685D01*
X238741032Y-80912489D01*
X238750976Y-80981647D01*
X238721951Y-81045203D01*
X238710472Y-81056808D01*
X238593065Y-81160822D01*
X238593064Y-81160823D01*
X238496430Y-81300819D01*
X238436108Y-81459876D01*
X238436107Y-81459881D01*
X238415603Y-81628751D01*
X238436107Y-81797620D01*
X238436108Y-81797625D01*
X238496430Y-81956682D01*
X238526331Y-82000000D01*
X238593065Y-82096680D01*
X238698753Y-82190311D01*
X238720398Y-82209487D01*
X238833547Y-82268872D01*
X238871023Y-82288541D01*
X239036192Y-82329251D01*
X239206304Y-82329251D01*
X239371473Y-82288541D01*
X239450940Y-82246832D01*
X239522097Y-82209487D01*
X239522098Y-82209485D01*
X239522100Y-82209485D01*
X239649431Y-82096680D01*
X239746066Y-81956681D01*
X239806388Y-81797623D01*
X239826893Y-81628751D01*
X239806388Y-81459879D01*
X239746066Y-81300821D01*
X239745154Y-81299500D01*
X239691706Y-81222068D01*
X239649431Y-81160822D01*
X239532029Y-81056813D01*
X239494904Y-80997626D01*
X239495672Y-80927761D01*
X239534089Y-80869401D01*
X239597960Y-80841076D01*
X239614258Y-80840000D01*
X243384665Y-80840000D01*
X243384665Y-80843473D01*
X243409473Y-80840803D01*
X243471957Y-80872069D01*
X243475155Y-80875155D01*
X244713180Y-82113180D01*
X244746665Y-82174503D01*
X244749499Y-82200861D01*
X244749499Y-93199138D01*
X244729814Y-93266177D01*
X244713180Y-93286819D01*
X242441819Y-95558181D01*
X242380496Y-95591666D01*
X242354138Y-95594500D01*
X200251346Y-95594500D01*
X200249705Y-95594544D01*
X200249704Y-95594500D01*
X200249702Y-95594500D01*
X200249702Y-95594427D01*
X200249685Y-95593820D01*
X200184356Y-95578218D01*
X200158291Y-95558291D01*
X198436319Y-93836319D01*
X198402834Y-93774996D01*
X198400000Y-93748638D01*
X198400000Y-90297736D01*
X201320423Y-90297736D01*
X201340927Y-90466605D01*
X201340928Y-90466610D01*
X201401250Y-90625667D01*
X201471400Y-90727296D01*
X201493283Y-90793651D01*
X201475818Y-90861302D01*
X201471400Y-90868176D01*
X201401251Y-90969804D01*
X201401250Y-90969804D01*
X201340928Y-91128861D01*
X201340927Y-91128866D01*
X201320423Y-91297736D01*
X201340927Y-91466605D01*
X201340928Y-91466610D01*
X201398823Y-91619266D01*
X201401250Y-91625666D01*
X201471401Y-91727298D01*
X201493284Y-91793650D01*
X201475819Y-91861301D01*
X201471401Y-91868176D01*
X201401252Y-91969804D01*
X201401251Y-91969804D01*
X201340929Y-92128861D01*
X201340928Y-92128866D01*
X201320424Y-92297736D01*
X201340928Y-92466605D01*
X201340929Y-92466610D01*
X201401251Y-92625667D01*
X201463544Y-92715913D01*
X201497886Y-92765665D01*
X201586018Y-92843743D01*
X201625219Y-92878472D01*
X201770562Y-92954754D01*
X201775844Y-92957526D01*
X201941013Y-92998236D01*
X202111125Y-92998236D01*
X202276294Y-92957526D01*
X202355761Y-92915817D01*
X202426918Y-92878472D01*
X202426919Y-92878470D01*
X202426921Y-92878470D01*
X202554252Y-92765665D01*
X202650887Y-92625666D01*
X202711209Y-92466608D01*
X202731714Y-92297736D01*
X202711209Y-92128864D01*
X202711206Y-92128856D01*
X202711155Y-92128645D01*
X202711162Y-92128479D01*
X202710305Y-92121419D01*
X202711478Y-92121276D01*
X202714222Y-92058843D01*
X202754541Y-92001780D01*
X202819309Y-91975573D01*
X202861221Y-91978569D01*
X202941012Y-91998236D01*
X202941014Y-91998236D01*
X203111124Y-91998236D01*
X203276293Y-91957526D01*
X203355760Y-91915817D01*
X203426917Y-91878472D01*
X203426918Y-91878470D01*
X203426920Y-91878470D01*
X203554251Y-91765665D01*
X203650886Y-91625666D01*
X203711208Y-91466608D01*
X203731713Y-91297736D01*
X203711208Y-91128864D01*
X203701990Y-91104559D01*
X203689668Y-91072068D01*
X203650886Y-90969806D01*
X203580734Y-90868173D01*
X203558852Y-90801822D01*
X203576317Y-90734171D01*
X203580720Y-90727317D01*
X203650886Y-90625666D01*
X203711208Y-90466608D01*
X203719296Y-90400000D01*
X220777868Y-90400000D01*
X220798372Y-90568869D01*
X220798373Y-90568874D01*
X220858695Y-90727931D01*
X220928845Y-90829560D01*
X220950728Y-90895915D01*
X220933263Y-90963566D01*
X220928845Y-90970440D01*
X220858696Y-91072068D01*
X220858695Y-91072068D01*
X220798373Y-91231125D01*
X220798372Y-91231130D01*
X220777868Y-91400000D01*
X220798372Y-91568869D01*
X220798373Y-91568874D01*
X220858695Y-91727931D01*
X220928845Y-91829560D01*
X220950728Y-91895915D01*
X220933263Y-91963566D01*
X220928845Y-91970440D01*
X220858696Y-92072068D01*
X220858695Y-92072068D01*
X220798373Y-92231125D01*
X220798372Y-92231130D01*
X220777868Y-92400000D01*
X220798372Y-92568869D01*
X220798373Y-92568874D01*
X220858695Y-92727931D01*
X220898698Y-92785884D01*
X220955330Y-92867929D01*
X221061018Y-92961560D01*
X221082663Y-92980736D01*
X221233286Y-93059789D01*
X221233288Y-93059790D01*
X221398457Y-93100500D01*
X221568569Y-93100500D01*
X221733738Y-93059790D01*
X221832213Y-93008106D01*
X221884362Y-92980736D01*
X221884363Y-92980734D01*
X221884365Y-92980734D01*
X221913690Y-92954754D01*
X225694354Y-92954754D01*
X225714858Y-93123623D01*
X225714859Y-93123628D01*
X225775181Y-93282685D01*
X225778035Y-93286819D01*
X225871816Y-93422683D01*
X225977504Y-93516314D01*
X225999149Y-93535490D01*
X226149772Y-93614543D01*
X226149774Y-93614544D01*
X226314943Y-93655254D01*
X226485055Y-93655254D01*
X226650224Y-93614544D01*
X226729691Y-93572835D01*
X226800848Y-93535490D01*
X226800849Y-93535488D01*
X226800851Y-93535488D01*
X226928182Y-93422683D01*
X227024817Y-93282684D01*
X227085139Y-93123626D01*
X227105644Y-92954754D01*
X227085139Y-92785882D01*
X227024817Y-92626824D01*
X227024018Y-92625667D01*
X226984813Y-92568869D01*
X226928182Y-92486825D01*
X226833315Y-92402780D01*
X226800848Y-92374017D01*
X226650225Y-92294964D01*
X226485055Y-92254254D01*
X226314943Y-92254254D01*
X226149772Y-92294964D01*
X225999149Y-92374017D01*
X225871815Y-92486826D01*
X225775181Y-92626822D01*
X225714859Y-92785879D01*
X225714858Y-92785884D01*
X225694354Y-92954754D01*
X221913690Y-92954754D01*
X222011696Y-92867929D01*
X222108331Y-92727930D01*
X222168653Y-92568872D01*
X222189158Y-92400000D01*
X222168653Y-92231128D01*
X222168650Y-92231122D01*
X222168601Y-92230919D01*
X222168608Y-92230757D01*
X222167749Y-92223683D01*
X222168924Y-92223540D01*
X222169956Y-92200000D01*
X230403132Y-92200000D01*
X230423636Y-92368869D01*
X230423637Y-92368874D01*
X230483959Y-92527931D01*
X230520407Y-92580734D01*
X230580594Y-92667929D01*
X230707925Y-92780734D01*
X230827983Y-92843746D01*
X230878192Y-92892328D01*
X230892731Y-92947395D01*
X230893450Y-92947308D01*
X230894081Y-92952507D01*
X230894354Y-92953540D01*
X230894354Y-92954753D01*
X230894354Y-92954754D01*
X230894691Y-92957526D01*
X230914858Y-93123623D01*
X230914859Y-93123628D01*
X230975181Y-93282685D01*
X230978035Y-93286819D01*
X231071816Y-93422683D01*
X231177504Y-93516314D01*
X231199149Y-93535490D01*
X231349772Y-93614543D01*
X231349774Y-93614544D01*
X231514943Y-93655254D01*
X231685055Y-93655254D01*
X231850224Y-93614544D01*
X231929691Y-93572835D01*
X232000848Y-93535490D01*
X232000849Y-93535488D01*
X232000851Y-93535488D01*
X232128182Y-93422683D01*
X232224817Y-93282684D01*
X232285139Y-93123626D01*
X232305644Y-92954754D01*
X232285139Y-92785882D01*
X232224817Y-92626824D01*
X232224018Y-92625667D01*
X232184813Y-92568869D01*
X232128182Y-92486825D01*
X232033315Y-92402780D01*
X232000848Y-92374017D01*
X231880796Y-92311009D01*
X231830583Y-92262424D01*
X231816044Y-92207359D01*
X231815326Y-92207447D01*
X231814694Y-92202244D01*
X231814422Y-92201213D01*
X231814422Y-92200001D01*
X231799952Y-92080833D01*
X231793917Y-92031128D01*
X231782111Y-91999999D01*
X231759498Y-91940371D01*
X231733595Y-91872070D01*
X231726171Y-91861315D01*
X231683413Y-91799370D01*
X231636960Y-91732071D01*
X231527994Y-91635536D01*
X231509626Y-91619263D01*
X231359003Y-91540210D01*
X231193833Y-91499500D01*
X231023721Y-91499500D01*
X230858550Y-91540210D01*
X230707927Y-91619263D01*
X230580593Y-91732072D01*
X230483959Y-91872068D01*
X230423637Y-92031125D01*
X230423636Y-92031130D01*
X230403132Y-92200000D01*
X222169956Y-92200000D01*
X222171661Y-92161117D01*
X222211974Y-92104050D01*
X222276741Y-92077837D01*
X222318668Y-92080832D01*
X222398458Y-92100499D01*
X222568570Y-92100499D01*
X222733739Y-92059789D01*
X222832212Y-92008106D01*
X222884363Y-91980735D01*
X222884364Y-91980733D01*
X222884366Y-91980733D01*
X223011697Y-91867928D01*
X223108332Y-91727929D01*
X223168654Y-91568871D01*
X223189159Y-91399999D01*
X223168654Y-91231127D01*
X223108332Y-91072069D01*
X223038180Y-90970436D01*
X223016298Y-90904085D01*
X223033763Y-90836434D01*
X223038181Y-90829560D01*
X223108332Y-90727930D01*
X223128405Y-90675000D01*
X232464601Y-90675000D01*
X232485105Y-90843869D01*
X232485106Y-90843874D01*
X232545428Y-91002931D01*
X232615578Y-91104560D01*
X232637461Y-91170915D01*
X232619996Y-91238566D01*
X232615578Y-91245440D01*
X232545429Y-91347069D01*
X232545428Y-91347069D01*
X232485106Y-91506126D01*
X232485105Y-91506131D01*
X232464601Y-91675001D01*
X232485105Y-91843870D01*
X232485106Y-91843875D01*
X232545428Y-92002932D01*
X232597132Y-92077837D01*
X232642063Y-92142930D01*
X232709015Y-92202244D01*
X232769396Y-92255737D01*
X232920019Y-92334790D01*
X232920021Y-92334791D01*
X233085190Y-92375501D01*
X233255302Y-92375501D01*
X233420471Y-92334791D01*
X233517938Y-92283636D01*
X233571095Y-92255737D01*
X233571096Y-92255735D01*
X233571098Y-92255735D01*
X233698429Y-92142930D01*
X233795064Y-92002931D01*
X233855386Y-91843873D01*
X233875891Y-91675001D01*
X233855386Y-91506129D01*
X233795064Y-91347071D01*
X233790328Y-91340210D01*
X233724913Y-91245440D01*
X233703030Y-91179086D01*
X233720495Y-91111434D01*
X233724898Y-91104581D01*
X233795064Y-91002930D01*
X233855386Y-90843872D01*
X233875891Y-90675000D01*
X233855386Y-90506128D01*
X233795064Y-90347070D01*
X233698429Y-90207071D01*
X233571098Y-90094266D01*
X233571095Y-90094263D01*
X233420472Y-90015210D01*
X233255302Y-89974500D01*
X233085190Y-89974500D01*
X232920019Y-90015210D01*
X232769396Y-90094263D01*
X232642062Y-90207072D01*
X232545428Y-90347068D01*
X232485106Y-90506125D01*
X232485105Y-90506130D01*
X232464601Y-90675000D01*
X223128405Y-90675000D01*
X223168654Y-90568872D01*
X223189159Y-90400000D01*
X223168654Y-90231128D01*
X223159530Y-90207071D01*
X223116750Y-90094266D01*
X223108332Y-90072070D01*
X223011697Y-89932071D01*
X222901292Y-89834261D01*
X222884363Y-89819263D01*
X222733740Y-89740210D01*
X222568570Y-89699500D01*
X222398458Y-89699500D01*
X222233287Y-89740210D01*
X222082669Y-89819261D01*
X222082665Y-89819264D01*
X222082663Y-89819265D01*
X222082662Y-89819266D01*
X222065736Y-89834261D01*
X222002501Y-89863979D01*
X221933238Y-89854792D01*
X221901286Y-89834257D01*
X221884365Y-89819266D01*
X221884363Y-89819265D01*
X221884362Y-89819264D01*
X221733739Y-89740210D01*
X221568569Y-89699500D01*
X221398457Y-89699500D01*
X221233286Y-89740210D01*
X221082663Y-89819263D01*
X220955329Y-89932072D01*
X220858695Y-90072068D01*
X220798373Y-90231125D01*
X220798372Y-90231130D01*
X220777868Y-90400000D01*
X203719296Y-90400000D01*
X203731713Y-90297736D01*
X203711208Y-90128864D01*
X203650886Y-89969806D01*
X203636480Y-89948936D01*
X203577838Y-89863979D01*
X203554251Y-89829807D01*
X203453117Y-89740210D01*
X203426917Y-89716999D01*
X203276294Y-89637946D01*
X203111124Y-89597236D01*
X202941012Y-89597236D01*
X202775841Y-89637946D01*
X202625218Y-89717000D01*
X202608295Y-89731993D01*
X202545061Y-89761714D01*
X202475798Y-89752530D01*
X202443841Y-89731993D01*
X202426920Y-89717002D01*
X202426918Y-89717001D01*
X202426917Y-89717000D01*
X202276294Y-89637946D01*
X202111124Y-89597236D01*
X201941012Y-89597236D01*
X201775841Y-89637946D01*
X201625218Y-89716999D01*
X201497884Y-89829808D01*
X201401250Y-89969804D01*
X201340928Y-90128861D01*
X201340927Y-90128866D01*
X201320423Y-90297736D01*
X198400000Y-90297736D01*
X198400000Y-89200000D01*
X227556855Y-89200000D01*
X227577359Y-89368869D01*
X227577360Y-89368874D01*
X227637682Y-89527931D01*
X227671115Y-89576366D01*
X227734317Y-89667929D01*
X227806631Y-89731993D01*
X227861650Y-89780736D01*
X227971796Y-89838545D01*
X228012275Y-89859790D01*
X228177444Y-89900500D01*
X228347556Y-89900500D01*
X228512725Y-89859790D01*
X228598619Y-89814709D01*
X228663349Y-89780736D01*
X228663350Y-89780734D01*
X228663352Y-89780734D01*
X228790683Y-89667929D01*
X228887318Y-89527930D01*
X228945822Y-89373665D01*
X228987998Y-89317964D01*
X229053596Y-89293906D01*
X229121786Y-89309132D01*
X229170920Y-89358808D01*
X229184859Y-89402689D01*
X229189859Y-89443869D01*
X229189860Y-89443874D01*
X229250182Y-89602931D01*
X229295046Y-89667927D01*
X229346817Y-89742929D01*
X229449905Y-89834257D01*
X229474150Y-89855736D01*
X229572022Y-89907103D01*
X229624775Y-89934790D01*
X229789944Y-89975500D01*
X229960056Y-89975500D01*
X230125225Y-89934790D01*
X230260143Y-89863979D01*
X230275849Y-89855736D01*
X230275850Y-89855734D01*
X230275852Y-89855734D01*
X230403183Y-89742929D01*
X230499818Y-89602930D01*
X230560140Y-89443872D01*
X230580645Y-89275000D01*
X230560140Y-89106128D01*
X230499818Y-88947070D01*
X230403183Y-88807071D01*
X230275852Y-88694266D01*
X230275849Y-88694263D01*
X230125226Y-88615210D01*
X229960056Y-88574500D01*
X229789944Y-88574500D01*
X229624773Y-88615210D01*
X229474150Y-88694263D01*
X229346816Y-88807072D01*
X229250182Y-88947068D01*
X229250182Y-88947069D01*
X229191678Y-89101333D01*
X229149500Y-89157036D01*
X229083903Y-89181093D01*
X229015712Y-89165866D01*
X228966579Y-89116190D01*
X228952640Y-89072308D01*
X228947640Y-89031131D01*
X228947639Y-89031125D01*
X228887317Y-88872068D01*
X228824273Y-88780734D01*
X228790683Y-88732071D01*
X228663352Y-88619266D01*
X228663349Y-88619263D01*
X228512726Y-88540210D01*
X228347556Y-88499500D01*
X228177444Y-88499500D01*
X228012273Y-88540210D01*
X227861650Y-88619263D01*
X227734316Y-88732072D01*
X227637682Y-88872068D01*
X227577360Y-89031125D01*
X227577359Y-89031130D01*
X227556855Y-89200000D01*
X198400000Y-89200000D01*
X198400000Y-88000000D01*
X209294355Y-88000000D01*
X209314859Y-88168869D01*
X209314860Y-88168874D01*
X209375182Y-88327931D01*
X209403442Y-88368872D01*
X209471817Y-88467929D01*
X209553406Y-88540210D01*
X209599150Y-88580736D01*
X209749773Y-88659789D01*
X209749775Y-88659790D01*
X209914944Y-88700500D01*
X210085056Y-88700500D01*
X210250225Y-88659790D01*
X210335164Y-88615210D01*
X210400849Y-88580736D01*
X210400850Y-88580734D01*
X210400852Y-88580734D01*
X210528183Y-88467929D01*
X210624818Y-88327930D01*
X210685140Y-88168872D01*
X210705645Y-88000000D01*
X211884355Y-88000000D01*
X211904859Y-88168869D01*
X211904860Y-88168874D01*
X211965182Y-88327931D01*
X211993442Y-88368872D01*
X212061817Y-88467929D01*
X212143406Y-88540210D01*
X212189150Y-88580736D01*
X212339773Y-88659789D01*
X212339775Y-88659790D01*
X212504944Y-88700500D01*
X212675056Y-88700500D01*
X212840225Y-88659790D01*
X212925164Y-88615210D01*
X212990849Y-88580736D01*
X212990850Y-88580734D01*
X212990852Y-88580734D01*
X213118183Y-88467929D01*
X213214818Y-88327930D01*
X213275140Y-88168872D01*
X213295645Y-88000000D01*
X213275140Y-87831128D01*
X213270641Y-87819266D01*
X213214817Y-87672068D01*
X213151121Y-87579790D01*
X213118183Y-87532071D01*
X212990852Y-87419266D01*
X212990849Y-87419263D01*
X212840226Y-87340210D01*
X212675056Y-87299500D01*
X212504944Y-87299500D01*
X212339773Y-87340210D01*
X212189150Y-87419263D01*
X212061816Y-87532072D01*
X211965182Y-87672068D01*
X211904860Y-87831125D01*
X211904859Y-87831130D01*
X211884355Y-88000000D01*
X210705645Y-88000000D01*
X210685140Y-87831128D01*
X210680641Y-87819266D01*
X210624817Y-87672068D01*
X210561121Y-87579790D01*
X210528183Y-87532071D01*
X210400852Y-87419266D01*
X210400849Y-87419263D01*
X210250226Y-87340210D01*
X210085056Y-87299500D01*
X209914944Y-87299500D01*
X209749773Y-87340210D01*
X209599150Y-87419263D01*
X209471816Y-87532072D01*
X209375182Y-87672068D01*
X209314860Y-87831125D01*
X209314859Y-87831130D01*
X209294355Y-88000000D01*
X198400000Y-88000000D01*
X198400000Y-83965777D01*
X201344371Y-83965777D01*
X201364875Y-84134646D01*
X201364876Y-84134651D01*
X201425198Y-84293708D01*
X201495348Y-84395337D01*
X201517231Y-84461692D01*
X201499766Y-84529343D01*
X201495348Y-84536217D01*
X201425199Y-84637845D01*
X201425198Y-84637845D01*
X201364876Y-84796902D01*
X201364875Y-84796907D01*
X201344371Y-84965777D01*
X201364875Y-85134646D01*
X201364876Y-85134651D01*
X201425198Y-85293708D01*
X201495348Y-85395337D01*
X201517231Y-85461692D01*
X201499766Y-85529343D01*
X201495348Y-85536217D01*
X201425199Y-85637845D01*
X201425198Y-85637845D01*
X201364876Y-85796902D01*
X201364875Y-85796907D01*
X201344371Y-85965777D01*
X201364875Y-86134646D01*
X201364876Y-86134651D01*
X201425198Y-86293708D01*
X201483002Y-86377450D01*
X201521833Y-86433706D01*
X201621361Y-86521880D01*
X201649166Y-86546513D01*
X201793867Y-86622458D01*
X201799791Y-86625567D01*
X201964960Y-86666277D01*
X202135072Y-86666277D01*
X202300241Y-86625567D01*
X202414223Y-86565744D01*
X202450861Y-86546515D01*
X202450862Y-86546513D01*
X202450868Y-86546511D01*
X202467789Y-86531519D01*
X202531020Y-86501799D01*
X202600283Y-86510981D01*
X202632240Y-86531518D01*
X202649164Y-86546511D01*
X202649166Y-86546512D01*
X202649170Y-86546515D01*
X202793867Y-86622458D01*
X202799791Y-86625567D01*
X202964960Y-86666277D01*
X203135072Y-86666277D01*
X203300241Y-86625567D01*
X203414223Y-86565744D01*
X203450865Y-86546513D01*
X203450866Y-86546511D01*
X203450868Y-86546511D01*
X203578199Y-86433706D01*
X203674834Y-86293707D01*
X203735156Y-86134649D01*
X203755661Y-85965777D01*
X203735156Y-85796905D01*
X203674834Y-85637847D01*
X203604682Y-85536214D01*
X203582800Y-85469863D01*
X203600265Y-85402212D01*
X203604668Y-85395358D01*
X203674834Y-85293707D01*
X203735156Y-85134649D01*
X203755661Y-84965777D01*
X203735156Y-84796905D01*
X203674834Y-84637847D01*
X203578199Y-84497848D01*
X203450868Y-84385043D01*
X203450865Y-84385040D01*
X203300242Y-84305987D01*
X203135072Y-84265277D01*
X202964960Y-84265277D01*
X202964958Y-84265277D01*
X202885172Y-84284942D01*
X202815370Y-84281872D01*
X202758308Y-84241552D01*
X202732103Y-84176783D01*
X202734582Y-84142134D01*
X202734252Y-84142094D01*
X202735064Y-84135404D01*
X202735103Y-84134863D01*
X202735156Y-84134647D01*
X202735156Y-84134646D01*
X202751505Y-84000000D01*
X220777868Y-84000000D01*
X220798372Y-84168869D01*
X220798373Y-84168874D01*
X220858695Y-84327931D01*
X220928845Y-84429560D01*
X220950728Y-84495915D01*
X220933263Y-84563566D01*
X220928845Y-84570440D01*
X220858696Y-84672068D01*
X220858695Y-84672068D01*
X220798373Y-84831125D01*
X220798372Y-84831130D01*
X220777868Y-85000000D01*
X220798372Y-85168869D01*
X220798373Y-85168874D01*
X220858695Y-85327931D01*
X220928845Y-85429560D01*
X220950728Y-85495915D01*
X220933263Y-85563566D01*
X220928845Y-85570440D01*
X220858696Y-85672068D01*
X220858695Y-85672068D01*
X220798373Y-85831125D01*
X220798372Y-85831130D01*
X220777868Y-86000000D01*
X220798372Y-86168869D01*
X220798373Y-86168874D01*
X220858695Y-86327931D01*
X220914706Y-86409075D01*
X220955330Y-86467929D01*
X221044036Y-86546515D01*
X221082663Y-86580736D01*
X221233286Y-86659789D01*
X221233288Y-86659790D01*
X221398457Y-86700500D01*
X221568569Y-86700500D01*
X221733738Y-86659790D01*
X221845874Y-86600936D01*
X221884358Y-86580738D01*
X221884359Y-86580736D01*
X221884365Y-86580734D01*
X221901286Y-86565742D01*
X221964517Y-86536022D01*
X222033780Y-86545204D01*
X222065737Y-86565741D01*
X222082661Y-86580734D01*
X222082663Y-86580735D01*
X222082667Y-86580738D01*
X222233286Y-86659789D01*
X222233288Y-86659790D01*
X222398457Y-86700500D01*
X222568569Y-86700500D01*
X222733738Y-86659790D01*
X222845874Y-86600936D01*
X222884362Y-86580736D01*
X222884363Y-86580734D01*
X222884365Y-86580734D01*
X223011696Y-86467929D01*
X223108331Y-86327930D01*
X223168653Y-86168872D01*
X223183087Y-86050000D01*
X236994354Y-86050000D01*
X237014858Y-86218869D01*
X237014859Y-86218874D01*
X237075181Y-86377931D01*
X237113913Y-86434043D01*
X237171816Y-86517929D01*
X237255504Y-86592070D01*
X237299149Y-86630736D01*
X237449772Y-86709789D01*
X237449774Y-86709790D01*
X237614943Y-86750500D01*
X237785055Y-86750500D01*
X237950224Y-86709790D01*
X238045492Y-86659789D01*
X238100848Y-86630736D01*
X238100849Y-86630734D01*
X238100851Y-86630734D01*
X238228182Y-86517929D01*
X238228185Y-86517925D01*
X238232183Y-86513413D01*
X238291372Y-86476286D01*
X238361238Y-86477052D01*
X238417815Y-86513413D01*
X238421812Y-86517925D01*
X238421815Y-86517927D01*
X238421816Y-86517929D01*
X238492710Y-86580735D01*
X238549149Y-86630736D01*
X238699772Y-86709789D01*
X238699774Y-86709790D01*
X238864943Y-86750500D01*
X239035055Y-86750500D01*
X239200224Y-86709790D01*
X239295492Y-86659789D01*
X239350848Y-86630736D01*
X239350849Y-86630734D01*
X239350851Y-86630734D01*
X239478182Y-86517929D01*
X239574817Y-86377930D01*
X239635139Y-86218872D01*
X239655644Y-86050000D01*
X239635139Y-85881128D01*
X239616177Y-85831130D01*
X239581566Y-85739866D01*
X239574817Y-85722070D01*
X239478182Y-85582071D01*
X239355311Y-85473217D01*
X239350848Y-85469263D01*
X239200225Y-85390210D01*
X239035055Y-85349500D01*
X238864943Y-85349500D01*
X238699772Y-85390210D01*
X238549149Y-85469263D01*
X238421812Y-85582074D01*
X238417811Y-85586591D01*
X238358620Y-85623715D01*
X238288755Y-85622945D01*
X238232187Y-85586591D01*
X238228185Y-85582074D01*
X238100848Y-85469263D01*
X237950225Y-85390210D01*
X237785055Y-85349500D01*
X237614943Y-85349500D01*
X237449772Y-85390210D01*
X237299149Y-85469263D01*
X237171815Y-85582072D01*
X237075181Y-85722068D01*
X237014859Y-85881125D01*
X237014858Y-85881130D01*
X236994354Y-86050000D01*
X223183087Y-86050000D01*
X223189158Y-86000000D01*
X223168653Y-85831128D01*
X223108331Y-85672070D01*
X223038179Y-85570437D01*
X223016297Y-85504086D01*
X223033762Y-85436435D01*
X223038165Y-85429581D01*
X223108331Y-85327930D01*
X223168653Y-85168872D01*
X223189158Y-85000000D01*
X223168653Y-84831128D01*
X223108331Y-84672070D01*
X223084708Y-84637847D01*
X223038180Y-84570440D01*
X223011696Y-84532071D01*
X222908682Y-84440809D01*
X222884362Y-84419263D01*
X222733739Y-84340210D01*
X222568569Y-84299500D01*
X222398457Y-84299500D01*
X222398455Y-84299500D01*
X222318669Y-84319165D01*
X222248867Y-84316095D01*
X222191805Y-84275775D01*
X222165600Y-84211006D01*
X222168079Y-84176357D01*
X222167749Y-84176317D01*
X222168561Y-84169627D01*
X222168600Y-84169086D01*
X222168653Y-84168870D01*
X222168653Y-84168869D01*
X222189158Y-84000000D01*
X222168653Y-83831128D01*
X222108331Y-83672070D01*
X222105471Y-83667927D01*
X222037098Y-83568872D01*
X222011696Y-83532071D01*
X221884365Y-83419266D01*
X221884362Y-83419263D01*
X221733739Y-83340210D01*
X221568569Y-83299500D01*
X221398457Y-83299500D01*
X221233286Y-83340210D01*
X221082663Y-83419263D01*
X220955329Y-83532072D01*
X220858695Y-83672068D01*
X220798373Y-83831125D01*
X220798372Y-83831130D01*
X220777868Y-84000000D01*
X202751505Y-84000000D01*
X202755661Y-83965777D01*
X202735156Y-83796905D01*
X202674834Y-83637847D01*
X202578199Y-83497848D01*
X202450868Y-83385043D01*
X202450865Y-83385040D01*
X202300242Y-83305987D01*
X202135072Y-83265277D01*
X201964960Y-83265277D01*
X201799789Y-83305987D01*
X201649166Y-83385040D01*
X201521832Y-83497849D01*
X201425198Y-83637845D01*
X201364876Y-83796902D01*
X201364875Y-83796907D01*
X201344371Y-83965777D01*
X198400000Y-83965777D01*
X198400000Y-83200000D01*
X213694355Y-83200000D01*
X213714859Y-83368869D01*
X213714860Y-83368874D01*
X213775182Y-83527931D01*
X213803442Y-83568872D01*
X213871817Y-83667929D01*
X213967941Y-83753087D01*
X213999150Y-83780736D01*
X214149773Y-83859789D01*
X214149775Y-83859790D01*
X214314944Y-83900500D01*
X214485056Y-83900500D01*
X214650225Y-83859790D01*
X214729692Y-83818081D01*
X214800849Y-83780736D01*
X214800850Y-83780734D01*
X214800852Y-83780734D01*
X214928183Y-83667929D01*
X215024818Y-83527930D01*
X215085140Y-83368872D01*
X215105645Y-83200000D01*
X215085140Y-83031128D01*
X215024818Y-82872070D01*
X214975071Y-82800000D01*
X230244354Y-82800000D01*
X230264858Y-82968869D01*
X230264859Y-82968874D01*
X230325181Y-83127931D01*
X230374928Y-83200000D01*
X230421816Y-83267929D01*
X230526209Y-83360413D01*
X230549149Y-83380736D01*
X230663609Y-83440809D01*
X230699774Y-83459790D01*
X230864943Y-83500500D01*
X231035055Y-83500500D01*
X231200224Y-83459790D01*
X231314143Y-83400000D01*
X231350848Y-83380736D01*
X231350849Y-83380734D01*
X231350851Y-83380734D01*
X231478182Y-83267929D01*
X231574817Y-83127930D01*
X231635139Y-82968872D01*
X231655644Y-82800000D01*
X241994354Y-82800000D01*
X242014858Y-82968869D01*
X242014859Y-82968874D01*
X242075181Y-83127931D01*
X242124928Y-83200000D01*
X242171816Y-83267929D01*
X242276209Y-83360413D01*
X242299149Y-83380736D01*
X242413609Y-83440809D01*
X242449774Y-83459790D01*
X242614943Y-83500500D01*
X242785055Y-83500500D01*
X242950224Y-83459790D01*
X243064143Y-83400000D01*
X243100848Y-83380736D01*
X243100849Y-83380734D01*
X243100851Y-83380734D01*
X243228182Y-83267929D01*
X243324817Y-83127930D01*
X243385139Y-82968872D01*
X243405644Y-82800000D01*
X243385139Y-82631128D01*
X243380640Y-82619266D01*
X243324816Y-82472068D01*
X243290475Y-82422318D01*
X243228182Y-82332071D01*
X243100851Y-82219266D01*
X243100848Y-82219263D01*
X242950225Y-82140210D01*
X242785055Y-82099500D01*
X242614943Y-82099500D01*
X242449772Y-82140210D01*
X242299149Y-82219263D01*
X242171815Y-82332072D01*
X242075181Y-82472068D01*
X242014859Y-82631125D01*
X242014858Y-82631130D01*
X241994354Y-82800000D01*
X231655644Y-82800000D01*
X231635139Y-82631128D01*
X231630640Y-82619266D01*
X231574816Y-82472068D01*
X231540475Y-82422318D01*
X231478182Y-82332071D01*
X231350851Y-82219266D01*
X231350848Y-82219263D01*
X231200225Y-82140210D01*
X231035055Y-82099500D01*
X230864943Y-82099500D01*
X230699772Y-82140210D01*
X230549149Y-82219263D01*
X230421815Y-82332072D01*
X230325181Y-82472068D01*
X230264859Y-82631125D01*
X230264858Y-82631130D01*
X230244354Y-82800000D01*
X214975071Y-82800000D01*
X214928183Y-82732071D01*
X214814244Y-82631130D01*
X214800849Y-82619263D01*
X214650226Y-82540210D01*
X214485056Y-82499500D01*
X214314944Y-82499500D01*
X214149773Y-82540210D01*
X213999150Y-82619263D01*
X213871816Y-82732072D01*
X213775182Y-82872068D01*
X213714860Y-83031125D01*
X213714859Y-83031130D01*
X213694355Y-83200000D01*
X198400000Y-83200000D01*
X198400000Y-82100000D01*
X209994355Y-82100000D01*
X210014859Y-82268869D01*
X210014860Y-82268874D01*
X210075182Y-82427931D01*
X210137475Y-82518177D01*
X210171817Y-82567929D01*
X210275507Y-82659790D01*
X210299150Y-82680736D01*
X210449773Y-82759789D01*
X210449775Y-82759790D01*
X210614944Y-82800500D01*
X210785056Y-82800500D01*
X210950225Y-82759790D01*
X211029692Y-82718081D01*
X211100849Y-82680736D01*
X211100850Y-82680734D01*
X211100852Y-82680734D01*
X211228183Y-82567929D01*
X211324818Y-82427930D01*
X211385140Y-82268872D01*
X211405645Y-82100000D01*
X211385140Y-81931128D01*
X211324818Y-81772070D01*
X211228183Y-81632071D01*
X211135544Y-81550000D01*
X233744354Y-81550000D01*
X233764858Y-81718869D01*
X233764859Y-81718874D01*
X233825181Y-81877931D01*
X233879539Y-81956681D01*
X233921816Y-82017929D01*
X234027504Y-82111560D01*
X234049149Y-82130736D01*
X234182761Y-82200861D01*
X234199774Y-82209790D01*
X234364943Y-82250500D01*
X234535055Y-82250500D01*
X234700224Y-82209790D01*
X234779691Y-82168081D01*
X234850848Y-82130736D01*
X234850849Y-82130734D01*
X234850851Y-82130734D01*
X234978182Y-82017929D01*
X235074817Y-81877930D01*
X235135139Y-81718872D01*
X235155644Y-81550000D01*
X235135139Y-81381128D01*
X235074817Y-81222070D01*
X234978182Y-81082071D01*
X234882863Y-80997626D01*
X234850848Y-80969263D01*
X234700225Y-80890210D01*
X234535055Y-80849500D01*
X234364943Y-80849500D01*
X234199772Y-80890210D01*
X234049149Y-80969263D01*
X233921815Y-81082072D01*
X233825181Y-81222068D01*
X233764859Y-81381125D01*
X233764858Y-81381130D01*
X233744354Y-81550000D01*
X211135544Y-81550000D01*
X211100852Y-81519266D01*
X211100849Y-81519263D01*
X210950226Y-81440210D01*
X210785056Y-81399500D01*
X210614944Y-81399500D01*
X210449773Y-81440210D01*
X210299150Y-81519263D01*
X210171816Y-81632072D01*
X210075182Y-81772068D01*
X210014860Y-81931125D01*
X210014859Y-81931130D01*
X209994355Y-82100000D01*
X198400000Y-82100000D01*
X198400000Y-79800000D01*
X197600000Y-79000000D01*
X213494355Y-79000000D01*
X213514859Y-79168869D01*
X213514860Y-79168874D01*
X213575182Y-79327931D01*
X213637475Y-79418177D01*
X213671817Y-79467929D01*
X213765867Y-79551250D01*
X213799150Y-79580736D01*
X213949773Y-79659789D01*
X213949775Y-79659790D01*
X214114944Y-79700500D01*
X214285056Y-79700500D01*
X214450225Y-79659790D01*
X214574654Y-79594484D01*
X214600849Y-79580736D01*
X214600850Y-79580734D01*
X214600852Y-79580734D01*
X214728183Y-79467929D01*
X214824818Y-79327930D01*
X214885140Y-79168872D01*
X214905645Y-79000000D01*
X214885140Y-78831128D01*
X214824818Y-78672070D01*
X214728183Y-78532071D01*
X214600852Y-78419266D01*
X214600849Y-78419263D01*
X214450226Y-78340210D01*
X214285056Y-78299500D01*
X214114944Y-78299500D01*
X213949773Y-78340210D01*
X213799150Y-78419263D01*
X213671816Y-78532072D01*
X213575182Y-78672068D01*
X213514860Y-78831125D01*
X213514859Y-78831130D01*
X213494355Y-79000000D01*
X197600000Y-79000000D01*
X197400000Y-78800000D01*
X195558926Y-78800000D01*
X195491887Y-78780315D01*
X195446132Y-78727511D01*
X195442984Y-78719971D01*
X195430033Y-78685821D01*
X195424818Y-78672070D01*
X195328183Y-78532071D01*
X195200852Y-78419266D01*
X195200849Y-78419263D01*
X195050226Y-78340210D01*
X194885056Y-78299500D01*
X194714944Y-78299500D01*
X194549773Y-78340210D01*
X194399150Y-78419263D01*
X194271816Y-78532072D01*
X194175182Y-78672068D01*
X194157016Y-78719971D01*
X194114838Y-78775674D01*
X194049241Y-78799731D01*
X194041074Y-78800000D01*
X175922462Y-78800000D01*
X175855423Y-78780315D01*
X175809668Y-78727511D01*
X175806522Y-78719975D01*
X175793569Y-78685820D01*
X175696934Y-78545821D01*
X175569603Y-78433016D01*
X175569600Y-78433013D01*
X175418977Y-78353960D01*
X175253807Y-78313250D01*
X175083695Y-78313250D01*
X174918524Y-78353960D01*
X174767901Y-78433013D01*
X174640567Y-78545822D01*
X174543933Y-78685818D01*
X174543932Y-78685821D01*
X174530982Y-78719970D01*
X174488805Y-78775673D01*
X174423208Y-78799731D01*
X174415040Y-78800000D01*
X103051362Y-78800000D01*
X102984323Y-78780315D01*
X102963681Y-78763681D01*
X101200000Y-77000000D01*
X107294355Y-77000000D01*
X107314859Y-77168869D01*
X107314860Y-77168874D01*
X107375182Y-77327931D01*
X107431172Y-77409045D01*
X107471817Y-77467929D01*
X107559043Y-77545204D01*
X107599150Y-77580736D01*
X107725137Y-77646859D01*
X107749775Y-77659790D01*
X107914944Y-77700500D01*
X108085056Y-77700500D01*
X108250225Y-77659790D01*
X108378421Y-77592507D01*
X108400845Y-77580738D01*
X108400846Y-77580736D01*
X108400852Y-77580734D01*
X108417773Y-77565742D01*
X108481004Y-77536022D01*
X108550267Y-77545204D01*
X108582224Y-77565741D01*
X108599148Y-77580734D01*
X108599150Y-77580735D01*
X108599154Y-77580738D01*
X108725137Y-77646859D01*
X108749775Y-77659790D01*
X108914944Y-77700500D01*
X109085056Y-77700500D01*
X109250225Y-77659790D01*
X109378421Y-77592507D01*
X109400845Y-77580738D01*
X109400846Y-77580736D01*
X109400852Y-77580734D01*
X109417773Y-77565742D01*
X109481004Y-77536022D01*
X109550267Y-77545204D01*
X109582224Y-77565741D01*
X109599148Y-77580734D01*
X109599150Y-77580735D01*
X109599154Y-77580738D01*
X109725137Y-77646859D01*
X109749775Y-77659790D01*
X109914944Y-77700500D01*
X110085056Y-77700500D01*
X110250225Y-77659790D01*
X110378421Y-77592507D01*
X110400849Y-77580736D01*
X110400850Y-77580734D01*
X110400852Y-77580734D01*
X110528183Y-77467929D01*
X110624818Y-77327930D01*
X110685140Y-77168872D01*
X110695796Y-77081115D01*
X127375470Y-77081115D01*
X127395974Y-77249984D01*
X127395975Y-77249989D01*
X127456297Y-77409046D01*
X127514176Y-77492896D01*
X127552932Y-77549044D01*
X127640158Y-77626319D01*
X127680265Y-77661851D01*
X127830888Y-77740904D01*
X127830890Y-77740905D01*
X127996059Y-77781615D01*
X128166171Y-77781615D01*
X128331340Y-77740905D01*
X128446719Y-77680349D01*
X128481960Y-77661853D01*
X128481961Y-77661851D01*
X128481967Y-77661849D01*
X128498888Y-77646857D01*
X128562119Y-77617137D01*
X128631382Y-77626319D01*
X128663339Y-77646856D01*
X128680263Y-77661849D01*
X128680265Y-77661850D01*
X128680269Y-77661853D01*
X128830888Y-77740904D01*
X128830890Y-77740905D01*
X128996059Y-77781615D01*
X129166171Y-77781615D01*
X129331340Y-77740905D01*
X129446719Y-77680349D01*
X129481960Y-77661853D01*
X129481961Y-77661851D01*
X129481967Y-77661849D01*
X129498888Y-77646857D01*
X129562119Y-77617137D01*
X129631382Y-77626319D01*
X129663339Y-77646856D01*
X129680263Y-77661849D01*
X129680265Y-77661850D01*
X129680269Y-77661853D01*
X129830888Y-77740904D01*
X129830890Y-77740905D01*
X129996059Y-77781615D01*
X130166171Y-77781615D01*
X130331340Y-77740905D01*
X130446719Y-77680349D01*
X130481964Y-77661851D01*
X130481965Y-77661849D01*
X130481967Y-77661849D01*
X130609298Y-77549044D01*
X130705933Y-77409045D01*
X130766255Y-77249987D01*
X130784514Y-77099611D01*
X147371180Y-77099611D01*
X147391684Y-77268480D01*
X147391685Y-77268485D01*
X147452007Y-77427542D01*
X147514300Y-77517788D01*
X147548642Y-77567540D01*
X147635868Y-77644815D01*
X147675975Y-77680347D01*
X147791357Y-77740904D01*
X147826600Y-77759401D01*
X147991769Y-77800111D01*
X148161881Y-77800111D01*
X148327050Y-77759401D01*
X148416372Y-77712520D01*
X148477670Y-77680349D01*
X148477671Y-77680347D01*
X148477677Y-77680345D01*
X148494598Y-77665353D01*
X148557829Y-77635633D01*
X148627092Y-77644815D01*
X148659049Y-77665352D01*
X148675973Y-77680345D01*
X148675975Y-77680346D01*
X148675979Y-77680349D01*
X148791357Y-77740904D01*
X148826600Y-77759401D01*
X148991769Y-77800111D01*
X149161881Y-77800111D01*
X149327050Y-77759401D01*
X149416372Y-77712520D01*
X149477670Y-77680349D01*
X149477671Y-77680347D01*
X149477677Y-77680345D01*
X149494598Y-77665353D01*
X149557829Y-77635633D01*
X149627092Y-77644815D01*
X149659049Y-77665352D01*
X149675973Y-77680345D01*
X149675975Y-77680346D01*
X149675979Y-77680349D01*
X149791357Y-77740904D01*
X149826600Y-77759401D01*
X149991769Y-77800111D01*
X150161881Y-77800111D01*
X150327050Y-77759401D01*
X150406517Y-77717692D01*
X150477674Y-77680347D01*
X150477675Y-77680345D01*
X150477677Y-77680345D01*
X150605008Y-77567540D01*
X150701643Y-77427541D01*
X150761965Y-77268483D01*
X150782470Y-77099611D01*
X150761965Y-76930739D01*
X150754950Y-76912243D01*
X150701642Y-76771679D01*
X150632886Y-76672070D01*
X150605008Y-76631682D01*
X150496902Y-76535909D01*
X150477674Y-76518874D01*
X150327051Y-76439821D01*
X150161881Y-76399111D01*
X149991769Y-76399111D01*
X149826598Y-76439821D01*
X149675975Y-76518875D01*
X149659052Y-76533868D01*
X149595818Y-76563589D01*
X149526555Y-76554405D01*
X149494598Y-76533868D01*
X149492570Y-76532071D01*
X149477677Y-76518877D01*
X149477675Y-76518876D01*
X149477674Y-76518875D01*
X149327051Y-76439821D01*
X149161881Y-76399111D01*
X148991769Y-76399111D01*
X148826598Y-76439821D01*
X148675975Y-76518875D01*
X148659052Y-76533868D01*
X148595818Y-76563589D01*
X148526555Y-76554405D01*
X148494598Y-76533868D01*
X148492570Y-76532071D01*
X148477677Y-76518877D01*
X148477675Y-76518876D01*
X148477674Y-76518875D01*
X148327051Y-76439821D01*
X148161881Y-76399111D01*
X147991769Y-76399111D01*
X147826598Y-76439821D01*
X147675975Y-76518874D01*
X147548641Y-76631683D01*
X147452007Y-76771679D01*
X147391685Y-76930736D01*
X147391684Y-76930741D01*
X147371180Y-77099611D01*
X130784514Y-77099611D01*
X130786760Y-77081115D01*
X130766255Y-76912243D01*
X130705933Y-76753185D01*
X130609298Y-76613186D01*
X130502845Y-76518877D01*
X130481964Y-76500378D01*
X130331341Y-76421325D01*
X130166171Y-76380615D01*
X129996059Y-76380615D01*
X129830888Y-76421325D01*
X129680265Y-76500379D01*
X129663342Y-76515372D01*
X129600108Y-76545093D01*
X129530845Y-76535909D01*
X129498888Y-76515372D01*
X129481967Y-76500381D01*
X129481965Y-76500380D01*
X129481964Y-76500379D01*
X129331341Y-76421325D01*
X129166171Y-76380615D01*
X128996059Y-76380615D01*
X128830888Y-76421325D01*
X128680265Y-76500379D01*
X128663342Y-76515372D01*
X128600108Y-76545093D01*
X128530845Y-76535909D01*
X128498888Y-76515372D01*
X128481967Y-76500381D01*
X128481965Y-76500380D01*
X128481964Y-76500379D01*
X128331341Y-76421325D01*
X128166171Y-76380615D01*
X127996059Y-76380615D01*
X127830888Y-76421325D01*
X127680265Y-76500378D01*
X127552931Y-76613187D01*
X127456297Y-76753183D01*
X127395975Y-76912240D01*
X127395974Y-76912245D01*
X127375470Y-77081115D01*
X110695796Y-77081115D01*
X110705645Y-77000000D01*
X110685140Y-76831128D01*
X110624818Y-76672070D01*
X110528183Y-76532071D01*
X110424054Y-76439821D01*
X110400849Y-76419263D01*
X110250226Y-76340210D01*
X110085056Y-76299500D01*
X109914944Y-76299500D01*
X109749773Y-76340210D01*
X109599150Y-76419264D01*
X109582227Y-76434257D01*
X109518993Y-76463978D01*
X109449730Y-76454794D01*
X109417773Y-76434257D01*
X109400852Y-76419266D01*
X109400850Y-76419265D01*
X109400849Y-76419264D01*
X109250226Y-76340210D01*
X109085056Y-76299500D01*
X108914944Y-76299500D01*
X108749773Y-76340210D01*
X108599150Y-76419264D01*
X108582227Y-76434257D01*
X108518993Y-76463978D01*
X108449730Y-76454794D01*
X108417773Y-76434257D01*
X108400852Y-76419266D01*
X108400850Y-76419265D01*
X108400849Y-76419264D01*
X108250226Y-76340210D01*
X108085056Y-76299500D01*
X107914944Y-76299500D01*
X107749773Y-76340210D01*
X107599150Y-76419263D01*
X107471816Y-76532072D01*
X107375182Y-76672068D01*
X107314860Y-76831125D01*
X107314859Y-76831130D01*
X107294355Y-77000000D01*
X101200000Y-77000000D01*
X100286819Y-76086819D01*
X100253334Y-76025496D01*
X100250500Y-75999138D01*
X100250500Y-74800000D01*
X122094355Y-74800000D01*
X122114859Y-74968869D01*
X122114860Y-74968874D01*
X122175182Y-75127931D01*
X122237475Y-75218177D01*
X122271817Y-75267929D01*
X122339546Y-75327931D01*
X122399150Y-75380736D01*
X122549773Y-75459789D01*
X122549775Y-75459790D01*
X122714944Y-75500500D01*
X122885056Y-75500500D01*
X123050225Y-75459790D01*
X123129692Y-75418081D01*
X123200849Y-75380736D01*
X123200850Y-75380734D01*
X123200852Y-75380734D01*
X123328183Y-75267929D01*
X123424818Y-75127930D01*
X123485140Y-74968872D01*
X123505645Y-74800000D01*
X142294355Y-74800000D01*
X142314859Y-74968869D01*
X142314860Y-74968874D01*
X142375182Y-75127931D01*
X142437475Y-75218177D01*
X142471817Y-75267929D01*
X142539546Y-75327931D01*
X142599150Y-75380736D01*
X142749773Y-75459789D01*
X142749775Y-75459790D01*
X142914944Y-75500500D01*
X143085056Y-75500500D01*
X143250225Y-75459790D01*
X143329692Y-75418081D01*
X143400849Y-75380736D01*
X143400850Y-75380734D01*
X143400852Y-75380734D01*
X143528183Y-75267929D01*
X143624818Y-75127930D01*
X143685140Y-74968872D01*
X143705645Y-74800000D01*
X162294355Y-74800000D01*
X162314859Y-74968869D01*
X162314860Y-74968874D01*
X162375182Y-75127931D01*
X162437475Y-75218177D01*
X162471817Y-75267929D01*
X162539546Y-75327931D01*
X162599150Y-75380736D01*
X162749773Y-75459789D01*
X162749775Y-75459790D01*
X162914944Y-75500500D01*
X163085056Y-75500500D01*
X163250225Y-75459790D01*
X163329692Y-75418081D01*
X163400849Y-75380736D01*
X163400850Y-75380734D01*
X163400852Y-75380734D01*
X163528183Y-75267929D01*
X163624818Y-75127930D01*
X163673335Y-75000000D01*
X175294355Y-75000000D01*
X175314859Y-75168869D01*
X175314860Y-75168874D01*
X175375182Y-75327931D01*
X175437475Y-75418177D01*
X175471817Y-75467929D01*
X175559043Y-75545204D01*
X175599150Y-75580736D01*
X175749773Y-75659789D01*
X175749775Y-75659790D01*
X175914944Y-75700500D01*
X176085056Y-75700500D01*
X176250225Y-75659790D01*
X176339547Y-75612909D01*
X176400845Y-75580738D01*
X176400846Y-75580736D01*
X176400852Y-75580734D01*
X176417773Y-75565742D01*
X176481004Y-75536022D01*
X176550267Y-75545204D01*
X176582224Y-75565741D01*
X176599148Y-75580734D01*
X176599150Y-75580735D01*
X176599154Y-75580738D01*
X176749773Y-75659789D01*
X176749775Y-75659790D01*
X176914944Y-75700500D01*
X177085056Y-75700500D01*
X177250225Y-75659790D01*
X177339375Y-75613000D01*
X177400849Y-75580736D01*
X177400850Y-75580734D01*
X177400852Y-75580734D01*
X177528183Y-75467929D01*
X177624818Y-75327930D01*
X177685140Y-75168872D01*
X177705645Y-75000000D01*
X181894355Y-75000000D01*
X181914859Y-75168869D01*
X181914860Y-75168874D01*
X181975182Y-75327931D01*
X182037475Y-75418177D01*
X182071817Y-75467929D01*
X182159043Y-75545204D01*
X182199150Y-75580736D01*
X182349773Y-75659789D01*
X182349775Y-75659790D01*
X182514944Y-75700500D01*
X182685056Y-75700500D01*
X182850225Y-75659790D01*
X182939375Y-75613000D01*
X183000849Y-75580736D01*
X183000850Y-75580734D01*
X183000852Y-75580734D01*
X183128183Y-75467929D01*
X183224818Y-75327930D01*
X183285140Y-75168872D01*
X183305645Y-75000000D01*
X183285140Y-74831128D01*
X183224818Y-74672070D01*
X183209427Y-74649773D01*
X183190476Y-74622318D01*
X183128183Y-74532071D01*
X183012472Y-74429560D01*
X183000849Y-74419263D01*
X182850226Y-74340210D01*
X182685056Y-74299500D01*
X182514944Y-74299500D01*
X182349773Y-74340210D01*
X182199150Y-74419263D01*
X182071816Y-74532072D01*
X181975182Y-74672068D01*
X181914860Y-74831125D01*
X181914859Y-74831130D01*
X181894355Y-75000000D01*
X177705645Y-75000000D01*
X177685140Y-74831128D01*
X177624818Y-74672070D01*
X177609427Y-74649773D01*
X177554667Y-74570439D01*
X177532784Y-74504085D01*
X177550249Y-74436433D01*
X177554652Y-74429580D01*
X177624818Y-74327929D01*
X177685140Y-74168871D01*
X177705645Y-73999999D01*
X177685140Y-73831127D01*
X177624818Y-73672069D01*
X177616342Y-73659790D01*
X177554668Y-73570440D01*
X177532785Y-73504086D01*
X177550250Y-73436434D01*
X177554668Y-73429560D01*
X177624817Y-73327932D01*
X177624816Y-73327932D01*
X177624818Y-73327931D01*
X177685140Y-73168873D01*
X177705645Y-73000001D01*
X177705645Y-73000000D01*
X195294355Y-73000000D01*
X195314859Y-73168869D01*
X195314860Y-73168874D01*
X195375182Y-73327931D01*
X195445332Y-73429559D01*
X195467215Y-73495913D01*
X195449750Y-73563565D01*
X195445332Y-73570439D01*
X195375183Y-73672067D01*
X195375182Y-73672067D01*
X195314860Y-73831124D01*
X195314859Y-73831129D01*
X195294355Y-73999999D01*
X195314859Y-74168868D01*
X195314860Y-74168873D01*
X195375182Y-74327930D01*
X195445332Y-74429559D01*
X195467215Y-74495914D01*
X195449750Y-74563565D01*
X195445332Y-74570439D01*
X195375183Y-74672068D01*
X195375182Y-74672068D01*
X195314860Y-74831125D01*
X195314859Y-74831130D01*
X195294355Y-75000000D01*
X195314859Y-75168869D01*
X195314860Y-75168874D01*
X195375182Y-75327931D01*
X195437475Y-75418177D01*
X195471817Y-75467929D01*
X195559043Y-75545204D01*
X195599150Y-75580736D01*
X195749773Y-75659789D01*
X195749775Y-75659790D01*
X195914944Y-75700500D01*
X196085056Y-75700500D01*
X196250225Y-75659790D01*
X196339547Y-75612909D01*
X196400845Y-75580738D01*
X196400846Y-75580736D01*
X196400852Y-75580734D01*
X196417773Y-75565742D01*
X196481004Y-75536022D01*
X196550267Y-75545204D01*
X196582225Y-75565740D01*
X196582229Y-75565744D01*
X196599151Y-75580736D01*
X196749774Y-75659789D01*
X196749776Y-75659790D01*
X196914945Y-75700500D01*
X197085057Y-75700500D01*
X197250226Y-75659790D01*
X197339376Y-75613000D01*
X197400850Y-75580736D01*
X197400851Y-75580734D01*
X197400853Y-75580734D01*
X197528184Y-75467929D01*
X197624819Y-75327930D01*
X197685141Y-75168872D01*
X197705646Y-75000000D01*
X197685141Y-74831128D01*
X197673336Y-74800000D01*
X201494355Y-74800000D01*
X201514859Y-74968869D01*
X201514860Y-74968874D01*
X201575182Y-75127931D01*
X201637475Y-75218177D01*
X201671817Y-75267929D01*
X201739546Y-75327931D01*
X201799150Y-75380736D01*
X201949773Y-75459789D01*
X201949775Y-75459790D01*
X202114944Y-75500500D01*
X202285056Y-75500500D01*
X202450225Y-75459790D01*
X202529692Y-75418081D01*
X202600849Y-75380736D01*
X202600850Y-75380734D01*
X202600852Y-75380734D01*
X202728183Y-75267929D01*
X202824818Y-75127930D01*
X202885140Y-74968872D01*
X202905645Y-74800000D01*
X202885140Y-74631128D01*
X202824818Y-74472070D01*
X202805837Y-74444572D01*
X202788368Y-74419263D01*
X202728183Y-74332071D01*
X202600852Y-74219266D01*
X202600849Y-74219263D01*
X202450226Y-74140210D01*
X202285056Y-74099500D01*
X202114944Y-74099500D01*
X201949773Y-74140210D01*
X201799150Y-74219263D01*
X201708582Y-74299500D01*
X201676494Y-74327928D01*
X201671816Y-74332072D01*
X201575182Y-74472068D01*
X201514860Y-74631125D01*
X201514859Y-74631130D01*
X201494355Y-74800000D01*
X197673336Y-74800000D01*
X197624819Y-74672070D01*
X197609428Y-74649773D01*
X197554668Y-74570439D01*
X197532785Y-74504085D01*
X197550250Y-74436433D01*
X197554668Y-74429559D01*
X197561775Y-74419263D01*
X197624818Y-74327930D01*
X197685140Y-74168872D01*
X197705645Y-74000000D01*
X197685140Y-73831128D01*
X197685138Y-73831124D01*
X197624818Y-73672071D01*
X197624818Y-73672070D01*
X197554666Y-73570437D01*
X197532784Y-73504086D01*
X197550249Y-73436435D01*
X197554652Y-73429581D01*
X197624818Y-73327930D01*
X197685140Y-73168872D01*
X197705645Y-73000000D01*
X215294355Y-73000000D01*
X215314859Y-73168869D01*
X215314860Y-73168874D01*
X215375182Y-73327931D01*
X215445332Y-73429560D01*
X215467215Y-73495915D01*
X215449750Y-73563566D01*
X215445332Y-73570440D01*
X215375183Y-73672068D01*
X215375182Y-73672068D01*
X215314860Y-73831125D01*
X215314859Y-73831130D01*
X215294355Y-74000000D01*
X215314859Y-74168869D01*
X215314860Y-74168874D01*
X215375182Y-74327931D01*
X215445332Y-74429560D01*
X215467215Y-74495915D01*
X215449750Y-74563566D01*
X215445332Y-74570440D01*
X215375183Y-74672068D01*
X215375182Y-74672068D01*
X215314860Y-74831125D01*
X215314859Y-74831130D01*
X215294355Y-75000000D01*
X215314859Y-75168869D01*
X215314860Y-75168874D01*
X215375182Y-75327931D01*
X215437475Y-75418177D01*
X215471817Y-75467929D01*
X215559043Y-75545204D01*
X215599150Y-75580736D01*
X215749773Y-75659789D01*
X215749775Y-75659790D01*
X215914944Y-75700500D01*
X216085056Y-75700500D01*
X216250225Y-75659790D01*
X216339547Y-75612909D01*
X216400845Y-75580738D01*
X216400846Y-75580736D01*
X216400852Y-75580734D01*
X216417773Y-75565742D01*
X216481004Y-75536022D01*
X216550267Y-75545204D01*
X216582224Y-75565741D01*
X216599148Y-75580734D01*
X216599150Y-75580735D01*
X216599154Y-75580738D01*
X216749773Y-75659789D01*
X216749775Y-75659790D01*
X216914944Y-75700500D01*
X217085056Y-75700500D01*
X217250225Y-75659790D01*
X217339375Y-75613000D01*
X217400849Y-75580736D01*
X217400850Y-75580734D01*
X217400852Y-75580734D01*
X217528183Y-75467929D01*
X217624818Y-75327930D01*
X217685140Y-75168872D01*
X217705645Y-75000000D01*
X217695020Y-74912500D01*
X221694355Y-74912500D01*
X221714859Y-75081369D01*
X221714860Y-75081374D01*
X221775182Y-75240431D01*
X221794163Y-75267929D01*
X221871817Y-75380429D01*
X221977505Y-75474060D01*
X221999150Y-75493236D01*
X222098167Y-75545204D01*
X222149775Y-75572290D01*
X222314944Y-75613000D01*
X222485056Y-75613000D01*
X222650225Y-75572290D01*
X222729692Y-75530581D01*
X222800849Y-75493236D01*
X222800850Y-75493234D01*
X222800852Y-75493234D01*
X222928183Y-75380429D01*
X223024818Y-75240430D01*
X223085140Y-75081372D01*
X223105645Y-74912500D01*
X223085140Y-74743628D01*
X223024818Y-74584570D01*
X223015065Y-74570441D01*
X222971346Y-74507103D01*
X222928183Y-74444571D01*
X222833316Y-74360526D01*
X222800849Y-74331763D01*
X222650226Y-74252710D01*
X222485056Y-74212000D01*
X222314944Y-74212000D01*
X222149773Y-74252710D01*
X221999150Y-74331763D01*
X221871816Y-74444572D01*
X221775182Y-74584568D01*
X221714860Y-74743625D01*
X221714859Y-74743630D01*
X221694355Y-74912500D01*
X217695020Y-74912500D01*
X217685140Y-74831128D01*
X217624818Y-74672070D01*
X217554666Y-74570437D01*
X217532784Y-74504086D01*
X217550249Y-74436435D01*
X217554652Y-74429581D01*
X217624818Y-74327930D01*
X217685140Y-74168872D01*
X217705645Y-74000000D01*
X217685140Y-73831128D01*
X217685138Y-73831124D01*
X217624818Y-73672071D01*
X217624818Y-73672070D01*
X217554666Y-73570437D01*
X217532784Y-73504086D01*
X217550249Y-73436435D01*
X217554652Y-73429581D01*
X217624818Y-73327930D01*
X217685140Y-73168872D01*
X217705645Y-73000000D01*
X217685140Y-72831128D01*
X217624818Y-72672070D01*
X217528183Y-72532071D01*
X217420230Y-72436433D01*
X217400849Y-72419263D01*
X217250226Y-72340210D01*
X217085056Y-72299500D01*
X216914944Y-72299500D01*
X216749773Y-72340210D01*
X216599150Y-72419264D01*
X216599148Y-72419266D01*
X216587529Y-72429560D01*
X216582227Y-72434257D01*
X216518993Y-72463978D01*
X216449730Y-72454794D01*
X216417773Y-72434257D01*
X216400852Y-72419266D01*
X216400850Y-72419265D01*
X216400849Y-72419264D01*
X216250226Y-72340210D01*
X216085056Y-72299500D01*
X215914944Y-72299500D01*
X215749773Y-72340210D01*
X215599150Y-72419263D01*
X215471816Y-72532072D01*
X215375182Y-72672068D01*
X215314860Y-72831125D01*
X215314859Y-72831130D01*
X215294355Y-73000000D01*
X197705645Y-73000000D01*
X197685140Y-72831128D01*
X197624818Y-72672070D01*
X197528183Y-72532071D01*
X197420230Y-72436433D01*
X197400849Y-72419263D01*
X197250226Y-72340210D01*
X197085056Y-72299500D01*
X196914944Y-72299500D01*
X196749773Y-72340210D01*
X196599150Y-72419264D01*
X196599148Y-72419266D01*
X196587529Y-72429560D01*
X196582227Y-72434257D01*
X196518993Y-72463978D01*
X196449730Y-72454794D01*
X196417773Y-72434257D01*
X196400852Y-72419266D01*
X196400850Y-72419265D01*
X196400849Y-72419264D01*
X196250226Y-72340210D01*
X196085056Y-72299500D01*
X195914944Y-72299500D01*
X195749773Y-72340210D01*
X195599150Y-72419263D01*
X195471816Y-72532072D01*
X195375182Y-72672068D01*
X195314860Y-72831125D01*
X195314859Y-72831130D01*
X195294355Y-73000000D01*
X177705645Y-73000000D01*
X177685140Y-72831129D01*
X177685138Y-72831125D01*
X177624817Y-72672069D01*
X177554667Y-72570441D01*
X177528183Y-72532072D01*
X177420231Y-72436435D01*
X177400849Y-72419264D01*
X177250226Y-72340211D01*
X177085056Y-72299501D01*
X176914944Y-72299501D01*
X176749773Y-72340211D01*
X176599149Y-72419265D01*
X176599147Y-72419267D01*
X176582227Y-72434257D01*
X176518994Y-72463978D01*
X176449731Y-72454794D01*
X176417774Y-72434257D01*
X176400853Y-72419266D01*
X176400851Y-72419265D01*
X176400850Y-72419264D01*
X176250227Y-72340210D01*
X176085057Y-72299500D01*
X175914945Y-72299500D01*
X175749774Y-72340210D01*
X175599151Y-72419263D01*
X175471817Y-72532072D01*
X175375183Y-72672068D01*
X175314861Y-72831125D01*
X175314860Y-72831130D01*
X175294356Y-73000000D01*
X175314860Y-73168869D01*
X175314861Y-73168874D01*
X175375183Y-73327931D01*
X175445333Y-73429559D01*
X175467216Y-73495913D01*
X175449751Y-73563565D01*
X175445333Y-73570439D01*
X175375184Y-73672067D01*
X175375183Y-73672067D01*
X175314861Y-73831124D01*
X175314860Y-73831129D01*
X175294356Y-73999999D01*
X175314860Y-74168868D01*
X175314861Y-74168873D01*
X175375183Y-74327930D01*
X175445333Y-74429558D01*
X175467216Y-74495912D01*
X175449751Y-74563564D01*
X175445333Y-74570438D01*
X175375183Y-74672068D01*
X175375182Y-74672068D01*
X175314860Y-74831125D01*
X175314859Y-74831130D01*
X175294355Y-75000000D01*
X163673335Y-75000000D01*
X163685140Y-74968872D01*
X163705645Y-74800000D01*
X163685140Y-74631128D01*
X163624818Y-74472070D01*
X163605837Y-74444572D01*
X163588368Y-74419263D01*
X163528183Y-74332071D01*
X163400852Y-74219266D01*
X163400849Y-74219263D01*
X163250226Y-74140210D01*
X163085056Y-74099500D01*
X162914944Y-74099500D01*
X162749773Y-74140210D01*
X162599150Y-74219263D01*
X162508582Y-74299500D01*
X162476494Y-74327928D01*
X162471816Y-74332072D01*
X162375182Y-74472068D01*
X162314860Y-74631125D01*
X162314859Y-74631130D01*
X162294355Y-74800000D01*
X143705645Y-74800000D01*
X143685140Y-74631128D01*
X143624818Y-74472070D01*
X143605837Y-74444572D01*
X143588368Y-74419263D01*
X143528183Y-74332071D01*
X143400852Y-74219266D01*
X143400849Y-74219263D01*
X143250226Y-74140210D01*
X143085056Y-74099500D01*
X142914944Y-74099500D01*
X142749773Y-74140210D01*
X142599150Y-74219263D01*
X142508582Y-74299500D01*
X142476494Y-74327928D01*
X142471816Y-74332072D01*
X142375182Y-74472068D01*
X142314860Y-74631125D01*
X142314859Y-74631130D01*
X142294355Y-74800000D01*
X123505645Y-74800000D01*
X123485140Y-74631128D01*
X123424818Y-74472070D01*
X123405837Y-74444572D01*
X123388368Y-74419263D01*
X123328183Y-74332071D01*
X123200852Y-74219266D01*
X123200849Y-74219263D01*
X123050226Y-74140210D01*
X122885056Y-74099500D01*
X122714944Y-74099500D01*
X122549773Y-74140210D01*
X122399150Y-74219263D01*
X122308582Y-74299500D01*
X122276494Y-74327928D01*
X122271816Y-74332072D01*
X122175182Y-74472068D01*
X122114860Y-74631125D01*
X122114859Y-74631130D01*
X122094355Y-74800000D01*
X100250500Y-74800000D01*
X100250500Y-71000000D01*
X115294355Y-71000000D01*
X115314859Y-71168869D01*
X115314860Y-71168874D01*
X115375182Y-71327931D01*
X115445332Y-71429560D01*
X115467215Y-71495915D01*
X115449750Y-71563566D01*
X115445332Y-71570440D01*
X115375183Y-71672068D01*
X115375182Y-71672068D01*
X115314860Y-71831125D01*
X115314859Y-71831130D01*
X115294355Y-72000000D01*
X115314859Y-72168869D01*
X115314860Y-72168874D01*
X115375182Y-72327931D01*
X115445332Y-72429560D01*
X115467215Y-72495915D01*
X115449750Y-72563566D01*
X115445332Y-72570440D01*
X115375183Y-72672068D01*
X115375182Y-72672068D01*
X115314860Y-72831125D01*
X115314859Y-72831130D01*
X115294355Y-73000000D01*
X115314859Y-73168869D01*
X115314860Y-73168874D01*
X115375182Y-73327931D01*
X115375183Y-73327932D01*
X115471817Y-73467929D01*
X115559043Y-73545204D01*
X115599150Y-73580736D01*
X115749773Y-73659789D01*
X115749775Y-73659790D01*
X115914944Y-73700500D01*
X116085056Y-73700500D01*
X116250225Y-73659790D01*
X116339547Y-73612909D01*
X116400845Y-73580738D01*
X116400846Y-73580736D01*
X116400852Y-73580734D01*
X116417773Y-73565742D01*
X116481004Y-73536022D01*
X116550267Y-73545204D01*
X116582225Y-73565740D01*
X116587531Y-73570441D01*
X116599151Y-73580736D01*
X116749774Y-73659789D01*
X116749776Y-73659790D01*
X116914945Y-73700500D01*
X117085057Y-73700500D01*
X117250226Y-73659790D01*
X117329693Y-73618081D01*
X117400850Y-73580736D01*
X117400851Y-73580734D01*
X117400853Y-73580734D01*
X117528184Y-73467929D01*
X117624819Y-73327930D01*
X117685141Y-73168872D01*
X117705646Y-73000000D01*
X135294354Y-73000000D01*
X135314858Y-73168869D01*
X135314859Y-73168874D01*
X135375181Y-73327931D01*
X135375182Y-73327932D01*
X135471816Y-73467929D01*
X135559042Y-73545204D01*
X135599149Y-73580736D01*
X135749772Y-73659789D01*
X135749774Y-73659790D01*
X135914943Y-73700500D01*
X136085055Y-73700500D01*
X136250224Y-73659790D01*
X136339546Y-73612909D01*
X136400844Y-73580738D01*
X136400845Y-73580736D01*
X136400851Y-73580734D01*
X136417772Y-73565742D01*
X136481003Y-73536022D01*
X136550266Y-73545204D01*
X136582224Y-73565740D01*
X136587530Y-73570441D01*
X136599150Y-73580736D01*
X136749773Y-73659789D01*
X136749775Y-73659790D01*
X136914944Y-73700500D01*
X137085056Y-73700500D01*
X137250225Y-73659790D01*
X137329692Y-73618081D01*
X137400849Y-73580736D01*
X137400850Y-73580734D01*
X137400852Y-73580734D01*
X137528183Y-73467929D01*
X137624818Y-73327930D01*
X137685140Y-73168872D01*
X137705645Y-73000000D01*
X137685140Y-72831128D01*
X137624818Y-72672070D01*
X137554666Y-72570437D01*
X137532784Y-72504086D01*
X137550249Y-72436435D01*
X137554652Y-72429581D01*
X137624818Y-72327930D01*
X137685140Y-72168872D01*
X137705645Y-72000000D01*
X155294355Y-72000000D01*
X155314859Y-72168869D01*
X155314860Y-72168874D01*
X155375182Y-72327931D01*
X155445332Y-72429560D01*
X155467215Y-72495915D01*
X155449750Y-72563566D01*
X155445332Y-72570440D01*
X155375183Y-72672068D01*
X155375182Y-72672068D01*
X155314860Y-72831125D01*
X155314859Y-72831130D01*
X155294355Y-73000000D01*
X155314859Y-73168869D01*
X155314860Y-73168874D01*
X155375182Y-73327931D01*
X155375183Y-73327932D01*
X155471817Y-73467929D01*
X155559043Y-73545204D01*
X155599150Y-73580736D01*
X155749773Y-73659789D01*
X155749775Y-73659790D01*
X155914944Y-73700500D01*
X156085056Y-73700500D01*
X156250225Y-73659790D01*
X156339547Y-73612909D01*
X156400845Y-73580738D01*
X156400846Y-73580736D01*
X156400852Y-73580734D01*
X156417773Y-73565742D01*
X156481004Y-73536022D01*
X156550267Y-73545204D01*
X156582224Y-73565741D01*
X156599148Y-73580734D01*
X156599150Y-73580735D01*
X156599154Y-73580738D01*
X156749773Y-73659789D01*
X156749775Y-73659790D01*
X156914944Y-73700500D01*
X157085056Y-73700500D01*
X157250225Y-73659790D01*
X157329692Y-73618081D01*
X157400849Y-73580736D01*
X157400850Y-73580734D01*
X157400852Y-73580734D01*
X157528183Y-73467929D01*
X157624818Y-73327930D01*
X157685140Y-73168872D01*
X157705645Y-73000000D01*
X157685140Y-72831128D01*
X157624818Y-72672070D01*
X157554666Y-72570437D01*
X157532784Y-72504086D01*
X157550249Y-72436435D01*
X157554652Y-72429581D01*
X157624818Y-72327930D01*
X157685140Y-72168872D01*
X157705645Y-72000000D01*
X157685140Y-71831128D01*
X157624818Y-71672070D01*
X157554666Y-71570437D01*
X157532784Y-71504086D01*
X157550249Y-71436435D01*
X157554652Y-71429581D01*
X157624818Y-71327930D01*
X157685140Y-71168872D01*
X157705645Y-71000000D01*
X157685140Y-70831128D01*
X157673335Y-70800000D01*
X167894355Y-70800000D01*
X167914859Y-70968869D01*
X167914860Y-70968874D01*
X167975182Y-71127931D01*
X168011633Y-71180738D01*
X168071817Y-71267929D01*
X168159043Y-71345204D01*
X168199150Y-71380736D01*
X168305276Y-71436435D01*
X168349775Y-71459790D01*
X168514944Y-71500500D01*
X168685056Y-71500500D01*
X168850225Y-71459790D01*
X168939547Y-71412909D01*
X169000845Y-71380738D01*
X169000846Y-71380736D01*
X169000852Y-71380734D01*
X169017773Y-71365742D01*
X169081004Y-71336022D01*
X169150267Y-71345204D01*
X169182224Y-71365741D01*
X169199148Y-71380734D01*
X169199150Y-71380735D01*
X169199154Y-71380738D01*
X169305276Y-71436435D01*
X169349775Y-71459790D01*
X169514944Y-71500500D01*
X169685056Y-71500500D01*
X169850225Y-71459790D01*
X169939547Y-71412909D01*
X170000845Y-71380738D01*
X170000846Y-71380736D01*
X170000852Y-71380734D01*
X170017773Y-71365742D01*
X170081004Y-71336022D01*
X170150267Y-71345204D01*
X170182224Y-71365741D01*
X170199148Y-71380734D01*
X170199150Y-71380735D01*
X170199154Y-71380738D01*
X170305276Y-71436435D01*
X170349775Y-71459790D01*
X170514944Y-71500500D01*
X170685056Y-71500500D01*
X170850225Y-71459790D01*
X170929692Y-71418081D01*
X171000849Y-71380736D01*
X171000850Y-71380734D01*
X171000852Y-71380734D01*
X171128183Y-71267929D01*
X171224818Y-71127930D01*
X171285140Y-70968872D01*
X171305645Y-70800000D01*
X171285140Y-70631128D01*
X171273335Y-70600000D01*
X187694355Y-70600000D01*
X187714859Y-70768869D01*
X187714860Y-70768874D01*
X187775182Y-70927931D01*
X187824929Y-71000000D01*
X187871817Y-71067929D01*
X187959043Y-71145204D01*
X187999150Y-71180736D01*
X188149773Y-71259789D01*
X188149775Y-71259790D01*
X188314944Y-71300500D01*
X188485056Y-71300500D01*
X188650225Y-71259790D01*
X188739547Y-71212909D01*
X188800845Y-71180738D01*
X188800846Y-71180736D01*
X188800852Y-71180734D01*
X188817773Y-71165742D01*
X188881004Y-71136022D01*
X188950267Y-71145204D01*
X188982224Y-71165741D01*
X188999148Y-71180734D01*
X188999150Y-71180735D01*
X188999154Y-71180738D01*
X189149773Y-71259789D01*
X189149775Y-71259790D01*
X189314944Y-71300500D01*
X189485056Y-71300500D01*
X189650225Y-71259790D01*
X189739547Y-71212909D01*
X189800845Y-71180738D01*
X189800846Y-71180736D01*
X189800852Y-71180734D01*
X189817773Y-71165742D01*
X189881004Y-71136022D01*
X189950267Y-71145204D01*
X189982224Y-71165741D01*
X189999148Y-71180734D01*
X189999150Y-71180735D01*
X189999154Y-71180738D01*
X190149773Y-71259789D01*
X190149775Y-71259790D01*
X190314944Y-71300500D01*
X190485056Y-71300500D01*
X190650225Y-71259790D01*
X190729692Y-71218081D01*
X190800849Y-71180736D01*
X190800850Y-71180734D01*
X190800852Y-71180734D01*
X190928183Y-71067929D01*
X191024818Y-70927930D01*
X191085140Y-70768872D01*
X191105645Y-70600000D01*
X207894355Y-70600000D01*
X207914859Y-70768869D01*
X207914860Y-70768874D01*
X207975182Y-70927931D01*
X208024929Y-71000000D01*
X208071817Y-71067929D01*
X208159043Y-71145204D01*
X208199150Y-71180736D01*
X208349773Y-71259789D01*
X208349775Y-71259790D01*
X208514944Y-71300500D01*
X208685056Y-71300500D01*
X208850225Y-71259790D01*
X208939547Y-71212909D01*
X209000845Y-71180738D01*
X209000846Y-71180736D01*
X209000852Y-71180734D01*
X209017773Y-71165742D01*
X209081004Y-71136022D01*
X209150267Y-71145204D01*
X209182224Y-71165741D01*
X209199148Y-71180734D01*
X209199150Y-71180735D01*
X209199154Y-71180738D01*
X209349773Y-71259789D01*
X209349775Y-71259790D01*
X209514944Y-71300500D01*
X209685056Y-71300500D01*
X209850225Y-71259790D01*
X209939547Y-71212909D01*
X210000845Y-71180738D01*
X210000846Y-71180736D01*
X210000852Y-71180734D01*
X210017773Y-71165742D01*
X210081004Y-71136022D01*
X210150267Y-71145204D01*
X210182224Y-71165741D01*
X210199148Y-71180734D01*
X210199150Y-71180735D01*
X210199154Y-71180738D01*
X210349773Y-71259789D01*
X210349775Y-71259790D01*
X210514944Y-71300500D01*
X210685056Y-71300500D01*
X210850225Y-71259790D01*
X210929692Y-71218081D01*
X211000849Y-71180736D01*
X211000850Y-71180734D01*
X211000852Y-71180734D01*
X211128183Y-71067929D01*
X211224818Y-70927930D01*
X211285140Y-70768872D01*
X211305645Y-70600000D01*
X211285140Y-70431128D01*
X211280641Y-70419266D01*
X211224817Y-70272068D01*
X211153147Y-70168238D01*
X211128183Y-70132071D01*
X211031772Y-70046659D01*
X211000849Y-70019263D01*
X210850226Y-69940210D01*
X210685056Y-69899500D01*
X210514944Y-69899500D01*
X210349773Y-69940210D01*
X210199150Y-70019264D01*
X210182227Y-70034257D01*
X210118993Y-70063978D01*
X210049730Y-70054794D01*
X210017773Y-70034257D01*
X210000852Y-70019266D01*
X210000850Y-70019265D01*
X210000849Y-70019264D01*
X209850226Y-69940210D01*
X209685056Y-69899500D01*
X209514944Y-69899500D01*
X209349773Y-69940210D01*
X209199150Y-70019264D01*
X209182227Y-70034257D01*
X209118993Y-70063978D01*
X209049730Y-70054794D01*
X209017773Y-70034257D01*
X209000852Y-70019266D01*
X209000850Y-70019265D01*
X209000849Y-70019264D01*
X208850226Y-69940210D01*
X208685056Y-69899500D01*
X208514944Y-69899500D01*
X208349773Y-69940210D01*
X208199150Y-70019263D01*
X208071816Y-70132072D01*
X207975182Y-70272068D01*
X207914860Y-70431125D01*
X207914859Y-70431130D01*
X207894355Y-70600000D01*
X191105645Y-70600000D01*
X191085140Y-70431128D01*
X191080641Y-70419266D01*
X191024817Y-70272068D01*
X190953147Y-70168238D01*
X190928183Y-70132071D01*
X190831772Y-70046659D01*
X190800849Y-70019263D01*
X190650226Y-69940210D01*
X190485056Y-69899500D01*
X190314944Y-69899500D01*
X190149773Y-69940210D01*
X189999150Y-70019264D01*
X189982227Y-70034257D01*
X189918993Y-70063978D01*
X189849730Y-70054794D01*
X189817773Y-70034257D01*
X189800852Y-70019266D01*
X189800850Y-70019265D01*
X189800849Y-70019264D01*
X189650226Y-69940210D01*
X189485056Y-69899500D01*
X189314944Y-69899500D01*
X189149773Y-69940210D01*
X188999150Y-70019264D01*
X188982227Y-70034257D01*
X188918993Y-70063978D01*
X188849730Y-70054794D01*
X188817773Y-70034257D01*
X188800852Y-70019266D01*
X188800850Y-70019265D01*
X188800849Y-70019264D01*
X188650226Y-69940210D01*
X188485056Y-69899500D01*
X188314944Y-69899500D01*
X188149773Y-69940210D01*
X187999150Y-70019263D01*
X187871816Y-70132072D01*
X187775182Y-70272068D01*
X187714860Y-70431125D01*
X187714859Y-70431130D01*
X187694355Y-70600000D01*
X171273335Y-70600000D01*
X171224818Y-70472070D01*
X171221958Y-70467927D01*
X171134473Y-70341184D01*
X171128183Y-70332071D01*
X171033316Y-70248026D01*
X171000849Y-70219263D01*
X170850226Y-70140210D01*
X170685056Y-70099500D01*
X170514944Y-70099500D01*
X170349773Y-70140210D01*
X170199150Y-70219264D01*
X170182227Y-70234257D01*
X170118993Y-70263978D01*
X170049730Y-70254794D01*
X170017773Y-70234257D01*
X170000852Y-70219266D01*
X170000850Y-70219265D01*
X170000849Y-70219264D01*
X169850226Y-70140210D01*
X169685056Y-70099500D01*
X169514944Y-70099500D01*
X169349773Y-70140210D01*
X169199150Y-70219264D01*
X169182227Y-70234257D01*
X169118993Y-70263978D01*
X169049730Y-70254794D01*
X169017773Y-70234257D01*
X169000852Y-70219266D01*
X169000850Y-70219265D01*
X169000849Y-70219264D01*
X168850226Y-70140210D01*
X168685056Y-70099500D01*
X168514944Y-70099500D01*
X168349773Y-70140210D01*
X168199150Y-70219263D01*
X168071816Y-70332072D01*
X167975182Y-70472068D01*
X167914860Y-70631125D01*
X167914859Y-70631130D01*
X167894355Y-70800000D01*
X157673335Y-70800000D01*
X157624818Y-70672070D01*
X157528183Y-70532071D01*
X157417775Y-70434258D01*
X157400849Y-70419263D01*
X157250226Y-70340210D01*
X157085056Y-70299500D01*
X156914944Y-70299500D01*
X156749773Y-70340210D01*
X156599151Y-70419263D01*
X156599149Y-70419265D01*
X156582225Y-70434258D01*
X156518991Y-70463977D01*
X156449727Y-70454792D01*
X156417774Y-70434256D01*
X156400853Y-70419266D01*
X156400851Y-70419264D01*
X156250227Y-70340210D01*
X156085057Y-70299500D01*
X155914945Y-70299500D01*
X155749774Y-70340210D01*
X155599151Y-70419263D01*
X155471817Y-70532072D01*
X155375183Y-70672068D01*
X155314861Y-70831125D01*
X155314860Y-70831130D01*
X155294356Y-71000000D01*
X155314860Y-71168869D01*
X155314861Y-71168874D01*
X155375183Y-71327931D01*
X155445333Y-71429559D01*
X155467216Y-71495913D01*
X155449751Y-71563565D01*
X155445333Y-71570439D01*
X155375183Y-71672068D01*
X155375182Y-71672068D01*
X155314860Y-71831125D01*
X155314859Y-71831130D01*
X155294355Y-72000000D01*
X137705645Y-72000000D01*
X137685140Y-71831128D01*
X137624818Y-71672070D01*
X137554666Y-71570437D01*
X137532784Y-71504086D01*
X137550249Y-71436435D01*
X137554652Y-71429581D01*
X137624818Y-71327930D01*
X137685140Y-71168872D01*
X137705645Y-71000000D01*
X137685140Y-70831128D01*
X137624818Y-70672070D01*
X137528183Y-70532071D01*
X137417775Y-70434258D01*
X137400849Y-70419263D01*
X137250226Y-70340210D01*
X137085056Y-70299500D01*
X136914944Y-70299500D01*
X136749773Y-70340210D01*
X136599150Y-70419264D01*
X136599148Y-70419266D01*
X136585757Y-70431130D01*
X136582227Y-70434257D01*
X136518993Y-70463978D01*
X136449730Y-70454794D01*
X136417773Y-70434257D01*
X136417772Y-70434256D01*
X136400852Y-70419266D01*
X136400850Y-70419265D01*
X136400849Y-70419264D01*
X136250226Y-70340210D01*
X136085056Y-70299500D01*
X135914944Y-70299500D01*
X135749773Y-70340210D01*
X135599150Y-70419263D01*
X135471816Y-70532072D01*
X135375182Y-70672068D01*
X135314860Y-70831125D01*
X135314859Y-70831130D01*
X135294355Y-71000000D01*
X135314859Y-71168869D01*
X135314860Y-71168874D01*
X135375182Y-71327931D01*
X135445332Y-71429560D01*
X135467215Y-71495915D01*
X135449750Y-71563566D01*
X135445332Y-71570440D01*
X135375183Y-71672068D01*
X135375182Y-71672068D01*
X135314860Y-71831125D01*
X135314859Y-71831130D01*
X135294355Y-72000000D01*
X135314859Y-72168869D01*
X135314860Y-72168874D01*
X135375182Y-72327931D01*
X135445332Y-72429559D01*
X135467215Y-72495913D01*
X135449750Y-72563565D01*
X135445332Y-72570439D01*
X135375182Y-72672068D01*
X135375181Y-72672068D01*
X135314859Y-72831125D01*
X135314858Y-72831130D01*
X135294354Y-73000000D01*
X117705646Y-73000000D01*
X117685141Y-72831128D01*
X117624819Y-72672070D01*
X117599576Y-72635500D01*
X117554668Y-72570439D01*
X117532785Y-72504085D01*
X117550250Y-72436433D01*
X117554668Y-72429559D01*
X117561773Y-72419266D01*
X117624818Y-72327930D01*
X117685140Y-72168872D01*
X117705645Y-72000000D01*
X117685140Y-71831128D01*
X117624818Y-71672070D01*
X117554666Y-71570437D01*
X117532784Y-71504086D01*
X117550249Y-71436435D01*
X117554652Y-71429581D01*
X117624818Y-71327930D01*
X117685140Y-71168872D01*
X117705645Y-71000000D01*
X117685140Y-70831128D01*
X117624818Y-70672070D01*
X117528183Y-70532071D01*
X117417775Y-70434258D01*
X117400849Y-70419263D01*
X117250226Y-70340210D01*
X117085056Y-70299500D01*
X116914944Y-70299500D01*
X116749773Y-70340210D01*
X116599150Y-70419264D01*
X116599148Y-70419266D01*
X116585757Y-70431130D01*
X116582227Y-70434257D01*
X116518993Y-70463978D01*
X116449730Y-70454794D01*
X116417773Y-70434257D01*
X116417772Y-70434256D01*
X116400852Y-70419266D01*
X116400850Y-70419265D01*
X116400849Y-70419264D01*
X116250226Y-70340210D01*
X116085056Y-70299500D01*
X115914944Y-70299500D01*
X115749773Y-70340210D01*
X115599150Y-70419263D01*
X115471816Y-70532072D01*
X115375182Y-70672068D01*
X115314860Y-70831125D01*
X115314859Y-70831130D01*
X115294355Y-71000000D01*
X100250500Y-71000000D01*
X100250500Y-69760446D01*
X107328562Y-69760446D01*
X107349066Y-69929315D01*
X107349067Y-69929320D01*
X107409389Y-70088377D01*
X107458619Y-70159697D01*
X107506024Y-70228375D01*
X107586308Y-70299500D01*
X107633357Y-70341182D01*
X107756955Y-70406051D01*
X107783982Y-70420236D01*
X107949151Y-70460946D01*
X108119263Y-70460946D01*
X108284432Y-70420236D01*
X108373754Y-70373355D01*
X108435052Y-70341184D01*
X108435053Y-70341182D01*
X108435059Y-70341180D01*
X108451980Y-70326188D01*
X108515211Y-70296468D01*
X108584474Y-70305650D01*
X108616431Y-70326187D01*
X108633355Y-70341180D01*
X108633357Y-70341181D01*
X108633361Y-70341184D01*
X108756955Y-70406051D01*
X108783982Y-70420236D01*
X108949151Y-70460946D01*
X109119263Y-70460946D01*
X109284432Y-70420236D01*
X109373754Y-70373355D01*
X109435052Y-70341184D01*
X109435053Y-70341182D01*
X109435059Y-70341180D01*
X109451980Y-70326188D01*
X109515211Y-70296468D01*
X109584474Y-70305650D01*
X109616432Y-70326186D01*
X109616436Y-70326190D01*
X109633358Y-70341182D01*
X109756956Y-70406051D01*
X109783983Y-70420236D01*
X109949152Y-70460946D01*
X110119264Y-70460946D01*
X110284433Y-70420236D01*
X110368090Y-70376329D01*
X110435057Y-70341182D01*
X110435058Y-70341180D01*
X110435060Y-70341180D01*
X110562391Y-70228375D01*
X110659026Y-70088376D01*
X110719348Y-69929318D01*
X110730156Y-69840307D01*
X127372155Y-69840307D01*
X127392659Y-70009176D01*
X127392660Y-70009181D01*
X127452982Y-70168238D01*
X127511726Y-70253342D01*
X127549617Y-70308236D01*
X127636843Y-70385511D01*
X127676950Y-70421043D01*
X127827573Y-70500096D01*
X127827575Y-70500097D01*
X127992744Y-70540807D01*
X128162856Y-70540807D01*
X128328025Y-70500097D01*
X128417347Y-70453216D01*
X128478645Y-70421045D01*
X128478646Y-70421043D01*
X128478652Y-70421041D01*
X128495573Y-70406049D01*
X128558804Y-70376329D01*
X128628067Y-70385511D01*
X128660024Y-70406048D01*
X128676948Y-70421041D01*
X128676950Y-70421042D01*
X128676954Y-70421045D01*
X128827573Y-70500096D01*
X128827575Y-70500097D01*
X128992744Y-70540807D01*
X129162856Y-70540807D01*
X129328025Y-70500097D01*
X129417347Y-70453216D01*
X129478645Y-70421045D01*
X129478646Y-70421043D01*
X129478652Y-70421041D01*
X129495573Y-70406049D01*
X129558804Y-70376329D01*
X129628067Y-70385511D01*
X129660024Y-70406048D01*
X129676948Y-70421041D01*
X129676950Y-70421042D01*
X129676954Y-70421045D01*
X129827573Y-70500096D01*
X129827575Y-70500097D01*
X129992744Y-70540807D01*
X130162856Y-70540807D01*
X130328025Y-70500097D01*
X130414346Y-70454792D01*
X130478649Y-70421043D01*
X130478650Y-70421041D01*
X130478652Y-70421041D01*
X130605983Y-70308236D01*
X130702618Y-70168237D01*
X130762940Y-70009179D01*
X130764055Y-70000000D01*
X147494356Y-70000000D01*
X147514860Y-70168869D01*
X147514861Y-70168874D01*
X147575183Y-70327931D01*
X147629106Y-70406051D01*
X147671818Y-70467929D01*
X147748681Y-70536023D01*
X147799151Y-70580736D01*
X147949774Y-70659789D01*
X147949776Y-70659790D01*
X148114945Y-70700500D01*
X148285057Y-70700500D01*
X148450226Y-70659790D01*
X148564145Y-70600000D01*
X148600846Y-70580738D01*
X148600851Y-70580735D01*
X148600850Y-70580735D01*
X148600853Y-70580734D01*
X148617773Y-70565743D01*
X148681004Y-70536023D01*
X148750268Y-70545205D01*
X148782225Y-70565741D01*
X148799148Y-70580734D01*
X148799150Y-70580735D01*
X148895168Y-70631130D01*
X148949775Y-70659790D01*
X149114944Y-70700500D01*
X149285056Y-70700500D01*
X149450225Y-70659790D01*
X149564144Y-70600000D01*
X149600845Y-70580738D01*
X149600846Y-70580736D01*
X149600852Y-70580734D01*
X149617773Y-70565742D01*
X149681004Y-70536022D01*
X149750267Y-70545204D01*
X149782224Y-70565741D01*
X149799148Y-70580734D01*
X149799150Y-70580735D01*
X149799154Y-70580738D01*
X149949773Y-70659789D01*
X149949775Y-70659790D01*
X150114944Y-70700500D01*
X150285056Y-70700500D01*
X150450225Y-70659790D01*
X150564144Y-70600000D01*
X150600849Y-70580736D01*
X150600850Y-70580734D01*
X150600852Y-70580734D01*
X150728183Y-70467929D01*
X150824818Y-70327930D01*
X150885140Y-70168872D01*
X150905645Y-70000000D01*
X150885140Y-69831128D01*
X150824818Y-69672070D01*
X150823734Y-69670500D01*
X150781828Y-69609789D01*
X150728183Y-69532071D01*
X150617775Y-69434258D01*
X150600849Y-69419263D01*
X150450226Y-69340210D01*
X150285056Y-69299500D01*
X150114944Y-69299500D01*
X149949773Y-69340210D01*
X149799150Y-69419264D01*
X149782227Y-69434257D01*
X149718993Y-69463978D01*
X149649730Y-69454794D01*
X149617773Y-69434257D01*
X149615806Y-69432514D01*
X149600852Y-69419266D01*
X149600850Y-69419265D01*
X149600849Y-69419264D01*
X149450226Y-69340210D01*
X149285056Y-69299500D01*
X149114944Y-69299500D01*
X148949773Y-69340210D01*
X148799151Y-69419263D01*
X148799149Y-69419265D01*
X148782225Y-69434258D01*
X148718991Y-69463977D01*
X148649727Y-69454792D01*
X148617774Y-69434256D01*
X148600853Y-69419266D01*
X148600851Y-69419264D01*
X148450227Y-69340210D01*
X148285057Y-69299500D01*
X148114945Y-69299500D01*
X147949774Y-69340210D01*
X147799151Y-69419263D01*
X147671817Y-69532072D01*
X147575183Y-69672068D01*
X147514861Y-69831125D01*
X147514860Y-69831130D01*
X147494356Y-70000000D01*
X130764055Y-70000000D01*
X130783445Y-69840307D01*
X130762940Y-69671435D01*
X130762585Y-69670500D01*
X130717164Y-69550733D01*
X130702618Y-69512377D01*
X130605983Y-69372378D01*
X130499373Y-69277930D01*
X130478649Y-69259570D01*
X130328026Y-69180517D01*
X130162856Y-69139807D01*
X129992744Y-69139807D01*
X129827573Y-69180517D01*
X129676950Y-69259571D01*
X129660027Y-69274564D01*
X129596793Y-69304285D01*
X129527530Y-69295101D01*
X129495573Y-69274564D01*
X129487655Y-69267549D01*
X129478652Y-69259573D01*
X129478650Y-69259572D01*
X129478649Y-69259571D01*
X129328026Y-69180517D01*
X129162856Y-69139807D01*
X128992744Y-69139807D01*
X128827573Y-69180517D01*
X128676950Y-69259571D01*
X128660027Y-69274564D01*
X128596793Y-69304285D01*
X128527530Y-69295101D01*
X128495573Y-69274564D01*
X128487655Y-69267549D01*
X128478652Y-69259573D01*
X128478650Y-69259572D01*
X128478649Y-69259571D01*
X128328026Y-69180517D01*
X128162856Y-69139807D01*
X127992744Y-69139807D01*
X127827573Y-69180517D01*
X127676950Y-69259570D01*
X127549616Y-69372379D01*
X127452982Y-69512375D01*
X127392660Y-69671432D01*
X127392659Y-69671437D01*
X127372155Y-69840307D01*
X110730156Y-69840307D01*
X110739853Y-69760446D01*
X110719348Y-69591574D01*
X110703858Y-69550731D01*
X110661078Y-69437927D01*
X110659026Y-69432516D01*
X110649879Y-69419265D01*
X110595311Y-69340210D01*
X110562391Y-69292517D01*
X110451986Y-69194707D01*
X110435057Y-69179709D01*
X110284434Y-69100656D01*
X110119264Y-69059946D01*
X109949152Y-69059946D01*
X109783981Y-69100656D01*
X109633363Y-69179707D01*
X109633359Y-69179710D01*
X109633357Y-69179711D01*
X109633356Y-69179712D01*
X109616430Y-69194707D01*
X109553195Y-69224425D01*
X109483932Y-69215238D01*
X109451980Y-69194703D01*
X109444334Y-69187929D01*
X109435059Y-69179712D01*
X109435057Y-69179711D01*
X109435056Y-69179710D01*
X109284433Y-69100656D01*
X109119263Y-69059946D01*
X108949151Y-69059946D01*
X108783980Y-69100656D01*
X108633357Y-69179710D01*
X108616434Y-69194703D01*
X108553200Y-69224424D01*
X108483937Y-69215240D01*
X108451980Y-69194703D01*
X108444334Y-69187929D01*
X108435059Y-69179712D01*
X108435057Y-69179711D01*
X108435056Y-69179710D01*
X108284433Y-69100656D01*
X108119263Y-69059946D01*
X107949151Y-69059946D01*
X107783980Y-69100656D01*
X107633357Y-69179709D01*
X107506023Y-69292518D01*
X107409389Y-69432514D01*
X107349067Y-69591571D01*
X107349066Y-69591576D01*
X107328562Y-69760446D01*
X100250500Y-69760446D01*
X100250500Y-68950000D01*
X123976853Y-68950000D01*
X123997357Y-69118869D01*
X123997358Y-69118874D01*
X124057680Y-69277931D01*
X124092193Y-69327931D01*
X124154315Y-69417929D01*
X124210754Y-69467929D01*
X124281648Y-69530736D01*
X124397569Y-69591576D01*
X124432273Y-69609790D01*
X124597442Y-69650500D01*
X124767554Y-69650500D01*
X124932723Y-69609790D01*
X125045244Y-69550734D01*
X125083347Y-69530736D01*
X125083348Y-69530734D01*
X125083350Y-69530734D01*
X125210681Y-69417929D01*
X125307316Y-69277930D01*
X125367638Y-69118872D01*
X125385715Y-68969997D01*
X144326853Y-68969997D01*
X144347357Y-69138866D01*
X144347358Y-69138871D01*
X144407680Y-69297928D01*
X144459070Y-69372378D01*
X144504315Y-69437926D01*
X144538182Y-69467929D01*
X144631648Y-69550733D01*
X144744170Y-69609789D01*
X144782273Y-69629787D01*
X144947442Y-69670497D01*
X145117554Y-69670497D01*
X145282723Y-69629787D01*
X145376185Y-69580734D01*
X145433347Y-69550733D01*
X145433348Y-69550731D01*
X145433350Y-69550731D01*
X145560681Y-69437926D01*
X145657316Y-69297927D01*
X145717638Y-69138869D01*
X145734500Y-69000000D01*
X164326854Y-69000000D01*
X164347358Y-69168869D01*
X164347359Y-69168874D01*
X164407681Y-69327931D01*
X164469802Y-69417927D01*
X164504316Y-69467929D01*
X164597783Y-69550733D01*
X164631649Y-69580736D01*
X164782272Y-69659789D01*
X164782274Y-69659790D01*
X164947443Y-69700500D01*
X165117555Y-69700500D01*
X165282724Y-69659790D01*
X165412694Y-69591576D01*
X165433348Y-69580736D01*
X165433349Y-69580734D01*
X165433351Y-69580734D01*
X165560682Y-69467929D01*
X165657317Y-69327930D01*
X165717639Y-69168872D01*
X165738144Y-69000000D01*
X165734501Y-68970000D01*
X183926853Y-68970000D01*
X183947357Y-69138869D01*
X183947358Y-69138874D01*
X184007680Y-69297931D01*
X184059068Y-69372378D01*
X184104315Y-69437929D01*
X184188350Y-69512377D01*
X184231648Y-69550736D01*
X184382265Y-69629786D01*
X184382273Y-69629790D01*
X184547442Y-69670500D01*
X184717554Y-69670500D01*
X184882723Y-69629790D01*
X184976187Y-69580736D01*
X185033347Y-69550736D01*
X185033348Y-69550734D01*
X185033350Y-69550734D01*
X185160681Y-69437929D01*
X185257316Y-69297930D01*
X185317638Y-69138872D01*
X185338143Y-68970000D01*
X185317638Y-68801128D01*
X185286871Y-68720000D01*
X203589354Y-68720000D01*
X203609858Y-68888869D01*
X203609859Y-68888874D01*
X203670181Y-69047931D01*
X203678475Y-69059946D01*
X203766816Y-69187929D01*
X203847686Y-69259573D01*
X203894149Y-69300736D01*
X204044772Y-69379789D01*
X204044774Y-69379790D01*
X204209943Y-69420500D01*
X204380055Y-69420500D01*
X204545224Y-69379790D01*
X204664307Y-69317290D01*
X204695848Y-69300736D01*
X204695849Y-69300734D01*
X204695851Y-69300734D01*
X204823182Y-69187929D01*
X204919817Y-69047930D01*
X204980139Y-68888872D01*
X205000644Y-68720000D01*
X204993055Y-68657500D01*
X223701855Y-68657500D01*
X223722359Y-68826369D01*
X223722360Y-68826374D01*
X223782682Y-68985431D01*
X223834117Y-69059946D01*
X223879317Y-69125429D01*
X223957516Y-69194707D01*
X224006650Y-69238236D01*
X224125734Y-69300736D01*
X224157275Y-69317290D01*
X224322444Y-69358000D01*
X224492556Y-69358000D01*
X224657725Y-69317290D01*
X224752498Y-69267549D01*
X224808349Y-69238236D01*
X224808350Y-69238234D01*
X224808352Y-69238234D01*
X224935683Y-69125429D01*
X225032318Y-68985430D01*
X225092640Y-68826372D01*
X225113145Y-68657500D01*
X225092640Y-68488628D01*
X225032318Y-68329570D01*
X224935683Y-68189571D01*
X224808352Y-68076766D01*
X224808349Y-68076763D01*
X224657726Y-67997710D01*
X224492556Y-67957000D01*
X224322444Y-67957000D01*
X224157273Y-67997710D01*
X224006650Y-68076763D01*
X223879316Y-68189572D01*
X223782682Y-68329568D01*
X223722360Y-68488625D01*
X223722359Y-68488630D01*
X223701855Y-68657500D01*
X204993055Y-68657500D01*
X204980139Y-68551128D01*
X204919817Y-68392070D01*
X204917879Y-68389263D01*
X204876675Y-68329568D01*
X204823182Y-68252071D01*
X204695851Y-68139266D01*
X204695848Y-68139263D01*
X204545225Y-68060210D01*
X204380055Y-68019500D01*
X204209943Y-68019500D01*
X204044772Y-68060210D01*
X203894149Y-68139263D01*
X203766815Y-68252072D01*
X203670181Y-68392068D01*
X203609859Y-68551125D01*
X203609858Y-68551130D01*
X203589354Y-68720000D01*
X185286871Y-68720000D01*
X185257316Y-68642070D01*
X185160681Y-68502071D01*
X185033350Y-68389266D01*
X185033347Y-68389263D01*
X184882724Y-68310210D01*
X184717554Y-68269500D01*
X184547442Y-68269500D01*
X184382271Y-68310210D01*
X184231648Y-68389263D01*
X184126890Y-68482071D01*
X184104319Y-68502068D01*
X184104314Y-68502072D01*
X184007680Y-68642068D01*
X183947358Y-68801125D01*
X183947357Y-68801130D01*
X183926853Y-68970000D01*
X165734501Y-68970000D01*
X165717639Y-68831128D01*
X165698677Y-68781130D01*
X165657316Y-68672068D01*
X165622803Y-68622068D01*
X165560682Y-68532071D01*
X165433351Y-68419266D01*
X165433348Y-68419263D01*
X165282725Y-68340210D01*
X165117555Y-68299500D01*
X164947443Y-68299500D01*
X164782272Y-68340210D01*
X164631649Y-68419263D01*
X164504315Y-68532072D01*
X164407681Y-68672068D01*
X164347359Y-68831125D01*
X164347358Y-68831130D01*
X164326854Y-69000000D01*
X145734500Y-69000000D01*
X145738143Y-68969997D01*
X145717638Y-68801125D01*
X145657316Y-68642067D01*
X145560681Y-68502068D01*
X145465814Y-68418023D01*
X145433347Y-68389260D01*
X145282724Y-68310207D01*
X145117554Y-68269497D01*
X144947442Y-68269497D01*
X144782271Y-68310207D01*
X144631648Y-68389260D01*
X144504314Y-68502069D01*
X144407680Y-68642065D01*
X144347358Y-68801122D01*
X144347357Y-68801127D01*
X144326853Y-68969997D01*
X125385715Y-68969997D01*
X125388143Y-68950000D01*
X125367638Y-68781128D01*
X125307316Y-68622070D01*
X125210681Y-68482071D01*
X125115814Y-68398026D01*
X125083347Y-68369263D01*
X124932724Y-68290210D01*
X124767554Y-68249500D01*
X124597442Y-68249500D01*
X124432271Y-68290210D01*
X124281648Y-68369263D01*
X124154314Y-68482072D01*
X124057680Y-68622068D01*
X123997358Y-68781125D01*
X123997357Y-68781130D01*
X123976853Y-68950000D01*
X100250500Y-68950000D01*
X100250500Y-52999998D01*
X100944773Y-52999998D01*
X100944773Y-53000001D01*
X100963657Y-53264027D01*
X100963658Y-53264034D01*
X101019921Y-53522673D01*
X101112426Y-53770690D01*
X101112428Y-53770694D01*
X101239280Y-54003005D01*
X101239285Y-54003013D01*
X101397906Y-54214907D01*
X101397922Y-54214925D01*
X101585074Y-54402077D01*
X101585092Y-54402093D01*
X101796986Y-54560714D01*
X101796994Y-54560719D01*
X102029305Y-54687571D01*
X102029309Y-54687573D01*
X102029311Y-54687574D01*
X102277322Y-54780077D01*
X102277325Y-54780077D01*
X102277326Y-54780078D01*
X102472552Y-54822546D01*
X102535974Y-54836343D01*
X102779660Y-54853772D01*
X102799999Y-54855227D01*
X102800000Y-54855227D01*
X102800001Y-54855227D01*
X102818885Y-54853876D01*
X103064026Y-54836343D01*
X103322678Y-54780077D01*
X103570689Y-54687574D01*
X103803011Y-54560716D01*
X104014915Y-54402087D01*
X104202087Y-54214915D01*
X104360716Y-54003011D01*
X104487574Y-53770689D01*
X104580077Y-53522678D01*
X104636343Y-53264026D01*
X104655227Y-53000000D01*
X104636343Y-52735974D01*
X104580077Y-52477322D01*
X104487574Y-52229311D01*
X104360716Y-51996989D01*
X104360714Y-51996986D01*
X104202093Y-51785092D01*
X104202077Y-51785074D01*
X104014925Y-51597922D01*
X104014907Y-51597906D01*
X103803013Y-51439285D01*
X103803005Y-51439280D01*
X103570694Y-51312428D01*
X103570690Y-51312426D01*
X103322673Y-51219921D01*
X103064034Y-51163658D01*
X103064027Y-51163657D01*
X102800001Y-51144773D01*
X102799999Y-51144773D01*
X102535972Y-51163657D01*
X102535965Y-51163658D01*
X102277326Y-51219921D01*
X102029309Y-51312426D01*
X102029305Y-51312428D01*
X101796994Y-51439280D01*
X101796986Y-51439285D01*
X101585092Y-51597906D01*
X101585074Y-51597922D01*
X101397922Y-51785074D01*
X101397906Y-51785092D01*
X101239285Y-51996986D01*
X101239280Y-51996994D01*
X101112428Y-52229305D01*
X101112426Y-52229309D01*
X101019921Y-52477326D01*
X100963658Y-52735965D01*
X100963657Y-52735972D01*
X100944773Y-52999998D01*
X100250500Y-52999998D01*
X100250500Y-52503750D01*
X100250726Y-52496263D01*
X100266448Y-52236339D01*
X100268253Y-52221475D01*
X100277914Y-52168755D01*
X100314515Y-51969026D01*
X100318095Y-51954505D01*
X100394451Y-51709471D01*
X100399753Y-51695489D01*
X100505095Y-51461430D01*
X100512040Y-51448197D01*
X100644826Y-51228542D01*
X100653313Y-51216246D01*
X100811608Y-51014198D01*
X100821523Y-51003007D01*
X101003007Y-50821523D01*
X101014198Y-50811608D01*
X101216246Y-50653313D01*
X101228542Y-50644826D01*
X101448197Y-50512040D01*
X101461430Y-50505095D01*
X101695489Y-50399753D01*
X101709471Y-50394451D01*
X101954505Y-50318095D01*
X101969026Y-50314515D01*
X102221476Y-50268252D01*
X102236335Y-50266448D01*
X102496264Y-50250726D01*
X102503751Y-50250500D01*
X102544170Y-50250500D01*
X226599138Y-50250500D01*
X226666177Y-50270185D01*
G37*
%TD.AperFunction*%
%TD*%
%TA.AperFunction,Conductor*%
%TO.N,IP+*%
G36*
X242503736Y-50250726D02*
G01*
X242763662Y-50266448D01*
X242778524Y-50268253D01*
X242849528Y-50281264D01*
X243030969Y-50314515D01*
X243045498Y-50318096D01*
X243290523Y-50394449D01*
X243304516Y-50399755D01*
X243538562Y-50505091D01*
X243551808Y-50512044D01*
X243771449Y-50644821D01*
X243783760Y-50653319D01*
X243985792Y-50811601D01*
X243997000Y-50821531D01*
X244178468Y-51002999D01*
X244188398Y-51014207D01*
X244346676Y-51216233D01*
X244355180Y-51228553D01*
X244395353Y-51295007D01*
X244487952Y-51448185D01*
X244494911Y-51461444D01*
X244600242Y-51695480D01*
X244605551Y-51709480D01*
X244681901Y-51954494D01*
X244685485Y-51969034D01*
X244731746Y-52221475D01*
X244733551Y-52236339D01*
X244749273Y-52496261D01*
X244749499Y-52503748D01*
X244749499Y-78999138D01*
X244729814Y-79066177D01*
X244713180Y-79086819D01*
X243401819Y-80398181D01*
X243340496Y-80431666D01*
X243314138Y-80434500D01*
X239614258Y-80434500D01*
X239587545Y-80435381D01*
X239571247Y-80436457D01*
X239556165Y-80437736D01*
X239450727Y-80465822D01*
X239418811Y-80470000D01*
X238825272Y-80470000D01*
X238790336Y-80464977D01*
X238742485Y-80450926D01*
X238742477Y-80450924D01*
X238628238Y-80434500D01*
X237124000Y-80434500D01*
X237056961Y-80414815D01*
X237011206Y-80362011D01*
X237000000Y-80310500D01*
X237000000Y-74300000D01*
X236700000Y-74000000D01*
X229651362Y-74000000D01*
X229584323Y-73980315D01*
X229563681Y-73963681D01*
X229043983Y-73443983D01*
X229010498Y-73382660D01*
X229007664Y-73356302D01*
X229007664Y-61739994D01*
X231269786Y-61739994D01*
X231269786Y-61740007D01*
X231288608Y-61967169D01*
X231288610Y-61967180D01*
X231344569Y-62188156D01*
X231436137Y-62396909D01*
X231560814Y-62587743D01*
X231715208Y-62755459D01*
X231715212Y-62755462D01*
X231895094Y-62895470D01*
X231895096Y-62895471D01*
X231895099Y-62895473D01*
X232011646Y-62958544D01*
X232095574Y-63003964D01*
X232207529Y-63042398D01*
X232311173Y-63077980D01*
X232311175Y-63077980D01*
X232311177Y-63077981D01*
X232536023Y-63115501D01*
X232536024Y-63115501D01*
X232763976Y-63115501D01*
X232763977Y-63115501D01*
X232988823Y-63077981D01*
X233204426Y-63003964D01*
X233404906Y-62895470D01*
X233584794Y-62755457D01*
X233739183Y-62587746D01*
X233863862Y-62396910D01*
X233955430Y-62188156D01*
X234011390Y-61967177D01*
X234030214Y-61740001D01*
X234030214Y-61739994D01*
X234011391Y-61512832D01*
X234011389Y-61512821D01*
X233955430Y-61291845D01*
X233863862Y-61083092D01*
X233739185Y-60892258D01*
X233584791Y-60724542D01*
X233584787Y-60724539D01*
X233404909Y-60584534D01*
X233404900Y-60584528D01*
X233204432Y-60476041D01*
X233204429Y-60476040D01*
X233204426Y-60476038D01*
X233204420Y-60476036D01*
X233204418Y-60476035D01*
X232988826Y-60402021D01*
X232820188Y-60373881D01*
X232763977Y-60364501D01*
X232536023Y-60364501D01*
X232491053Y-60372005D01*
X232311173Y-60402021D01*
X232095581Y-60476035D01*
X232095567Y-60476041D01*
X231895099Y-60584528D01*
X231895090Y-60584534D01*
X231715212Y-60724539D01*
X231715208Y-60724542D01*
X231560814Y-60892258D01*
X231436137Y-61083092D01*
X231344569Y-61291845D01*
X231288610Y-61512821D01*
X231288608Y-61512832D01*
X231269786Y-61739994D01*
X229007664Y-61739994D01*
X229007664Y-52999998D01*
X240144773Y-52999998D01*
X240144773Y-53000001D01*
X240163657Y-53264027D01*
X240163658Y-53264034D01*
X240219921Y-53522673D01*
X240312426Y-53770690D01*
X240312428Y-53770694D01*
X240439280Y-54003005D01*
X240439285Y-54003013D01*
X240597906Y-54214907D01*
X240597922Y-54214925D01*
X240785074Y-54402077D01*
X240785092Y-54402093D01*
X240996986Y-54560714D01*
X240996994Y-54560719D01*
X241229305Y-54687571D01*
X241229309Y-54687573D01*
X241229311Y-54687574D01*
X241477322Y-54780077D01*
X241477325Y-54780077D01*
X241477326Y-54780078D01*
X241672552Y-54822546D01*
X241735974Y-54836343D01*
X241979660Y-54853772D01*
X241999999Y-54855227D01*
X242000000Y-54855227D01*
X242000001Y-54855227D01*
X242018885Y-54853876D01*
X242264026Y-54836343D01*
X242522678Y-54780077D01*
X242770689Y-54687574D01*
X243003011Y-54560716D01*
X243214915Y-54402087D01*
X243402087Y-54214915D01*
X243560716Y-54003011D01*
X243687574Y-53770689D01*
X243780077Y-53522678D01*
X243836343Y-53264026D01*
X243855227Y-53000000D01*
X243836343Y-52735974D01*
X243784197Y-52496261D01*
X243780078Y-52477326D01*
X243778009Y-52471780D01*
X243687574Y-52229311D01*
X243680730Y-52216778D01*
X243560719Y-51996994D01*
X243560714Y-51996986D01*
X243402093Y-51785092D01*
X243402077Y-51785074D01*
X243214925Y-51597922D01*
X243214907Y-51597906D01*
X243003013Y-51439285D01*
X243003005Y-51439280D01*
X242770694Y-51312428D01*
X242770690Y-51312426D01*
X242522673Y-51219921D01*
X242264034Y-51163658D01*
X242264027Y-51163657D01*
X242000001Y-51144773D01*
X241999999Y-51144773D01*
X241735972Y-51163657D01*
X241735965Y-51163658D01*
X241477326Y-51219921D01*
X241229309Y-51312426D01*
X241229305Y-51312428D01*
X240996994Y-51439280D01*
X240996986Y-51439285D01*
X240785092Y-51597906D01*
X240785074Y-51597922D01*
X240597922Y-51785074D01*
X240597906Y-51785092D01*
X240439285Y-51996986D01*
X240439280Y-51996994D01*
X240312428Y-52229305D01*
X240312426Y-52229309D01*
X240219921Y-52477326D01*
X240163658Y-52735965D01*
X240163657Y-52735972D01*
X240144773Y-52999998D01*
X229007664Y-52999998D01*
X229007664Y-52166413D01*
X229027349Y-52099374D01*
X229043983Y-52078732D01*
X230835896Y-50286819D01*
X230897219Y-50253334D01*
X230923577Y-50250500D01*
X242455830Y-50250500D01*
X242496249Y-50250500D01*
X242503736Y-50250726D01*
G37*
%TD.AperFunction*%
%TD*%
M02*
