%TF.GenerationSoftware,KiCad,Pcbnew,8.0.6*%
%TF.CreationDate,2025-03-19T14:20:47+02:00*%
%TF.ProjectId,UPD_PCB,5550445f-5043-4422-9e6b-696361645f70,1.1*%
%TF.SameCoordinates,Original*%
%TF.FileFunction,Copper,L2,Inr*%
%TF.FilePolarity,Positive*%
%FSLAX46Y46*%
G04 Gerber Fmt 4.6, Leading zero omitted, Abs format (unit mm)*
G04 Created by KiCad (PCBNEW 8.0.6) date 2025-03-19 14:20:47*
%MOMM*%
%LPD*%
G01*
G04 APERTURE LIST*
G04 Aperture macros list*
%AMRoundRect*
0 Rectangle with rounded corners*
0 $1 Rounding radius*
0 $2 $3 $4 $5 $6 $7 $8 $9 X,Y pos of 4 corners*
0 Add a 4 corners polygon primitive as box body*
4,1,4,$2,$3,$4,$5,$6,$7,$8,$9,$2,$3,0*
0 Add four circle primitives for the rounded corners*
1,1,$1+$1,$2,$3*
1,1,$1+$1,$4,$5*
1,1,$1+$1,$6,$7*
1,1,$1+$1,$8,$9*
0 Add four rect primitives between the rounded corners*
20,1,$1+$1,$2,$3,$4,$5,0*
20,1,$1+$1,$4,$5,$6,$7,0*
20,1,$1+$1,$6,$7,$8,$9,0*
20,1,$1+$1,$8,$9,$2,$3,0*%
G04 Aperture macros list end*
%TA.AperFunction,ComponentPad*%
%ADD10R,1.950000X1.950000*%
%TD*%
%TA.AperFunction,ComponentPad*%
%ADD11C,1.950000*%
%TD*%
%TA.AperFunction,ComponentPad*%
%ADD12C,2.100000*%
%TD*%
%TA.AperFunction,ComponentPad*%
%ADD13C,2.400000*%
%TD*%
%TA.AperFunction,ComponentPad*%
%ADD14RoundRect,0.250000X-0.600000X-0.725000X0.600000X-0.725000X0.600000X0.725000X-0.600000X0.725000X0*%
%TD*%
%TA.AperFunction,ComponentPad*%
%ADD15O,1.700000X1.950000*%
%TD*%
%TA.AperFunction,ComponentPad*%
%ADD16C,2.900000*%
%TD*%
%TA.AperFunction,ComponentPad*%
%ADD17C,1.000000*%
%TD*%
%TA.AperFunction,ComponentPad*%
%ADD18R,0.850000X0.850000*%
%TD*%
%TA.AperFunction,ComponentPad*%
%ADD19O,0.850000X0.850000*%
%TD*%
%TA.AperFunction,ViaPad*%
%ADD20C,0.600000*%
%TD*%
G04 APERTURE END LIST*
D10*
%TO.N,+42V_out*%
%TO.C,J10*%
X205290000Y-102370000D03*
D11*
%TO.N,GND*%
X214810000Y-102370000D03*
%TD*%
D12*
%TO.N,+24V_out*%
%TO.C,J9*%
X187970000Y-106020000D03*
%TO.N,GND*%
X193050000Y-106020000D03*
%TD*%
%TO.N,+5V_out*%
%TO.C,J8*%
X113120001Y-106020000D03*
%TO.N,GND*%
X118200001Y-106020000D03*
%TD*%
%TO.N,+12V_2_out*%
%TO.C,J7*%
X142920000Y-106020000D03*
%TO.N,GND*%
X148000000Y-106020000D03*
%TD*%
%TO.N,+12V_1_out*%
%TO.C,J6*%
X128050000Y-106019999D03*
%TO.N,GND*%
X133130000Y-106019999D03*
%TD*%
%TO.N,+16V_out*%
%TO.C,J5*%
X158050000Y-106020000D03*
%TO.N,GND*%
X163130000Y-106020000D03*
%TD*%
%TO.N,+19V_out*%
%TO.C,J4*%
X173050001Y-106020000D03*
%TO.N,GND*%
X178130001Y-106020000D03*
%TD*%
D10*
%TO.N,IP+*%
%TO.C,J2*%
X232650000Y-71260001D03*
D11*
%TO.N,GND*%
X232650000Y-61740001D03*
%TD*%
D13*
%TO.N,+42V*%
%TO.C,J1*%
X239500000Y-92265000D03*
%TO.N,+42V_out*%
X239500000Y-105735000D03*
%TO.N,+42V*%
X236100000Y-92265000D03*
%TO.N,+42V_out*%
X236100000Y-105735000D03*
%TD*%
D14*
%TO.N,GND*%
%TO.C,J11*%
X223700000Y-108200000D03*
D15*
%TO.N,+5V_out*%
X226200000Y-108200000D03*
%TO.N,INA_SDA*%
X228700000Y-108200000D03*
%TO.N,INA_SCL*%
X231200000Y-108200000D03*
%TD*%
D16*
%TO.N,N/C*%
%TO.C,REF\u002A\u002A*%
X102800000Y-53000000D03*
%TD*%
D17*
%TO.N,GND*%
%TO.C,TP1*%
X103000000Y-105000000D03*
%TD*%
D18*
%TO.N,GND*%
%TO.C,J3*%
X106250000Y-105000000D03*
D19*
%TO.N,+5V_out*%
X107250000Y-105000000D03*
%TD*%
D17*
%TO.N,+5V_out*%
%TO.C,TP7*%
X120050000Y-98020000D03*
%TD*%
%TO.N,+24V_out*%
%TO.C,TP2*%
X195050000Y-98020000D03*
%TD*%
%TO.N,+12V_2_out*%
%TO.C,TP5*%
X150050000Y-98020000D03*
%TD*%
%TO.N,+16V_out*%
%TO.C,TP6*%
X165050000Y-98020000D03*
%TD*%
%TO.N,+12V_1_out*%
%TO.C,TP3*%
X135050000Y-98020000D03*
%TD*%
D16*
%TO.N,N/C*%
%TO.C,REF\u002A\u002A*%
X242200000Y-112200000D03*
%TD*%
%TO.N,N/C*%
%TO.C,REF\u002A\u002A*%
X102800000Y-112200000D03*
%TD*%
D18*
%TO.N,GND*%
%TO.C,J12*%
X235750001Y-110750000D03*
D19*
%TO.N,VIOUT*%
X236750001Y-110750000D03*
%TD*%
D17*
%TO.N,+42V_out*%
%TO.C,TP8*%
X243250000Y-100250000D03*
%TD*%
%TO.N,+19V_out*%
%TO.C,TP4*%
X180050000Y-98020000D03*
%TD*%
D16*
%TO.N,N/C*%
%TO.C,REF\u002A\u002A*%
X242000000Y-53000000D03*
%TD*%
D20*
%TO.N,GND*%
X109034207Y-69760446D03*
X208600000Y-70600000D03*
X143000000Y-74800000D03*
X148200001Y-70000000D03*
X238949999Y-86050000D03*
X169600000Y-70800000D03*
X129077800Y-69840307D03*
X151915000Y-92000000D03*
X209600000Y-70600000D03*
X110034208Y-69760446D03*
X127227117Y-99997643D03*
X122800000Y-74800000D03*
X150076825Y-77099611D03*
X168600000Y-70800000D03*
X150200000Y-70000000D03*
X231108777Y-92200000D03*
X109000000Y-77000000D03*
X131280000Y-86920000D03*
X184632498Y-68970000D03*
X130010000Y-91800000D03*
X187200001Y-100000000D03*
X145032498Y-68969997D03*
X189400000Y-70600000D03*
X222400000Y-74912500D03*
X182600000Y-75000000D03*
X220990824Y-99520244D03*
X108034207Y-69760446D03*
X242699999Y-82800000D03*
X110000000Y-77000000D03*
X128081115Y-77081115D03*
X165032499Y-69000000D03*
X124682498Y-68950000D03*
X163000000Y-74800000D03*
X190400000Y-70600000D03*
X111280000Y-91800000D03*
X130081115Y-77081115D03*
X142136143Y-99992071D03*
X130077800Y-69840307D03*
X202200000Y-74800000D03*
X148076825Y-77099611D03*
X149200000Y-70000000D03*
X108000000Y-77000000D03*
X204294999Y-68720000D03*
X188400000Y-70600000D03*
X128077800Y-69840307D03*
X234449999Y-81550000D03*
X224407500Y-68657500D03*
X233170246Y-90675000D03*
X129081115Y-77081115D03*
X112162500Y-99991249D03*
X171915000Y-91999999D03*
X157250000Y-99991249D03*
X149076825Y-77099611D03*
X212590000Y-88000000D03*
X210600000Y-70600000D03*
X172250000Y-99991250D03*
X193887500Y-87087500D03*
X170600000Y-70800000D03*
%TO.N,+42V*%
X236199999Y-77800000D03*
X186200000Y-70700000D03*
X165600001Y-72700000D03*
X145600000Y-71699999D03*
X225000000Y-70500000D03*
X235199999Y-79799999D03*
X234200000Y-78800000D03*
X234199999Y-77800000D03*
X226000000Y-70500000D03*
X225000000Y-72500000D03*
X166600000Y-72700000D03*
X165600000Y-71700000D03*
X125200000Y-70700000D03*
X233199999Y-77799999D03*
X236199999Y-78800000D03*
X233199999Y-79800000D03*
X204800000Y-72500000D03*
X185200000Y-72700000D03*
X186200000Y-72700000D03*
X235199999Y-77800000D03*
X232200000Y-77799999D03*
X185200000Y-70700000D03*
X226000000Y-71500000D03*
X166600000Y-71700000D03*
X233199999Y-78800000D03*
X225000000Y-71499999D03*
X166600000Y-70700000D03*
X125200000Y-71700000D03*
X146600000Y-71699999D03*
X126200000Y-71700000D03*
X165600000Y-70700000D03*
X126200000Y-72700000D03*
X205800000Y-70500000D03*
X235199999Y-78800000D03*
X232199999Y-79800000D03*
X146600000Y-72700000D03*
X146600000Y-70700000D03*
X185200000Y-71700000D03*
X204800000Y-71499999D03*
X205800000Y-71500000D03*
X125200001Y-72700000D03*
X234200000Y-79799999D03*
X186200000Y-71700000D03*
X145600001Y-70700000D03*
X226000000Y-72500000D03*
X126200000Y-70700000D03*
X204800000Y-70500000D03*
X232199999Y-78800000D03*
X145600000Y-72700000D03*
X205800000Y-72500000D03*
%TO.N,+5V_out*%
X239121248Y-81628751D03*
X170645000Y-88200000D03*
X121740146Y-92276866D03*
X230949999Y-82800000D03*
X210000000Y-88000000D03*
X150645000Y-88400000D03*
X233170246Y-91675001D03*
X226399999Y-92954754D03*
X121740147Y-90276866D03*
X114837501Y-97519999D03*
X237699999Y-86050000D03*
X168630001Y-92770000D03*
X128740001Y-88400000D03*
X214400000Y-83200000D03*
X190645000Y-88000000D03*
X231599999Y-92954754D03*
X175200000Y-83400000D03*
X122740146Y-91276865D03*
X110010000Y-88000000D03*
X121740147Y-91276866D03*
X154800000Y-83200000D03*
X122740146Y-90276866D03*
%TO.N,IP+*%
X241199999Y-79800000D03*
X241199999Y-78800000D03*
X240199999Y-79799999D03*
X240199999Y-78800000D03*
X240199999Y-77800000D03*
X238199999Y-77799999D03*
X241200000Y-77799999D03*
X238199999Y-78800000D03*
X237199999Y-77799999D03*
X238199999Y-79800000D03*
X237199999Y-78800000D03*
X239199999Y-77800000D03*
X239200000Y-79800000D03*
X239200000Y-78800000D03*
%TO.N,INA_SDA*%
X228262500Y-89200000D03*
X229875000Y-89275000D03*
%TO.N,INA_SCL*%
X151318750Y-82000000D03*
X175168751Y-79013750D03*
X214200000Y-79000000D03*
X154000000Y-79575000D03*
X132481250Y-79551250D03*
X171600000Y-82000000D03*
X191400000Y-82000000D03*
X210700000Y-82100000D03*
X129600000Y-82000000D03*
X194800000Y-79000000D03*
%TO.N,+24V*%
X221483513Y-85000000D03*
X216000000Y-74000000D03*
X221483513Y-84000000D03*
X221483513Y-86000000D03*
X216000000Y-75000000D03*
X216000000Y-73000000D03*
X222483513Y-86000000D03*
X222483513Y-85000000D03*
X217000000Y-73000000D03*
X217000000Y-74000000D03*
X217000000Y-75000000D03*
%TO.N,+12V_1*%
X137000000Y-72000000D03*
X140483513Y-86000000D03*
X135999999Y-73000000D03*
X141483513Y-85000000D03*
X140483513Y-84000000D03*
X137000000Y-71000000D03*
X136000000Y-71000000D03*
X140483513Y-85000000D03*
X141483513Y-86000000D03*
X137000000Y-73000000D03*
X136000000Y-72000000D03*
%TO.N,+19V*%
X203050016Y-84965777D03*
X197000001Y-75000000D03*
X197000000Y-74000000D03*
X202050016Y-84965777D03*
X202050016Y-85965777D03*
X196000000Y-73999999D03*
X196000000Y-75000000D03*
X196000000Y-73000000D03*
X202050016Y-83965777D03*
X197000000Y-73000000D03*
X203050016Y-85965777D03*
%TO.N,+12V_2*%
X156000000Y-72000000D03*
X162269080Y-83941147D03*
X157000000Y-71000000D03*
X157000000Y-72000000D03*
X163269080Y-84941148D03*
X163269080Y-85941146D03*
X162269080Y-85941147D03*
X162269080Y-84941147D03*
X157000000Y-73000000D03*
X156000001Y-71000000D03*
X156000000Y-73000000D03*
%TO.N,+16V*%
X176000001Y-73000000D03*
X182312396Y-83908738D03*
X176000001Y-73999999D03*
X182312396Y-85908738D03*
X176000000Y-75000000D03*
X183312397Y-84908738D03*
X177000000Y-73999999D03*
X182312396Y-84908738D03*
X177000000Y-75000000D03*
X183312396Y-85908738D03*
X177000000Y-73000001D03*
%TO.N,+5V_NS*%
X121750000Y-83921959D03*
X117000001Y-73000000D03*
X116000000Y-73000000D03*
X117000000Y-71000000D03*
X116000000Y-72000000D03*
X116000000Y-71000000D03*
X122750000Y-85921959D03*
X121750000Y-85921958D03*
X121750000Y-84921959D03*
X122750000Y-84921959D03*
X117000000Y-72000000D03*
%TO.N,+24V_out*%
X221483513Y-91400000D03*
X222483514Y-90400000D03*
X221483513Y-92400000D03*
X221483513Y-90400000D03*
X190000000Y-97520000D03*
X222483514Y-91399999D03*
%TO.N,+12V_1_out*%
X141470567Y-90280581D03*
X140470567Y-92280581D03*
X140470567Y-90280581D03*
X140470567Y-91280580D03*
X129902118Y-97526393D03*
X141470567Y-91280581D03*
%TO.N,+19V_out*%
X175000000Y-97600000D03*
X203026068Y-90297736D03*
X202026068Y-91297736D03*
X202026068Y-90297736D03*
X202026069Y-92297736D03*
X203026068Y-91297736D03*
%TO.N,+12V_2_out*%
X144811143Y-97530820D03*
X163244211Y-90306474D03*
X162244212Y-90306474D03*
X162244212Y-91306474D03*
X162244211Y-92306474D03*
X163244211Y-91306473D03*
%TO.N,+16V_out*%
X182239014Y-92307606D03*
X183239014Y-90307606D03*
X182239014Y-91307606D03*
X182239014Y-90307606D03*
X183239014Y-91307606D03*
X159925001Y-97519999D03*
%TO.N,+42V_out*%
X225000000Y-98000001D03*
%TD*%
%TA.AperFunction,Conductor*%
%TO.N,GND*%
G36*
X242503736Y-50250726D02*
G01*
X242763662Y-50266448D01*
X242778524Y-50268253D01*
X242849528Y-50281264D01*
X243030969Y-50314515D01*
X243045498Y-50318096D01*
X243290523Y-50394449D01*
X243304516Y-50399755D01*
X243538562Y-50505091D01*
X243551808Y-50512044D01*
X243771449Y-50644821D01*
X243783760Y-50653319D01*
X243797810Y-50664326D01*
X243985792Y-50811601D01*
X243997000Y-50821531D01*
X244178468Y-51002999D01*
X244188398Y-51014207D01*
X244346676Y-51216233D01*
X244355180Y-51228553D01*
X244437531Y-51364778D01*
X244487952Y-51448185D01*
X244494911Y-51461444D01*
X244600242Y-51695480D01*
X244605551Y-51709480D01*
X244681901Y-51954494D01*
X244685485Y-51969034D01*
X244731746Y-52221475D01*
X244733551Y-52236339D01*
X244749273Y-52496261D01*
X244749499Y-52503748D01*
X244749499Y-112496248D01*
X244749273Y-112503735D01*
X244733550Y-112763659D01*
X244731745Y-112778523D01*
X244685484Y-113030964D01*
X244681900Y-113045504D01*
X244605550Y-113290518D01*
X244600241Y-113304518D01*
X244494910Y-113538555D01*
X244487951Y-113551814D01*
X244355182Y-113771442D01*
X244346676Y-113783765D01*
X244188398Y-113985791D01*
X244178468Y-113996999D01*
X243997000Y-114178467D01*
X243985792Y-114188397D01*
X243783765Y-114346675D01*
X243771442Y-114355181D01*
X243551814Y-114487951D01*
X243538555Y-114494910D01*
X243304517Y-114600242D01*
X243290516Y-114605551D01*
X243045506Y-114681899D01*
X243030968Y-114685483D01*
X242778525Y-114731745D01*
X242763660Y-114733550D01*
X242503736Y-114749273D01*
X242496249Y-114749499D01*
X102503751Y-114749499D01*
X102496264Y-114749273D01*
X102236339Y-114733550D01*
X102221475Y-114731745D01*
X101969035Y-114685484D01*
X101954495Y-114681900D01*
X101709481Y-114605550D01*
X101695481Y-114600241D01*
X101461445Y-114494910D01*
X101448186Y-114487951D01*
X101228557Y-114355181D01*
X101216234Y-114346675D01*
X101202192Y-114335674D01*
X101014207Y-114188397D01*
X101002999Y-114178467D01*
X100821532Y-113997000D01*
X100811602Y-113985792D01*
X100811601Y-113985791D01*
X100653320Y-113783759D01*
X100644822Y-113771448D01*
X100512045Y-113551807D01*
X100505090Y-113538555D01*
X100399756Y-113304515D01*
X100394449Y-113290518D01*
X100385761Y-113262636D01*
X100318097Y-113045497D01*
X100314515Y-113030964D01*
X100301776Y-112961451D01*
X100268254Y-112778523D01*
X100266449Y-112763660D01*
X100250727Y-112503736D01*
X100250501Y-112496249D01*
X100250501Y-112445841D01*
X100250500Y-112445827D01*
X100250500Y-112200000D01*
X101144396Y-112200000D01*
X101164778Y-112458990D01*
X101225427Y-112711610D01*
X101324843Y-112951623D01*
X101324845Y-112951627D01*
X101324846Y-112951628D01*
X101460588Y-113173140D01*
X101629311Y-113370689D01*
X101826860Y-113539412D01*
X102048372Y-113675154D01*
X102048374Y-113675154D01*
X102048376Y-113675156D01*
X102109693Y-113700554D01*
X102288390Y-113774573D01*
X102541006Y-113835221D01*
X102800000Y-113855604D01*
X103058994Y-113835221D01*
X103311610Y-113774573D01*
X103551628Y-113675154D01*
X103773140Y-113539412D01*
X103970689Y-113370689D01*
X104139412Y-113173140D01*
X104275154Y-112951628D01*
X104374573Y-112711610D01*
X104435221Y-112458994D01*
X104455604Y-112200000D01*
X240544396Y-112200000D01*
X240564778Y-112458990D01*
X240625427Y-112711610D01*
X240724843Y-112951623D01*
X240724845Y-112951627D01*
X240724846Y-112951628D01*
X240860588Y-113173140D01*
X241029311Y-113370689D01*
X241226860Y-113539412D01*
X241448372Y-113675154D01*
X241448374Y-113675154D01*
X241448376Y-113675156D01*
X241509693Y-113700554D01*
X241688390Y-113774573D01*
X241941006Y-113835221D01*
X242200000Y-113855604D01*
X242458994Y-113835221D01*
X242711610Y-113774573D01*
X242951628Y-113675154D01*
X243173140Y-113539412D01*
X243370689Y-113370689D01*
X243539412Y-113173140D01*
X243675154Y-112951628D01*
X243774573Y-112711610D01*
X243835221Y-112458994D01*
X243855604Y-112200000D01*
X243835221Y-111941006D01*
X243774573Y-111688390D01*
X243675154Y-111448372D01*
X243539412Y-111226860D01*
X243370689Y-111029311D01*
X243173140Y-110860588D01*
X242951628Y-110724846D01*
X242951627Y-110724845D01*
X242951623Y-110724843D01*
X242785627Y-110656086D01*
X242711610Y-110625427D01*
X242711611Y-110625427D01*
X242573921Y-110592370D01*
X242458994Y-110564779D01*
X242458992Y-110564778D01*
X242458991Y-110564778D01*
X242200000Y-110544396D01*
X241941009Y-110564778D01*
X241688389Y-110625427D01*
X241448376Y-110724843D01*
X241226859Y-110860588D01*
X241029311Y-111029311D01*
X240860588Y-111226859D01*
X240724843Y-111448376D01*
X240625427Y-111688389D01*
X240564778Y-111941009D01*
X240544396Y-112200000D01*
X104455604Y-112200000D01*
X104435221Y-111941006D01*
X104374573Y-111688390D01*
X104275154Y-111448372D01*
X104139412Y-111226860D01*
X104135982Y-111222844D01*
X234825001Y-111222844D01*
X234831402Y-111282372D01*
X234831404Y-111282379D01*
X234881646Y-111417086D01*
X234881650Y-111417093D01*
X234967810Y-111532187D01*
X234967813Y-111532190D01*
X235082907Y-111618350D01*
X235082914Y-111618354D01*
X235217621Y-111668596D01*
X235217628Y-111668598D01*
X235277156Y-111674999D01*
X235277173Y-111675000D01*
X235500001Y-111675000D01*
X235500001Y-111000000D01*
X234825001Y-111000000D01*
X234825001Y-111222844D01*
X104135982Y-111222844D01*
X103970689Y-111029311D01*
X103773140Y-110860588D01*
X103551628Y-110724846D01*
X103551627Y-110724845D01*
X103551623Y-110724843D01*
X103492303Y-110700272D01*
X235500001Y-110700272D01*
X235500001Y-110799728D01*
X235538061Y-110891614D01*
X235608387Y-110961940D01*
X235700273Y-111000000D01*
X235799729Y-111000000D01*
X235891615Y-110961940D01*
X235961941Y-110891614D01*
X236000001Y-110799728D01*
X236000001Y-111675000D01*
X236222829Y-111675000D01*
X236222845Y-111674999D01*
X236282373Y-111668598D01*
X236282380Y-111668596D01*
X236417087Y-111618354D01*
X236417094Y-111618350D01*
X236532188Y-111532190D01*
X236532191Y-111532187D01*
X236612291Y-111425189D01*
X236668224Y-111383318D01*
X236711557Y-111375500D01*
X236825951Y-111375500D01*
X236875111Y-111363382D01*
X236973435Y-111339148D01*
X237107935Y-111268557D01*
X237221633Y-111167830D01*
X237307922Y-111042819D01*
X237361786Y-110900791D01*
X237380095Y-110750000D01*
X237361786Y-110599209D01*
X237307922Y-110457181D01*
X237221633Y-110332170D01*
X237107935Y-110231443D01*
X236973435Y-110160852D01*
X236973434Y-110160851D01*
X236973433Y-110160851D01*
X236825951Y-110124500D01*
X236825950Y-110124500D01*
X236711557Y-110124500D01*
X236644518Y-110104815D01*
X236612291Y-110074811D01*
X236532191Y-109967812D01*
X236532188Y-109967809D01*
X236417094Y-109881649D01*
X236417087Y-109881645D01*
X236282380Y-109831403D01*
X236282373Y-109831401D01*
X236222845Y-109825000D01*
X236000001Y-109825000D01*
X236000001Y-110700272D01*
X235961941Y-110608386D01*
X235891615Y-110538060D01*
X235799729Y-110500000D01*
X235700273Y-110500000D01*
X235608387Y-110538060D01*
X235538061Y-110608386D01*
X235500001Y-110700272D01*
X103492303Y-110700272D01*
X103385627Y-110656086D01*
X103311610Y-110625427D01*
X103311611Y-110625427D01*
X103173921Y-110592370D01*
X103058994Y-110564779D01*
X103058992Y-110564778D01*
X103058991Y-110564778D01*
X102800000Y-110544396D01*
X102541009Y-110564778D01*
X102288389Y-110625427D01*
X102048376Y-110724843D01*
X101826859Y-110860588D01*
X101629311Y-111029311D01*
X101460588Y-111226859D01*
X101324843Y-111448376D01*
X101225427Y-111688389D01*
X101164778Y-111941009D01*
X101144396Y-112200000D01*
X100250500Y-112200000D01*
X100250500Y-110277155D01*
X234825001Y-110277155D01*
X234825001Y-110500000D01*
X235500001Y-110500000D01*
X235500001Y-109825000D01*
X235277156Y-109825000D01*
X235217628Y-109831401D01*
X235217621Y-109831403D01*
X235082914Y-109881645D01*
X235082907Y-109881649D01*
X234967813Y-109967809D01*
X234967810Y-109967812D01*
X234881650Y-110082906D01*
X234881646Y-110082913D01*
X234831404Y-110217620D01*
X234831402Y-110217627D01*
X234825001Y-110277155D01*
X100250500Y-110277155D01*
X100250500Y-106020000D01*
X111864724Y-106020000D01*
X111879710Y-106191300D01*
X111883794Y-106237975D01*
X111883794Y-106237979D01*
X111940423Y-106449322D01*
X111940425Y-106449326D01*
X111940426Y-106449330D01*
X111964267Y-106500457D01*
X112032898Y-106647638D01*
X112032899Y-106647639D01*
X112158403Y-106826877D01*
X112313124Y-106981598D01*
X112492362Y-107107102D01*
X112690671Y-107199575D01*
X112902024Y-107256207D01*
X113084927Y-107272208D01*
X113119999Y-107275277D01*
X113120001Y-107275277D01*
X113120003Y-107275277D01*
X113148255Y-107272805D01*
X113337978Y-107256207D01*
X113549331Y-107199575D01*
X113747640Y-107107102D01*
X113926878Y-106981598D01*
X114081599Y-106826877D01*
X114207103Y-106647639D01*
X114299576Y-106449330D01*
X114356208Y-106237977D01*
X114375278Y-106020000D01*
X116645208Y-106020000D01*
X116664349Y-106263219D01*
X116721304Y-106500457D01*
X116814669Y-106725861D01*
X116938505Y-106927941D01*
X117560690Y-106305755D01*
X117579669Y-106351574D01*
X117656275Y-106466224D01*
X117753777Y-106563726D01*
X117868427Y-106640332D01*
X117914243Y-106659309D01*
X117292058Y-107281494D01*
X117494139Y-107405331D01*
X117719543Y-107498696D01*
X117956781Y-107555651D01*
X117956780Y-107555651D01*
X118200001Y-107574792D01*
X118443220Y-107555651D01*
X118680458Y-107498696D01*
X118905862Y-107405331D01*
X119107942Y-107281495D01*
X119107942Y-107281494D01*
X118485758Y-106659309D01*
X118531575Y-106640332D01*
X118646225Y-106563726D01*
X118743727Y-106466224D01*
X118820333Y-106351574D01*
X118839310Y-106305756D01*
X119461495Y-106927941D01*
X119461496Y-106927941D01*
X119585332Y-106725861D01*
X119678697Y-106500457D01*
X119735652Y-106263219D01*
X119754793Y-106020000D01*
X119754793Y-106019999D01*
X126794723Y-106019999D01*
X126809709Y-106191300D01*
X126813793Y-106237974D01*
X126813793Y-106237978D01*
X126870422Y-106449321D01*
X126870424Y-106449325D01*
X126870425Y-106449329D01*
X126916661Y-106548483D01*
X126962897Y-106647637D01*
X126987998Y-106683485D01*
X127088402Y-106826876D01*
X127243123Y-106981597D01*
X127422361Y-107107101D01*
X127620670Y-107199574D01*
X127832023Y-107256206D01*
X128014926Y-107272207D01*
X128049998Y-107275276D01*
X128050000Y-107275276D01*
X128050002Y-107275276D01*
X128078254Y-107272804D01*
X128267977Y-107256206D01*
X128479330Y-107199574D01*
X128677639Y-107107101D01*
X128856877Y-106981597D01*
X129011598Y-106826876D01*
X129137102Y-106647638D01*
X129229575Y-106449329D01*
X129286207Y-106237976D01*
X129305277Y-106019999D01*
X131575207Y-106019999D01*
X131594348Y-106263218D01*
X131651303Y-106500456D01*
X131744668Y-106725860D01*
X131868504Y-106927940D01*
X132490689Y-106305754D01*
X132509668Y-106351573D01*
X132586274Y-106466223D01*
X132683776Y-106563725D01*
X132798426Y-106640331D01*
X132844242Y-106659308D01*
X132222057Y-107281493D01*
X132424138Y-107405330D01*
X132649542Y-107498695D01*
X132886780Y-107555650D01*
X132886779Y-107555650D01*
X133130000Y-107574791D01*
X133373219Y-107555650D01*
X133610457Y-107498695D01*
X133835861Y-107405330D01*
X134037941Y-107281494D01*
X134037941Y-107281493D01*
X133415757Y-106659308D01*
X133461574Y-106640331D01*
X133576224Y-106563725D01*
X133673726Y-106466223D01*
X133750332Y-106351573D01*
X133769309Y-106305755D01*
X134391494Y-106927940D01*
X134391495Y-106927940D01*
X134515331Y-106725860D01*
X134608696Y-106500456D01*
X134665651Y-106263218D01*
X134684792Y-106020000D01*
X141664723Y-106020000D01*
X141679709Y-106191300D01*
X141683793Y-106237975D01*
X141683793Y-106237979D01*
X141740422Y-106449322D01*
X141740424Y-106449326D01*
X141740425Y-106449330D01*
X141764266Y-106500457D01*
X141832897Y-106647638D01*
X141832898Y-106647639D01*
X141958402Y-106826877D01*
X142113123Y-106981598D01*
X142292361Y-107107102D01*
X142490670Y-107199575D01*
X142702023Y-107256207D01*
X142884926Y-107272208D01*
X142919998Y-107275277D01*
X142920000Y-107275277D01*
X142920002Y-107275277D01*
X142948254Y-107272805D01*
X143137977Y-107256207D01*
X143349330Y-107199575D01*
X143547639Y-107107102D01*
X143726877Y-106981598D01*
X143881598Y-106826877D01*
X144007102Y-106647639D01*
X144099575Y-106449330D01*
X144156207Y-106237977D01*
X144175277Y-106020000D01*
X146445207Y-106020000D01*
X146464348Y-106263219D01*
X146521303Y-106500457D01*
X146614668Y-106725861D01*
X146738504Y-106927941D01*
X147360689Y-106305755D01*
X147379668Y-106351574D01*
X147456274Y-106466224D01*
X147553776Y-106563726D01*
X147668426Y-106640332D01*
X147714242Y-106659309D01*
X147092057Y-107281494D01*
X147294138Y-107405331D01*
X147519542Y-107498696D01*
X147756780Y-107555651D01*
X147756779Y-107555651D01*
X148000000Y-107574792D01*
X148243219Y-107555651D01*
X148480457Y-107498696D01*
X148705861Y-107405331D01*
X148907941Y-107281495D01*
X148907941Y-107281494D01*
X148285757Y-106659309D01*
X148331574Y-106640332D01*
X148446224Y-106563726D01*
X148543726Y-106466224D01*
X148620332Y-106351574D01*
X148639309Y-106305756D01*
X149261494Y-106927941D01*
X149261495Y-106927941D01*
X149385331Y-106725861D01*
X149478696Y-106500457D01*
X149535651Y-106263219D01*
X149554792Y-106020000D01*
X156794723Y-106020000D01*
X156809709Y-106191300D01*
X156813793Y-106237975D01*
X156813793Y-106237979D01*
X156870422Y-106449322D01*
X156870424Y-106449326D01*
X156870425Y-106449330D01*
X156894266Y-106500457D01*
X156962897Y-106647638D01*
X156962898Y-106647639D01*
X157088402Y-106826877D01*
X157243123Y-106981598D01*
X157422361Y-107107102D01*
X157620670Y-107199575D01*
X157832023Y-107256207D01*
X158014926Y-107272208D01*
X158049998Y-107275277D01*
X158050000Y-107275277D01*
X158050002Y-107275277D01*
X158078254Y-107272805D01*
X158267977Y-107256207D01*
X158479330Y-107199575D01*
X158677639Y-107107102D01*
X158856877Y-106981598D01*
X159011598Y-106826877D01*
X159137102Y-106647639D01*
X159229575Y-106449330D01*
X159286207Y-106237977D01*
X159305277Y-106020000D01*
X161575207Y-106020000D01*
X161594348Y-106263219D01*
X161651303Y-106500457D01*
X161744668Y-106725861D01*
X161868504Y-106927941D01*
X162490689Y-106305755D01*
X162509668Y-106351574D01*
X162586274Y-106466224D01*
X162683776Y-106563726D01*
X162798426Y-106640332D01*
X162844242Y-106659309D01*
X162222057Y-107281494D01*
X162424138Y-107405331D01*
X162649542Y-107498696D01*
X162886780Y-107555651D01*
X162886779Y-107555651D01*
X163130000Y-107574792D01*
X163373219Y-107555651D01*
X163610457Y-107498696D01*
X163835861Y-107405331D01*
X164037941Y-107281495D01*
X164037941Y-107281494D01*
X163415757Y-106659309D01*
X163461574Y-106640332D01*
X163576224Y-106563726D01*
X163673726Y-106466224D01*
X163750332Y-106351574D01*
X163769309Y-106305756D01*
X164391494Y-106927941D01*
X164391495Y-106927941D01*
X164515331Y-106725861D01*
X164608696Y-106500457D01*
X164665651Y-106263219D01*
X164684792Y-106020000D01*
X171794724Y-106020000D01*
X171809710Y-106191300D01*
X171813794Y-106237975D01*
X171813794Y-106237979D01*
X171870423Y-106449322D01*
X171870425Y-106449326D01*
X171870426Y-106449330D01*
X171894267Y-106500457D01*
X171962898Y-106647638D01*
X171962899Y-106647639D01*
X172088403Y-106826877D01*
X172243124Y-106981598D01*
X172422362Y-107107102D01*
X172620671Y-107199575D01*
X172832024Y-107256207D01*
X173014927Y-107272208D01*
X173049999Y-107275277D01*
X173050001Y-107275277D01*
X173050003Y-107275277D01*
X173078255Y-107272805D01*
X173267978Y-107256207D01*
X173479331Y-107199575D01*
X173677640Y-107107102D01*
X173856878Y-106981598D01*
X174011599Y-106826877D01*
X174137103Y-106647639D01*
X174229576Y-106449330D01*
X174286208Y-106237977D01*
X174305278Y-106020000D01*
X176575208Y-106020000D01*
X176594349Y-106263219D01*
X176651304Y-106500457D01*
X176744669Y-106725861D01*
X176868505Y-106927941D01*
X177490690Y-106305755D01*
X177509669Y-106351574D01*
X177586275Y-106466224D01*
X177683777Y-106563726D01*
X177798427Y-106640332D01*
X177844243Y-106659309D01*
X177222058Y-107281494D01*
X177424139Y-107405331D01*
X177649543Y-107498696D01*
X177886781Y-107555651D01*
X177886780Y-107555651D01*
X178130001Y-107574792D01*
X178373220Y-107555651D01*
X178610458Y-107498696D01*
X178835862Y-107405331D01*
X179037942Y-107281495D01*
X179037942Y-107281494D01*
X178415758Y-106659309D01*
X178461575Y-106640332D01*
X178576225Y-106563726D01*
X178673727Y-106466224D01*
X178750333Y-106351574D01*
X178769310Y-106305756D01*
X179391495Y-106927941D01*
X179391496Y-106927941D01*
X179515332Y-106725861D01*
X179608697Y-106500457D01*
X179665652Y-106263219D01*
X179684793Y-106020000D01*
X186714723Y-106020000D01*
X186729709Y-106191300D01*
X186733793Y-106237975D01*
X186733793Y-106237979D01*
X186790422Y-106449322D01*
X186790424Y-106449326D01*
X186790425Y-106449330D01*
X186814266Y-106500457D01*
X186882897Y-106647638D01*
X186882898Y-106647639D01*
X187008402Y-106826877D01*
X187163123Y-106981598D01*
X187342361Y-107107102D01*
X187540670Y-107199575D01*
X187752023Y-107256207D01*
X187934926Y-107272208D01*
X187969998Y-107275277D01*
X187970000Y-107275277D01*
X187970002Y-107275277D01*
X187998254Y-107272805D01*
X188187977Y-107256207D01*
X188399330Y-107199575D01*
X188597639Y-107107102D01*
X188776877Y-106981598D01*
X188931598Y-106826877D01*
X189057102Y-106647639D01*
X189149575Y-106449330D01*
X189206207Y-106237977D01*
X189225277Y-106020000D01*
X191495207Y-106020000D01*
X191514348Y-106263219D01*
X191571303Y-106500457D01*
X191664668Y-106725861D01*
X191788504Y-106927941D01*
X192410689Y-106305755D01*
X192429668Y-106351574D01*
X192506274Y-106466224D01*
X192603776Y-106563726D01*
X192718426Y-106640332D01*
X192764242Y-106659309D01*
X192142057Y-107281494D01*
X192344138Y-107405331D01*
X192569542Y-107498696D01*
X192806780Y-107555651D01*
X192806779Y-107555651D01*
X193050000Y-107574792D01*
X193293219Y-107555651D01*
X193530457Y-107498696D01*
X193708344Y-107425013D01*
X222350000Y-107425013D01*
X222350000Y-107950000D01*
X223295854Y-107950000D01*
X223257370Y-108016657D01*
X223225000Y-108137465D01*
X223225000Y-108262535D01*
X223257370Y-108383343D01*
X223295854Y-108450000D01*
X222350001Y-108450000D01*
X222350001Y-108974986D01*
X222360494Y-109077697D01*
X222415641Y-109244119D01*
X222415643Y-109244124D01*
X222507684Y-109393345D01*
X222631654Y-109517315D01*
X222780875Y-109609356D01*
X222780880Y-109609358D01*
X222947302Y-109664505D01*
X222947309Y-109664506D01*
X223050019Y-109674999D01*
X223449999Y-109674999D01*
X223450000Y-109674998D01*
X223450000Y-108604145D01*
X223516657Y-108642630D01*
X223637465Y-108675000D01*
X223762535Y-108675000D01*
X223883343Y-108642630D01*
X223950000Y-108604145D01*
X223950000Y-109674999D01*
X224349972Y-109674999D01*
X224349986Y-109674998D01*
X224452697Y-109664505D01*
X224619119Y-109609358D01*
X224619124Y-109609356D01*
X224768345Y-109517315D01*
X224892315Y-109393345D01*
X224984356Y-109244124D01*
X224984358Y-109244119D01*
X225039505Y-109077697D01*
X225039506Y-109077690D01*
X225049999Y-108974986D01*
X225049999Y-108903528D01*
X225069683Y-108836488D01*
X225122486Y-108790732D01*
X225191644Y-108780788D01*
X225255200Y-108809812D01*
X225277101Y-108834635D01*
X225384022Y-108994655D01*
X225530342Y-109140975D01*
X225530345Y-109140977D01*
X225702402Y-109255941D01*
X225893580Y-109335130D01*
X226096530Y-109375499D01*
X226096534Y-109375500D01*
X226096535Y-109375500D01*
X226303466Y-109375500D01*
X226303467Y-109375499D01*
X226506420Y-109335130D01*
X226697598Y-109255941D01*
X226869655Y-109140977D01*
X227015977Y-108994655D01*
X227130941Y-108822598D01*
X227210130Y-108631420D01*
X227250500Y-108428465D01*
X227250500Y-107971535D01*
X227250499Y-107971530D01*
X227649500Y-107971530D01*
X227649500Y-108428469D01*
X227689868Y-108631412D01*
X227689870Y-108631420D01*
X227769058Y-108822596D01*
X227884024Y-108994657D01*
X228030342Y-109140975D01*
X228030345Y-109140977D01*
X228202402Y-109255941D01*
X228393580Y-109335130D01*
X228596530Y-109375499D01*
X228596534Y-109375500D01*
X228596535Y-109375500D01*
X228803466Y-109375500D01*
X228803467Y-109375499D01*
X229006420Y-109335130D01*
X229197598Y-109255941D01*
X229369655Y-109140977D01*
X229515977Y-108994655D01*
X229630941Y-108822598D01*
X229710130Y-108631420D01*
X229750500Y-108428465D01*
X229750500Y-107971535D01*
X229750499Y-107971530D01*
X230149500Y-107971530D01*
X230149500Y-108428469D01*
X230189868Y-108631412D01*
X230189870Y-108631420D01*
X230269058Y-108822596D01*
X230384024Y-108994657D01*
X230530342Y-109140975D01*
X230530345Y-109140977D01*
X230702402Y-109255941D01*
X230893580Y-109335130D01*
X231096530Y-109375499D01*
X231096534Y-109375500D01*
X231096535Y-109375500D01*
X231303466Y-109375500D01*
X231303467Y-109375499D01*
X231506420Y-109335130D01*
X231697598Y-109255941D01*
X231869655Y-109140977D01*
X232015977Y-108994655D01*
X232130941Y-108822598D01*
X232210130Y-108631420D01*
X232250500Y-108428465D01*
X232250500Y-107971535D01*
X232210130Y-107768580D01*
X232130941Y-107577402D01*
X232015977Y-107405345D01*
X232015975Y-107405342D01*
X231869657Y-107259024D01*
X231780680Y-107199572D01*
X231697598Y-107144059D01*
X231608376Y-107107102D01*
X231506420Y-107064870D01*
X231506412Y-107064868D01*
X231303469Y-107024500D01*
X231303465Y-107024500D01*
X231096535Y-107024500D01*
X231096530Y-107024500D01*
X230893587Y-107064868D01*
X230893579Y-107064870D01*
X230702403Y-107144058D01*
X230530342Y-107259024D01*
X230384024Y-107405342D01*
X230269058Y-107577403D01*
X230189870Y-107768579D01*
X230189868Y-107768587D01*
X230149500Y-107971530D01*
X229750499Y-107971530D01*
X229710130Y-107768580D01*
X229630941Y-107577402D01*
X229515977Y-107405345D01*
X229515975Y-107405342D01*
X229369657Y-107259024D01*
X229280680Y-107199572D01*
X229197598Y-107144059D01*
X229108376Y-107107102D01*
X229006420Y-107064870D01*
X229006412Y-107064868D01*
X228803469Y-107024500D01*
X228803465Y-107024500D01*
X228596535Y-107024500D01*
X228596530Y-107024500D01*
X228393587Y-107064868D01*
X228393579Y-107064870D01*
X228202403Y-107144058D01*
X228030342Y-107259024D01*
X227884024Y-107405342D01*
X227769058Y-107577403D01*
X227689870Y-107768579D01*
X227689868Y-107768587D01*
X227649500Y-107971530D01*
X227250499Y-107971530D01*
X227210130Y-107768580D01*
X227130941Y-107577402D01*
X227015977Y-107405345D01*
X227015975Y-107405342D01*
X226869657Y-107259024D01*
X226780680Y-107199572D01*
X226697598Y-107144059D01*
X226608376Y-107107102D01*
X226506420Y-107064870D01*
X226506412Y-107064868D01*
X226303469Y-107024500D01*
X226303465Y-107024500D01*
X226096535Y-107024500D01*
X226096530Y-107024500D01*
X225893587Y-107064868D01*
X225893579Y-107064870D01*
X225702403Y-107144058D01*
X225530342Y-107259024D01*
X225384024Y-107405342D01*
X225323132Y-107496475D01*
X225283593Y-107555651D01*
X225277102Y-107565365D01*
X225223489Y-107610171D01*
X225154165Y-107618878D01*
X225091137Y-107588724D01*
X225054417Y-107529281D01*
X225049999Y-107496475D01*
X225049999Y-107425028D01*
X225049998Y-107425012D01*
X225039505Y-107322302D01*
X224984358Y-107155880D01*
X224984356Y-107155875D01*
X224892315Y-107006654D01*
X224768345Y-106882684D01*
X224619124Y-106790643D01*
X224619119Y-106790641D01*
X224452697Y-106735494D01*
X224452690Y-106735493D01*
X224349986Y-106725000D01*
X223950000Y-106725000D01*
X223950000Y-107795854D01*
X223883343Y-107757370D01*
X223762535Y-107725000D01*
X223637465Y-107725000D01*
X223516657Y-107757370D01*
X223450000Y-107795854D01*
X223450000Y-106725000D01*
X223050028Y-106725000D01*
X223050012Y-106725001D01*
X222947302Y-106735494D01*
X222780880Y-106790641D01*
X222780875Y-106790643D01*
X222631654Y-106882684D01*
X222507684Y-107006654D01*
X222415643Y-107155875D01*
X222415641Y-107155880D01*
X222360494Y-107322302D01*
X222360493Y-107322309D01*
X222350000Y-107425013D01*
X193708344Y-107425013D01*
X193755861Y-107405331D01*
X193957941Y-107281495D01*
X193957941Y-107281494D01*
X193335757Y-106659309D01*
X193381574Y-106640332D01*
X193496224Y-106563726D01*
X193593726Y-106466224D01*
X193670332Y-106351574D01*
X193689309Y-106305756D01*
X194311494Y-106927941D01*
X194311495Y-106927941D01*
X194435331Y-106725861D01*
X194528696Y-106500457D01*
X194585651Y-106263219D01*
X194604792Y-106020000D01*
X194585651Y-105776780D01*
X194575619Y-105734993D01*
X234694700Y-105734993D01*
X234694700Y-105735006D01*
X234713864Y-105966297D01*
X234713866Y-105966308D01*
X234770842Y-106191300D01*
X234864075Y-106403848D01*
X234991016Y-106598147D01*
X234991019Y-106598151D01*
X234991021Y-106598153D01*
X235148216Y-106768913D01*
X235148219Y-106768915D01*
X235148222Y-106768918D01*
X235331365Y-106911464D01*
X235331371Y-106911468D01*
X235331374Y-106911470D01*
X235535497Y-107021936D01*
X235649487Y-107061068D01*
X235755015Y-107097297D01*
X235755017Y-107097297D01*
X235755019Y-107097298D01*
X235983951Y-107135500D01*
X235983952Y-107135500D01*
X236216048Y-107135500D01*
X236216049Y-107135500D01*
X236444981Y-107097298D01*
X236664503Y-107021936D01*
X236868626Y-106911470D01*
X236905611Y-106882684D01*
X236977306Y-106826881D01*
X237051784Y-106768913D01*
X237208979Y-106598153D01*
X237335924Y-106403849D01*
X237429157Y-106191300D01*
X237486134Y-105966305D01*
X237490087Y-105918598D01*
X237505300Y-105735006D01*
X237505300Y-105734993D01*
X238094700Y-105734993D01*
X238094700Y-105735006D01*
X238113864Y-105966297D01*
X238113866Y-105966308D01*
X238170842Y-106191300D01*
X238264075Y-106403848D01*
X238391016Y-106598147D01*
X238391019Y-106598151D01*
X238391021Y-106598153D01*
X238548216Y-106768913D01*
X238548219Y-106768915D01*
X238548222Y-106768918D01*
X238731365Y-106911464D01*
X238731371Y-106911468D01*
X238731374Y-106911470D01*
X238935497Y-107021936D01*
X239049487Y-107061068D01*
X239155015Y-107097297D01*
X239155017Y-107097297D01*
X239155019Y-107097298D01*
X239383951Y-107135500D01*
X239383952Y-107135500D01*
X239616048Y-107135500D01*
X239616049Y-107135500D01*
X239844981Y-107097298D01*
X240064503Y-107021936D01*
X240268626Y-106911470D01*
X240305611Y-106882684D01*
X240377306Y-106826881D01*
X240451784Y-106768913D01*
X240608979Y-106598153D01*
X240735924Y-106403849D01*
X240829157Y-106191300D01*
X240886134Y-105966305D01*
X240890087Y-105918598D01*
X240905300Y-105735006D01*
X240905300Y-105734993D01*
X240886135Y-105503702D01*
X240886133Y-105503691D01*
X240829157Y-105278699D01*
X240735924Y-105066151D01*
X240608983Y-104871852D01*
X240608980Y-104871849D01*
X240608979Y-104871847D01*
X240451784Y-104701087D01*
X240451779Y-104701083D01*
X240451777Y-104701081D01*
X240268634Y-104558535D01*
X240268628Y-104558531D01*
X240064504Y-104448064D01*
X240064495Y-104448061D01*
X239844984Y-104372702D01*
X239673282Y-104344050D01*
X239616049Y-104334500D01*
X239383951Y-104334500D01*
X239338164Y-104342140D01*
X239155015Y-104372702D01*
X238935504Y-104448061D01*
X238935495Y-104448064D01*
X238731371Y-104558531D01*
X238731365Y-104558535D01*
X238548222Y-104701081D01*
X238548219Y-104701084D01*
X238391016Y-104871852D01*
X238264075Y-105066151D01*
X238170842Y-105278699D01*
X238113866Y-105503691D01*
X238113864Y-105503702D01*
X238094700Y-105734993D01*
X237505300Y-105734993D01*
X237486135Y-105503702D01*
X237486133Y-105503691D01*
X237429157Y-105278699D01*
X237335924Y-105066151D01*
X237208983Y-104871852D01*
X237208980Y-104871849D01*
X237208979Y-104871847D01*
X237051784Y-104701087D01*
X237051779Y-104701083D01*
X237051777Y-104701081D01*
X236868634Y-104558535D01*
X236868628Y-104558531D01*
X236664504Y-104448064D01*
X236664495Y-104448061D01*
X236444984Y-104372702D01*
X236273282Y-104344050D01*
X236216049Y-104334500D01*
X235983951Y-104334500D01*
X235938164Y-104342140D01*
X235755015Y-104372702D01*
X235535504Y-104448061D01*
X235535495Y-104448064D01*
X235331371Y-104558531D01*
X235331365Y-104558535D01*
X235148222Y-104701081D01*
X235148219Y-104701084D01*
X234991016Y-104871852D01*
X234864075Y-105066151D01*
X234770842Y-105278699D01*
X234713866Y-105503691D01*
X234713864Y-105503702D01*
X234694700Y-105734993D01*
X194575619Y-105734993D01*
X194528696Y-105539542D01*
X194435331Y-105314138D01*
X194311494Y-105112057D01*
X193689309Y-105734242D01*
X193670332Y-105688426D01*
X193593726Y-105573776D01*
X193496224Y-105476274D01*
X193381574Y-105399668D01*
X193335756Y-105380689D01*
X193957941Y-104758504D01*
X193755861Y-104634668D01*
X193530457Y-104541303D01*
X193293219Y-104484348D01*
X193293220Y-104484348D01*
X193050000Y-104465207D01*
X192806780Y-104484348D01*
X192569542Y-104541303D01*
X192344138Y-104634668D01*
X192142057Y-104758504D01*
X192764243Y-105380689D01*
X192718426Y-105399668D01*
X192603776Y-105476274D01*
X192506274Y-105573776D01*
X192429668Y-105688426D01*
X192410690Y-105734243D01*
X191788504Y-105112057D01*
X191664668Y-105314138D01*
X191571303Y-105539542D01*
X191514348Y-105776780D01*
X191495207Y-106020000D01*
X189225277Y-106020000D01*
X189206207Y-105802023D01*
X189149575Y-105590670D01*
X189057102Y-105392362D01*
X189057100Y-105392359D01*
X189057099Y-105392357D01*
X188931599Y-105213124D01*
X188860089Y-105141614D01*
X188776877Y-105058402D01*
X188597642Y-104932900D01*
X188597638Y-104932897D01*
X188466725Y-104871852D01*
X188399330Y-104840425D01*
X188399326Y-104840424D01*
X188399322Y-104840422D01*
X188187977Y-104783793D01*
X187970002Y-104764723D01*
X187969998Y-104764723D01*
X187824682Y-104777436D01*
X187752023Y-104783793D01*
X187752020Y-104783793D01*
X187540677Y-104840422D01*
X187540668Y-104840426D01*
X187342361Y-104932898D01*
X187342357Y-104932900D01*
X187163121Y-105058402D01*
X187008402Y-105213121D01*
X186882900Y-105392357D01*
X186882898Y-105392361D01*
X186879491Y-105399668D01*
X186790426Y-105590669D01*
X186790422Y-105590677D01*
X186733793Y-105802020D01*
X186733793Y-105802024D01*
X186717739Y-105985531D01*
X186714723Y-106020000D01*
X179684793Y-106020000D01*
X179665652Y-105776780D01*
X179608697Y-105539542D01*
X179515332Y-105314138D01*
X179391495Y-105112057D01*
X178769310Y-105734242D01*
X178750333Y-105688426D01*
X178673727Y-105573776D01*
X178576225Y-105476274D01*
X178461575Y-105399668D01*
X178415757Y-105380689D01*
X179037942Y-104758504D01*
X178835862Y-104634668D01*
X178610458Y-104541303D01*
X178373220Y-104484348D01*
X178373221Y-104484348D01*
X178130001Y-104465207D01*
X177886781Y-104484348D01*
X177649543Y-104541303D01*
X177424139Y-104634668D01*
X177222058Y-104758504D01*
X177844244Y-105380689D01*
X177798427Y-105399668D01*
X177683777Y-105476274D01*
X177586275Y-105573776D01*
X177509669Y-105688426D01*
X177490691Y-105734243D01*
X176868505Y-105112057D01*
X176744669Y-105314138D01*
X176651304Y-105539542D01*
X176594349Y-105776780D01*
X176575208Y-106020000D01*
X174305278Y-106020000D01*
X174286208Y-105802023D01*
X174229576Y-105590670D01*
X174137103Y-105392362D01*
X174137101Y-105392359D01*
X174137100Y-105392357D01*
X174011600Y-105213124D01*
X173940090Y-105141614D01*
X173856878Y-105058402D01*
X173677643Y-104932900D01*
X173677639Y-104932897D01*
X173546726Y-104871852D01*
X173479331Y-104840425D01*
X173479327Y-104840424D01*
X173479323Y-104840422D01*
X173267978Y-104783793D01*
X173050003Y-104764723D01*
X173049999Y-104764723D01*
X172904683Y-104777436D01*
X172832024Y-104783793D01*
X172832021Y-104783793D01*
X172620678Y-104840422D01*
X172620669Y-104840426D01*
X172422362Y-104932898D01*
X172422358Y-104932900D01*
X172243122Y-105058402D01*
X172088403Y-105213121D01*
X171962901Y-105392357D01*
X171962899Y-105392361D01*
X171959492Y-105399668D01*
X171870427Y-105590669D01*
X171870423Y-105590677D01*
X171813794Y-105802020D01*
X171813794Y-105802024D01*
X171797740Y-105985531D01*
X171794724Y-106020000D01*
X164684792Y-106020000D01*
X164665651Y-105776780D01*
X164608696Y-105539542D01*
X164515331Y-105314138D01*
X164391494Y-105112057D01*
X163769309Y-105734242D01*
X163750332Y-105688426D01*
X163673726Y-105573776D01*
X163576224Y-105476274D01*
X163461574Y-105399668D01*
X163415756Y-105380689D01*
X164037941Y-104758504D01*
X163835861Y-104634668D01*
X163610457Y-104541303D01*
X163373219Y-104484348D01*
X163373220Y-104484348D01*
X163130000Y-104465207D01*
X162886780Y-104484348D01*
X162649542Y-104541303D01*
X162424138Y-104634668D01*
X162222057Y-104758504D01*
X162844243Y-105380689D01*
X162798426Y-105399668D01*
X162683776Y-105476274D01*
X162586274Y-105573776D01*
X162509668Y-105688426D01*
X162490690Y-105734243D01*
X161868504Y-105112057D01*
X161744668Y-105314138D01*
X161651303Y-105539542D01*
X161594348Y-105776780D01*
X161575207Y-106020000D01*
X159305277Y-106020000D01*
X159286207Y-105802023D01*
X159229575Y-105590670D01*
X159137102Y-105392362D01*
X159137100Y-105392359D01*
X159137099Y-105392357D01*
X159011599Y-105213124D01*
X158940089Y-105141614D01*
X158856877Y-105058402D01*
X158677642Y-104932900D01*
X158677638Y-104932897D01*
X158546725Y-104871852D01*
X158479330Y-104840425D01*
X158479326Y-104840424D01*
X158479322Y-104840422D01*
X158267977Y-104783793D01*
X158050002Y-104764723D01*
X158049998Y-104764723D01*
X157904682Y-104777436D01*
X157832023Y-104783793D01*
X157832020Y-104783793D01*
X157620677Y-104840422D01*
X157620668Y-104840426D01*
X157422361Y-104932898D01*
X157422357Y-104932900D01*
X157243121Y-105058402D01*
X157088402Y-105213121D01*
X156962900Y-105392357D01*
X156962898Y-105392361D01*
X156959491Y-105399668D01*
X156870426Y-105590669D01*
X156870422Y-105590677D01*
X156813793Y-105802020D01*
X156813793Y-105802024D01*
X156797739Y-105985531D01*
X156794723Y-106020000D01*
X149554792Y-106020000D01*
X149535651Y-105776780D01*
X149478696Y-105539542D01*
X149385331Y-105314138D01*
X149261494Y-105112057D01*
X148639309Y-105734242D01*
X148620332Y-105688426D01*
X148543726Y-105573776D01*
X148446224Y-105476274D01*
X148331574Y-105399668D01*
X148285756Y-105380689D01*
X148907941Y-104758504D01*
X148705861Y-104634668D01*
X148480457Y-104541303D01*
X148243219Y-104484348D01*
X148243220Y-104484348D01*
X148000000Y-104465207D01*
X147756780Y-104484348D01*
X147519542Y-104541303D01*
X147294138Y-104634668D01*
X147092057Y-104758504D01*
X147714243Y-105380689D01*
X147668426Y-105399668D01*
X147553776Y-105476274D01*
X147456274Y-105573776D01*
X147379668Y-105688426D01*
X147360690Y-105734243D01*
X146738504Y-105112057D01*
X146614668Y-105314138D01*
X146521303Y-105539542D01*
X146464348Y-105776780D01*
X146445207Y-106020000D01*
X144175277Y-106020000D01*
X144156207Y-105802023D01*
X144099575Y-105590670D01*
X144007102Y-105392362D01*
X144007100Y-105392359D01*
X144007099Y-105392357D01*
X143881599Y-105213124D01*
X143810089Y-105141614D01*
X143726877Y-105058402D01*
X143547642Y-104932900D01*
X143547638Y-104932897D01*
X143416725Y-104871852D01*
X143349330Y-104840425D01*
X143349326Y-104840424D01*
X143349322Y-104840422D01*
X143137977Y-104783793D01*
X142920002Y-104764723D01*
X142919998Y-104764723D01*
X142774682Y-104777436D01*
X142702023Y-104783793D01*
X142702020Y-104783793D01*
X142490677Y-104840422D01*
X142490668Y-104840426D01*
X142292361Y-104932898D01*
X142292357Y-104932900D01*
X142113121Y-105058402D01*
X141958402Y-105213121D01*
X141832900Y-105392357D01*
X141832898Y-105392361D01*
X141829491Y-105399668D01*
X141740426Y-105590669D01*
X141740422Y-105590677D01*
X141683793Y-105802020D01*
X141683793Y-105802024D01*
X141667739Y-105985531D01*
X141664723Y-106020000D01*
X134684792Y-106020000D01*
X134684792Y-106019999D01*
X134665651Y-105776779D01*
X134608696Y-105539541D01*
X134515331Y-105314137D01*
X134391494Y-105112056D01*
X133769309Y-105734241D01*
X133750332Y-105688425D01*
X133673726Y-105573775D01*
X133576224Y-105476273D01*
X133461574Y-105399667D01*
X133415756Y-105380688D01*
X134037941Y-104758503D01*
X133835861Y-104634667D01*
X133610457Y-104541302D01*
X133373219Y-104484347D01*
X133373220Y-104484347D01*
X133130000Y-104465206D01*
X132886780Y-104484347D01*
X132649542Y-104541302D01*
X132424138Y-104634667D01*
X132222057Y-104758503D01*
X132844243Y-105380688D01*
X132798426Y-105399667D01*
X132683776Y-105476273D01*
X132586274Y-105573775D01*
X132509668Y-105688425D01*
X132490690Y-105734242D01*
X131868504Y-105112056D01*
X131744668Y-105314137D01*
X131651303Y-105539541D01*
X131594348Y-105776779D01*
X131575207Y-106019999D01*
X129305277Y-106019999D01*
X129286207Y-105802022D01*
X129229575Y-105590669D01*
X129137102Y-105392361D01*
X129137099Y-105392357D01*
X129137099Y-105392356D01*
X129011599Y-105213123D01*
X128940090Y-105141614D01*
X128856877Y-105058401D01*
X128702453Y-104950272D01*
X128677638Y-104932896D01*
X128578484Y-104886660D01*
X128479330Y-104840424D01*
X128479326Y-104840423D01*
X128479322Y-104840421D01*
X128267977Y-104783792D01*
X128050002Y-104764722D01*
X128049998Y-104764722D01*
X127904682Y-104777435D01*
X127832023Y-104783792D01*
X127832020Y-104783792D01*
X127620677Y-104840421D01*
X127620668Y-104840425D01*
X127422361Y-104932897D01*
X127422357Y-104932899D01*
X127243121Y-105058401D01*
X127088402Y-105213120D01*
X126962900Y-105392356D01*
X126962898Y-105392360D01*
X126897609Y-105532372D01*
X126870426Y-105590668D01*
X126870422Y-105590676D01*
X126813793Y-105802019D01*
X126813793Y-105802023D01*
X126800755Y-105951056D01*
X126794723Y-106019999D01*
X119754793Y-106019999D01*
X119735652Y-105776780D01*
X119678697Y-105539542D01*
X119585332Y-105314138D01*
X119461495Y-105112057D01*
X118839310Y-105734242D01*
X118820333Y-105688426D01*
X118743727Y-105573776D01*
X118646225Y-105476274D01*
X118531575Y-105399668D01*
X118485757Y-105380689D01*
X119107942Y-104758504D01*
X118905862Y-104634668D01*
X118680458Y-104541303D01*
X118443220Y-104484348D01*
X118443221Y-104484348D01*
X118200001Y-104465207D01*
X117956781Y-104484348D01*
X117719543Y-104541303D01*
X117494139Y-104634668D01*
X117292058Y-104758504D01*
X117914244Y-105380689D01*
X117868427Y-105399668D01*
X117753777Y-105476274D01*
X117656275Y-105573776D01*
X117579669Y-105688426D01*
X117560691Y-105734243D01*
X116938505Y-105112057D01*
X116814669Y-105314138D01*
X116721304Y-105539542D01*
X116664349Y-105776780D01*
X116645208Y-106020000D01*
X114375278Y-106020000D01*
X114356208Y-105802023D01*
X114299576Y-105590670D01*
X114207103Y-105392362D01*
X114207101Y-105392359D01*
X114207100Y-105392357D01*
X114081600Y-105213124D01*
X114010090Y-105141614D01*
X113926878Y-105058402D01*
X113747643Y-104932900D01*
X113747639Y-104932897D01*
X113616726Y-104871852D01*
X113549331Y-104840425D01*
X113549327Y-104840424D01*
X113549323Y-104840422D01*
X113337978Y-104783793D01*
X113120003Y-104764723D01*
X113119999Y-104764723D01*
X112974683Y-104777436D01*
X112902024Y-104783793D01*
X112902021Y-104783793D01*
X112690678Y-104840422D01*
X112690669Y-104840426D01*
X112492362Y-104932898D01*
X112492358Y-104932900D01*
X112313122Y-105058402D01*
X112158403Y-105213121D01*
X112032901Y-105392357D01*
X112032899Y-105392361D01*
X112029492Y-105399668D01*
X111940427Y-105590669D01*
X111940423Y-105590677D01*
X111883794Y-105802020D01*
X111883794Y-105802024D01*
X111867740Y-105985531D01*
X111864724Y-106020000D01*
X100250500Y-106020000D01*
X100250500Y-105862075D01*
X102491476Y-105862075D01*
X102615462Y-105928348D01*
X102803969Y-105985531D01*
X102803965Y-105985531D01*
X103000000Y-106004838D01*
X103196032Y-105985531D01*
X103384537Y-105928348D01*
X103508523Y-105862076D01*
X103508523Y-105862075D01*
X103000001Y-105353553D01*
X103000000Y-105353553D01*
X102491476Y-105862075D01*
X100250500Y-105862075D01*
X100250500Y-105000000D01*
X101995161Y-105000000D01*
X102014468Y-105196032D01*
X102071651Y-105384537D01*
X102137923Y-105508522D01*
X102646447Y-105000000D01*
X102596719Y-104950272D01*
X102750000Y-104950272D01*
X102750000Y-105049728D01*
X102788060Y-105141614D01*
X102858386Y-105211940D01*
X102950272Y-105250000D01*
X103049728Y-105250000D01*
X103141614Y-105211940D01*
X103211940Y-105141614D01*
X103250000Y-105049728D01*
X103250000Y-104999999D01*
X103353553Y-104999999D01*
X103353553Y-105000000D01*
X103862076Y-105508523D01*
X103881147Y-105472844D01*
X105325000Y-105472844D01*
X105331401Y-105532372D01*
X105331403Y-105532379D01*
X105381645Y-105667086D01*
X105381649Y-105667093D01*
X105467809Y-105782187D01*
X105467812Y-105782190D01*
X105582906Y-105868350D01*
X105582913Y-105868354D01*
X105717620Y-105918596D01*
X105717627Y-105918598D01*
X105777155Y-105924999D01*
X105777172Y-105925000D01*
X106000000Y-105925000D01*
X106000000Y-105250000D01*
X105325000Y-105250000D01*
X105325000Y-105472844D01*
X103881147Y-105472844D01*
X103928348Y-105384537D01*
X103985531Y-105196032D01*
X104004838Y-105000000D01*
X103999940Y-104950272D01*
X106000000Y-104950272D01*
X106000000Y-105049728D01*
X106038060Y-105141614D01*
X106108386Y-105211940D01*
X106200272Y-105250000D01*
X106299728Y-105250000D01*
X106391614Y-105211940D01*
X106461940Y-105141614D01*
X106500000Y-105049728D01*
X106500000Y-105925000D01*
X106722828Y-105925000D01*
X106722844Y-105924999D01*
X106782372Y-105918598D01*
X106782379Y-105918596D01*
X106917086Y-105868354D01*
X106917093Y-105868350D01*
X107032187Y-105782190D01*
X107032190Y-105782187D01*
X107112290Y-105675189D01*
X107168223Y-105633318D01*
X107211556Y-105625500D01*
X107325950Y-105625500D01*
X107375110Y-105613382D01*
X107473434Y-105589148D01*
X107607934Y-105518557D01*
X107721632Y-105417830D01*
X107807921Y-105292819D01*
X107861785Y-105150791D01*
X107880094Y-105000000D01*
X107861785Y-104849209D01*
X107807921Y-104707181D01*
X107721632Y-104582170D01*
X107607934Y-104481443D01*
X107473434Y-104410852D01*
X107473433Y-104410851D01*
X107473432Y-104410851D01*
X107325950Y-104374500D01*
X107325949Y-104374500D01*
X107211556Y-104374500D01*
X107144517Y-104354815D01*
X107112290Y-104324811D01*
X107032190Y-104217812D01*
X107032187Y-104217809D01*
X106917093Y-104131649D01*
X106917086Y-104131645D01*
X106782379Y-104081403D01*
X106782372Y-104081401D01*
X106722844Y-104075000D01*
X106500000Y-104075000D01*
X106500000Y-104950272D01*
X106461940Y-104858386D01*
X106391614Y-104788060D01*
X106299728Y-104750000D01*
X106200272Y-104750000D01*
X106108386Y-104788060D01*
X106038060Y-104858386D01*
X106000000Y-104950272D01*
X103999940Y-104950272D01*
X103985531Y-104803967D01*
X103928348Y-104615462D01*
X103881146Y-104527155D01*
X105325000Y-104527155D01*
X105325000Y-104750000D01*
X106000000Y-104750000D01*
X106000000Y-104075000D01*
X105777155Y-104075000D01*
X105717627Y-104081401D01*
X105717620Y-104081403D01*
X105582913Y-104131645D01*
X105582906Y-104131649D01*
X105467812Y-104217809D01*
X105467809Y-104217812D01*
X105381649Y-104332906D01*
X105381645Y-104332913D01*
X105331403Y-104467620D01*
X105331401Y-104467627D01*
X105325000Y-104527155D01*
X103881146Y-104527155D01*
X103862075Y-104491476D01*
X103353553Y-104999999D01*
X103250000Y-104999999D01*
X103250000Y-104950272D01*
X103211940Y-104858386D01*
X103141614Y-104788060D01*
X103049728Y-104750000D01*
X102950272Y-104750000D01*
X102858386Y-104788060D01*
X102788060Y-104858386D01*
X102750000Y-104950272D01*
X102596719Y-104950272D01*
X102137923Y-104491476D01*
X102071649Y-104615466D01*
X102014468Y-104803967D01*
X101995161Y-105000000D01*
X100250500Y-105000000D01*
X100250500Y-104137923D01*
X102491476Y-104137923D01*
X103000000Y-104646447D01*
X103000001Y-104646447D01*
X103508522Y-104137923D01*
X103384537Y-104071651D01*
X103196030Y-104014468D01*
X103196034Y-104014468D01*
X103000000Y-103995161D01*
X102803967Y-104014468D01*
X102615466Y-104071649D01*
X102491476Y-104137923D01*
X100250500Y-104137923D01*
X100250500Y-101375247D01*
X204114500Y-101375247D01*
X204114500Y-103364752D01*
X204126131Y-103423229D01*
X204126132Y-103423230D01*
X204170447Y-103489552D01*
X204236769Y-103533867D01*
X204236770Y-103533868D01*
X204295247Y-103545499D01*
X204295250Y-103545500D01*
X204295252Y-103545500D01*
X206284750Y-103545500D01*
X206284751Y-103545499D01*
X206299568Y-103542552D01*
X206343229Y-103533868D01*
X206343229Y-103533867D01*
X206343231Y-103533867D01*
X206409552Y-103489552D01*
X206453867Y-103423231D01*
X206453867Y-103423229D01*
X206453868Y-103423229D01*
X206465499Y-103364752D01*
X206465500Y-103364750D01*
X206465500Y-102369994D01*
X213329945Y-102369994D01*
X213329945Y-102370005D01*
X213350130Y-102613605D01*
X213410138Y-102850573D01*
X213508330Y-103074429D01*
X213604626Y-103221819D01*
X214208958Y-102617487D01*
X214233978Y-102677890D01*
X214305112Y-102784351D01*
X214395649Y-102874888D01*
X214502110Y-102946022D01*
X214562511Y-102971041D01*
X213957758Y-103575794D01*
X213957758Y-103575796D01*
X214000478Y-103609046D01*
X214000484Y-103609050D01*
X214215468Y-103725394D01*
X214215476Y-103725397D01*
X214446664Y-103804765D01*
X214687779Y-103845000D01*
X214932221Y-103845000D01*
X215173335Y-103804765D01*
X215404523Y-103725397D01*
X215404531Y-103725394D01*
X215619514Y-103609051D01*
X215619514Y-103609050D01*
X215662240Y-103575795D01*
X215662240Y-103575794D01*
X215057488Y-102971041D01*
X215117890Y-102946022D01*
X215224351Y-102874888D01*
X215314888Y-102784351D01*
X215386022Y-102677890D01*
X215411041Y-102617488D01*
X216015372Y-103221819D01*
X216111667Y-103074431D01*
X216111672Y-103074423D01*
X216209861Y-102850573D01*
X216269869Y-102613605D01*
X216290055Y-102370005D01*
X216290055Y-102369994D01*
X216269869Y-102126394D01*
X216209861Y-101889426D01*
X216111669Y-101665570D01*
X216015372Y-101518179D01*
X215411041Y-102122510D01*
X215386022Y-102062110D01*
X215314888Y-101955649D01*
X215224351Y-101865112D01*
X215117890Y-101793978D01*
X215057487Y-101768958D01*
X215662240Y-101164204D01*
X215662240Y-101164203D01*
X215619514Y-101130949D01*
X215404531Y-101014605D01*
X215404523Y-101014602D01*
X215173335Y-100935234D01*
X214932221Y-100895000D01*
X214687779Y-100895000D01*
X214446664Y-100935234D01*
X214215476Y-101014602D01*
X214215468Y-101014605D01*
X214000481Y-101130951D01*
X213957758Y-101164202D01*
X213957757Y-101164204D01*
X214562511Y-101768958D01*
X214502110Y-101793978D01*
X214395649Y-101865112D01*
X214305112Y-101955649D01*
X214233978Y-102062110D01*
X214208958Y-102122511D01*
X213604626Y-101518179D01*
X213508328Y-101665575D01*
X213410138Y-101889426D01*
X213350130Y-102126394D01*
X213329945Y-102369994D01*
X206465500Y-102369994D01*
X206465500Y-101375249D01*
X206465499Y-101375247D01*
X206453868Y-101316770D01*
X206453867Y-101316769D01*
X206409552Y-101250447D01*
X206343230Y-101206132D01*
X206343229Y-101206131D01*
X206284752Y-101194500D01*
X206284748Y-101194500D01*
X204295252Y-101194500D01*
X204295247Y-101194500D01*
X204236770Y-101206131D01*
X204236769Y-101206132D01*
X204170447Y-101250447D01*
X204126132Y-101316769D01*
X204126131Y-101316770D01*
X204114500Y-101375247D01*
X100250500Y-101375247D01*
X100250500Y-100250000D01*
X242544355Y-100250000D01*
X242564859Y-100418869D01*
X242564860Y-100418874D01*
X242625182Y-100577931D01*
X242687475Y-100668177D01*
X242721817Y-100717929D01*
X242827505Y-100811560D01*
X242849150Y-100830736D01*
X242971595Y-100895000D01*
X242999775Y-100909790D01*
X243164944Y-100950500D01*
X243335056Y-100950500D01*
X243500225Y-100909790D01*
X243579692Y-100868081D01*
X243650849Y-100830736D01*
X243650850Y-100830734D01*
X243650852Y-100830734D01*
X243778183Y-100717929D01*
X243874818Y-100577930D01*
X243935140Y-100418872D01*
X243955645Y-100250000D01*
X243935140Y-100081128D01*
X243874818Y-99922070D01*
X243778183Y-99782071D01*
X243650852Y-99669266D01*
X243650849Y-99669263D01*
X243500226Y-99590210D01*
X243335056Y-99549500D01*
X243164944Y-99549500D01*
X242999773Y-99590210D01*
X242849150Y-99669263D01*
X242721816Y-99782072D01*
X242625182Y-99922068D01*
X242564860Y-100081125D01*
X242564859Y-100081130D01*
X242544355Y-100250000D01*
X100250500Y-100250000D01*
X100250500Y-97519999D01*
X114331854Y-97519999D01*
X114352335Y-97662455D01*
X114412123Y-97793370D01*
X114412124Y-97793372D01*
X114506373Y-97902142D01*
X114627448Y-97979952D01*
X114627451Y-97979953D01*
X114627450Y-97979953D01*
X114765537Y-98020498D01*
X114765539Y-98020499D01*
X114765540Y-98020499D01*
X114909463Y-98020499D01*
X114909463Y-98020498D01*
X114911159Y-98020000D01*
X119344355Y-98020000D01*
X119364859Y-98188869D01*
X119364860Y-98188874D01*
X119425182Y-98347931D01*
X119448798Y-98382144D01*
X119521817Y-98487929D01*
X119627505Y-98581560D01*
X119649150Y-98600736D01*
X119799773Y-98679789D01*
X119799775Y-98679790D01*
X119964944Y-98720500D01*
X120135056Y-98720500D01*
X120300225Y-98679790D01*
X120379692Y-98638081D01*
X120450849Y-98600736D01*
X120450850Y-98600734D01*
X120450852Y-98600734D01*
X120578183Y-98487929D01*
X120674818Y-98347930D01*
X120735140Y-98188872D01*
X120755645Y-98020000D01*
X120735140Y-97851128D01*
X120674818Y-97692070D01*
X120661845Y-97673276D01*
X120611266Y-97600000D01*
X120578183Y-97552071D01*
X120549198Y-97526393D01*
X129396471Y-97526393D01*
X129416952Y-97668849D01*
X129473820Y-97793370D01*
X129476741Y-97799766D01*
X129570990Y-97908536D01*
X129692065Y-97986346D01*
X129692068Y-97986347D01*
X129692067Y-97986347D01*
X129830154Y-98026892D01*
X129830156Y-98026893D01*
X129830157Y-98026893D01*
X129974080Y-98026893D01*
X129974080Y-98026892D01*
X129997553Y-98020000D01*
X134344355Y-98020000D01*
X134364859Y-98188869D01*
X134364860Y-98188874D01*
X134425182Y-98347931D01*
X134448798Y-98382144D01*
X134521817Y-98487929D01*
X134627505Y-98581560D01*
X134649150Y-98600736D01*
X134799773Y-98679789D01*
X134799775Y-98679790D01*
X134964944Y-98720500D01*
X135135056Y-98720500D01*
X135300225Y-98679790D01*
X135379692Y-98638081D01*
X135450849Y-98600736D01*
X135450850Y-98600734D01*
X135450852Y-98600734D01*
X135578183Y-98487929D01*
X135674818Y-98347930D01*
X135735140Y-98188872D01*
X135755645Y-98020000D01*
X135735140Y-97851128D01*
X135674818Y-97692070D01*
X135661845Y-97673276D01*
X135611266Y-97600000D01*
X135578183Y-97552071D01*
X135554195Y-97530820D01*
X144305496Y-97530820D01*
X144325977Y-97673276D01*
X144383743Y-97799764D01*
X144385766Y-97804193D01*
X144480015Y-97912963D01*
X144601090Y-97990773D01*
X144601093Y-97990774D01*
X144601092Y-97990774D01*
X144700629Y-98020000D01*
X144724101Y-98026892D01*
X144739179Y-98031319D01*
X144739181Y-98031320D01*
X144739182Y-98031320D01*
X144883105Y-98031320D01*
X144883105Y-98031319D01*
X144921655Y-98020000D01*
X149344355Y-98020000D01*
X149364859Y-98188869D01*
X149364860Y-98188874D01*
X149425182Y-98347931D01*
X149448798Y-98382144D01*
X149521817Y-98487929D01*
X149627505Y-98581560D01*
X149649150Y-98600736D01*
X149799773Y-98679789D01*
X149799775Y-98679790D01*
X149964944Y-98720500D01*
X150135056Y-98720500D01*
X150300225Y-98679790D01*
X150379692Y-98638081D01*
X150450849Y-98600736D01*
X150450850Y-98600734D01*
X150450852Y-98600734D01*
X150578183Y-98487929D01*
X150674818Y-98347930D01*
X150735140Y-98188872D01*
X150755645Y-98020000D01*
X150735140Y-97851128D01*
X150674818Y-97692070D01*
X150661845Y-97673276D01*
X150611266Y-97600000D01*
X150578183Y-97552071D01*
X150541981Y-97519999D01*
X159419354Y-97519999D01*
X159439835Y-97662455D01*
X159499623Y-97793370D01*
X159499624Y-97793372D01*
X159593873Y-97902142D01*
X159714948Y-97979952D01*
X159714951Y-97979953D01*
X159714950Y-97979953D01*
X159853037Y-98020498D01*
X159853039Y-98020499D01*
X159853040Y-98020499D01*
X159996963Y-98020499D01*
X159996963Y-98020498D01*
X159998659Y-98020000D01*
X164344355Y-98020000D01*
X164364859Y-98188869D01*
X164364860Y-98188874D01*
X164425182Y-98347931D01*
X164448798Y-98382144D01*
X164521817Y-98487929D01*
X164627505Y-98581560D01*
X164649150Y-98600736D01*
X164799773Y-98679789D01*
X164799775Y-98679790D01*
X164964944Y-98720500D01*
X165135056Y-98720500D01*
X165300225Y-98679790D01*
X165379692Y-98638081D01*
X165450849Y-98600736D01*
X165450850Y-98600734D01*
X165450852Y-98600734D01*
X165578183Y-98487929D01*
X165674818Y-98347930D01*
X165735140Y-98188872D01*
X165755645Y-98020000D01*
X165735140Y-97851128D01*
X165674818Y-97692070D01*
X165661845Y-97673276D01*
X165611266Y-97600000D01*
X174494353Y-97600000D01*
X174514834Y-97742456D01*
X174564464Y-97851128D01*
X174574623Y-97873373D01*
X174668872Y-97982143D01*
X174789947Y-98059953D01*
X174789950Y-98059954D01*
X174789949Y-98059954D01*
X174928036Y-98100499D01*
X174928038Y-98100500D01*
X174928039Y-98100500D01*
X175071962Y-98100500D01*
X175071962Y-98100499D01*
X175210053Y-98059953D01*
X175272221Y-98020000D01*
X179344355Y-98020000D01*
X179364859Y-98188869D01*
X179364860Y-98188874D01*
X179425182Y-98347931D01*
X179448798Y-98382144D01*
X179521817Y-98487929D01*
X179627505Y-98581560D01*
X179649150Y-98600736D01*
X179799773Y-98679789D01*
X179799775Y-98679790D01*
X179964944Y-98720500D01*
X180135056Y-98720500D01*
X180300225Y-98679790D01*
X180379692Y-98638081D01*
X180450849Y-98600736D01*
X180450850Y-98600734D01*
X180450852Y-98600734D01*
X180578183Y-98487929D01*
X180674818Y-98347930D01*
X180735140Y-98188872D01*
X180755645Y-98020000D01*
X180735140Y-97851128D01*
X180674818Y-97692070D01*
X180661845Y-97673276D01*
X180611266Y-97600000D01*
X180578183Y-97552071D01*
X180541982Y-97520000D01*
X189494353Y-97520000D01*
X189514834Y-97662456D01*
X189551370Y-97742457D01*
X189574623Y-97793373D01*
X189668872Y-97902143D01*
X189789947Y-97979953D01*
X189789950Y-97979954D01*
X189789949Y-97979954D01*
X189897107Y-98011417D01*
X189928032Y-98020498D01*
X189928036Y-98020499D01*
X189928038Y-98020500D01*
X189928039Y-98020500D01*
X190071962Y-98020500D01*
X190071962Y-98020499D01*
X190073661Y-98020000D01*
X194344355Y-98020000D01*
X194364859Y-98188869D01*
X194364860Y-98188874D01*
X194425182Y-98347931D01*
X194448798Y-98382144D01*
X194521817Y-98487929D01*
X194627505Y-98581560D01*
X194649150Y-98600736D01*
X194799773Y-98679789D01*
X194799775Y-98679790D01*
X194964944Y-98720500D01*
X195135056Y-98720500D01*
X195300225Y-98679790D01*
X195379692Y-98638081D01*
X195450849Y-98600736D01*
X195450850Y-98600734D01*
X195450852Y-98600734D01*
X195578183Y-98487929D01*
X195674818Y-98347930D01*
X195735140Y-98188872D01*
X195755645Y-98020000D01*
X195753217Y-98000001D01*
X224494353Y-98000001D01*
X224514834Y-98142457D01*
X224574622Y-98273372D01*
X224574623Y-98273374D01*
X224668872Y-98382144D01*
X224789947Y-98459954D01*
X224789950Y-98459955D01*
X224789949Y-98459955D01*
X224928036Y-98500500D01*
X224928038Y-98500501D01*
X224928039Y-98500501D01*
X225071962Y-98500501D01*
X225071962Y-98500500D01*
X225210053Y-98459954D01*
X225331128Y-98382144D01*
X225425377Y-98273374D01*
X225485165Y-98142458D01*
X225505647Y-98000001D01*
X225485165Y-97857544D01*
X225425377Y-97726628D01*
X225331128Y-97617858D01*
X225210053Y-97540048D01*
X225210051Y-97540047D01*
X225210049Y-97540046D01*
X225210050Y-97540046D01*
X225071963Y-97499501D01*
X225071961Y-97499501D01*
X224928039Y-97499501D01*
X224928036Y-97499501D01*
X224789949Y-97540046D01*
X224668873Y-97617857D01*
X224574623Y-97726627D01*
X224574622Y-97726629D01*
X224514834Y-97857544D01*
X224494353Y-98000001D01*
X195753217Y-98000001D01*
X195735140Y-97851128D01*
X195674818Y-97692070D01*
X195661845Y-97673276D01*
X195611266Y-97600000D01*
X195578183Y-97552071D01*
X195450852Y-97439266D01*
X195450849Y-97439263D01*
X195300226Y-97360210D01*
X195135056Y-97319500D01*
X194964944Y-97319500D01*
X194799773Y-97360210D01*
X194649150Y-97439263D01*
X194521816Y-97552072D01*
X194425182Y-97692068D01*
X194364860Y-97851125D01*
X194364859Y-97851130D01*
X194344355Y-98020000D01*
X190073661Y-98020000D01*
X190188280Y-97986346D01*
X190210050Y-97979954D01*
X190210050Y-97979953D01*
X190210053Y-97979953D01*
X190331128Y-97902143D01*
X190425377Y-97793373D01*
X190485165Y-97662457D01*
X190505647Y-97520000D01*
X190485165Y-97377543D01*
X190425377Y-97246627D01*
X190331128Y-97137857D01*
X190210053Y-97060047D01*
X190210051Y-97060046D01*
X190210049Y-97060045D01*
X190210050Y-97060045D01*
X190071963Y-97019500D01*
X190071961Y-97019500D01*
X189928039Y-97019500D01*
X189928036Y-97019500D01*
X189789949Y-97060045D01*
X189668873Y-97137856D01*
X189668872Y-97137856D01*
X189668872Y-97137857D01*
X189656290Y-97152377D01*
X189574623Y-97246626D01*
X189574622Y-97246628D01*
X189514834Y-97377543D01*
X189494353Y-97520000D01*
X180541982Y-97520000D01*
X180450852Y-97439266D01*
X180450849Y-97439263D01*
X180300226Y-97360210D01*
X180135056Y-97319500D01*
X179964944Y-97319500D01*
X179799773Y-97360210D01*
X179649150Y-97439263D01*
X179521816Y-97552072D01*
X179425182Y-97692068D01*
X179364860Y-97851125D01*
X179364859Y-97851130D01*
X179344355Y-98020000D01*
X175272221Y-98020000D01*
X175331128Y-97982143D01*
X175425377Y-97873373D01*
X175485165Y-97742457D01*
X175505647Y-97600000D01*
X175485165Y-97457543D01*
X175425377Y-97326627D01*
X175331128Y-97217857D01*
X175210053Y-97140047D01*
X175210051Y-97140046D01*
X175210049Y-97140045D01*
X175210050Y-97140045D01*
X175071963Y-97099500D01*
X175071961Y-97099500D01*
X174928039Y-97099500D01*
X174928036Y-97099500D01*
X174789949Y-97140045D01*
X174668873Y-97217856D01*
X174574623Y-97326626D01*
X174574622Y-97326628D01*
X174514834Y-97457543D01*
X174494353Y-97600000D01*
X165611266Y-97600000D01*
X165578183Y-97552071D01*
X165450852Y-97439266D01*
X165450849Y-97439263D01*
X165300226Y-97360210D01*
X165135056Y-97319500D01*
X164964944Y-97319500D01*
X164799773Y-97360210D01*
X164649150Y-97439263D01*
X164521816Y-97552072D01*
X164425182Y-97692068D01*
X164364860Y-97851125D01*
X164364859Y-97851130D01*
X164344355Y-98020000D01*
X159998659Y-98020000D01*
X160127592Y-97982143D01*
X160135051Y-97979953D01*
X160135051Y-97979952D01*
X160135054Y-97979952D01*
X160256129Y-97902142D01*
X160350378Y-97793372D01*
X160410166Y-97662456D01*
X160430648Y-97519999D01*
X160410166Y-97377542D01*
X160350378Y-97246626D01*
X160256129Y-97137856D01*
X160135054Y-97060046D01*
X160135052Y-97060045D01*
X160135050Y-97060044D01*
X160135051Y-97060044D01*
X159996964Y-97019499D01*
X159996962Y-97019499D01*
X159853040Y-97019499D01*
X159853037Y-97019499D01*
X159714950Y-97060044D01*
X159593874Y-97137855D01*
X159593873Y-97137855D01*
X159593873Y-97137856D01*
X159584497Y-97148677D01*
X159499624Y-97246625D01*
X159499623Y-97246627D01*
X159439835Y-97377542D01*
X159419354Y-97519999D01*
X150541981Y-97519999D01*
X150450852Y-97439266D01*
X150450849Y-97439263D01*
X150300226Y-97360210D01*
X150135056Y-97319500D01*
X149964944Y-97319500D01*
X149799773Y-97360210D01*
X149649150Y-97439263D01*
X149521816Y-97552072D01*
X149425182Y-97692068D01*
X149364860Y-97851125D01*
X149364859Y-97851130D01*
X149344355Y-98020000D01*
X144921655Y-98020000D01*
X145021196Y-97990773D01*
X145142271Y-97912963D01*
X145236520Y-97804193D01*
X145296308Y-97673277D01*
X145316790Y-97530820D01*
X145296308Y-97388363D01*
X145236520Y-97257447D01*
X145142271Y-97148677D01*
X145021196Y-97070867D01*
X145021194Y-97070866D01*
X145021192Y-97070865D01*
X145021193Y-97070865D01*
X144883106Y-97030320D01*
X144883104Y-97030320D01*
X144739182Y-97030320D01*
X144739179Y-97030320D01*
X144601092Y-97070865D01*
X144480016Y-97148676D01*
X144385766Y-97257446D01*
X144385765Y-97257448D01*
X144325977Y-97388363D01*
X144305496Y-97530820D01*
X135554195Y-97530820D01*
X135450852Y-97439266D01*
X135450849Y-97439263D01*
X135300226Y-97360210D01*
X135135056Y-97319500D01*
X134964944Y-97319500D01*
X134799773Y-97360210D01*
X134649150Y-97439263D01*
X134521816Y-97552072D01*
X134425182Y-97692068D01*
X134364860Y-97851125D01*
X134364859Y-97851130D01*
X134344355Y-98020000D01*
X129997553Y-98020000D01*
X130081239Y-97995428D01*
X130112168Y-97986347D01*
X130112168Y-97986346D01*
X130112171Y-97986346D01*
X130233246Y-97908536D01*
X130327495Y-97799766D01*
X130387283Y-97668850D01*
X130407765Y-97526393D01*
X130387283Y-97383936D01*
X130327495Y-97253020D01*
X130233246Y-97144250D01*
X130112171Y-97066440D01*
X130112169Y-97066439D01*
X130112167Y-97066438D01*
X130112168Y-97066438D01*
X129974081Y-97025893D01*
X129974079Y-97025893D01*
X129830157Y-97025893D01*
X129830154Y-97025893D01*
X129692067Y-97066438D01*
X129570991Y-97144249D01*
X129476741Y-97253019D01*
X129476740Y-97253021D01*
X129416952Y-97383936D01*
X129396471Y-97526393D01*
X120549198Y-97526393D01*
X120450852Y-97439266D01*
X120450849Y-97439263D01*
X120300226Y-97360210D01*
X120135056Y-97319500D01*
X119964944Y-97319500D01*
X119799773Y-97360210D01*
X119649150Y-97439263D01*
X119521816Y-97552072D01*
X119425182Y-97692068D01*
X119364860Y-97851125D01*
X119364859Y-97851130D01*
X119344355Y-98020000D01*
X114911159Y-98020000D01*
X115040092Y-97982143D01*
X115047551Y-97979953D01*
X115047551Y-97979952D01*
X115047554Y-97979952D01*
X115168629Y-97902142D01*
X115262878Y-97793372D01*
X115322666Y-97662456D01*
X115343148Y-97519999D01*
X115322666Y-97377542D01*
X115262878Y-97246626D01*
X115168629Y-97137856D01*
X115047554Y-97060046D01*
X115047552Y-97060045D01*
X115047550Y-97060044D01*
X115047551Y-97060044D01*
X114909464Y-97019499D01*
X114909462Y-97019499D01*
X114765540Y-97019499D01*
X114765537Y-97019499D01*
X114627450Y-97060044D01*
X114506374Y-97137855D01*
X114506373Y-97137855D01*
X114506373Y-97137856D01*
X114496997Y-97148677D01*
X114412124Y-97246625D01*
X114412123Y-97246627D01*
X114352335Y-97377542D01*
X114331854Y-97519999D01*
X100250500Y-97519999D01*
X100250500Y-92276866D01*
X121234499Y-92276866D01*
X121254980Y-92419322D01*
X121311215Y-92542457D01*
X121314769Y-92550239D01*
X121409018Y-92659009D01*
X121530093Y-92736819D01*
X121530096Y-92736820D01*
X121530095Y-92736820D01*
X121668182Y-92777365D01*
X121668184Y-92777366D01*
X121668185Y-92777366D01*
X121812108Y-92777366D01*
X121812108Y-92777365D01*
X121919267Y-92745901D01*
X121950196Y-92736820D01*
X121950196Y-92736819D01*
X121950199Y-92736819D01*
X122071274Y-92659009D01*
X122165523Y-92550239D01*
X122225311Y-92419323D01*
X122245793Y-92276866D01*
X122225311Y-92134409D01*
X122165523Y-92003493D01*
X122071274Y-91894723D01*
X122071271Y-91894721D01*
X122071271Y-91894720D01*
X122050204Y-91881182D01*
X122004448Y-91828379D01*
X121994504Y-91759220D01*
X122023528Y-91695664D01*
X122050201Y-91672552D01*
X122071275Y-91659009D01*
X122146436Y-91572266D01*
X122205210Y-91534495D01*
X122275079Y-91534494D01*
X122333857Y-91572267D01*
X122409018Y-91659008D01*
X122530093Y-91736818D01*
X122530096Y-91736819D01*
X122530095Y-91736819D01*
X122630930Y-91766426D01*
X122666482Y-91776865D01*
X122668182Y-91777364D01*
X122668184Y-91777365D01*
X122668185Y-91777365D01*
X122812108Y-91777365D01*
X122812108Y-91777364D01*
X122937540Y-91740535D01*
X122950196Y-91736819D01*
X122950196Y-91736818D01*
X122950199Y-91736818D01*
X123071274Y-91659008D01*
X123165523Y-91550238D01*
X123225311Y-91419322D01*
X123245793Y-91276865D01*
X123225311Y-91134408D01*
X123165523Y-91003492D01*
X123071274Y-90894722D01*
X123071271Y-90894720D01*
X123050203Y-90881180D01*
X123004448Y-90828376D01*
X122994505Y-90759217D01*
X123023531Y-90695662D01*
X123050203Y-90672550D01*
X123071274Y-90659009D01*
X123165523Y-90550239D01*
X123225311Y-90419323D01*
X123245259Y-90280581D01*
X139964920Y-90280581D01*
X139985401Y-90423037D01*
X139997744Y-90450063D01*
X140045190Y-90553954D01*
X140139439Y-90662724D01*
X140160508Y-90676264D01*
X140206263Y-90729068D01*
X140216207Y-90798227D01*
X140187182Y-90861782D01*
X140160511Y-90884894D01*
X140139440Y-90898435D01*
X140045190Y-91007206D01*
X140045189Y-91007208D01*
X139985401Y-91138123D01*
X139964920Y-91280580D01*
X139985401Y-91423036D01*
X139997744Y-91450062D01*
X140045190Y-91553953D01*
X140139439Y-91662723D01*
X140139441Y-91662724D01*
X140139441Y-91662725D01*
X140160509Y-91676264D01*
X140206265Y-91729067D01*
X140216209Y-91798226D01*
X140187185Y-91861782D01*
X140160512Y-91884894D01*
X140139443Y-91898434D01*
X140139441Y-91898436D01*
X140139439Y-91898437D01*
X140139439Y-91898438D01*
X140128739Y-91910787D01*
X140045190Y-92007207D01*
X140045189Y-92007209D01*
X139985401Y-92138124D01*
X139964920Y-92280581D01*
X139985401Y-92423037D01*
X140019009Y-92496626D01*
X140045190Y-92553954D01*
X140139439Y-92662724D01*
X140260514Y-92740534D01*
X140260517Y-92740535D01*
X140260516Y-92740535D01*
X140348698Y-92766427D01*
X140385950Y-92777365D01*
X140398603Y-92781080D01*
X140398605Y-92781081D01*
X140398606Y-92781081D01*
X140542529Y-92781081D01*
X140542529Y-92781080D01*
X140680620Y-92740534D01*
X140801695Y-92662724D01*
X140895944Y-92553954D01*
X140955732Y-92423038D01*
X140972491Y-92306474D01*
X161738564Y-92306474D01*
X161759045Y-92448930D01*
X161814843Y-92571109D01*
X161818834Y-92579847D01*
X161913083Y-92688617D01*
X162034158Y-92766427D01*
X162034161Y-92766428D01*
X162034160Y-92766428D01*
X162172247Y-92806973D01*
X162172249Y-92806974D01*
X162172250Y-92806974D01*
X162316173Y-92806974D01*
X162316173Y-92806973D01*
X162423332Y-92775509D01*
X162442095Y-92770000D01*
X168124354Y-92770000D01*
X168144835Y-92912456D01*
X168204623Y-93043371D01*
X168204624Y-93043373D01*
X168298873Y-93152143D01*
X168419948Y-93229953D01*
X168419951Y-93229954D01*
X168419950Y-93229954D01*
X168558037Y-93270499D01*
X168558039Y-93270500D01*
X168558040Y-93270500D01*
X168701963Y-93270500D01*
X168701963Y-93270499D01*
X168840054Y-93229953D01*
X168961129Y-93152143D01*
X169055378Y-93043373D01*
X169095849Y-92954754D01*
X225894352Y-92954754D01*
X225914833Y-93097210D01*
X225939921Y-93152143D01*
X225974622Y-93228127D01*
X226068871Y-93336897D01*
X226189946Y-93414707D01*
X226189949Y-93414708D01*
X226189948Y-93414708D01*
X226328035Y-93455253D01*
X226328037Y-93455254D01*
X226328038Y-93455254D01*
X226471961Y-93455254D01*
X226471961Y-93455253D01*
X226610052Y-93414707D01*
X226731127Y-93336897D01*
X226825376Y-93228127D01*
X226885164Y-93097211D01*
X226905646Y-92954754D01*
X231094352Y-92954754D01*
X231114833Y-93097210D01*
X231139921Y-93152143D01*
X231174622Y-93228127D01*
X231268871Y-93336897D01*
X231389946Y-93414707D01*
X231389949Y-93414708D01*
X231389948Y-93414708D01*
X231528035Y-93455253D01*
X231528037Y-93455254D01*
X231528038Y-93455254D01*
X231671961Y-93455254D01*
X231671961Y-93455253D01*
X231810052Y-93414707D01*
X231931127Y-93336897D01*
X232025376Y-93228127D01*
X232085164Y-93097211D01*
X232105646Y-92954754D01*
X232085164Y-92812297D01*
X232025376Y-92681381D01*
X231931127Y-92572611D01*
X231810052Y-92494801D01*
X231810050Y-92494800D01*
X231810048Y-92494799D01*
X231810049Y-92494799D01*
X231671962Y-92454254D01*
X231671960Y-92454254D01*
X231528038Y-92454254D01*
X231528035Y-92454254D01*
X231389948Y-92494799D01*
X231268872Y-92572610D01*
X231174622Y-92681380D01*
X231174621Y-92681382D01*
X231114833Y-92812297D01*
X231094352Y-92954754D01*
X226905646Y-92954754D01*
X226885164Y-92812297D01*
X226825376Y-92681381D01*
X226731127Y-92572611D01*
X226610052Y-92494801D01*
X226610050Y-92494800D01*
X226610048Y-92494799D01*
X226610049Y-92494799D01*
X226471962Y-92454254D01*
X226471960Y-92454254D01*
X226328038Y-92454254D01*
X226328035Y-92454254D01*
X226189948Y-92494799D01*
X226068872Y-92572610D01*
X225974622Y-92681380D01*
X225974621Y-92681382D01*
X225914833Y-92812297D01*
X225894352Y-92954754D01*
X169095849Y-92954754D01*
X169115166Y-92912457D01*
X169135648Y-92770000D01*
X169115166Y-92627543D01*
X169055378Y-92496627D01*
X168961129Y-92387857D01*
X168840054Y-92310047D01*
X168840052Y-92310046D01*
X168840050Y-92310045D01*
X168840051Y-92310045D01*
X168701964Y-92269500D01*
X168701962Y-92269500D01*
X168558040Y-92269500D01*
X168558037Y-92269500D01*
X168419950Y-92310045D01*
X168298874Y-92387856D01*
X168204624Y-92496626D01*
X168204623Y-92496628D01*
X168144835Y-92627543D01*
X168124354Y-92770000D01*
X162442095Y-92770000D01*
X162454261Y-92766428D01*
X162454261Y-92766427D01*
X162454264Y-92766427D01*
X162575339Y-92688617D01*
X162669588Y-92579847D01*
X162729376Y-92448931D01*
X162749858Y-92306474D01*
X162729376Y-92164017D01*
X162669588Y-92033101D01*
X162575339Y-91924331D01*
X162575336Y-91924329D01*
X162575336Y-91924328D01*
X162554269Y-91910790D01*
X162508513Y-91857987D01*
X162498569Y-91788828D01*
X162527593Y-91725272D01*
X162554266Y-91702160D01*
X162575340Y-91688617D01*
X162650501Y-91601874D01*
X162709275Y-91564103D01*
X162779144Y-91564102D01*
X162837922Y-91601875D01*
X162913083Y-91688616D01*
X163034158Y-91766426D01*
X163034161Y-91766427D01*
X163034160Y-91766427D01*
X163110453Y-91788828D01*
X163170547Y-91806473D01*
X163172247Y-91806972D01*
X163172249Y-91806973D01*
X163172250Y-91806973D01*
X163316173Y-91806973D01*
X163316173Y-91806972D01*
X163450402Y-91767560D01*
X163454261Y-91766427D01*
X163454261Y-91766426D01*
X163454264Y-91766426D01*
X163575339Y-91688616D01*
X163669588Y-91579846D01*
X163729376Y-91448930D01*
X163749858Y-91306473D01*
X163729376Y-91164016D01*
X163669588Y-91033100D01*
X163575339Y-90924330D01*
X163561741Y-90915591D01*
X163554268Y-90910788D01*
X163508513Y-90857984D01*
X163498570Y-90788825D01*
X163527596Y-90725270D01*
X163554268Y-90702158D01*
X163575339Y-90688617D01*
X163669588Y-90579847D01*
X163729376Y-90448931D01*
X163749695Y-90307606D01*
X181733367Y-90307606D01*
X181753848Y-90450062D01*
X181809129Y-90571109D01*
X181813637Y-90580979D01*
X181907886Y-90689749D01*
X181913598Y-90693420D01*
X181928957Y-90703291D01*
X181974712Y-90756095D01*
X181984655Y-90825254D01*
X181955629Y-90888809D01*
X181928957Y-90911921D01*
X181907888Y-90925461D01*
X181813637Y-91034232D01*
X181813636Y-91034234D01*
X181753848Y-91165149D01*
X181733367Y-91307606D01*
X181753848Y-91450062D01*
X181813120Y-91579847D01*
X181813637Y-91580979D01*
X181907886Y-91689749D01*
X181913594Y-91693417D01*
X181928957Y-91703291D01*
X181974712Y-91756095D01*
X181984655Y-91825254D01*
X181955629Y-91888809D01*
X181928957Y-91911921D01*
X181907888Y-91925461D01*
X181813637Y-92034232D01*
X181813636Y-92034234D01*
X181753848Y-92165149D01*
X181733367Y-92307606D01*
X181753848Y-92450062D01*
X181809129Y-92571109D01*
X181813637Y-92580979D01*
X181907886Y-92689749D01*
X182028961Y-92767559D01*
X182028964Y-92767560D01*
X182028963Y-92767560D01*
X182133435Y-92798235D01*
X182163194Y-92806973D01*
X182167050Y-92808105D01*
X182167052Y-92808106D01*
X182167053Y-92808106D01*
X182310976Y-92808106D01*
X182310976Y-92808105D01*
X182449067Y-92767559D01*
X182570142Y-92689749D01*
X182664391Y-92580979D01*
X182724179Y-92450063D01*
X182744661Y-92307606D01*
X182724179Y-92165149D01*
X182664391Y-92034233D01*
X182570142Y-91925463D01*
X182570139Y-91925461D01*
X182570139Y-91925460D01*
X182549072Y-91911922D01*
X182503316Y-91859119D01*
X182493372Y-91789960D01*
X182522396Y-91726404D01*
X182549072Y-91703290D01*
X182570139Y-91689751D01*
X182570139Y-91689750D01*
X182570142Y-91689749D01*
X182645301Y-91603009D01*
X182704078Y-91565235D01*
X182773948Y-91565235D01*
X182832726Y-91603009D01*
X182832727Y-91603010D01*
X182899334Y-91679880D01*
X182907886Y-91689749D01*
X183028961Y-91767559D01*
X183028964Y-91767560D01*
X183028963Y-91767560D01*
X183120749Y-91794510D01*
X183165350Y-91807606D01*
X183167050Y-91808105D01*
X183167052Y-91808106D01*
X183167053Y-91808106D01*
X183310976Y-91808106D01*
X183310976Y-91808105D01*
X183449067Y-91767559D01*
X183570142Y-91689749D01*
X183664391Y-91580979D01*
X183724179Y-91450063D01*
X183744661Y-91307606D01*
X183724179Y-91165149D01*
X183664391Y-91034233D01*
X183570142Y-90925463D01*
X183570139Y-90925461D01*
X183570139Y-90925460D01*
X183549072Y-90911922D01*
X183503316Y-90859119D01*
X183493372Y-90789960D01*
X183522396Y-90726404D01*
X183549072Y-90703290D01*
X183570139Y-90689751D01*
X183570139Y-90689750D01*
X183570142Y-90689749D01*
X183664391Y-90580979D01*
X183724179Y-90450063D01*
X183744661Y-90307606D01*
X183743242Y-90297736D01*
X201520421Y-90297736D01*
X201540902Y-90440192D01*
X201592856Y-90553954D01*
X201600691Y-90571109D01*
X201694940Y-90679879D01*
X201702392Y-90684668D01*
X201716011Y-90693421D01*
X201761766Y-90746225D01*
X201771709Y-90815384D01*
X201742683Y-90878939D01*
X201716011Y-90902051D01*
X201694942Y-90915591D01*
X201694940Y-90915592D01*
X201694940Y-90915593D01*
X201686388Y-90925463D01*
X201600691Y-91024362D01*
X201600690Y-91024364D01*
X201540902Y-91155279D01*
X201520421Y-91297736D01*
X201540902Y-91440192D01*
X201592856Y-91553953D01*
X201600691Y-91571109D01*
X201694940Y-91679879D01*
X201694942Y-91679880D01*
X201716011Y-91693421D01*
X201761766Y-91746225D01*
X201771709Y-91815384D01*
X201742683Y-91878939D01*
X201716013Y-91902050D01*
X201694942Y-91915591D01*
X201600692Y-92024362D01*
X201600691Y-92024364D01*
X201540903Y-92155279D01*
X201520422Y-92297736D01*
X201540903Y-92440192D01*
X201592857Y-92553954D01*
X201600692Y-92571109D01*
X201694941Y-92679879D01*
X201816016Y-92757689D01*
X201816019Y-92757690D01*
X201816018Y-92757690D01*
X201954105Y-92798235D01*
X201954107Y-92798236D01*
X201954108Y-92798236D01*
X202098031Y-92798236D01*
X202098031Y-92798235D01*
X202236122Y-92757689D01*
X202357197Y-92679879D01*
X202451446Y-92571109D01*
X202511234Y-92440193D01*
X202531716Y-92297736D01*
X202511234Y-92155279D01*
X202451446Y-92024363D01*
X202357197Y-91915593D01*
X202336124Y-91902050D01*
X202290370Y-91849247D01*
X202280426Y-91780088D01*
X202309451Y-91716532D01*
X202336121Y-91693423D01*
X202357196Y-91679879D01*
X202432355Y-91593139D01*
X202491132Y-91555365D01*
X202561002Y-91555365D01*
X202619779Y-91593138D01*
X202627352Y-91601878D01*
X202691807Y-91676264D01*
X202694940Y-91679879D01*
X202816015Y-91757689D01*
X202816018Y-91757690D01*
X202816017Y-91757690D01*
X202899302Y-91782144D01*
X202952404Y-91797736D01*
X202954104Y-91798235D01*
X202954106Y-91798236D01*
X202954107Y-91798236D01*
X203098030Y-91798236D01*
X203098030Y-91798235D01*
X203206365Y-91766426D01*
X203236118Y-91757690D01*
X203236118Y-91757689D01*
X203236121Y-91757689D01*
X203357196Y-91679879D01*
X203451445Y-91571109D01*
X203511233Y-91440193D01*
X203531715Y-91297736D01*
X203511233Y-91155279D01*
X203451445Y-91024363D01*
X203357196Y-90915593D01*
X203357193Y-90915591D01*
X203357193Y-90915590D01*
X203336126Y-90902052D01*
X203290370Y-90849249D01*
X203280426Y-90780090D01*
X203309450Y-90716534D01*
X203336126Y-90693420D01*
X203357193Y-90679881D01*
X203357193Y-90679880D01*
X203357196Y-90679879D01*
X203451445Y-90571109D01*
X203511233Y-90440193D01*
X203517012Y-90400000D01*
X220977866Y-90400000D01*
X220998347Y-90542456D01*
X221053273Y-90662724D01*
X221058136Y-90673373D01*
X221152385Y-90782143D01*
X221152387Y-90782144D01*
X221173456Y-90795685D01*
X221219211Y-90848489D01*
X221229154Y-90917648D01*
X221200128Y-90981203D01*
X221173456Y-91004315D01*
X221152387Y-91017855D01*
X221152385Y-91017856D01*
X221152385Y-91017857D01*
X221146748Y-91024363D01*
X221058136Y-91126626D01*
X221058135Y-91126628D01*
X220998347Y-91257543D01*
X220977866Y-91400000D01*
X220998347Y-91542456D01*
X221053271Y-91662721D01*
X221058136Y-91673373D01*
X221152385Y-91782143D01*
X221159837Y-91786932D01*
X221173456Y-91795685D01*
X221219211Y-91848489D01*
X221229154Y-91917648D01*
X221200128Y-91981203D01*
X221173456Y-92004315D01*
X221152387Y-92017855D01*
X221152385Y-92017856D01*
X221152385Y-92017857D01*
X221138655Y-92033702D01*
X221058136Y-92126626D01*
X221058135Y-92126628D01*
X220998347Y-92257543D01*
X220977866Y-92400000D01*
X220998347Y-92542456D01*
X221037206Y-92627543D01*
X221058136Y-92673373D01*
X221152385Y-92782143D01*
X221273460Y-92859953D01*
X221273463Y-92859954D01*
X221273462Y-92859954D01*
X221411549Y-92900499D01*
X221411551Y-92900500D01*
X221411552Y-92900500D01*
X221555475Y-92900500D01*
X221555475Y-92900499D01*
X221693566Y-92859953D01*
X221814641Y-92782143D01*
X221908890Y-92673373D01*
X221968678Y-92542457D01*
X221989160Y-92400000D01*
X221969749Y-92264993D01*
X234694700Y-92264993D01*
X234694700Y-92265006D01*
X234713864Y-92496297D01*
X234713866Y-92496308D01*
X234770842Y-92721300D01*
X234864075Y-92933848D01*
X234991016Y-93128147D01*
X234991019Y-93128151D01*
X234991021Y-93128153D01*
X235148216Y-93298913D01*
X235148219Y-93298915D01*
X235148222Y-93298918D01*
X235331365Y-93441464D01*
X235331371Y-93441468D01*
X235331374Y-93441470D01*
X235535497Y-93551936D01*
X235649487Y-93591068D01*
X235755015Y-93627297D01*
X235755017Y-93627297D01*
X235755019Y-93627298D01*
X235983951Y-93665500D01*
X235983952Y-93665500D01*
X236216048Y-93665500D01*
X236216049Y-93665500D01*
X236444981Y-93627298D01*
X236664503Y-93551936D01*
X236868626Y-93441470D01*
X237051784Y-93298913D01*
X237208979Y-93128153D01*
X237335924Y-92933849D01*
X237429157Y-92721300D01*
X237486134Y-92496305D01*
X237486259Y-92494799D01*
X237505300Y-92265006D01*
X237505300Y-92264993D01*
X238094700Y-92264993D01*
X238094700Y-92265006D01*
X238113864Y-92496297D01*
X238113866Y-92496308D01*
X238170842Y-92721300D01*
X238264075Y-92933848D01*
X238391016Y-93128147D01*
X238391019Y-93128151D01*
X238391021Y-93128153D01*
X238548216Y-93298913D01*
X238548219Y-93298915D01*
X238548222Y-93298918D01*
X238731365Y-93441464D01*
X238731371Y-93441468D01*
X238731374Y-93441470D01*
X238935497Y-93551936D01*
X239049487Y-93591068D01*
X239155015Y-93627297D01*
X239155017Y-93627297D01*
X239155019Y-93627298D01*
X239383951Y-93665500D01*
X239383952Y-93665500D01*
X239616048Y-93665500D01*
X239616049Y-93665500D01*
X239844981Y-93627298D01*
X240064503Y-93551936D01*
X240268626Y-93441470D01*
X240451784Y-93298913D01*
X240608979Y-93128153D01*
X240735924Y-92933849D01*
X240829157Y-92721300D01*
X240886134Y-92496305D01*
X240886259Y-92494799D01*
X240905300Y-92265006D01*
X240905300Y-92264993D01*
X240886135Y-92033702D01*
X240886133Y-92033691D01*
X240829157Y-91808699D01*
X240735924Y-91596151D01*
X240608983Y-91401852D01*
X240608980Y-91401849D01*
X240608979Y-91401847D01*
X240451784Y-91231087D01*
X240451779Y-91231083D01*
X240451777Y-91231081D01*
X240268634Y-91088535D01*
X240268628Y-91088531D01*
X240064504Y-90978064D01*
X240064495Y-90978061D01*
X239844984Y-90902702D01*
X239673282Y-90874050D01*
X239616049Y-90864500D01*
X239383951Y-90864500D01*
X239338164Y-90872140D01*
X239155015Y-90902702D01*
X238935504Y-90978061D01*
X238935495Y-90978064D01*
X238731371Y-91088531D01*
X238731365Y-91088535D01*
X238548222Y-91231081D01*
X238548219Y-91231084D01*
X238548216Y-91231086D01*
X238548216Y-91231087D01*
X238506075Y-91276865D01*
X238391016Y-91401852D01*
X238264075Y-91596151D01*
X238170842Y-91808699D01*
X238113866Y-92033691D01*
X238113864Y-92033702D01*
X238094700Y-92264993D01*
X237505300Y-92264993D01*
X237486135Y-92033702D01*
X237486133Y-92033691D01*
X237429157Y-91808699D01*
X237335924Y-91596151D01*
X237208983Y-91401852D01*
X237208980Y-91401849D01*
X237208979Y-91401847D01*
X237051784Y-91231087D01*
X237051779Y-91231083D01*
X237051777Y-91231081D01*
X236868634Y-91088535D01*
X236868628Y-91088531D01*
X236664504Y-90978064D01*
X236664495Y-90978061D01*
X236444984Y-90902702D01*
X236273282Y-90874050D01*
X236216049Y-90864500D01*
X235983951Y-90864500D01*
X235938164Y-90872140D01*
X235755015Y-90902702D01*
X235535504Y-90978061D01*
X235535495Y-90978064D01*
X235331371Y-91088531D01*
X235331365Y-91088535D01*
X235148222Y-91231081D01*
X235148219Y-91231084D01*
X235148216Y-91231086D01*
X235148216Y-91231087D01*
X235106075Y-91276865D01*
X234991016Y-91401852D01*
X234864075Y-91596151D01*
X234770842Y-91808699D01*
X234713866Y-92033691D01*
X234713864Y-92033702D01*
X234694700Y-92264993D01*
X221969749Y-92264993D01*
X221968678Y-92257543D01*
X221908890Y-92126627D01*
X221814641Y-92017857D01*
X221814638Y-92017855D01*
X221814638Y-92017854D01*
X221793571Y-92004316D01*
X221747815Y-91951513D01*
X221737871Y-91882354D01*
X221766895Y-91818798D01*
X221793571Y-91795684D01*
X221814638Y-91782145D01*
X221814638Y-91782144D01*
X221814641Y-91782143D01*
X221889803Y-91695400D01*
X221948577Y-91657628D01*
X222018447Y-91657627D01*
X222077225Y-91695401D01*
X222152386Y-91782142D01*
X222273461Y-91859952D01*
X222273464Y-91859953D01*
X222273463Y-91859953D01*
X222371740Y-91888809D01*
X222404530Y-91898437D01*
X222411550Y-91900498D01*
X222411552Y-91900499D01*
X222411553Y-91900499D01*
X222555476Y-91900499D01*
X222555476Y-91900498D01*
X222693567Y-91859952D01*
X222814642Y-91782142D01*
X222907479Y-91675001D01*
X232664599Y-91675001D01*
X232685080Y-91817457D01*
X232723005Y-91900499D01*
X232744869Y-91948374D01*
X232839118Y-92057144D01*
X232960193Y-92134954D01*
X232960196Y-92134955D01*
X232960195Y-92134955D01*
X233098282Y-92175500D01*
X233098284Y-92175501D01*
X233098285Y-92175501D01*
X233242208Y-92175501D01*
X233242208Y-92175500D01*
X233380299Y-92134954D01*
X233501374Y-92057144D01*
X233595623Y-91948374D01*
X233655411Y-91817458D01*
X233675893Y-91675001D01*
X233655411Y-91532544D01*
X233595623Y-91401628D01*
X233501374Y-91292858D01*
X233380299Y-91215048D01*
X233380297Y-91215047D01*
X233380295Y-91215046D01*
X233380296Y-91215046D01*
X233242209Y-91174501D01*
X233242207Y-91174501D01*
X233098285Y-91174501D01*
X233098282Y-91174501D01*
X232960195Y-91215046D01*
X232839119Y-91292857D01*
X232744869Y-91401627D01*
X232744868Y-91401629D01*
X232685080Y-91532544D01*
X232664599Y-91675001D01*
X222907479Y-91675001D01*
X222908891Y-91673372D01*
X222968679Y-91542456D01*
X222989161Y-91399999D01*
X222968679Y-91257542D01*
X222908891Y-91126626D01*
X222814642Y-91017856D01*
X222814639Y-91017854D01*
X222793571Y-91004314D01*
X222747816Y-90951510D01*
X222737873Y-90882351D01*
X222766899Y-90818796D01*
X222793571Y-90795684D01*
X222814642Y-90782143D01*
X222908891Y-90673373D01*
X222968679Y-90542457D01*
X222989161Y-90400000D01*
X222968679Y-90257543D01*
X222908891Y-90126627D01*
X222814642Y-90017857D01*
X222693567Y-89940047D01*
X222693565Y-89940046D01*
X222693563Y-89940045D01*
X222693564Y-89940045D01*
X222555477Y-89899500D01*
X222555475Y-89899500D01*
X222411553Y-89899500D01*
X222411550Y-89899500D01*
X222273463Y-89940045D01*
X222152386Y-90017857D01*
X222152383Y-90017858D01*
X222077225Y-90104596D01*
X222018447Y-90142370D01*
X221948577Y-90142370D01*
X221889800Y-90104596D01*
X221814641Y-90017857D01*
X221693566Y-89940047D01*
X221693564Y-89940046D01*
X221693562Y-89940045D01*
X221693563Y-89940045D01*
X221555476Y-89899500D01*
X221555474Y-89899500D01*
X221411552Y-89899500D01*
X221411549Y-89899500D01*
X221273462Y-89940045D01*
X221152386Y-90017856D01*
X221152385Y-90017856D01*
X221152385Y-90017857D01*
X221146748Y-90024363D01*
X221058136Y-90126626D01*
X221058135Y-90126628D01*
X220998347Y-90257543D01*
X220977866Y-90400000D01*
X203517012Y-90400000D01*
X203531715Y-90297736D01*
X203511233Y-90155279D01*
X203451445Y-90024363D01*
X203357196Y-89915593D01*
X203236121Y-89837783D01*
X203236119Y-89837782D01*
X203236117Y-89837781D01*
X203236118Y-89837781D01*
X203098031Y-89797236D01*
X203098029Y-89797236D01*
X202954107Y-89797236D01*
X202954104Y-89797236D01*
X202816017Y-89837781D01*
X202694941Y-89915592D01*
X202694940Y-89915592D01*
X202694940Y-89915593D01*
X202673753Y-89940045D01*
X202619781Y-90002332D01*
X202561003Y-90040106D01*
X202491133Y-90040106D01*
X202432355Y-90002332D01*
X202414270Y-89981461D01*
X202357196Y-89915593D01*
X202236121Y-89837783D01*
X202236119Y-89837782D01*
X202236117Y-89837781D01*
X202236118Y-89837781D01*
X202098031Y-89797236D01*
X202098029Y-89797236D01*
X201954107Y-89797236D01*
X201954104Y-89797236D01*
X201816017Y-89837781D01*
X201694941Y-89915592D01*
X201600691Y-90024362D01*
X201600690Y-90024364D01*
X201540902Y-90155279D01*
X201520421Y-90297736D01*
X183743242Y-90297736D01*
X183724179Y-90165149D01*
X183664391Y-90034233D01*
X183570142Y-89925463D01*
X183449067Y-89847653D01*
X183449065Y-89847652D01*
X183449063Y-89847651D01*
X183449064Y-89847651D01*
X183310977Y-89807106D01*
X183310975Y-89807106D01*
X183167053Y-89807106D01*
X183167050Y-89807106D01*
X183028963Y-89847651D01*
X182907887Y-89925462D01*
X182832727Y-90012202D01*
X182773949Y-90049976D01*
X182704079Y-90049976D01*
X182645301Y-90012202D01*
X182640973Y-90007207D01*
X182570142Y-89925463D01*
X182449067Y-89847653D01*
X182449065Y-89847652D01*
X182449063Y-89847651D01*
X182449064Y-89847651D01*
X182310977Y-89807106D01*
X182310975Y-89807106D01*
X182167053Y-89807106D01*
X182167050Y-89807106D01*
X182028963Y-89847651D01*
X181907887Y-89925462D01*
X181813637Y-90034232D01*
X181813636Y-90034234D01*
X181753848Y-90165149D01*
X181733367Y-90307606D01*
X163749695Y-90307606D01*
X163749858Y-90306474D01*
X163729376Y-90164017D01*
X163669588Y-90033101D01*
X163575339Y-89924331D01*
X163454264Y-89846521D01*
X163454262Y-89846520D01*
X163454260Y-89846519D01*
X163454261Y-89846519D01*
X163316174Y-89805974D01*
X163316172Y-89805974D01*
X163172250Y-89805974D01*
X163172247Y-89805974D01*
X163034160Y-89846519D01*
X162913084Y-89924330D01*
X162837924Y-90011069D01*
X162779145Y-90048843D01*
X162709276Y-90048843D01*
X162650498Y-90011069D01*
X162575340Y-89924331D01*
X162454265Y-89846521D01*
X162454263Y-89846520D01*
X162454261Y-89846519D01*
X162454262Y-89846519D01*
X162316175Y-89805974D01*
X162316173Y-89805974D01*
X162172251Y-89805974D01*
X162172248Y-89805974D01*
X162034161Y-89846519D01*
X161913085Y-89924330D01*
X161818835Y-90033100D01*
X161818834Y-90033102D01*
X161759046Y-90164017D01*
X161738565Y-90306474D01*
X161759046Y-90448930D01*
X161814844Y-90571109D01*
X161818835Y-90579847D01*
X161913084Y-90688617D01*
X161914847Y-90689750D01*
X161934155Y-90702159D01*
X161979910Y-90754963D01*
X161989853Y-90824122D01*
X161960827Y-90887677D01*
X161934155Y-90910789D01*
X161913086Y-90924329D01*
X161818835Y-91033100D01*
X161818834Y-91033102D01*
X161759046Y-91164017D01*
X161738565Y-91306474D01*
X161759046Y-91448930D01*
X161814844Y-91571109D01*
X161818835Y-91579847D01*
X161913084Y-91688617D01*
X161934153Y-91702157D01*
X161979908Y-91754959D01*
X161989853Y-91824118D01*
X161960829Y-91887674D01*
X161934156Y-91910787D01*
X161913087Y-91924327D01*
X161913085Y-91924329D01*
X161818834Y-92033100D01*
X161818833Y-92033102D01*
X161759045Y-92164017D01*
X161738564Y-92306474D01*
X140972491Y-92306474D01*
X140976214Y-92280581D01*
X140955732Y-92138124D01*
X140895944Y-92007208D01*
X140801695Y-91898438D01*
X140780622Y-91884895D01*
X140734868Y-91832092D01*
X140724924Y-91762933D01*
X140753949Y-91699377D01*
X140780621Y-91676266D01*
X140801695Y-91662723D01*
X140876853Y-91575984D01*
X140935630Y-91538210D01*
X141005500Y-91538210D01*
X141064278Y-91575984D01*
X141064279Y-91575984D01*
X141139439Y-91662724D01*
X141260514Y-91740534D01*
X141260517Y-91740535D01*
X141260516Y-91740535D01*
X141348695Y-91766426D01*
X141385950Y-91777365D01*
X141398603Y-91781080D01*
X141398605Y-91781081D01*
X141398606Y-91781081D01*
X141542529Y-91781081D01*
X141542529Y-91781080D01*
X141680620Y-91740534D01*
X141801695Y-91662724D01*
X141895944Y-91553954D01*
X141955732Y-91423038D01*
X141976214Y-91280581D01*
X141955732Y-91138124D01*
X141895944Y-91007208D01*
X141801695Y-90898438D01*
X141801692Y-90898436D01*
X141801692Y-90898435D01*
X141780625Y-90884897D01*
X141734869Y-90832094D01*
X141724925Y-90762935D01*
X141753949Y-90699379D01*
X141780625Y-90676265D01*
X141801692Y-90662726D01*
X141801692Y-90662725D01*
X141801695Y-90662724D01*
X141895944Y-90553954D01*
X141955732Y-90423038D01*
X141976214Y-90280581D01*
X141955732Y-90138124D01*
X141895944Y-90007208D01*
X141801695Y-89898438D01*
X141680620Y-89820628D01*
X141680618Y-89820627D01*
X141680616Y-89820626D01*
X141680617Y-89820626D01*
X141542530Y-89780081D01*
X141542528Y-89780081D01*
X141398606Y-89780081D01*
X141398603Y-89780081D01*
X141260516Y-89820626D01*
X141139440Y-89898437D01*
X141064280Y-89985177D01*
X141005502Y-90022951D01*
X140935632Y-90022951D01*
X140876854Y-89985177D01*
X140873634Y-89981461D01*
X140801695Y-89898438D01*
X140680620Y-89820628D01*
X140680618Y-89820627D01*
X140680616Y-89820626D01*
X140680617Y-89820626D01*
X140542530Y-89780081D01*
X140542528Y-89780081D01*
X140398606Y-89780081D01*
X140398603Y-89780081D01*
X140260516Y-89820626D01*
X140139440Y-89898437D01*
X140045190Y-90007207D01*
X140045189Y-90007209D01*
X139985401Y-90138124D01*
X139964920Y-90280581D01*
X123245259Y-90280581D01*
X123245793Y-90276866D01*
X123225311Y-90134409D01*
X123165523Y-90003493D01*
X123071274Y-89894723D01*
X122950199Y-89816913D01*
X122950197Y-89816912D01*
X122950195Y-89816911D01*
X122950196Y-89816911D01*
X122812109Y-89776366D01*
X122812107Y-89776366D01*
X122668185Y-89776366D01*
X122668182Y-89776366D01*
X122530095Y-89816911D01*
X122409019Y-89894722D01*
X122333859Y-89981461D01*
X122275080Y-90019235D01*
X122205211Y-90019235D01*
X122146433Y-89981461D01*
X122071275Y-89894723D01*
X121950200Y-89816913D01*
X121950198Y-89816912D01*
X121950196Y-89816911D01*
X121950197Y-89816911D01*
X121812110Y-89776366D01*
X121812108Y-89776366D01*
X121668186Y-89776366D01*
X121668183Y-89776366D01*
X121530096Y-89816911D01*
X121409020Y-89894722D01*
X121314770Y-90003492D01*
X121314769Y-90003494D01*
X121254981Y-90134409D01*
X121234500Y-90276866D01*
X121254981Y-90419322D01*
X121311216Y-90542457D01*
X121314770Y-90550239D01*
X121409019Y-90659009D01*
X121409021Y-90659010D01*
X121430090Y-90672551D01*
X121475845Y-90725355D01*
X121485788Y-90794514D01*
X121456762Y-90858069D01*
X121430090Y-90881181D01*
X121409021Y-90894721D01*
X121409019Y-90894722D01*
X121409019Y-90894723D01*
X121402105Y-90902702D01*
X121314770Y-91003492D01*
X121314769Y-91003494D01*
X121254981Y-91134409D01*
X121234500Y-91276866D01*
X121254981Y-91419322D01*
X121311216Y-91542457D01*
X121314770Y-91550239D01*
X121409019Y-91659009D01*
X121430088Y-91672549D01*
X121475843Y-91725351D01*
X121485788Y-91794510D01*
X121456764Y-91858066D01*
X121430091Y-91881179D01*
X121409022Y-91894719D01*
X121409020Y-91894721D01*
X121409018Y-91894722D01*
X121409018Y-91894723D01*
X121404014Y-91900498D01*
X121314769Y-92003492D01*
X121314768Y-92003494D01*
X121254980Y-92134409D01*
X121234499Y-92276866D01*
X100250500Y-92276866D01*
X100250500Y-89200000D01*
X227756853Y-89200000D01*
X227777334Y-89342456D01*
X227837122Y-89473371D01*
X227837123Y-89473373D01*
X227931372Y-89582143D01*
X228052447Y-89659953D01*
X228052450Y-89659954D01*
X228052449Y-89659954D01*
X228190536Y-89700499D01*
X228190538Y-89700500D01*
X228190539Y-89700500D01*
X228334462Y-89700500D01*
X228334462Y-89700499D01*
X228472553Y-89659953D01*
X228593628Y-89582143D01*
X228687877Y-89473373D01*
X228747665Y-89342457D01*
X228757364Y-89275000D01*
X229369353Y-89275000D01*
X229389834Y-89417456D01*
X229415370Y-89473371D01*
X229449623Y-89548373D01*
X229543872Y-89657143D01*
X229664947Y-89734953D01*
X229664950Y-89734954D01*
X229664949Y-89734954D01*
X229803036Y-89775499D01*
X229803038Y-89775500D01*
X229803039Y-89775500D01*
X229946962Y-89775500D01*
X229946962Y-89775499D01*
X230085053Y-89734953D01*
X230206128Y-89657143D01*
X230300377Y-89548373D01*
X230360165Y-89417457D01*
X230380647Y-89275000D01*
X230360165Y-89132543D01*
X230300377Y-89001627D01*
X230206128Y-88892857D01*
X230085053Y-88815047D01*
X230085051Y-88815046D01*
X230085049Y-88815045D01*
X230085050Y-88815045D01*
X229946963Y-88774500D01*
X229946961Y-88774500D01*
X229803039Y-88774500D01*
X229803036Y-88774500D01*
X229664949Y-88815045D01*
X229543873Y-88892856D01*
X229449623Y-89001626D01*
X229449622Y-89001628D01*
X229389834Y-89132543D01*
X229369353Y-89275000D01*
X228757364Y-89275000D01*
X228768147Y-89200000D01*
X228747665Y-89057543D01*
X228687877Y-88926627D01*
X228593628Y-88817857D01*
X228472553Y-88740047D01*
X228472551Y-88740046D01*
X228472549Y-88740045D01*
X228472550Y-88740045D01*
X228334463Y-88699500D01*
X228334461Y-88699500D01*
X228190539Y-88699500D01*
X228190536Y-88699500D01*
X228052449Y-88740045D01*
X227931373Y-88817856D01*
X227837123Y-88926626D01*
X227837122Y-88926628D01*
X227777334Y-89057543D01*
X227756853Y-89200000D01*
X100250500Y-89200000D01*
X100250500Y-88000000D01*
X109504353Y-88000000D01*
X109524834Y-88142456D01*
X109584622Y-88273371D01*
X109584623Y-88273373D01*
X109678872Y-88382143D01*
X109799947Y-88459953D01*
X109799950Y-88459954D01*
X109799949Y-88459954D01*
X109938036Y-88500499D01*
X109938038Y-88500500D01*
X109938039Y-88500500D01*
X110081962Y-88500500D01*
X110081962Y-88500499D01*
X110220053Y-88459953D01*
X110313342Y-88400000D01*
X128234354Y-88400000D01*
X128254835Y-88542456D01*
X128272960Y-88582143D01*
X128314624Y-88673373D01*
X128408873Y-88782143D01*
X128529948Y-88859953D01*
X128529951Y-88859954D01*
X128529950Y-88859954D01*
X128668037Y-88900499D01*
X128668039Y-88900500D01*
X128668040Y-88900500D01*
X128811963Y-88900500D01*
X128811963Y-88900499D01*
X128950054Y-88859953D01*
X129071129Y-88782143D01*
X129165378Y-88673373D01*
X129225166Y-88542457D01*
X129245648Y-88400000D01*
X150139353Y-88400000D01*
X150159834Y-88542456D01*
X150177959Y-88582143D01*
X150219623Y-88673373D01*
X150313872Y-88782143D01*
X150434947Y-88859953D01*
X150434950Y-88859954D01*
X150434949Y-88859954D01*
X150573036Y-88900499D01*
X150573038Y-88900500D01*
X150573039Y-88900500D01*
X150716962Y-88900500D01*
X150716962Y-88900499D01*
X150855053Y-88859953D01*
X150976128Y-88782143D01*
X151070377Y-88673373D01*
X151130165Y-88542457D01*
X151150647Y-88400000D01*
X151130165Y-88257543D01*
X151103886Y-88200000D01*
X170139353Y-88200000D01*
X170159834Y-88342456D01*
X170177959Y-88382143D01*
X170219623Y-88473373D01*
X170313872Y-88582143D01*
X170434947Y-88659953D01*
X170434950Y-88659954D01*
X170434949Y-88659954D01*
X170542107Y-88691417D01*
X170569633Y-88699500D01*
X170573036Y-88700499D01*
X170573038Y-88700500D01*
X170573039Y-88700500D01*
X170716962Y-88700500D01*
X170716962Y-88700499D01*
X170855053Y-88659953D01*
X170976128Y-88582143D01*
X171070377Y-88473373D01*
X171130165Y-88342457D01*
X171150647Y-88200000D01*
X171130165Y-88057543D01*
X171103886Y-88000000D01*
X190139353Y-88000000D01*
X190159834Y-88142456D01*
X190219622Y-88273371D01*
X190219623Y-88273373D01*
X190313872Y-88382143D01*
X190434947Y-88459953D01*
X190434950Y-88459954D01*
X190434949Y-88459954D01*
X190573036Y-88500499D01*
X190573038Y-88500500D01*
X190573039Y-88500500D01*
X190716962Y-88500500D01*
X190716962Y-88500499D01*
X190855053Y-88459953D01*
X190976128Y-88382143D01*
X191070377Y-88273373D01*
X191130165Y-88142457D01*
X191150647Y-88000000D01*
X209494353Y-88000000D01*
X209514834Y-88142456D01*
X209574622Y-88273371D01*
X209574623Y-88273373D01*
X209668872Y-88382143D01*
X209789947Y-88459953D01*
X209789950Y-88459954D01*
X209789949Y-88459954D01*
X209928036Y-88500499D01*
X209928038Y-88500500D01*
X209928039Y-88500500D01*
X210071962Y-88500500D01*
X210071962Y-88500499D01*
X210210053Y-88459953D01*
X210331128Y-88382143D01*
X210425377Y-88273373D01*
X210485165Y-88142457D01*
X210505647Y-88000000D01*
X210485165Y-87857543D01*
X210425377Y-87726627D01*
X210331128Y-87617857D01*
X210210053Y-87540047D01*
X210210051Y-87540046D01*
X210210049Y-87540045D01*
X210210050Y-87540045D01*
X210071963Y-87499500D01*
X210071961Y-87499500D01*
X209928039Y-87499500D01*
X209928036Y-87499500D01*
X209789949Y-87540045D01*
X209668873Y-87617856D01*
X209574623Y-87726626D01*
X209574622Y-87726628D01*
X209514834Y-87857543D01*
X209494353Y-88000000D01*
X191150647Y-88000000D01*
X191130165Y-87857543D01*
X191070377Y-87726627D01*
X190976128Y-87617857D01*
X190855053Y-87540047D01*
X190855051Y-87540046D01*
X190855049Y-87540045D01*
X190855050Y-87540045D01*
X190716963Y-87499500D01*
X190716961Y-87499500D01*
X190573039Y-87499500D01*
X190573036Y-87499500D01*
X190434949Y-87540045D01*
X190313873Y-87617856D01*
X190219623Y-87726626D01*
X190219622Y-87726628D01*
X190159834Y-87857543D01*
X190139353Y-88000000D01*
X171103886Y-88000000D01*
X171070377Y-87926627D01*
X170976128Y-87817857D01*
X170855053Y-87740047D01*
X170855051Y-87740046D01*
X170855049Y-87740045D01*
X170855050Y-87740045D01*
X170716963Y-87699500D01*
X170716961Y-87699500D01*
X170573039Y-87699500D01*
X170573036Y-87699500D01*
X170434949Y-87740045D01*
X170313873Y-87817856D01*
X170219623Y-87926626D01*
X170219622Y-87926628D01*
X170159834Y-88057543D01*
X170139353Y-88200000D01*
X151103886Y-88200000D01*
X151070377Y-88126627D01*
X150976128Y-88017857D01*
X150855053Y-87940047D01*
X150855051Y-87940046D01*
X150855049Y-87940045D01*
X150855050Y-87940045D01*
X150716963Y-87899500D01*
X150716961Y-87899500D01*
X150573039Y-87899500D01*
X150573036Y-87899500D01*
X150434949Y-87940045D01*
X150313873Y-88017856D01*
X150219623Y-88126626D01*
X150219622Y-88126628D01*
X150159834Y-88257543D01*
X150139353Y-88400000D01*
X129245648Y-88400000D01*
X129225166Y-88257543D01*
X129165378Y-88126627D01*
X129071129Y-88017857D01*
X128950054Y-87940047D01*
X128950052Y-87940046D01*
X128950050Y-87940045D01*
X128950051Y-87940045D01*
X128811964Y-87899500D01*
X128811962Y-87899500D01*
X128668040Y-87899500D01*
X128668037Y-87899500D01*
X128529950Y-87940045D01*
X128408874Y-88017856D01*
X128314624Y-88126626D01*
X128314623Y-88126628D01*
X128254835Y-88257543D01*
X128234354Y-88400000D01*
X110313342Y-88400000D01*
X110341128Y-88382143D01*
X110435377Y-88273373D01*
X110495165Y-88142457D01*
X110515647Y-88000000D01*
X110495165Y-87857543D01*
X110435377Y-87726627D01*
X110341128Y-87617857D01*
X110220053Y-87540047D01*
X110220051Y-87540046D01*
X110220049Y-87540045D01*
X110220050Y-87540045D01*
X110081963Y-87499500D01*
X110081961Y-87499500D01*
X109938039Y-87499500D01*
X109938036Y-87499500D01*
X109799949Y-87540045D01*
X109678873Y-87617856D01*
X109584623Y-87726626D01*
X109584622Y-87726628D01*
X109524834Y-87857543D01*
X109504353Y-88000000D01*
X100250500Y-88000000D01*
X100250500Y-83921959D01*
X121244353Y-83921959D01*
X121264834Y-84064415D01*
X121318584Y-84182109D01*
X121324623Y-84195332D01*
X121418872Y-84304102D01*
X121426324Y-84308891D01*
X121439943Y-84317644D01*
X121485698Y-84370448D01*
X121495641Y-84439607D01*
X121466615Y-84503162D01*
X121439943Y-84526274D01*
X121418874Y-84539814D01*
X121418872Y-84539815D01*
X121418872Y-84539816D01*
X121408737Y-84551513D01*
X121324623Y-84648585D01*
X121324622Y-84648587D01*
X121264834Y-84779502D01*
X121244353Y-84921959D01*
X121264834Y-85064415D01*
X121318584Y-85182109D01*
X121324623Y-85195332D01*
X121418872Y-85304102D01*
X121439941Y-85317642D01*
X121485696Y-85370446D01*
X121495640Y-85439605D01*
X121466615Y-85503160D01*
X121439944Y-85526272D01*
X121418873Y-85539813D01*
X121324623Y-85648584D01*
X121324622Y-85648586D01*
X121264834Y-85779501D01*
X121244353Y-85921958D01*
X121264834Y-86064414D01*
X121323310Y-86192456D01*
X121324623Y-86195331D01*
X121418872Y-86304101D01*
X121539947Y-86381911D01*
X121539950Y-86381912D01*
X121539949Y-86381912D01*
X121678036Y-86422457D01*
X121678038Y-86422458D01*
X121678039Y-86422458D01*
X121821962Y-86422458D01*
X121821962Y-86422457D01*
X121959263Y-86382143D01*
X121960050Y-86381912D01*
X121960050Y-86381911D01*
X121960053Y-86381911D01*
X122081128Y-86304101D01*
X122156286Y-86217362D01*
X122215063Y-86179588D01*
X122284933Y-86179588D01*
X122343711Y-86217362D01*
X122343712Y-86217362D01*
X122418872Y-86304102D01*
X122539947Y-86381912D01*
X122539950Y-86381913D01*
X122539949Y-86381913D01*
X122605296Y-86401100D01*
X122678032Y-86422457D01*
X122678036Y-86422458D01*
X122678038Y-86422459D01*
X122678039Y-86422459D01*
X122821962Y-86422459D01*
X122821962Y-86422458D01*
X122929121Y-86390994D01*
X122960050Y-86381913D01*
X122960050Y-86381912D01*
X122960053Y-86381912D01*
X123081128Y-86304102D01*
X123175377Y-86195332D01*
X123235165Y-86064416D01*
X123255647Y-85921959D01*
X123235165Y-85779502D01*
X123175377Y-85648586D01*
X123081128Y-85539816D01*
X123081125Y-85539814D01*
X123081125Y-85539813D01*
X123060058Y-85526275D01*
X123014302Y-85473472D01*
X123004358Y-85404313D01*
X123033382Y-85340757D01*
X123060058Y-85317643D01*
X123081125Y-85304104D01*
X123081125Y-85304103D01*
X123081128Y-85304102D01*
X123175377Y-85195332D01*
X123235165Y-85064416D01*
X123255647Y-84921959D01*
X123235165Y-84779502D01*
X123175377Y-84648586D01*
X123081128Y-84539816D01*
X122960053Y-84462006D01*
X122960051Y-84462005D01*
X122960049Y-84462004D01*
X122960050Y-84462004D01*
X122821963Y-84421459D01*
X122821961Y-84421459D01*
X122678039Y-84421459D01*
X122678036Y-84421459D01*
X122539949Y-84462004D01*
X122418873Y-84539815D01*
X122418872Y-84539815D01*
X122418872Y-84539816D01*
X122351251Y-84617856D01*
X122343713Y-84626555D01*
X122284935Y-84664329D01*
X122215065Y-84664329D01*
X122156287Y-84626555D01*
X122148750Y-84617857D01*
X122081128Y-84539816D01*
X122081125Y-84539814D01*
X122081125Y-84539813D01*
X122060058Y-84526275D01*
X122014302Y-84473472D01*
X122004358Y-84404313D01*
X122033382Y-84340757D01*
X122060058Y-84317643D01*
X122081125Y-84304104D01*
X122081125Y-84304103D01*
X122081128Y-84304102D01*
X122175377Y-84195332D01*
X122235165Y-84064416D01*
X122244427Y-84000000D01*
X139977866Y-84000000D01*
X139998347Y-84142456D01*
X140058135Y-84273371D01*
X140058136Y-84273373D01*
X140152385Y-84382143D01*
X140156169Y-84384575D01*
X140173456Y-84395685D01*
X140219211Y-84448489D01*
X140229154Y-84517648D01*
X140200128Y-84581203D01*
X140173456Y-84604315D01*
X140152387Y-84617855D01*
X140152385Y-84617856D01*
X140152385Y-84617857D01*
X140130185Y-84643476D01*
X140058136Y-84726626D01*
X140058135Y-84726628D01*
X139998347Y-84857543D01*
X139977866Y-85000000D01*
X139998347Y-85142456D01*
X140058135Y-85273371D01*
X140058136Y-85273373D01*
X140152385Y-85382143D01*
X140156169Y-85384575D01*
X140173456Y-85395685D01*
X140219211Y-85448489D01*
X140229154Y-85517648D01*
X140200128Y-85581203D01*
X140173456Y-85604315D01*
X140152387Y-85617855D01*
X140152385Y-85617856D01*
X140152385Y-85617857D01*
X140130185Y-85643476D01*
X140058136Y-85726626D01*
X140058135Y-85726628D01*
X139998347Y-85857543D01*
X139977866Y-86000000D01*
X139998347Y-86142456D01*
X140052568Y-86261181D01*
X140058136Y-86273373D01*
X140152385Y-86382143D01*
X140273460Y-86459953D01*
X140273463Y-86459954D01*
X140273462Y-86459954D01*
X140411549Y-86500499D01*
X140411551Y-86500500D01*
X140411552Y-86500500D01*
X140555475Y-86500500D01*
X140555475Y-86500499D01*
X140693566Y-86459953D01*
X140814641Y-86382143D01*
X140889800Y-86295403D01*
X140948577Y-86257629D01*
X141018447Y-86257629D01*
X141077225Y-86295403D01*
X141077226Y-86295404D01*
X141152185Y-86381913D01*
X141152385Y-86382143D01*
X141273460Y-86459953D01*
X141273463Y-86459954D01*
X141273462Y-86459954D01*
X141411549Y-86500499D01*
X141411551Y-86500500D01*
X141411552Y-86500500D01*
X141555475Y-86500500D01*
X141555475Y-86500499D01*
X141693566Y-86459953D01*
X141814641Y-86382143D01*
X141908890Y-86273373D01*
X141968678Y-86142457D01*
X141989160Y-86000000D01*
X141968678Y-85857543D01*
X141908890Y-85726627D01*
X141814641Y-85617857D01*
X141814638Y-85617855D01*
X141814638Y-85617854D01*
X141793571Y-85604316D01*
X141747815Y-85551513D01*
X141737871Y-85482354D01*
X141766895Y-85418798D01*
X141793571Y-85395684D01*
X141814638Y-85382145D01*
X141814638Y-85382144D01*
X141814641Y-85382143D01*
X141908890Y-85273373D01*
X141968678Y-85142457D01*
X141989160Y-85000000D01*
X141968678Y-84857543D01*
X141908890Y-84726627D01*
X141814641Y-84617857D01*
X141693566Y-84540047D01*
X141693564Y-84540046D01*
X141693562Y-84540045D01*
X141693563Y-84540045D01*
X141555476Y-84499500D01*
X141555474Y-84499500D01*
X141411552Y-84499500D01*
X141411549Y-84499500D01*
X141273462Y-84540045D01*
X141152386Y-84617856D01*
X141152385Y-84617856D01*
X141152385Y-84617857D01*
X141125759Y-84648586D01*
X141077226Y-84704596D01*
X141018448Y-84742370D01*
X140948578Y-84742370D01*
X140889800Y-84704596D01*
X140814641Y-84617857D01*
X140814638Y-84617855D01*
X140814638Y-84617854D01*
X140793571Y-84604316D01*
X140747815Y-84551513D01*
X140737871Y-84482354D01*
X140766895Y-84418798D01*
X140793571Y-84395684D01*
X140814638Y-84382145D01*
X140814638Y-84382144D01*
X140814641Y-84382143D01*
X140908890Y-84273373D01*
X140968678Y-84142457D01*
X140989160Y-84000000D01*
X140980698Y-83941147D01*
X161763433Y-83941147D01*
X161783914Y-84083603D01*
X161828901Y-84182109D01*
X161843703Y-84214520D01*
X161937952Y-84323290D01*
X161944559Y-84327536D01*
X161959023Y-84336832D01*
X162004778Y-84389636D01*
X162014721Y-84458795D01*
X161985695Y-84522350D01*
X161959023Y-84545462D01*
X161937954Y-84559002D01*
X161937952Y-84559003D01*
X161937952Y-84559004D01*
X161918717Y-84581203D01*
X161843703Y-84667773D01*
X161843702Y-84667775D01*
X161783914Y-84798690D01*
X161763433Y-84941147D01*
X161783914Y-85083603D01*
X161828901Y-85182109D01*
X161843703Y-85214520D01*
X161937952Y-85323290D01*
X161937954Y-85323291D01*
X161959023Y-85336832D01*
X162004778Y-85389636D01*
X162014721Y-85458795D01*
X161985695Y-85522350D01*
X161959023Y-85545462D01*
X161937954Y-85559002D01*
X161937952Y-85559003D01*
X161937952Y-85559004D01*
X161918717Y-85581203D01*
X161843703Y-85667773D01*
X161843702Y-85667775D01*
X161783914Y-85798690D01*
X161763433Y-85941147D01*
X161783914Y-86083603D01*
X161834940Y-86195332D01*
X161843703Y-86214520D01*
X161937952Y-86323290D01*
X162059027Y-86401100D01*
X162059030Y-86401101D01*
X162059029Y-86401101D01*
X162142910Y-86425730D01*
X162197112Y-86441645D01*
X162197116Y-86441646D01*
X162197118Y-86441647D01*
X162197119Y-86441647D01*
X162341042Y-86441647D01*
X162341042Y-86441646D01*
X162479133Y-86401100D01*
X162600208Y-86323290D01*
X162675367Y-86236550D01*
X162734144Y-86198776D01*
X162804014Y-86198776D01*
X162862792Y-86236550D01*
X162862793Y-86236550D01*
X162937952Y-86323289D01*
X163059027Y-86401099D01*
X163059030Y-86401100D01*
X163059029Y-86401100D01*
X163197116Y-86441645D01*
X163197118Y-86441646D01*
X163197119Y-86441646D01*
X163341042Y-86441646D01*
X163341042Y-86441645D01*
X163451417Y-86409237D01*
X163479130Y-86401100D01*
X163479130Y-86401099D01*
X163479133Y-86401099D01*
X163600208Y-86323289D01*
X163694457Y-86214519D01*
X163754245Y-86083603D01*
X163774727Y-85941146D01*
X163754245Y-85798689D01*
X163694457Y-85667773D01*
X163600208Y-85559003D01*
X163579138Y-85545462D01*
X163533384Y-85492661D01*
X163523439Y-85423502D01*
X163552463Y-85359946D01*
X163579137Y-85336832D01*
X163600208Y-85323291D01*
X163694457Y-85214521D01*
X163754245Y-85083605D01*
X163774727Y-84941148D01*
X163754245Y-84798691D01*
X163694457Y-84667775D01*
X163600208Y-84559005D01*
X163479133Y-84481195D01*
X163479131Y-84481194D01*
X163479129Y-84481193D01*
X163479130Y-84481193D01*
X163341043Y-84440648D01*
X163341041Y-84440648D01*
X163197119Y-84440648D01*
X163197116Y-84440648D01*
X163059029Y-84481193D01*
X162937953Y-84559004D01*
X162862793Y-84645743D01*
X162804014Y-84683517D01*
X162734145Y-84683517D01*
X162675367Y-84645743D01*
X162600208Y-84559004D01*
X162600205Y-84559002D01*
X162600205Y-84559001D01*
X162579138Y-84545463D01*
X162533382Y-84492660D01*
X162523438Y-84423501D01*
X162552462Y-84359945D01*
X162579138Y-84336831D01*
X162600205Y-84323292D01*
X162600205Y-84323291D01*
X162600208Y-84323290D01*
X162694457Y-84214520D01*
X162754245Y-84083604D01*
X162774727Y-83941147D01*
X162770067Y-83908738D01*
X181806749Y-83908738D01*
X181827230Y-84051194D01*
X181853280Y-84108234D01*
X181887019Y-84182111D01*
X181981268Y-84290881D01*
X181988720Y-84295670D01*
X182002339Y-84304423D01*
X182048094Y-84357227D01*
X182058037Y-84426386D01*
X182029011Y-84489941D01*
X182002339Y-84513053D01*
X181981270Y-84526593D01*
X181887019Y-84635364D01*
X181887018Y-84635366D01*
X181827230Y-84766281D01*
X181806749Y-84908738D01*
X181827230Y-85051194D01*
X181853280Y-85108234D01*
X181887019Y-85182111D01*
X181981268Y-85290881D01*
X181981270Y-85290882D01*
X182002339Y-85304423D01*
X182048094Y-85357227D01*
X182058037Y-85426386D01*
X182029011Y-85489941D01*
X182002339Y-85513053D01*
X181981270Y-85526593D01*
X181887019Y-85635364D01*
X181887018Y-85635366D01*
X181827230Y-85766281D01*
X181806749Y-85908738D01*
X181827230Y-86051194D01*
X181853280Y-86108234D01*
X181887019Y-86182111D01*
X181981268Y-86290881D01*
X182102343Y-86368691D01*
X182102346Y-86368692D01*
X182102345Y-86368692D01*
X182240432Y-86409237D01*
X182240434Y-86409238D01*
X182240435Y-86409238D01*
X182384358Y-86409238D01*
X182384358Y-86409237D01*
X182522449Y-86368691D01*
X182643524Y-86290881D01*
X182718683Y-86204141D01*
X182777460Y-86166367D01*
X182847330Y-86166367D01*
X182906107Y-86204140D01*
X182915101Y-86214520D01*
X182966095Y-86273371D01*
X182981268Y-86290881D01*
X183102343Y-86368691D01*
X183102346Y-86368692D01*
X183102345Y-86368692D01*
X183240432Y-86409237D01*
X183240434Y-86409238D01*
X183240435Y-86409238D01*
X183384358Y-86409238D01*
X183384358Y-86409237D01*
X183522449Y-86368691D01*
X183643524Y-86290881D01*
X183737773Y-86182111D01*
X183797561Y-86051195D01*
X183818043Y-85908738D01*
X183797561Y-85766281D01*
X183737773Y-85635365D01*
X183643524Y-85526595D01*
X183643521Y-85526593D01*
X183643521Y-85526592D01*
X183622454Y-85513054D01*
X183576698Y-85460251D01*
X183566754Y-85391092D01*
X183595778Y-85327536D01*
X183622453Y-85304423D01*
X183643525Y-85290881D01*
X183737774Y-85182111D01*
X183797562Y-85051195D01*
X183818044Y-84908738D01*
X183797562Y-84766281D01*
X183737774Y-84635365D01*
X183643525Y-84526595D01*
X183522450Y-84448785D01*
X183522448Y-84448784D01*
X183522446Y-84448783D01*
X183522447Y-84448783D01*
X183384360Y-84408238D01*
X183384358Y-84408238D01*
X183240436Y-84408238D01*
X183240433Y-84408238D01*
X183102346Y-84448783D01*
X182981269Y-84526595D01*
X182981266Y-84526596D01*
X182906108Y-84613334D01*
X182847330Y-84651108D01*
X182777460Y-84651108D01*
X182718683Y-84613334D01*
X182692946Y-84583632D01*
X182643524Y-84526595D01*
X182643521Y-84526593D01*
X182643521Y-84526592D01*
X182622454Y-84513054D01*
X182576698Y-84460251D01*
X182566754Y-84391092D01*
X182595778Y-84327536D01*
X182622454Y-84304422D01*
X182643521Y-84290883D01*
X182643521Y-84290882D01*
X182643524Y-84290881D01*
X182737773Y-84182111D01*
X182797561Y-84051195D01*
X182809842Y-83965777D01*
X201544369Y-83965777D01*
X201564850Y-84108233D01*
X201580480Y-84142457D01*
X201624639Y-84239150D01*
X201718888Y-84347920D01*
X201726340Y-84352709D01*
X201739959Y-84361462D01*
X201785714Y-84414266D01*
X201795657Y-84483425D01*
X201766631Y-84546980D01*
X201739959Y-84570092D01*
X201718890Y-84583632D01*
X201624639Y-84692403D01*
X201624638Y-84692405D01*
X201564850Y-84823320D01*
X201544369Y-84965777D01*
X201564850Y-85108233D01*
X201580480Y-85142457D01*
X201624639Y-85239150D01*
X201718888Y-85347920D01*
X201726340Y-85352709D01*
X201739959Y-85361462D01*
X201785714Y-85414266D01*
X201795657Y-85483425D01*
X201766631Y-85546980D01*
X201739959Y-85570092D01*
X201718890Y-85583632D01*
X201624639Y-85692403D01*
X201624638Y-85692405D01*
X201564850Y-85823320D01*
X201544369Y-85965777D01*
X201564850Y-86108233D01*
X201614689Y-86217363D01*
X201624639Y-86239150D01*
X201718888Y-86347920D01*
X201839963Y-86425730D01*
X201839966Y-86425731D01*
X201839965Y-86425731D01*
X201978052Y-86466276D01*
X201978054Y-86466277D01*
X201978055Y-86466277D01*
X202121978Y-86466277D01*
X202121978Y-86466276D01*
X202260069Y-86425730D01*
X202381144Y-86347920D01*
X202456303Y-86261180D01*
X202515080Y-86223406D01*
X202584950Y-86223406D01*
X202643727Y-86261179D01*
X202718888Y-86347920D01*
X202839963Y-86425730D01*
X202839966Y-86425731D01*
X202839965Y-86425731D01*
X202978052Y-86466276D01*
X202978054Y-86466277D01*
X202978055Y-86466277D01*
X203121978Y-86466277D01*
X203121978Y-86466276D01*
X203260069Y-86425730D01*
X203381144Y-86347920D01*
X203475393Y-86239150D01*
X203535181Y-86108234D01*
X203555663Y-85965777D01*
X203535181Y-85823320D01*
X203475393Y-85692404D01*
X203381144Y-85583634D01*
X203381141Y-85583632D01*
X203381141Y-85583631D01*
X203360074Y-85570093D01*
X203314318Y-85517290D01*
X203304374Y-85448131D01*
X203333398Y-85384575D01*
X203360074Y-85361461D01*
X203381141Y-85347922D01*
X203381141Y-85347921D01*
X203381144Y-85347920D01*
X203475393Y-85239150D01*
X203535181Y-85108234D01*
X203555663Y-84965777D01*
X203535181Y-84823320D01*
X203475393Y-84692404D01*
X203381144Y-84583634D01*
X203260069Y-84505824D01*
X203260067Y-84505823D01*
X203260065Y-84505822D01*
X203260066Y-84505822D01*
X203121979Y-84465277D01*
X203121977Y-84465277D01*
X202978055Y-84465277D01*
X202978052Y-84465277D01*
X202839965Y-84505822D01*
X202718889Y-84583633D01*
X202718888Y-84583633D01*
X202718888Y-84583634D01*
X202662607Y-84648587D01*
X202643729Y-84670373D01*
X202584951Y-84708147D01*
X202515081Y-84708147D01*
X202456303Y-84670373D01*
X202439610Y-84651108D01*
X202381144Y-84583634D01*
X202381141Y-84583632D01*
X202381141Y-84583631D01*
X202360074Y-84570093D01*
X202314318Y-84517290D01*
X202304374Y-84448131D01*
X202333398Y-84384575D01*
X202360074Y-84361461D01*
X202381141Y-84347922D01*
X202381141Y-84347921D01*
X202381144Y-84347920D01*
X202475393Y-84239150D01*
X202535181Y-84108234D01*
X202550743Y-84000000D01*
X220977866Y-84000000D01*
X220998347Y-84142456D01*
X221058135Y-84273371D01*
X221058136Y-84273373D01*
X221152385Y-84382143D01*
X221156169Y-84384575D01*
X221173456Y-84395685D01*
X221219211Y-84448489D01*
X221229154Y-84517648D01*
X221200128Y-84581203D01*
X221173456Y-84604315D01*
X221152387Y-84617855D01*
X221152385Y-84617856D01*
X221152385Y-84617857D01*
X221130185Y-84643476D01*
X221058136Y-84726626D01*
X221058135Y-84726628D01*
X220998347Y-84857543D01*
X220977866Y-85000000D01*
X220998347Y-85142456D01*
X221058135Y-85273371D01*
X221058136Y-85273373D01*
X221152385Y-85382143D01*
X221156169Y-85384575D01*
X221173456Y-85395685D01*
X221219211Y-85448489D01*
X221229154Y-85517648D01*
X221200128Y-85581203D01*
X221173456Y-85604315D01*
X221152387Y-85617855D01*
X221152385Y-85617856D01*
X221152385Y-85617857D01*
X221130185Y-85643476D01*
X221058136Y-85726626D01*
X221058135Y-85726628D01*
X220998347Y-85857543D01*
X220977866Y-86000000D01*
X220998347Y-86142456D01*
X221052568Y-86261181D01*
X221058136Y-86273373D01*
X221152385Y-86382143D01*
X221273460Y-86459953D01*
X221273463Y-86459954D01*
X221273462Y-86459954D01*
X221411549Y-86500499D01*
X221411551Y-86500500D01*
X221411552Y-86500500D01*
X221555475Y-86500500D01*
X221555475Y-86500499D01*
X221693566Y-86459953D01*
X221814641Y-86382143D01*
X221889800Y-86295403D01*
X221948577Y-86257629D01*
X222018447Y-86257629D01*
X222077225Y-86295403D01*
X222077226Y-86295404D01*
X222152185Y-86381913D01*
X222152385Y-86382143D01*
X222273460Y-86459953D01*
X222273463Y-86459954D01*
X222273462Y-86459954D01*
X222411549Y-86500499D01*
X222411551Y-86500500D01*
X222411552Y-86500500D01*
X222555475Y-86500500D01*
X222555475Y-86500499D01*
X222693566Y-86459953D01*
X222814641Y-86382143D01*
X222908890Y-86273373D01*
X222968678Y-86142457D01*
X222981971Y-86050000D01*
X237194352Y-86050000D01*
X237214833Y-86192456D01*
X237259782Y-86290879D01*
X237274622Y-86323373D01*
X237368871Y-86432143D01*
X237489946Y-86509953D01*
X237489949Y-86509954D01*
X237489948Y-86509954D01*
X237628035Y-86550499D01*
X237628037Y-86550500D01*
X237628038Y-86550500D01*
X237771961Y-86550500D01*
X237771961Y-86550499D01*
X237910052Y-86509953D01*
X238031127Y-86432143D01*
X238125376Y-86323373D01*
X238185164Y-86192457D01*
X238205646Y-86050000D01*
X238185164Y-85907543D01*
X238125376Y-85776627D01*
X238031127Y-85667857D01*
X237910052Y-85590047D01*
X237910050Y-85590046D01*
X237910048Y-85590045D01*
X237910049Y-85590045D01*
X237771962Y-85549500D01*
X237771960Y-85549500D01*
X237628038Y-85549500D01*
X237628035Y-85549500D01*
X237489948Y-85590045D01*
X237368872Y-85667856D01*
X237274622Y-85776626D01*
X237274621Y-85776628D01*
X237214833Y-85907543D01*
X237194352Y-86050000D01*
X222981971Y-86050000D01*
X222989160Y-86000000D01*
X222968678Y-85857543D01*
X222908890Y-85726627D01*
X222814641Y-85617857D01*
X222814638Y-85617855D01*
X222814638Y-85617854D01*
X222793571Y-85604316D01*
X222747815Y-85551513D01*
X222737871Y-85482354D01*
X222766895Y-85418798D01*
X222793571Y-85395684D01*
X222814638Y-85382145D01*
X222814638Y-85382144D01*
X222814641Y-85382143D01*
X222908890Y-85273373D01*
X222968678Y-85142457D01*
X222989160Y-85000000D01*
X222968678Y-84857543D01*
X222908890Y-84726627D01*
X222814641Y-84617857D01*
X222693566Y-84540047D01*
X222693564Y-84540046D01*
X222693562Y-84540045D01*
X222693563Y-84540045D01*
X222555476Y-84499500D01*
X222555474Y-84499500D01*
X222411552Y-84499500D01*
X222411549Y-84499500D01*
X222273462Y-84540045D01*
X222152386Y-84617856D01*
X222152385Y-84617856D01*
X222152385Y-84617857D01*
X222125759Y-84648586D01*
X222077226Y-84704596D01*
X222018448Y-84742370D01*
X221948578Y-84742370D01*
X221889800Y-84704596D01*
X221814641Y-84617857D01*
X221814638Y-84617855D01*
X221814638Y-84617854D01*
X221793571Y-84604316D01*
X221747815Y-84551513D01*
X221737871Y-84482354D01*
X221766895Y-84418798D01*
X221793571Y-84395684D01*
X221814638Y-84382145D01*
X221814638Y-84382144D01*
X221814641Y-84382143D01*
X221908890Y-84273373D01*
X221968678Y-84142457D01*
X221989160Y-84000000D01*
X221968678Y-83857543D01*
X221908890Y-83726627D01*
X221814641Y-83617857D01*
X221693566Y-83540047D01*
X221693564Y-83540046D01*
X221693562Y-83540045D01*
X221693563Y-83540045D01*
X221555476Y-83499500D01*
X221555474Y-83499500D01*
X221411552Y-83499500D01*
X221411549Y-83499500D01*
X221273462Y-83540045D01*
X221152386Y-83617856D01*
X221058136Y-83726626D01*
X221058135Y-83726628D01*
X220998347Y-83857543D01*
X220977866Y-84000000D01*
X202550743Y-84000000D01*
X202555663Y-83965777D01*
X202535181Y-83823320D01*
X202475393Y-83692404D01*
X202381144Y-83583634D01*
X202260069Y-83505824D01*
X202260067Y-83505823D01*
X202260065Y-83505822D01*
X202260066Y-83505822D01*
X202121979Y-83465277D01*
X202121977Y-83465277D01*
X201978055Y-83465277D01*
X201978052Y-83465277D01*
X201839965Y-83505822D01*
X201718889Y-83583633D01*
X201624639Y-83692403D01*
X201624638Y-83692405D01*
X201564850Y-83823320D01*
X201544369Y-83965777D01*
X182809842Y-83965777D01*
X182818043Y-83908738D01*
X182797561Y-83766281D01*
X182737773Y-83635365D01*
X182643524Y-83526595D01*
X182522449Y-83448785D01*
X182522447Y-83448784D01*
X182522445Y-83448783D01*
X182522446Y-83448783D01*
X182384359Y-83408238D01*
X182384357Y-83408238D01*
X182240435Y-83408238D01*
X182240432Y-83408238D01*
X182102345Y-83448783D01*
X181981269Y-83526594D01*
X181887019Y-83635364D01*
X181887018Y-83635366D01*
X181827230Y-83766281D01*
X181806749Y-83908738D01*
X162770067Y-83908738D01*
X162754245Y-83798690D01*
X162694457Y-83667774D01*
X162600208Y-83559004D01*
X162479133Y-83481194D01*
X162479131Y-83481193D01*
X162479129Y-83481192D01*
X162479130Y-83481192D01*
X162341043Y-83440647D01*
X162341041Y-83440647D01*
X162197119Y-83440647D01*
X162197116Y-83440647D01*
X162059029Y-83481192D01*
X161937953Y-83559003D01*
X161843703Y-83667773D01*
X161843702Y-83667775D01*
X161783914Y-83798690D01*
X161763433Y-83941147D01*
X140980698Y-83941147D01*
X140968678Y-83857543D01*
X140908890Y-83726627D01*
X140814641Y-83617857D01*
X140693566Y-83540047D01*
X140693564Y-83540046D01*
X140693562Y-83540045D01*
X140693563Y-83540045D01*
X140555476Y-83499500D01*
X140555474Y-83499500D01*
X140411552Y-83499500D01*
X140411549Y-83499500D01*
X140273462Y-83540045D01*
X140152386Y-83617856D01*
X140058136Y-83726626D01*
X140058135Y-83726628D01*
X139998347Y-83857543D01*
X139977866Y-84000000D01*
X122244427Y-84000000D01*
X122255647Y-83921959D01*
X122235165Y-83779502D01*
X122175377Y-83648586D01*
X122081128Y-83539816D01*
X121960053Y-83462006D01*
X121960051Y-83462005D01*
X121960049Y-83462004D01*
X121960050Y-83462004D01*
X121821963Y-83421459D01*
X121821961Y-83421459D01*
X121678039Y-83421459D01*
X121678036Y-83421459D01*
X121539949Y-83462004D01*
X121418873Y-83539815D01*
X121418872Y-83539815D01*
X121418872Y-83539816D01*
X121416584Y-83542457D01*
X121324623Y-83648585D01*
X121324622Y-83648587D01*
X121264834Y-83779502D01*
X121244353Y-83921959D01*
X100250500Y-83921959D01*
X100250500Y-83200000D01*
X154294353Y-83200000D01*
X154314834Y-83342456D01*
X154350914Y-83421459D01*
X154374623Y-83473373D01*
X154468872Y-83582143D01*
X154589947Y-83659953D01*
X154589950Y-83659954D01*
X154589949Y-83659954D01*
X154728036Y-83700499D01*
X154728038Y-83700500D01*
X154728039Y-83700500D01*
X154871962Y-83700500D01*
X154871962Y-83700499D01*
X155010053Y-83659953D01*
X155131128Y-83582143D01*
X155225377Y-83473373D01*
X155258886Y-83400000D01*
X174694353Y-83400000D01*
X174714834Y-83542456D01*
X174772066Y-83667774D01*
X174774623Y-83673373D01*
X174868872Y-83782143D01*
X174989947Y-83859953D01*
X174989950Y-83859954D01*
X174989949Y-83859954D01*
X175128036Y-83900499D01*
X175128038Y-83900500D01*
X175128039Y-83900500D01*
X175271962Y-83900500D01*
X175271962Y-83900499D01*
X175410053Y-83859953D01*
X175531128Y-83782143D01*
X175625377Y-83673373D01*
X175685165Y-83542457D01*
X175705647Y-83400000D01*
X175685165Y-83257543D01*
X175658886Y-83200000D01*
X213894353Y-83200000D01*
X213914834Y-83342456D01*
X213950914Y-83421459D01*
X213974623Y-83473373D01*
X214068872Y-83582143D01*
X214189947Y-83659953D01*
X214189950Y-83659954D01*
X214189949Y-83659954D01*
X214328036Y-83700499D01*
X214328038Y-83700500D01*
X214328039Y-83700500D01*
X214471962Y-83700500D01*
X214471962Y-83700499D01*
X214610053Y-83659953D01*
X214731128Y-83582143D01*
X214825377Y-83473373D01*
X214885165Y-83342457D01*
X214905647Y-83200000D01*
X214885165Y-83057543D01*
X214825377Y-82926627D01*
X214731128Y-82817857D01*
X214703342Y-82800000D01*
X230444352Y-82800000D01*
X230464833Y-82942456D01*
X230524621Y-83073371D01*
X230524622Y-83073373D01*
X230618871Y-83182143D01*
X230739946Y-83259953D01*
X230739949Y-83259954D01*
X230739948Y-83259954D01*
X230878035Y-83300499D01*
X230878037Y-83300500D01*
X230878038Y-83300500D01*
X231021961Y-83300500D01*
X231021961Y-83300499D01*
X231160052Y-83259953D01*
X231281127Y-83182143D01*
X231375376Y-83073373D01*
X231435164Y-82942457D01*
X231455646Y-82800000D01*
X231435164Y-82657543D01*
X231375376Y-82526627D01*
X231281127Y-82417857D01*
X231160052Y-82340047D01*
X231160050Y-82340046D01*
X231160048Y-82340045D01*
X231160049Y-82340045D01*
X231021962Y-82299500D01*
X231021960Y-82299500D01*
X230878038Y-82299500D01*
X230878035Y-82299500D01*
X230739948Y-82340045D01*
X230618872Y-82417856D01*
X230524622Y-82526626D01*
X230524621Y-82526628D01*
X230464833Y-82657543D01*
X230444352Y-82800000D01*
X214703342Y-82800000D01*
X214610053Y-82740047D01*
X214610051Y-82740046D01*
X214610049Y-82740045D01*
X214610050Y-82740045D01*
X214471963Y-82699500D01*
X214471961Y-82699500D01*
X214328039Y-82699500D01*
X214328036Y-82699500D01*
X214189949Y-82740045D01*
X214068873Y-82817856D01*
X213974623Y-82926626D01*
X213974622Y-82926628D01*
X213914834Y-83057543D01*
X213894353Y-83200000D01*
X175658886Y-83200000D01*
X175625377Y-83126627D01*
X175531128Y-83017857D01*
X175410053Y-82940047D01*
X175410051Y-82940046D01*
X175410049Y-82940045D01*
X175410050Y-82940045D01*
X175271963Y-82899500D01*
X175271961Y-82899500D01*
X175128039Y-82899500D01*
X175128036Y-82899500D01*
X174989949Y-82940045D01*
X174868873Y-83017856D01*
X174774623Y-83126626D01*
X174774622Y-83126628D01*
X174714834Y-83257543D01*
X174694353Y-83400000D01*
X155258886Y-83400000D01*
X155285165Y-83342457D01*
X155305647Y-83200000D01*
X155285165Y-83057543D01*
X155225377Y-82926627D01*
X155131128Y-82817857D01*
X155010053Y-82740047D01*
X155010051Y-82740046D01*
X155010049Y-82740045D01*
X155010050Y-82740045D01*
X154871963Y-82699500D01*
X154871961Y-82699500D01*
X154728039Y-82699500D01*
X154728036Y-82699500D01*
X154589949Y-82740045D01*
X154468873Y-82817856D01*
X154374623Y-82926626D01*
X154374622Y-82926628D01*
X154314834Y-83057543D01*
X154294353Y-83200000D01*
X100250500Y-83200000D01*
X100250500Y-82000000D01*
X129094353Y-82000000D01*
X129114834Y-82142456D01*
X129160504Y-82242457D01*
X129174623Y-82273373D01*
X129268872Y-82382143D01*
X129389947Y-82459953D01*
X129389950Y-82459954D01*
X129389949Y-82459954D01*
X129528036Y-82500499D01*
X129528038Y-82500500D01*
X129528039Y-82500500D01*
X129671962Y-82500500D01*
X129671962Y-82500499D01*
X129810053Y-82459953D01*
X129931128Y-82382143D01*
X130025377Y-82273373D01*
X130085165Y-82142457D01*
X130105647Y-82000000D01*
X150813103Y-82000000D01*
X150833584Y-82142456D01*
X150879254Y-82242457D01*
X150893373Y-82273373D01*
X150987622Y-82382143D01*
X151108697Y-82459953D01*
X151108700Y-82459954D01*
X151108699Y-82459954D01*
X151246786Y-82500499D01*
X151246788Y-82500500D01*
X151246789Y-82500500D01*
X151390712Y-82500500D01*
X151390712Y-82500499D01*
X151528803Y-82459953D01*
X151649878Y-82382143D01*
X151744127Y-82273373D01*
X151803915Y-82142457D01*
X151824397Y-82000000D01*
X171094353Y-82000000D01*
X171114834Y-82142456D01*
X171160504Y-82242457D01*
X171174623Y-82273373D01*
X171268872Y-82382143D01*
X171389947Y-82459953D01*
X171389950Y-82459954D01*
X171389949Y-82459954D01*
X171528036Y-82500499D01*
X171528038Y-82500500D01*
X171528039Y-82500500D01*
X171671962Y-82500500D01*
X171671962Y-82500499D01*
X171810053Y-82459953D01*
X171931128Y-82382143D01*
X172025377Y-82273373D01*
X172085165Y-82142457D01*
X172105647Y-82000000D01*
X190894353Y-82000000D01*
X190914834Y-82142456D01*
X190960504Y-82242457D01*
X190974623Y-82273373D01*
X191068872Y-82382143D01*
X191189947Y-82459953D01*
X191189950Y-82459954D01*
X191189949Y-82459954D01*
X191328036Y-82500499D01*
X191328038Y-82500500D01*
X191328039Y-82500500D01*
X191471962Y-82500500D01*
X191471962Y-82500499D01*
X191610053Y-82459953D01*
X191731128Y-82382143D01*
X191825377Y-82273373D01*
X191885165Y-82142457D01*
X191891269Y-82100000D01*
X210194353Y-82100000D01*
X210214834Y-82242456D01*
X210228953Y-82273371D01*
X210274623Y-82373373D01*
X210368872Y-82482143D01*
X210489947Y-82559953D01*
X210489950Y-82559954D01*
X210489949Y-82559954D01*
X210628036Y-82600499D01*
X210628038Y-82600500D01*
X210628039Y-82600500D01*
X210771962Y-82600500D01*
X210771962Y-82600499D01*
X210910053Y-82559953D01*
X211031128Y-82482143D01*
X211125377Y-82373373D01*
X211185165Y-82242457D01*
X211205647Y-82100000D01*
X211185165Y-81957543D01*
X211125377Y-81826627D01*
X211031128Y-81717857D01*
X210910053Y-81640047D01*
X210910051Y-81640046D01*
X210910049Y-81640045D01*
X210910050Y-81640045D01*
X210871585Y-81628751D01*
X238615601Y-81628751D01*
X238636082Y-81771207D01*
X238675511Y-81857543D01*
X238695871Y-81902124D01*
X238790120Y-82010894D01*
X238911195Y-82088704D01*
X238911198Y-82088705D01*
X238911197Y-82088705D01*
X239049284Y-82129250D01*
X239049286Y-82129251D01*
X239049287Y-82129251D01*
X239193210Y-82129251D01*
X239193210Y-82129250D01*
X239331301Y-82088704D01*
X239452376Y-82010894D01*
X239546625Y-81902124D01*
X239606413Y-81771208D01*
X239626895Y-81628751D01*
X239606413Y-81486294D01*
X239546625Y-81355378D01*
X239452376Y-81246608D01*
X239331301Y-81168798D01*
X239331299Y-81168797D01*
X239331297Y-81168796D01*
X239331298Y-81168796D01*
X239193211Y-81128251D01*
X239193209Y-81128251D01*
X239049287Y-81128251D01*
X239049284Y-81128251D01*
X238911197Y-81168796D01*
X238790121Y-81246607D01*
X238695871Y-81355377D01*
X238695870Y-81355379D01*
X238636082Y-81486294D01*
X238615601Y-81628751D01*
X210871585Y-81628751D01*
X210771963Y-81599500D01*
X210771961Y-81599500D01*
X210628039Y-81599500D01*
X210628036Y-81599500D01*
X210489949Y-81640045D01*
X210368873Y-81717856D01*
X210274623Y-81826626D01*
X210274622Y-81826628D01*
X210214834Y-81957543D01*
X210194353Y-82100000D01*
X191891269Y-82100000D01*
X191905647Y-82000000D01*
X191885165Y-81857543D01*
X191825377Y-81726627D01*
X191731128Y-81617857D01*
X191610053Y-81540047D01*
X191610051Y-81540046D01*
X191610049Y-81540045D01*
X191610050Y-81540045D01*
X191471963Y-81499500D01*
X191471961Y-81499500D01*
X191328039Y-81499500D01*
X191328036Y-81499500D01*
X191189949Y-81540045D01*
X191068873Y-81617856D01*
X190974623Y-81726626D01*
X190974622Y-81726628D01*
X190914834Y-81857543D01*
X190894353Y-82000000D01*
X172105647Y-82000000D01*
X172085165Y-81857543D01*
X172025377Y-81726627D01*
X171931128Y-81617857D01*
X171810053Y-81540047D01*
X171810051Y-81540046D01*
X171810049Y-81540045D01*
X171810050Y-81540045D01*
X171671963Y-81499500D01*
X171671961Y-81499500D01*
X171528039Y-81499500D01*
X171528036Y-81499500D01*
X171389949Y-81540045D01*
X171268873Y-81617856D01*
X171174623Y-81726626D01*
X171174622Y-81726628D01*
X171114834Y-81857543D01*
X171094353Y-82000000D01*
X151824397Y-82000000D01*
X151803915Y-81857543D01*
X151744127Y-81726627D01*
X151649878Y-81617857D01*
X151528803Y-81540047D01*
X151528801Y-81540046D01*
X151528799Y-81540045D01*
X151528800Y-81540045D01*
X151390713Y-81499500D01*
X151390711Y-81499500D01*
X151246789Y-81499500D01*
X151246786Y-81499500D01*
X151108699Y-81540045D01*
X150987623Y-81617856D01*
X150893373Y-81726626D01*
X150893372Y-81726628D01*
X150833584Y-81857543D01*
X150813103Y-82000000D01*
X130105647Y-82000000D01*
X130085165Y-81857543D01*
X130025377Y-81726627D01*
X129931128Y-81617857D01*
X129810053Y-81540047D01*
X129810051Y-81540046D01*
X129810049Y-81540045D01*
X129810050Y-81540045D01*
X129671963Y-81499500D01*
X129671961Y-81499500D01*
X129528039Y-81499500D01*
X129528036Y-81499500D01*
X129389949Y-81540045D01*
X129268873Y-81617856D01*
X129174623Y-81726626D01*
X129174622Y-81726628D01*
X129114834Y-81857543D01*
X129094353Y-82000000D01*
X100250500Y-82000000D01*
X100250500Y-79551250D01*
X131975603Y-79551250D01*
X131996084Y-79693706D01*
X132026692Y-79760726D01*
X132055873Y-79824623D01*
X132150122Y-79933393D01*
X132271197Y-80011203D01*
X132271200Y-80011204D01*
X132271199Y-80011204D01*
X132409286Y-80051749D01*
X132409288Y-80051750D01*
X132409289Y-80051750D01*
X132553212Y-80051750D01*
X132553212Y-80051749D01*
X132691303Y-80011203D01*
X132812378Y-79933393D01*
X132906627Y-79824623D01*
X132966415Y-79693707D01*
X132983482Y-79575000D01*
X153494353Y-79575000D01*
X153514834Y-79717456D01*
X153570467Y-79839272D01*
X153574623Y-79848373D01*
X153668872Y-79957143D01*
X153789947Y-80034953D01*
X153789950Y-80034954D01*
X153789949Y-80034954D01*
X153867175Y-80057629D01*
X153920788Y-80073371D01*
X153928036Y-80075499D01*
X153928038Y-80075500D01*
X153928039Y-80075500D01*
X154071962Y-80075500D01*
X154071962Y-80075499D01*
X154210053Y-80034953D01*
X154331128Y-79957143D01*
X154425377Y-79848373D01*
X154485165Y-79717457D01*
X154505647Y-79575000D01*
X154485165Y-79432543D01*
X154425377Y-79301627D01*
X154331128Y-79192857D01*
X154210053Y-79115047D01*
X154210051Y-79115046D01*
X154210049Y-79115045D01*
X154210050Y-79115045D01*
X154071963Y-79074500D01*
X154071961Y-79074500D01*
X153928039Y-79074500D01*
X153928036Y-79074500D01*
X153789949Y-79115045D01*
X153668873Y-79192856D01*
X153668872Y-79192856D01*
X153668872Y-79192857D01*
X153666422Y-79195685D01*
X153574623Y-79301626D01*
X153574622Y-79301628D01*
X153514834Y-79432543D01*
X153494353Y-79575000D01*
X132983482Y-79575000D01*
X132986897Y-79551250D01*
X132966415Y-79408793D01*
X132906627Y-79277877D01*
X132812378Y-79169107D01*
X132691303Y-79091297D01*
X132691301Y-79091296D01*
X132691299Y-79091295D01*
X132691300Y-79091295D01*
X132553213Y-79050750D01*
X132553211Y-79050750D01*
X132409289Y-79050750D01*
X132409286Y-79050750D01*
X132271199Y-79091295D01*
X132150123Y-79169106D01*
X132055873Y-79277876D01*
X132055872Y-79277878D01*
X131996084Y-79408793D01*
X131975603Y-79551250D01*
X100250500Y-79551250D01*
X100250500Y-79013750D01*
X174663104Y-79013750D01*
X174683585Y-79156206D01*
X174739151Y-79277876D01*
X174743374Y-79287123D01*
X174837623Y-79395893D01*
X174958698Y-79473703D01*
X174958701Y-79473704D01*
X174958700Y-79473704D01*
X175096787Y-79514249D01*
X175096789Y-79514250D01*
X175096790Y-79514250D01*
X175240713Y-79514250D01*
X175240713Y-79514249D01*
X175378804Y-79473703D01*
X175499879Y-79395893D01*
X175594128Y-79287123D01*
X175653916Y-79156207D01*
X175674398Y-79013750D01*
X175672421Y-79000000D01*
X194294353Y-79000000D01*
X194314834Y-79142456D01*
X194349698Y-79218796D01*
X194374623Y-79273373D01*
X194468872Y-79382143D01*
X194589947Y-79459953D01*
X194589950Y-79459954D01*
X194589949Y-79459954D01*
X194728036Y-79500499D01*
X194728038Y-79500500D01*
X194728039Y-79500500D01*
X194871962Y-79500500D01*
X194871962Y-79500499D01*
X195010053Y-79459953D01*
X195131128Y-79382143D01*
X195225377Y-79273373D01*
X195285165Y-79142457D01*
X195305647Y-79000000D01*
X213694353Y-79000000D01*
X213714834Y-79142456D01*
X213749698Y-79218796D01*
X213774623Y-79273373D01*
X213868872Y-79382143D01*
X213989947Y-79459953D01*
X213989950Y-79459954D01*
X213989949Y-79459954D01*
X214128036Y-79500499D01*
X214128038Y-79500500D01*
X214128039Y-79500500D01*
X214271962Y-79500500D01*
X214271962Y-79500499D01*
X214410053Y-79459953D01*
X214531128Y-79382143D01*
X214625377Y-79273373D01*
X214685165Y-79142457D01*
X214705647Y-79000000D01*
X214685165Y-78857543D01*
X214658886Y-78800000D01*
X231694352Y-78800000D01*
X231714833Y-78942456D01*
X231764290Y-79050750D01*
X231774622Y-79073373D01*
X231868871Y-79182143D01*
X231876323Y-79186932D01*
X231889942Y-79195685D01*
X231935697Y-79248489D01*
X231945640Y-79317648D01*
X231916614Y-79381203D01*
X231889942Y-79404315D01*
X231868873Y-79417855D01*
X231774622Y-79526626D01*
X231774621Y-79526628D01*
X231714833Y-79657543D01*
X231694352Y-79800000D01*
X231714833Y-79942456D01*
X231764747Y-80051750D01*
X231774622Y-80073373D01*
X231868871Y-80182143D01*
X231989946Y-80259953D01*
X231989949Y-80259954D01*
X231989948Y-80259954D01*
X232097106Y-80291417D01*
X232128031Y-80300498D01*
X232128035Y-80300499D01*
X232128037Y-80300500D01*
X232128038Y-80300500D01*
X232271961Y-80300500D01*
X232271961Y-80300499D01*
X232410052Y-80259953D01*
X232531127Y-80182143D01*
X232606286Y-80095403D01*
X232665063Y-80057629D01*
X232734933Y-80057629D01*
X232793710Y-80095402D01*
X232868871Y-80182143D01*
X232989946Y-80259953D01*
X232989949Y-80259954D01*
X232989948Y-80259954D01*
X233097106Y-80291417D01*
X233128031Y-80300498D01*
X233128035Y-80300499D01*
X233128037Y-80300500D01*
X233128038Y-80300500D01*
X233271961Y-80300500D01*
X233271961Y-80300499D01*
X233410052Y-80259953D01*
X233531127Y-80182143D01*
X233606289Y-80095400D01*
X233665063Y-80057628D01*
X233734933Y-80057627D01*
X233793711Y-80095401D01*
X233868872Y-80182142D01*
X233989947Y-80259952D01*
X233989950Y-80259953D01*
X233989949Y-80259953D01*
X234128036Y-80300498D01*
X234128038Y-80300499D01*
X234128039Y-80300499D01*
X234271962Y-80300499D01*
X234271962Y-80300498D01*
X234379121Y-80269034D01*
X234410050Y-80259953D01*
X234410050Y-80259952D01*
X234410053Y-80259952D01*
X234531128Y-80182142D01*
X234606286Y-80095403D01*
X234665063Y-80057629D01*
X234734933Y-80057629D01*
X234793711Y-80095403D01*
X234793712Y-80095403D01*
X234868871Y-80182142D01*
X234989946Y-80259952D01*
X234989949Y-80259953D01*
X234989948Y-80259953D01*
X235128035Y-80300498D01*
X235128037Y-80300499D01*
X235128038Y-80300499D01*
X235271961Y-80300499D01*
X235271961Y-80300498D01*
X235379120Y-80269034D01*
X235410049Y-80259953D01*
X235410049Y-80259952D01*
X235410052Y-80259952D01*
X235531127Y-80182142D01*
X235625376Y-80073372D01*
X235685164Y-79942456D01*
X235705646Y-79799999D01*
X235685164Y-79657542D01*
X235625376Y-79526626D01*
X235531127Y-79417856D01*
X235517025Y-79408793D01*
X235510056Y-79404314D01*
X235464301Y-79351510D01*
X235454358Y-79282351D01*
X235483384Y-79218796D01*
X235510056Y-79195684D01*
X235531127Y-79182143D01*
X235606286Y-79095403D01*
X235665063Y-79057629D01*
X235734933Y-79057629D01*
X235793710Y-79095402D01*
X235823978Y-79130333D01*
X235846397Y-79156207D01*
X235868871Y-79182143D01*
X235989946Y-79259953D01*
X235989949Y-79259954D01*
X235989948Y-79259954D01*
X236097106Y-79291417D01*
X236126335Y-79300000D01*
X236128035Y-79300499D01*
X236128037Y-79300500D01*
X236128038Y-79300500D01*
X236271961Y-79300500D01*
X236271961Y-79300499D01*
X236410052Y-79259953D01*
X236531127Y-79182143D01*
X236606286Y-79095403D01*
X236665063Y-79057629D01*
X236734933Y-79057629D01*
X236793710Y-79095402D01*
X236823978Y-79130333D01*
X236846397Y-79156207D01*
X236868871Y-79182143D01*
X236989946Y-79259953D01*
X236989949Y-79259954D01*
X236989948Y-79259954D01*
X237097106Y-79291417D01*
X237126335Y-79300000D01*
X237128035Y-79300499D01*
X237128037Y-79300500D01*
X237128038Y-79300500D01*
X237271961Y-79300500D01*
X237271961Y-79300499D01*
X237410052Y-79259953D01*
X237531127Y-79182143D01*
X237606286Y-79095403D01*
X237665063Y-79057629D01*
X237734933Y-79057629D01*
X237793710Y-79095402D01*
X237823978Y-79130333D01*
X237846397Y-79156207D01*
X237868871Y-79182143D01*
X237876323Y-79186932D01*
X237889942Y-79195685D01*
X237935697Y-79248489D01*
X237945640Y-79317648D01*
X237916614Y-79381203D01*
X237889942Y-79404315D01*
X237868873Y-79417855D01*
X237774622Y-79526626D01*
X237774621Y-79526628D01*
X237714833Y-79657543D01*
X237694352Y-79800000D01*
X237714833Y-79942456D01*
X237764747Y-80051750D01*
X237774622Y-80073373D01*
X237868871Y-80182143D01*
X237989946Y-80259953D01*
X237989949Y-80259954D01*
X237989948Y-80259954D01*
X238097106Y-80291417D01*
X238128031Y-80300498D01*
X238128035Y-80300499D01*
X238128037Y-80300500D01*
X238128038Y-80300500D01*
X238271961Y-80300500D01*
X238271961Y-80300499D01*
X238410052Y-80259953D01*
X238531127Y-80182143D01*
X238606286Y-80095403D01*
X238665063Y-80057629D01*
X238734933Y-80057629D01*
X238793711Y-80095403D01*
X238793712Y-80095403D01*
X238868872Y-80182143D01*
X238989947Y-80259953D01*
X238989950Y-80259954D01*
X238989949Y-80259954D01*
X239097107Y-80291417D01*
X239128032Y-80300498D01*
X239128036Y-80300499D01*
X239128038Y-80300500D01*
X239128039Y-80300500D01*
X239271962Y-80300500D01*
X239271962Y-80300499D01*
X239410053Y-80259953D01*
X239531128Y-80182143D01*
X239606289Y-80095400D01*
X239665063Y-80057629D01*
X239734932Y-80057628D01*
X239793710Y-80095401D01*
X239868871Y-80182142D01*
X239989946Y-80259952D01*
X239989949Y-80259953D01*
X239989948Y-80259953D01*
X240128035Y-80300498D01*
X240128037Y-80300499D01*
X240128038Y-80300499D01*
X240271961Y-80300499D01*
X240271961Y-80300498D01*
X240379120Y-80269034D01*
X240410049Y-80259953D01*
X240410049Y-80259952D01*
X240410052Y-80259952D01*
X240531127Y-80182142D01*
X240606285Y-80095403D01*
X240665062Y-80057629D01*
X240734932Y-80057629D01*
X240793710Y-80095403D01*
X240793711Y-80095403D01*
X240868871Y-80182143D01*
X240989946Y-80259953D01*
X240989949Y-80259954D01*
X240989948Y-80259954D01*
X241097106Y-80291417D01*
X241128031Y-80300498D01*
X241128035Y-80300499D01*
X241128037Y-80300500D01*
X241128038Y-80300500D01*
X241271961Y-80300500D01*
X241271961Y-80300499D01*
X241410052Y-80259953D01*
X241531127Y-80182143D01*
X241625376Y-80073373D01*
X241685164Y-79942457D01*
X241705646Y-79800000D01*
X241685164Y-79657543D01*
X241625376Y-79526627D01*
X241531127Y-79417857D01*
X241531124Y-79417855D01*
X241531124Y-79417854D01*
X241510057Y-79404316D01*
X241464301Y-79351513D01*
X241454357Y-79282354D01*
X241483381Y-79218798D01*
X241510057Y-79195684D01*
X241531124Y-79182145D01*
X241531124Y-79182144D01*
X241531127Y-79182143D01*
X241625376Y-79073373D01*
X241685164Y-78942457D01*
X241705646Y-78800000D01*
X241685164Y-78657543D01*
X241625376Y-78526627D01*
X241531127Y-78417857D01*
X241531124Y-78417855D01*
X241531122Y-78417853D01*
X241510054Y-78404313D01*
X241464300Y-78351509D01*
X241454357Y-78282350D01*
X241483383Y-78218795D01*
X241510056Y-78195684D01*
X241531128Y-78182142D01*
X241625377Y-78073372D01*
X241685165Y-77942456D01*
X241705647Y-77799999D01*
X241685165Y-77657542D01*
X241625377Y-77526626D01*
X241531128Y-77417856D01*
X241410053Y-77340046D01*
X241410051Y-77340045D01*
X241410049Y-77340044D01*
X241410050Y-77340044D01*
X241271963Y-77299499D01*
X241271961Y-77299499D01*
X241128039Y-77299499D01*
X241128036Y-77299499D01*
X240989949Y-77340044D01*
X240868873Y-77417855D01*
X240793712Y-77504596D01*
X240734934Y-77542370D01*
X240665064Y-77542370D01*
X240606286Y-77504596D01*
X240606284Y-77504594D01*
X240531127Y-77417857D01*
X240410052Y-77340047D01*
X240410050Y-77340046D01*
X240410048Y-77340045D01*
X240410049Y-77340045D01*
X240271962Y-77299500D01*
X240271960Y-77299500D01*
X240128038Y-77299500D01*
X240128035Y-77299500D01*
X239989948Y-77340045D01*
X239868872Y-77417856D01*
X239793712Y-77504596D01*
X239734934Y-77542370D01*
X239665064Y-77542370D01*
X239606286Y-77504596D01*
X239606284Y-77504594D01*
X239531127Y-77417857D01*
X239410052Y-77340047D01*
X239410050Y-77340046D01*
X239410048Y-77340045D01*
X239410049Y-77340045D01*
X239271962Y-77299500D01*
X239271960Y-77299500D01*
X239128038Y-77299500D01*
X239128035Y-77299500D01*
X238989948Y-77340045D01*
X238868872Y-77417856D01*
X238793712Y-77504595D01*
X238734933Y-77542369D01*
X238665064Y-77542369D01*
X238606286Y-77504595D01*
X238606285Y-77504594D01*
X238531127Y-77417856D01*
X238410052Y-77340046D01*
X238410050Y-77340045D01*
X238410048Y-77340044D01*
X238410049Y-77340044D01*
X238271962Y-77299499D01*
X238271960Y-77299499D01*
X238128038Y-77299499D01*
X238128035Y-77299499D01*
X237989948Y-77340044D01*
X237868872Y-77417855D01*
X237793712Y-77504595D01*
X237734934Y-77542369D01*
X237665064Y-77542369D01*
X237606286Y-77504595D01*
X237606285Y-77504594D01*
X237531127Y-77417856D01*
X237410052Y-77340046D01*
X237410050Y-77340045D01*
X237410048Y-77340044D01*
X237410049Y-77340044D01*
X237271962Y-77299499D01*
X237271960Y-77299499D01*
X237128038Y-77299499D01*
X237128035Y-77299499D01*
X236989948Y-77340044D01*
X236868871Y-77417856D01*
X236868868Y-77417857D01*
X236793710Y-77504595D01*
X236734932Y-77542369D01*
X236665062Y-77542369D01*
X236606285Y-77504595D01*
X236606284Y-77504594D01*
X236531127Y-77417857D01*
X236410052Y-77340047D01*
X236410050Y-77340046D01*
X236410048Y-77340045D01*
X236410049Y-77340045D01*
X236271962Y-77299500D01*
X236271960Y-77299500D01*
X236128038Y-77299500D01*
X236128035Y-77299500D01*
X235989948Y-77340045D01*
X235868872Y-77417856D01*
X235793712Y-77504596D01*
X235734934Y-77542370D01*
X235665064Y-77542370D01*
X235606286Y-77504596D01*
X235606284Y-77504594D01*
X235531127Y-77417857D01*
X235410052Y-77340047D01*
X235410050Y-77340046D01*
X235410048Y-77340045D01*
X235410049Y-77340045D01*
X235271962Y-77299500D01*
X235271960Y-77299500D01*
X235128038Y-77299500D01*
X235128035Y-77299500D01*
X234989948Y-77340045D01*
X234868872Y-77417856D01*
X234793712Y-77504596D01*
X234734934Y-77542370D01*
X234665064Y-77542370D01*
X234606286Y-77504596D01*
X234606284Y-77504594D01*
X234531127Y-77417857D01*
X234410052Y-77340047D01*
X234410050Y-77340046D01*
X234410048Y-77340045D01*
X234410049Y-77340045D01*
X234271962Y-77299500D01*
X234271960Y-77299500D01*
X234128038Y-77299500D01*
X234128035Y-77299500D01*
X233989948Y-77340045D01*
X233868872Y-77417856D01*
X233793712Y-77504595D01*
X233734933Y-77542369D01*
X233665064Y-77542369D01*
X233606286Y-77504595D01*
X233606285Y-77504594D01*
X233531127Y-77417856D01*
X233410052Y-77340046D01*
X233410050Y-77340045D01*
X233410048Y-77340044D01*
X233410049Y-77340044D01*
X233271962Y-77299499D01*
X233271960Y-77299499D01*
X233128038Y-77299499D01*
X233128035Y-77299499D01*
X232989948Y-77340044D01*
X232868872Y-77417855D01*
X232793712Y-77504594D01*
X232734933Y-77542368D01*
X232665064Y-77542368D01*
X232606286Y-77504594D01*
X232531128Y-77417856D01*
X232410053Y-77340046D01*
X232410051Y-77340045D01*
X232410049Y-77340044D01*
X232410050Y-77340044D01*
X232271963Y-77299499D01*
X232271961Y-77299499D01*
X232128039Y-77299499D01*
X232128036Y-77299499D01*
X231989949Y-77340044D01*
X231868873Y-77417855D01*
X231774623Y-77526625D01*
X231774622Y-77526627D01*
X231714834Y-77657542D01*
X231694353Y-77799999D01*
X231714834Y-77942455D01*
X231714835Y-77942457D01*
X231774623Y-78073372D01*
X231868872Y-78182142D01*
X231868874Y-78182143D01*
X231889943Y-78195684D01*
X231935698Y-78248488D01*
X231945641Y-78317647D01*
X231916615Y-78381202D01*
X231889944Y-78404313D01*
X231868875Y-78417853D01*
X231868873Y-78417855D01*
X231774622Y-78526626D01*
X231774621Y-78526628D01*
X231714833Y-78657543D01*
X231694352Y-78800000D01*
X214658886Y-78800000D01*
X214625377Y-78726627D01*
X214531128Y-78617857D01*
X214410053Y-78540047D01*
X214410051Y-78540046D01*
X214410049Y-78540045D01*
X214410050Y-78540045D01*
X214271963Y-78499500D01*
X214271961Y-78499500D01*
X214128039Y-78499500D01*
X214128036Y-78499500D01*
X213989949Y-78540045D01*
X213868873Y-78617856D01*
X213774623Y-78726626D01*
X213774622Y-78726628D01*
X213714834Y-78857543D01*
X213694353Y-79000000D01*
X195305647Y-79000000D01*
X195285165Y-78857543D01*
X195225377Y-78726627D01*
X195131128Y-78617857D01*
X195010053Y-78540047D01*
X195010051Y-78540046D01*
X195010049Y-78540045D01*
X195010050Y-78540045D01*
X194871963Y-78499500D01*
X194871961Y-78499500D01*
X194728039Y-78499500D01*
X194728036Y-78499500D01*
X194589949Y-78540045D01*
X194468873Y-78617856D01*
X194374623Y-78726626D01*
X194374622Y-78726628D01*
X194314834Y-78857543D01*
X194294353Y-79000000D01*
X175672421Y-79000000D01*
X175653916Y-78871293D01*
X175594128Y-78740377D01*
X175499879Y-78631607D01*
X175378804Y-78553797D01*
X175378802Y-78553796D01*
X175378800Y-78553795D01*
X175378801Y-78553795D01*
X175240714Y-78513250D01*
X175240712Y-78513250D01*
X175096790Y-78513250D01*
X175096787Y-78513250D01*
X174958700Y-78553795D01*
X174837624Y-78631606D01*
X174743374Y-78740376D01*
X174743373Y-78740378D01*
X174683585Y-78871293D01*
X174663104Y-79013750D01*
X100250500Y-79013750D01*
X100250500Y-75000000D01*
X175494353Y-75000000D01*
X175514834Y-75142456D01*
X175567433Y-75257629D01*
X175574623Y-75273373D01*
X175668872Y-75382143D01*
X175789947Y-75459953D01*
X175789950Y-75459954D01*
X175789949Y-75459954D01*
X175928036Y-75500499D01*
X175928038Y-75500500D01*
X175928039Y-75500500D01*
X176071962Y-75500500D01*
X176071962Y-75500499D01*
X176210053Y-75459953D01*
X176331128Y-75382143D01*
X176406287Y-75295403D01*
X176465064Y-75257629D01*
X176534934Y-75257629D01*
X176593711Y-75295402D01*
X176668872Y-75382143D01*
X176789947Y-75459953D01*
X176789950Y-75459954D01*
X176789949Y-75459954D01*
X176928036Y-75500499D01*
X176928038Y-75500500D01*
X176928039Y-75500500D01*
X177071962Y-75500500D01*
X177071962Y-75500499D01*
X177210053Y-75459953D01*
X177331128Y-75382143D01*
X177425377Y-75273373D01*
X177485165Y-75142457D01*
X177505647Y-75000000D01*
X177485165Y-74857543D01*
X177425377Y-74726627D01*
X177331128Y-74617857D01*
X177310055Y-74604314D01*
X177264301Y-74551511D01*
X177254357Y-74482352D01*
X177283382Y-74418796D01*
X177310056Y-74395684D01*
X177331128Y-74382142D01*
X177425377Y-74273372D01*
X177485165Y-74142456D01*
X177505647Y-73999999D01*
X177485165Y-73857542D01*
X177425377Y-73726626D01*
X177331128Y-73617856D01*
X177310058Y-73604315D01*
X177264304Y-73551514D01*
X177254359Y-73482355D01*
X177283383Y-73418799D01*
X177310059Y-73395684D01*
X177331128Y-73382144D01*
X177425377Y-73273374D01*
X177485165Y-73142458D01*
X177505647Y-73000001D01*
X177485165Y-72857544D01*
X177425377Y-72726628D01*
X177331128Y-72617858D01*
X177210053Y-72540048D01*
X177210051Y-72540047D01*
X177210049Y-72540046D01*
X177210050Y-72540046D01*
X177071963Y-72499501D01*
X177071961Y-72499501D01*
X176928039Y-72499501D01*
X176928036Y-72499501D01*
X176789949Y-72540046D01*
X176668873Y-72617857D01*
X176593713Y-72704596D01*
X176534934Y-72742370D01*
X176465065Y-72742370D01*
X176406287Y-72704595D01*
X176331129Y-72617857D01*
X176210054Y-72540047D01*
X176210052Y-72540046D01*
X176210050Y-72540045D01*
X176210051Y-72540045D01*
X176071964Y-72499500D01*
X176071962Y-72499500D01*
X175928040Y-72499500D01*
X175928037Y-72499500D01*
X175789950Y-72540045D01*
X175668874Y-72617856D01*
X175574624Y-72726626D01*
X175574623Y-72726628D01*
X175514835Y-72857543D01*
X175494354Y-73000000D01*
X175514835Y-73142456D01*
X175567434Y-73257629D01*
X175574624Y-73273373D01*
X175668873Y-73382143D01*
X175689942Y-73395683D01*
X175735697Y-73448487D01*
X175745641Y-73517646D01*
X175716616Y-73581201D01*
X175689945Y-73604313D01*
X175668874Y-73617854D01*
X175574624Y-73726625D01*
X175574623Y-73726627D01*
X175514835Y-73857542D01*
X175494354Y-73999999D01*
X175514835Y-74142455D01*
X175514836Y-74142457D01*
X175574624Y-74273372D01*
X175668873Y-74382142D01*
X175668878Y-74382145D01*
X175689944Y-74395684D01*
X175735699Y-74448488D01*
X175745642Y-74517647D01*
X175716616Y-74581202D01*
X175689945Y-74604313D01*
X175668876Y-74617853D01*
X175668874Y-74617855D01*
X175574623Y-74726626D01*
X175574622Y-74726628D01*
X175514834Y-74857543D01*
X175494353Y-75000000D01*
X100250500Y-75000000D01*
X100250500Y-71000000D01*
X115494353Y-71000000D01*
X115514834Y-71142456D01*
X115553275Y-71226628D01*
X115574623Y-71273373D01*
X115668872Y-71382143D01*
X115676324Y-71386932D01*
X115689943Y-71395685D01*
X115735698Y-71448489D01*
X115745641Y-71517648D01*
X115716615Y-71581203D01*
X115689943Y-71604315D01*
X115668874Y-71617855D01*
X115574623Y-71726626D01*
X115574622Y-71726628D01*
X115514834Y-71857543D01*
X115494353Y-72000000D01*
X115514834Y-72142456D01*
X115566119Y-72254753D01*
X115574623Y-72273373D01*
X115668872Y-72382143D01*
X115676324Y-72386932D01*
X115689943Y-72395685D01*
X115735698Y-72448489D01*
X115745641Y-72517648D01*
X115716615Y-72581203D01*
X115689943Y-72604315D01*
X115668874Y-72617855D01*
X115574623Y-72726626D01*
X115574622Y-72726628D01*
X115514834Y-72857543D01*
X115494353Y-73000000D01*
X115514834Y-73142456D01*
X115567433Y-73257629D01*
X115574623Y-73273373D01*
X115668872Y-73382143D01*
X115789947Y-73459953D01*
X115789950Y-73459954D01*
X115789949Y-73459954D01*
X115866242Y-73482355D01*
X115926336Y-73500000D01*
X115928036Y-73500499D01*
X115928038Y-73500500D01*
X115928039Y-73500500D01*
X116071962Y-73500500D01*
X116071962Y-73500499D01*
X116210053Y-73459953D01*
X116331128Y-73382143D01*
X116406287Y-73295403D01*
X116465064Y-73257629D01*
X116534934Y-73257629D01*
X116593712Y-73295403D01*
X116593713Y-73295403D01*
X116668873Y-73382143D01*
X116789948Y-73459953D01*
X116789951Y-73459954D01*
X116789950Y-73459954D01*
X116866243Y-73482355D01*
X116926337Y-73500000D01*
X116928037Y-73500499D01*
X116928039Y-73500500D01*
X116928040Y-73500500D01*
X117071963Y-73500500D01*
X117071963Y-73500499D01*
X117210054Y-73459953D01*
X117331129Y-73382143D01*
X117425378Y-73273373D01*
X117485166Y-73142457D01*
X117505648Y-73000000D01*
X117485166Y-72857543D01*
X117425378Y-72726627D01*
X117331129Y-72617857D01*
X117310056Y-72604314D01*
X117264302Y-72551511D01*
X117254358Y-72482352D01*
X117283383Y-72418796D01*
X117310053Y-72395687D01*
X117331128Y-72382143D01*
X117425377Y-72273373D01*
X117485165Y-72142457D01*
X117505647Y-72000000D01*
X117485165Y-71857543D01*
X117425377Y-71726627D01*
X117331128Y-71617857D01*
X117331125Y-71617855D01*
X117331125Y-71617854D01*
X117310058Y-71604316D01*
X117264302Y-71551513D01*
X117254358Y-71482354D01*
X117283382Y-71418798D01*
X117310058Y-71395684D01*
X117331125Y-71382145D01*
X117331125Y-71382144D01*
X117331128Y-71382143D01*
X117425377Y-71273373D01*
X117485165Y-71142457D01*
X117505647Y-71000000D01*
X117485165Y-70857543D01*
X117425377Y-70726627D01*
X117402305Y-70700000D01*
X124694353Y-70700000D01*
X124714834Y-70842456D01*
X124768846Y-70960723D01*
X124774623Y-70973373D01*
X124868872Y-71082143D01*
X124876324Y-71086932D01*
X124889943Y-71095685D01*
X124935698Y-71148489D01*
X124945641Y-71217648D01*
X124916615Y-71281203D01*
X124889943Y-71304315D01*
X124868874Y-71317855D01*
X124774623Y-71426626D01*
X124774622Y-71426628D01*
X124714834Y-71557543D01*
X124694353Y-71700000D01*
X124714834Y-71842456D01*
X124739143Y-71895684D01*
X124774623Y-71973373D01*
X124868872Y-72082143D01*
X124876324Y-72086932D01*
X124889943Y-72095685D01*
X124935698Y-72148489D01*
X124945641Y-72217648D01*
X124916615Y-72281203D01*
X124889945Y-72304314D01*
X124868874Y-72317855D01*
X124774624Y-72426626D01*
X124774623Y-72426628D01*
X124714835Y-72557543D01*
X124694354Y-72700000D01*
X124714835Y-72842456D01*
X124768847Y-72960723D01*
X124774624Y-72973373D01*
X124868873Y-73082143D01*
X124989948Y-73159953D01*
X124989951Y-73159954D01*
X124989950Y-73159954D01*
X125128037Y-73200499D01*
X125128039Y-73200500D01*
X125128040Y-73200500D01*
X125271963Y-73200500D01*
X125271963Y-73200499D01*
X125410054Y-73159953D01*
X125531129Y-73082143D01*
X125606287Y-72995404D01*
X125665064Y-72957630D01*
X125734934Y-72957630D01*
X125793712Y-72995404D01*
X125793713Y-72995404D01*
X125868872Y-73082143D01*
X125989947Y-73159953D01*
X125989950Y-73159954D01*
X125989949Y-73159954D01*
X126128036Y-73200499D01*
X126128038Y-73200500D01*
X126128039Y-73200500D01*
X126271962Y-73200500D01*
X126271962Y-73200499D01*
X126410053Y-73159953D01*
X126531128Y-73082143D01*
X126602305Y-73000000D01*
X135494352Y-73000000D01*
X135514833Y-73142456D01*
X135567432Y-73257629D01*
X135574622Y-73273373D01*
X135668871Y-73382143D01*
X135789946Y-73459953D01*
X135789949Y-73459954D01*
X135789948Y-73459954D01*
X135866241Y-73482355D01*
X135926335Y-73500000D01*
X135928035Y-73500499D01*
X135928037Y-73500500D01*
X135928038Y-73500500D01*
X136071961Y-73500500D01*
X136071961Y-73500499D01*
X136210052Y-73459953D01*
X136331127Y-73382143D01*
X136406286Y-73295403D01*
X136465063Y-73257629D01*
X136534933Y-73257629D01*
X136593711Y-73295403D01*
X136593712Y-73295403D01*
X136668872Y-73382143D01*
X136789947Y-73459953D01*
X136789950Y-73459954D01*
X136789949Y-73459954D01*
X136866242Y-73482355D01*
X136926336Y-73500000D01*
X136928036Y-73500499D01*
X136928038Y-73500500D01*
X136928039Y-73500500D01*
X137071962Y-73500500D01*
X137071962Y-73500499D01*
X137210053Y-73459953D01*
X137331128Y-73382143D01*
X137425377Y-73273373D01*
X137485165Y-73142457D01*
X137505647Y-73000000D01*
X137485165Y-72857543D01*
X137425377Y-72726627D01*
X137331128Y-72617857D01*
X137331125Y-72617855D01*
X137331125Y-72617854D01*
X137310058Y-72604316D01*
X137264302Y-72551513D01*
X137254358Y-72482354D01*
X137283382Y-72418798D01*
X137310058Y-72395684D01*
X137331125Y-72382145D01*
X137331125Y-72382144D01*
X137331128Y-72382143D01*
X137425377Y-72273373D01*
X137485165Y-72142457D01*
X137505647Y-72000000D01*
X137485165Y-71857543D01*
X137425377Y-71726627D01*
X137402304Y-71699999D01*
X145094353Y-71699999D01*
X145114834Y-71842455D01*
X145163258Y-71948486D01*
X145174623Y-71973372D01*
X145268872Y-72082142D01*
X145268874Y-72082143D01*
X145268874Y-72082144D01*
X145289942Y-72095683D01*
X145335698Y-72148486D01*
X145345642Y-72217645D01*
X145316618Y-72281201D01*
X145289945Y-72304313D01*
X145268876Y-72317853D01*
X145268874Y-72317855D01*
X145174623Y-72426626D01*
X145174622Y-72426628D01*
X145114834Y-72557543D01*
X145094353Y-72700000D01*
X145114834Y-72842456D01*
X145168846Y-72960723D01*
X145174623Y-72973373D01*
X145268872Y-73082143D01*
X145389947Y-73159953D01*
X145389950Y-73159954D01*
X145389949Y-73159954D01*
X145528036Y-73200499D01*
X145528038Y-73200500D01*
X145528039Y-73200500D01*
X145671962Y-73200500D01*
X145671962Y-73200499D01*
X145810053Y-73159953D01*
X145931128Y-73082143D01*
X146006287Y-72995403D01*
X146065064Y-72957629D01*
X146134934Y-72957629D01*
X146193711Y-72995402D01*
X146268872Y-73082143D01*
X146389947Y-73159953D01*
X146389950Y-73159954D01*
X146389949Y-73159954D01*
X146528036Y-73200499D01*
X146528038Y-73200500D01*
X146528039Y-73200500D01*
X146671962Y-73200500D01*
X146671962Y-73200499D01*
X146810053Y-73159953D01*
X146931128Y-73082143D01*
X147025377Y-72973373D01*
X147085165Y-72842457D01*
X147105647Y-72700000D01*
X147085165Y-72557543D01*
X147025377Y-72426627D01*
X146931128Y-72317857D01*
X146910055Y-72304314D01*
X146864301Y-72251511D01*
X146854357Y-72182352D01*
X146883382Y-72118796D01*
X146910056Y-72095684D01*
X146931128Y-72082142D01*
X147002304Y-72000000D01*
X155494353Y-72000000D01*
X155514834Y-72142456D01*
X155566119Y-72254753D01*
X155574623Y-72273373D01*
X155668872Y-72382143D01*
X155676324Y-72386932D01*
X155689943Y-72395685D01*
X155735698Y-72448489D01*
X155745641Y-72517648D01*
X155716615Y-72581203D01*
X155689943Y-72604315D01*
X155668874Y-72617855D01*
X155574623Y-72726626D01*
X155574622Y-72726628D01*
X155514834Y-72857543D01*
X155494353Y-73000000D01*
X155514834Y-73142456D01*
X155567433Y-73257629D01*
X155574623Y-73273373D01*
X155668872Y-73382143D01*
X155789947Y-73459953D01*
X155789950Y-73459954D01*
X155789949Y-73459954D01*
X155866242Y-73482355D01*
X155926336Y-73500000D01*
X155928036Y-73500499D01*
X155928038Y-73500500D01*
X155928039Y-73500500D01*
X156071962Y-73500500D01*
X156071962Y-73500499D01*
X156210053Y-73459953D01*
X156331128Y-73382143D01*
X156406287Y-73295403D01*
X156465064Y-73257629D01*
X156534934Y-73257629D01*
X156593711Y-73295402D01*
X156668872Y-73382143D01*
X156789947Y-73459953D01*
X156789950Y-73459954D01*
X156789949Y-73459954D01*
X156866242Y-73482355D01*
X156926336Y-73500000D01*
X156928036Y-73500499D01*
X156928038Y-73500500D01*
X156928039Y-73500500D01*
X157071962Y-73500500D01*
X157071962Y-73500499D01*
X157210053Y-73459953D01*
X157331128Y-73382143D01*
X157425377Y-73273373D01*
X157485165Y-73142457D01*
X157505647Y-73000000D01*
X157485165Y-72857543D01*
X157425377Y-72726627D01*
X157331128Y-72617857D01*
X157331125Y-72617855D01*
X157331125Y-72617854D01*
X157310058Y-72604316D01*
X157264302Y-72551513D01*
X157254358Y-72482354D01*
X157283382Y-72418798D01*
X157310058Y-72395684D01*
X157331125Y-72382145D01*
X157331125Y-72382144D01*
X157331128Y-72382143D01*
X157425377Y-72273373D01*
X157485165Y-72142457D01*
X157505647Y-72000000D01*
X157485165Y-71857543D01*
X157425377Y-71726627D01*
X157331128Y-71617857D01*
X157331125Y-71617855D01*
X157331125Y-71617854D01*
X157310058Y-71604316D01*
X157264302Y-71551513D01*
X157254358Y-71482354D01*
X157283382Y-71418798D01*
X157310058Y-71395684D01*
X157331125Y-71382145D01*
X157331125Y-71382144D01*
X157331128Y-71382143D01*
X157425377Y-71273373D01*
X157485165Y-71142457D01*
X157505647Y-71000000D01*
X157485165Y-70857543D01*
X157425377Y-70726627D01*
X157402305Y-70700000D01*
X165094353Y-70700000D01*
X165114834Y-70842456D01*
X165168846Y-70960723D01*
X165174623Y-70973373D01*
X165268872Y-71082143D01*
X165276324Y-71086932D01*
X165289943Y-71095685D01*
X165335698Y-71148489D01*
X165345641Y-71217648D01*
X165316615Y-71281203D01*
X165289943Y-71304315D01*
X165268874Y-71317855D01*
X165174623Y-71426626D01*
X165174622Y-71426628D01*
X165114834Y-71557543D01*
X165094353Y-71700000D01*
X165114834Y-71842456D01*
X165139143Y-71895684D01*
X165174623Y-71973373D01*
X165268872Y-72082143D01*
X165276324Y-72086932D01*
X165289943Y-72095685D01*
X165335698Y-72148489D01*
X165345641Y-72217648D01*
X165316615Y-72281203D01*
X165289945Y-72304314D01*
X165268874Y-72317855D01*
X165174624Y-72426626D01*
X165174623Y-72426628D01*
X165114835Y-72557543D01*
X165094354Y-72700000D01*
X165114835Y-72842456D01*
X165168847Y-72960723D01*
X165174624Y-72973373D01*
X165268873Y-73082143D01*
X165389948Y-73159953D01*
X165389951Y-73159954D01*
X165389950Y-73159954D01*
X165528037Y-73200499D01*
X165528039Y-73200500D01*
X165528040Y-73200500D01*
X165671963Y-73200500D01*
X165671963Y-73200499D01*
X165810054Y-73159953D01*
X165931129Y-73082143D01*
X166006287Y-72995404D01*
X166065064Y-72957630D01*
X166134934Y-72957630D01*
X166193712Y-72995404D01*
X166193713Y-72995404D01*
X166268872Y-73082143D01*
X166389947Y-73159953D01*
X166389950Y-73159954D01*
X166389949Y-73159954D01*
X166528036Y-73200499D01*
X166528038Y-73200500D01*
X166528039Y-73200500D01*
X166671962Y-73200500D01*
X166671962Y-73200499D01*
X166810053Y-73159953D01*
X166931128Y-73082143D01*
X167025377Y-72973373D01*
X167085165Y-72842457D01*
X167105647Y-72700000D01*
X167085165Y-72557543D01*
X167025377Y-72426627D01*
X166931128Y-72317857D01*
X166931125Y-72317855D01*
X166931125Y-72317854D01*
X166910058Y-72304316D01*
X166864302Y-72251513D01*
X166854358Y-72182354D01*
X166883382Y-72118798D01*
X166910058Y-72095684D01*
X166931125Y-72082145D01*
X166931125Y-72082144D01*
X166931128Y-72082143D01*
X167025377Y-71973373D01*
X167085165Y-71842457D01*
X167105647Y-71700000D01*
X167085165Y-71557543D01*
X167025377Y-71426627D01*
X166931128Y-71317857D01*
X166931125Y-71317855D01*
X166931125Y-71317854D01*
X166910058Y-71304316D01*
X166864302Y-71251513D01*
X166854358Y-71182354D01*
X166883382Y-71118798D01*
X166910058Y-71095684D01*
X166931125Y-71082145D01*
X166931125Y-71082144D01*
X166931128Y-71082143D01*
X167025377Y-70973373D01*
X167085165Y-70842457D01*
X167105647Y-70700000D01*
X184694353Y-70700000D01*
X184714834Y-70842456D01*
X184768846Y-70960723D01*
X184774623Y-70973373D01*
X184868872Y-71082143D01*
X184876324Y-71086932D01*
X184889943Y-71095685D01*
X184935698Y-71148489D01*
X184945641Y-71217648D01*
X184916615Y-71281203D01*
X184889943Y-71304315D01*
X184868874Y-71317855D01*
X184774623Y-71426626D01*
X184774622Y-71426628D01*
X184714834Y-71557543D01*
X184694353Y-71700000D01*
X184714834Y-71842456D01*
X184739143Y-71895684D01*
X184774623Y-71973373D01*
X184868872Y-72082143D01*
X184876324Y-72086932D01*
X184889943Y-72095685D01*
X184935698Y-72148489D01*
X184945641Y-72217648D01*
X184916615Y-72281203D01*
X184889943Y-72304315D01*
X184868874Y-72317855D01*
X184774623Y-72426626D01*
X184774622Y-72426628D01*
X184714834Y-72557543D01*
X184694353Y-72700000D01*
X184714834Y-72842456D01*
X184768846Y-72960723D01*
X184774623Y-72973373D01*
X184868872Y-73082143D01*
X184989947Y-73159953D01*
X184989950Y-73159954D01*
X184989949Y-73159954D01*
X185128036Y-73200499D01*
X185128038Y-73200500D01*
X185128039Y-73200500D01*
X185271962Y-73200500D01*
X185271962Y-73200499D01*
X185410053Y-73159953D01*
X185531128Y-73082143D01*
X185606287Y-72995403D01*
X185665064Y-72957629D01*
X185734934Y-72957629D01*
X185793711Y-72995402D01*
X185868872Y-73082143D01*
X185989947Y-73159953D01*
X185989950Y-73159954D01*
X185989949Y-73159954D01*
X186128036Y-73200499D01*
X186128038Y-73200500D01*
X186128039Y-73200500D01*
X186271962Y-73200500D01*
X186271962Y-73200499D01*
X186410053Y-73159953D01*
X186531128Y-73082143D01*
X186602305Y-73000000D01*
X195494353Y-73000000D01*
X195514834Y-73142456D01*
X195567433Y-73257629D01*
X195574623Y-73273373D01*
X195668872Y-73382143D01*
X195689941Y-73395683D01*
X195735696Y-73448487D01*
X195745640Y-73517646D01*
X195716615Y-73581201D01*
X195689944Y-73604313D01*
X195668873Y-73617854D01*
X195574623Y-73726625D01*
X195574622Y-73726627D01*
X195514834Y-73857542D01*
X195494353Y-73999999D01*
X195514834Y-74142455D01*
X195514835Y-74142457D01*
X195574623Y-74273372D01*
X195668872Y-74382142D01*
X195668874Y-74382143D01*
X195668874Y-74382144D01*
X195689942Y-74395683D01*
X195735698Y-74448486D01*
X195745642Y-74517645D01*
X195716618Y-74581201D01*
X195689945Y-74604313D01*
X195668876Y-74617853D01*
X195668874Y-74617855D01*
X195574623Y-74726626D01*
X195574622Y-74726628D01*
X195514834Y-74857543D01*
X195494353Y-75000000D01*
X195514834Y-75142456D01*
X195567433Y-75257629D01*
X195574623Y-75273373D01*
X195668872Y-75382143D01*
X195789947Y-75459953D01*
X195789950Y-75459954D01*
X195789949Y-75459954D01*
X195928036Y-75500499D01*
X195928038Y-75500500D01*
X195928039Y-75500500D01*
X196071962Y-75500500D01*
X196071962Y-75500499D01*
X196210053Y-75459953D01*
X196331128Y-75382143D01*
X196406287Y-75295403D01*
X196465064Y-75257629D01*
X196534934Y-75257629D01*
X196593712Y-75295403D01*
X196593713Y-75295403D01*
X196668873Y-75382143D01*
X196789948Y-75459953D01*
X196789951Y-75459954D01*
X196789950Y-75459954D01*
X196928037Y-75500499D01*
X196928039Y-75500500D01*
X196928040Y-75500500D01*
X197071963Y-75500500D01*
X197071963Y-75500499D01*
X197210054Y-75459953D01*
X197331129Y-75382143D01*
X197425378Y-75273373D01*
X197485166Y-75142457D01*
X197505648Y-75000000D01*
X197485166Y-74857543D01*
X197425378Y-74726627D01*
X197331129Y-74617857D01*
X197310056Y-74604314D01*
X197264302Y-74551511D01*
X197254358Y-74482352D01*
X197283383Y-74418796D01*
X197310053Y-74395687D01*
X197331128Y-74382143D01*
X197425377Y-74273373D01*
X197485165Y-74142457D01*
X197505647Y-74000000D01*
X197485165Y-73857543D01*
X197425377Y-73726627D01*
X197331128Y-73617857D01*
X197331125Y-73617855D01*
X197331125Y-73617854D01*
X197310058Y-73604316D01*
X197264302Y-73551513D01*
X197254358Y-73482354D01*
X197283382Y-73418798D01*
X197310058Y-73395684D01*
X197331125Y-73382145D01*
X197331125Y-73382144D01*
X197331128Y-73382143D01*
X197425377Y-73273373D01*
X197485165Y-73142457D01*
X197505647Y-73000000D01*
X197485165Y-72857543D01*
X197425377Y-72726627D01*
X197331128Y-72617857D01*
X197210053Y-72540047D01*
X197210051Y-72540046D01*
X197210049Y-72540045D01*
X197210050Y-72540045D01*
X197071963Y-72499500D01*
X197071961Y-72499500D01*
X196928039Y-72499500D01*
X196928036Y-72499500D01*
X196789949Y-72540045D01*
X196668873Y-72617856D01*
X196593713Y-72704596D01*
X196534935Y-72742370D01*
X196465065Y-72742370D01*
X196406287Y-72704596D01*
X196368271Y-72660723D01*
X196331128Y-72617857D01*
X196210053Y-72540047D01*
X196210051Y-72540046D01*
X196210049Y-72540045D01*
X196210050Y-72540045D01*
X196071963Y-72499500D01*
X196071961Y-72499500D01*
X195928039Y-72499500D01*
X195928036Y-72499500D01*
X195789949Y-72540045D01*
X195668873Y-72617856D01*
X195574623Y-72726626D01*
X195574622Y-72726628D01*
X195514834Y-72857543D01*
X195494353Y-73000000D01*
X186602305Y-73000000D01*
X186625377Y-72973373D01*
X186685165Y-72842457D01*
X186705647Y-72700000D01*
X186685165Y-72557543D01*
X186625377Y-72426627D01*
X186531128Y-72317857D01*
X186531125Y-72317855D01*
X186531125Y-72317854D01*
X186510058Y-72304316D01*
X186464302Y-72251513D01*
X186454358Y-72182354D01*
X186483382Y-72118798D01*
X186510058Y-72095684D01*
X186531125Y-72082145D01*
X186531125Y-72082144D01*
X186531128Y-72082143D01*
X186625377Y-71973373D01*
X186685165Y-71842457D01*
X186705647Y-71700000D01*
X186685165Y-71557543D01*
X186625377Y-71426627D01*
X186531128Y-71317857D01*
X186531125Y-71317855D01*
X186531125Y-71317854D01*
X186510058Y-71304316D01*
X186464302Y-71251513D01*
X186454358Y-71182354D01*
X186483382Y-71118798D01*
X186510058Y-71095684D01*
X186531125Y-71082145D01*
X186531125Y-71082144D01*
X186531128Y-71082143D01*
X186625377Y-70973373D01*
X186685165Y-70842457D01*
X186705647Y-70700000D01*
X186685165Y-70557543D01*
X186658886Y-70500000D01*
X204294353Y-70500000D01*
X204314834Y-70642456D01*
X204360464Y-70742369D01*
X204374623Y-70773373D01*
X204468872Y-70882143D01*
X204489941Y-70895683D01*
X204535696Y-70948487D01*
X204545640Y-71017646D01*
X204516615Y-71081201D01*
X204489944Y-71104313D01*
X204468873Y-71117854D01*
X204374623Y-71226625D01*
X204374622Y-71226627D01*
X204314834Y-71357542D01*
X204294353Y-71499999D01*
X204314834Y-71642455D01*
X204374622Y-71773370D01*
X204374623Y-71773372D01*
X204468872Y-71882142D01*
X204468874Y-71882143D01*
X204468874Y-71882144D01*
X204489942Y-71895683D01*
X204535698Y-71948486D01*
X204545642Y-72017645D01*
X204516618Y-72081201D01*
X204489945Y-72104313D01*
X204468876Y-72117853D01*
X204468874Y-72117855D01*
X204468872Y-72117856D01*
X204468872Y-72117857D01*
X204468057Y-72118798D01*
X204374623Y-72226626D01*
X204374622Y-72226628D01*
X204314834Y-72357543D01*
X204294353Y-72500000D01*
X204314834Y-72642456D01*
X204360464Y-72742370D01*
X204374623Y-72773373D01*
X204468872Y-72882143D01*
X204589947Y-72959953D01*
X204589950Y-72959954D01*
X204589949Y-72959954D01*
X204697107Y-72991417D01*
X204726336Y-73000000D01*
X204728036Y-73000499D01*
X204728038Y-73000500D01*
X204728039Y-73000500D01*
X204871962Y-73000500D01*
X204871962Y-73000499D01*
X205010053Y-72959953D01*
X205131128Y-72882143D01*
X205206287Y-72795403D01*
X205265064Y-72757629D01*
X205334934Y-72757629D01*
X205393711Y-72795402D01*
X205468872Y-72882143D01*
X205589947Y-72959953D01*
X205589950Y-72959954D01*
X205589949Y-72959954D01*
X205697107Y-72991417D01*
X205726336Y-73000000D01*
X205728036Y-73000499D01*
X205728038Y-73000500D01*
X205728039Y-73000500D01*
X205871962Y-73000500D01*
X205871962Y-73000499D01*
X205873661Y-73000000D01*
X215494353Y-73000000D01*
X215514834Y-73142456D01*
X215567433Y-73257629D01*
X215574623Y-73273373D01*
X215668872Y-73382143D01*
X215676324Y-73386932D01*
X215689943Y-73395685D01*
X215735698Y-73448489D01*
X215745641Y-73517648D01*
X215716615Y-73581203D01*
X215689943Y-73604315D01*
X215668874Y-73617855D01*
X215574623Y-73726626D01*
X215574622Y-73726628D01*
X215514834Y-73857543D01*
X215494353Y-74000000D01*
X215514834Y-74142456D01*
X215574622Y-74273370D01*
X215574623Y-74273373D01*
X215668872Y-74382143D01*
X215676324Y-74386932D01*
X215689943Y-74395685D01*
X215735698Y-74448489D01*
X215745641Y-74517648D01*
X215716615Y-74581203D01*
X215689943Y-74604315D01*
X215668874Y-74617855D01*
X215574623Y-74726626D01*
X215574622Y-74726628D01*
X215514834Y-74857543D01*
X215494353Y-75000000D01*
X215514834Y-75142456D01*
X215567433Y-75257629D01*
X215574623Y-75273373D01*
X215668872Y-75382143D01*
X215789947Y-75459953D01*
X215789950Y-75459954D01*
X215789949Y-75459954D01*
X215928036Y-75500499D01*
X215928038Y-75500500D01*
X215928039Y-75500500D01*
X216071962Y-75500500D01*
X216071962Y-75500499D01*
X216210053Y-75459953D01*
X216331128Y-75382143D01*
X216406287Y-75295403D01*
X216465064Y-75257629D01*
X216534934Y-75257629D01*
X216593711Y-75295402D01*
X216668872Y-75382143D01*
X216789947Y-75459953D01*
X216789950Y-75459954D01*
X216789949Y-75459954D01*
X216928036Y-75500499D01*
X216928038Y-75500500D01*
X216928039Y-75500500D01*
X217071962Y-75500500D01*
X217071962Y-75500499D01*
X217210053Y-75459953D01*
X217331128Y-75382143D01*
X217425377Y-75273373D01*
X217485165Y-75142457D01*
X217505647Y-75000000D01*
X217485165Y-74857543D01*
X217425377Y-74726627D01*
X217331128Y-74617857D01*
X217331125Y-74617855D01*
X217331125Y-74617854D01*
X217310058Y-74604316D01*
X217264302Y-74551513D01*
X217254358Y-74482354D01*
X217283382Y-74418798D01*
X217310058Y-74395684D01*
X217331125Y-74382145D01*
X217331125Y-74382144D01*
X217331128Y-74382143D01*
X217425377Y-74273373D01*
X217485165Y-74142457D01*
X217505647Y-74000000D01*
X217485165Y-73857543D01*
X217425377Y-73726627D01*
X217331128Y-73617857D01*
X217331125Y-73617855D01*
X217331125Y-73617854D01*
X217310058Y-73604316D01*
X217264302Y-73551513D01*
X217254358Y-73482354D01*
X217283382Y-73418798D01*
X217310058Y-73395684D01*
X217331125Y-73382145D01*
X217331125Y-73382144D01*
X217331128Y-73382143D01*
X217425377Y-73273373D01*
X217485165Y-73142457D01*
X217505647Y-73000000D01*
X217485165Y-72857543D01*
X217425377Y-72726627D01*
X217331128Y-72617857D01*
X217210053Y-72540047D01*
X217210051Y-72540046D01*
X217210049Y-72540045D01*
X217210050Y-72540045D01*
X217071963Y-72499500D01*
X217071961Y-72499500D01*
X216928039Y-72499500D01*
X216928036Y-72499500D01*
X216789949Y-72540045D01*
X216668873Y-72617856D01*
X216593713Y-72704596D01*
X216534935Y-72742370D01*
X216465065Y-72742370D01*
X216406287Y-72704596D01*
X216368271Y-72660723D01*
X216331128Y-72617857D01*
X216210053Y-72540047D01*
X216210051Y-72540046D01*
X216210049Y-72540045D01*
X216210050Y-72540045D01*
X216071963Y-72499500D01*
X216071961Y-72499500D01*
X215928039Y-72499500D01*
X215928036Y-72499500D01*
X215789949Y-72540045D01*
X215668873Y-72617856D01*
X215574623Y-72726626D01*
X215574622Y-72726628D01*
X215514834Y-72857543D01*
X215494353Y-73000000D01*
X205873661Y-73000000D01*
X206010053Y-72959953D01*
X206131128Y-72882143D01*
X206225377Y-72773373D01*
X206285165Y-72642457D01*
X206305647Y-72500000D01*
X206285165Y-72357543D01*
X206225377Y-72226627D01*
X206131128Y-72117857D01*
X206131125Y-72117855D01*
X206131125Y-72117854D01*
X206110058Y-72104316D01*
X206064302Y-72051513D01*
X206054358Y-71982354D01*
X206083382Y-71918798D01*
X206110058Y-71895684D01*
X206131125Y-71882145D01*
X206131125Y-71882144D01*
X206131128Y-71882143D01*
X206225377Y-71773373D01*
X206285165Y-71642457D01*
X206305647Y-71500000D01*
X206285165Y-71357543D01*
X206225377Y-71226627D01*
X206131128Y-71117857D01*
X206131125Y-71117855D01*
X206131125Y-71117854D01*
X206110058Y-71104316D01*
X206064302Y-71051513D01*
X206054358Y-70982354D01*
X206083382Y-70918798D01*
X206110058Y-70895684D01*
X206131125Y-70882145D01*
X206131125Y-70882144D01*
X206131128Y-70882143D01*
X206225377Y-70773373D01*
X206285165Y-70642457D01*
X206305647Y-70500000D01*
X224494353Y-70500000D01*
X224514834Y-70642456D01*
X224560464Y-70742369D01*
X224574623Y-70773373D01*
X224668872Y-70882143D01*
X224689941Y-70895683D01*
X224735696Y-70948487D01*
X224745640Y-71017646D01*
X224716615Y-71081201D01*
X224689944Y-71104313D01*
X224668873Y-71117854D01*
X224574623Y-71226625D01*
X224574622Y-71226627D01*
X224514834Y-71357542D01*
X224494353Y-71499999D01*
X224514834Y-71642455D01*
X224574622Y-71773370D01*
X224574623Y-71773372D01*
X224668872Y-71882142D01*
X224668874Y-71882143D01*
X224668874Y-71882144D01*
X224689942Y-71895683D01*
X224735698Y-71948486D01*
X224745642Y-72017645D01*
X224716618Y-72081201D01*
X224689945Y-72104313D01*
X224668876Y-72117853D01*
X224668874Y-72117855D01*
X224668872Y-72117856D01*
X224668872Y-72117857D01*
X224668057Y-72118798D01*
X224574623Y-72226626D01*
X224574622Y-72226628D01*
X224514834Y-72357543D01*
X224494353Y-72500000D01*
X224514834Y-72642456D01*
X224560464Y-72742370D01*
X224574623Y-72773373D01*
X224668872Y-72882143D01*
X224789947Y-72959953D01*
X224789950Y-72959954D01*
X224789949Y-72959954D01*
X224897107Y-72991417D01*
X224926336Y-73000000D01*
X224928036Y-73000499D01*
X224928038Y-73000500D01*
X224928039Y-73000500D01*
X225071962Y-73000500D01*
X225071962Y-73000499D01*
X225210053Y-72959953D01*
X225331128Y-72882143D01*
X225406287Y-72795403D01*
X225465064Y-72757629D01*
X225534934Y-72757629D01*
X225593711Y-72795402D01*
X225668872Y-72882143D01*
X225789947Y-72959953D01*
X225789950Y-72959954D01*
X225789949Y-72959954D01*
X225897107Y-72991417D01*
X225926336Y-73000000D01*
X225928036Y-73000499D01*
X225928038Y-73000500D01*
X225928039Y-73000500D01*
X226071962Y-73000500D01*
X226071962Y-73000499D01*
X226210053Y-72959953D01*
X226331128Y-72882143D01*
X226425377Y-72773373D01*
X226485165Y-72642457D01*
X226505647Y-72500000D01*
X226485165Y-72357543D01*
X226425377Y-72226627D01*
X226331128Y-72117857D01*
X226331125Y-72117855D01*
X226331125Y-72117854D01*
X226310058Y-72104316D01*
X226264302Y-72051513D01*
X226254358Y-71982354D01*
X226283382Y-71918798D01*
X226310058Y-71895684D01*
X226331125Y-71882145D01*
X226331125Y-71882144D01*
X226331128Y-71882143D01*
X226425377Y-71773373D01*
X226485165Y-71642457D01*
X226505647Y-71500000D01*
X226485165Y-71357543D01*
X226425377Y-71226627D01*
X226331128Y-71117857D01*
X226331125Y-71117855D01*
X226331125Y-71117854D01*
X226310058Y-71104316D01*
X226264302Y-71051513D01*
X226254358Y-70982354D01*
X226283382Y-70918798D01*
X226310058Y-70895684D01*
X226331125Y-70882145D01*
X226331125Y-70882144D01*
X226331128Y-70882143D01*
X226425377Y-70773373D01*
X226485165Y-70642457D01*
X226505647Y-70500000D01*
X226485165Y-70357543D01*
X226443015Y-70265248D01*
X231474500Y-70265248D01*
X231474500Y-72254753D01*
X231486131Y-72313230D01*
X231486132Y-72313231D01*
X231530447Y-72379553D01*
X231596769Y-72423868D01*
X231596770Y-72423869D01*
X231655247Y-72435500D01*
X231655250Y-72435501D01*
X231655252Y-72435501D01*
X233644750Y-72435501D01*
X233644751Y-72435500D01*
X233659568Y-72432553D01*
X233703229Y-72423869D01*
X233703229Y-72423868D01*
X233703231Y-72423868D01*
X233769552Y-72379553D01*
X233813867Y-72313232D01*
X233813867Y-72313230D01*
X233813868Y-72313230D01*
X233825499Y-72254753D01*
X233825500Y-72254751D01*
X233825500Y-70265250D01*
X233825499Y-70265248D01*
X233813868Y-70206771D01*
X233813867Y-70206770D01*
X233769552Y-70140448D01*
X233703230Y-70096133D01*
X233703229Y-70096132D01*
X233644752Y-70084501D01*
X233644748Y-70084501D01*
X231655252Y-70084501D01*
X231655247Y-70084501D01*
X231596770Y-70096132D01*
X231596769Y-70096133D01*
X231530447Y-70140448D01*
X231486132Y-70206770D01*
X231486131Y-70206771D01*
X231474500Y-70265248D01*
X226443015Y-70265248D01*
X226425377Y-70226627D01*
X226331128Y-70117857D01*
X226210053Y-70040047D01*
X226210051Y-70040046D01*
X226210049Y-70040045D01*
X226210050Y-70040045D01*
X226071963Y-69999500D01*
X226071961Y-69999500D01*
X225928039Y-69999500D01*
X225928036Y-69999500D01*
X225789949Y-70040045D01*
X225668873Y-70117856D01*
X225668872Y-70117856D01*
X225668872Y-70117857D01*
X225598129Y-70199500D01*
X225593713Y-70204596D01*
X225534935Y-70242370D01*
X225465065Y-70242370D01*
X225406287Y-70204596D01*
X225331128Y-70117857D01*
X225210053Y-70040047D01*
X225210051Y-70040046D01*
X225210049Y-70040045D01*
X225210050Y-70040045D01*
X225071963Y-69999500D01*
X225071961Y-69999500D01*
X224928039Y-69999500D01*
X224928036Y-69999500D01*
X224789949Y-70040045D01*
X224668873Y-70117856D01*
X224574623Y-70226626D01*
X224574622Y-70226628D01*
X224514834Y-70357543D01*
X224494353Y-70500000D01*
X206305647Y-70500000D01*
X206285165Y-70357543D01*
X206225377Y-70226627D01*
X206131128Y-70117857D01*
X206010053Y-70040047D01*
X206010051Y-70040046D01*
X206010049Y-70040045D01*
X206010050Y-70040045D01*
X205871963Y-69999500D01*
X205871961Y-69999500D01*
X205728039Y-69999500D01*
X205728036Y-69999500D01*
X205589949Y-70040045D01*
X205468873Y-70117856D01*
X205468872Y-70117856D01*
X205468872Y-70117857D01*
X205398129Y-70199500D01*
X205393713Y-70204596D01*
X205334935Y-70242370D01*
X205265065Y-70242370D01*
X205206287Y-70204596D01*
X205131128Y-70117857D01*
X205010053Y-70040047D01*
X205010051Y-70040046D01*
X205010049Y-70040045D01*
X205010050Y-70040045D01*
X204871963Y-69999500D01*
X204871961Y-69999500D01*
X204728039Y-69999500D01*
X204728036Y-69999500D01*
X204589949Y-70040045D01*
X204468873Y-70117856D01*
X204374623Y-70226626D01*
X204374622Y-70226628D01*
X204314834Y-70357543D01*
X204294353Y-70500000D01*
X186658886Y-70500000D01*
X186625377Y-70426627D01*
X186531128Y-70317857D01*
X186410053Y-70240047D01*
X186410051Y-70240046D01*
X186410049Y-70240045D01*
X186410050Y-70240045D01*
X186271963Y-70199500D01*
X186271961Y-70199500D01*
X186128039Y-70199500D01*
X186128036Y-70199500D01*
X185989949Y-70240045D01*
X185868873Y-70317856D01*
X185793713Y-70404596D01*
X185734935Y-70442370D01*
X185665065Y-70442370D01*
X185606287Y-70404596D01*
X185606286Y-70404595D01*
X185531128Y-70317857D01*
X185410053Y-70240047D01*
X185410051Y-70240046D01*
X185410049Y-70240045D01*
X185410050Y-70240045D01*
X185271963Y-70199500D01*
X185271961Y-70199500D01*
X185128039Y-70199500D01*
X185128036Y-70199500D01*
X184989949Y-70240045D01*
X184868873Y-70317856D01*
X184774623Y-70426626D01*
X184774622Y-70426628D01*
X184714834Y-70557543D01*
X184694353Y-70700000D01*
X167105647Y-70700000D01*
X167085165Y-70557543D01*
X167025377Y-70426627D01*
X166931128Y-70317857D01*
X166810053Y-70240047D01*
X166810051Y-70240046D01*
X166810049Y-70240045D01*
X166810050Y-70240045D01*
X166671963Y-70199500D01*
X166671961Y-70199500D01*
X166528039Y-70199500D01*
X166528036Y-70199500D01*
X166389949Y-70240045D01*
X166268873Y-70317856D01*
X166193713Y-70404596D01*
X166134935Y-70442370D01*
X166065065Y-70442370D01*
X166006287Y-70404596D01*
X166006286Y-70404595D01*
X165931128Y-70317857D01*
X165810053Y-70240047D01*
X165810051Y-70240046D01*
X165810049Y-70240045D01*
X165810050Y-70240045D01*
X165671963Y-70199500D01*
X165671961Y-70199500D01*
X165528039Y-70199500D01*
X165528036Y-70199500D01*
X165389949Y-70240045D01*
X165268873Y-70317856D01*
X165174623Y-70426626D01*
X165174622Y-70426628D01*
X165114834Y-70557543D01*
X165094353Y-70700000D01*
X157402305Y-70700000D01*
X157331128Y-70617857D01*
X157210053Y-70540047D01*
X157210051Y-70540046D01*
X157210049Y-70540045D01*
X157210050Y-70540045D01*
X157071963Y-70499500D01*
X157071961Y-70499500D01*
X156928039Y-70499500D01*
X156928036Y-70499500D01*
X156789949Y-70540045D01*
X156668873Y-70617856D01*
X156593713Y-70704595D01*
X156534934Y-70742369D01*
X156465065Y-70742369D01*
X156406287Y-70704595D01*
X156331129Y-70617857D01*
X156210054Y-70540047D01*
X156210052Y-70540046D01*
X156210050Y-70540045D01*
X156210051Y-70540045D01*
X156071964Y-70499500D01*
X156071962Y-70499500D01*
X155928040Y-70499500D01*
X155928037Y-70499500D01*
X155789950Y-70540045D01*
X155668874Y-70617856D01*
X155574624Y-70726626D01*
X155574623Y-70726628D01*
X155514835Y-70857543D01*
X155494354Y-71000000D01*
X155514835Y-71142456D01*
X155553276Y-71226628D01*
X155574624Y-71273373D01*
X155668873Y-71382143D01*
X155689942Y-71395683D01*
X155735697Y-71448485D01*
X155745642Y-71517644D01*
X155716618Y-71581200D01*
X155689945Y-71604313D01*
X155668876Y-71617853D01*
X155668874Y-71617855D01*
X155574623Y-71726626D01*
X155574622Y-71726628D01*
X155514834Y-71857543D01*
X155494353Y-72000000D01*
X147002304Y-72000000D01*
X147025377Y-71973372D01*
X147085165Y-71842456D01*
X147105647Y-71699999D01*
X147085165Y-71557542D01*
X147025377Y-71426626D01*
X146931128Y-71317856D01*
X146931125Y-71317854D01*
X146910057Y-71304314D01*
X146864302Y-71251510D01*
X146854359Y-71182351D01*
X146883385Y-71118796D01*
X146910059Y-71095683D01*
X146931128Y-71082143D01*
X147025377Y-70973373D01*
X147085165Y-70842457D01*
X147105647Y-70700000D01*
X147085165Y-70557543D01*
X147025377Y-70426627D01*
X146931128Y-70317857D01*
X146810053Y-70240047D01*
X146810051Y-70240046D01*
X146810049Y-70240045D01*
X146810050Y-70240045D01*
X146671963Y-70199500D01*
X146671961Y-70199500D01*
X146528039Y-70199500D01*
X146528036Y-70199500D01*
X146389949Y-70240045D01*
X146268873Y-70317856D01*
X146193713Y-70404595D01*
X146134934Y-70442369D01*
X146065065Y-70442369D01*
X146006287Y-70404595D01*
X145931129Y-70317857D01*
X145810054Y-70240047D01*
X145810052Y-70240046D01*
X145810050Y-70240045D01*
X145810051Y-70240045D01*
X145671964Y-70199500D01*
X145671962Y-70199500D01*
X145528040Y-70199500D01*
X145528037Y-70199500D01*
X145389950Y-70240045D01*
X145268874Y-70317856D01*
X145174624Y-70426626D01*
X145174623Y-70426628D01*
X145114835Y-70557543D01*
X145094354Y-70700000D01*
X145114835Y-70842456D01*
X145168847Y-70960723D01*
X145174624Y-70973373D01*
X145268873Y-71082143D01*
X145289940Y-71095682D01*
X145289942Y-71095683D01*
X145335697Y-71148487D01*
X145345641Y-71217646D01*
X145316616Y-71281201D01*
X145289943Y-71304314D01*
X145268874Y-71317854D01*
X145174623Y-71426625D01*
X145174622Y-71426627D01*
X145114834Y-71557542D01*
X145094353Y-71699999D01*
X137402304Y-71699999D01*
X137331128Y-71617857D01*
X137331125Y-71617855D01*
X137331125Y-71617854D01*
X137310058Y-71604316D01*
X137264302Y-71551513D01*
X137254358Y-71482354D01*
X137283382Y-71418798D01*
X137310058Y-71395684D01*
X137331125Y-71382145D01*
X137331125Y-71382144D01*
X137331128Y-71382143D01*
X137425377Y-71273373D01*
X137485165Y-71142457D01*
X137505647Y-71000000D01*
X137485165Y-70857543D01*
X137425377Y-70726627D01*
X137331128Y-70617857D01*
X137210053Y-70540047D01*
X137210051Y-70540046D01*
X137210049Y-70540045D01*
X137210050Y-70540045D01*
X137071963Y-70499500D01*
X137071961Y-70499500D01*
X136928039Y-70499500D01*
X136928036Y-70499500D01*
X136789949Y-70540045D01*
X136668873Y-70617856D01*
X136593713Y-70704596D01*
X136534935Y-70742370D01*
X136465065Y-70742370D01*
X136406287Y-70704596D01*
X136368271Y-70660723D01*
X136331128Y-70617857D01*
X136210053Y-70540047D01*
X136210051Y-70540046D01*
X136210049Y-70540045D01*
X136210050Y-70540045D01*
X136071963Y-70499500D01*
X136071961Y-70499500D01*
X135928039Y-70499500D01*
X135928036Y-70499500D01*
X135789949Y-70540045D01*
X135668873Y-70617856D01*
X135574623Y-70726626D01*
X135574622Y-70726628D01*
X135514834Y-70857543D01*
X135494353Y-71000000D01*
X135514834Y-71142456D01*
X135553275Y-71226628D01*
X135574623Y-71273373D01*
X135668872Y-71382143D01*
X135676324Y-71386932D01*
X135689943Y-71395685D01*
X135735698Y-71448489D01*
X135745641Y-71517648D01*
X135716615Y-71581203D01*
X135689943Y-71604315D01*
X135668874Y-71617855D01*
X135574623Y-71726626D01*
X135574622Y-71726628D01*
X135514834Y-71857543D01*
X135494353Y-72000000D01*
X135514834Y-72142456D01*
X135566119Y-72254753D01*
X135574623Y-72273373D01*
X135668872Y-72382143D01*
X135689941Y-72395683D01*
X135735696Y-72448485D01*
X135745641Y-72517644D01*
X135716617Y-72581200D01*
X135689944Y-72604313D01*
X135668875Y-72617853D01*
X135668873Y-72617855D01*
X135574622Y-72726626D01*
X135574621Y-72726628D01*
X135514833Y-72857543D01*
X135494352Y-73000000D01*
X126602305Y-73000000D01*
X126625377Y-72973373D01*
X126685165Y-72842457D01*
X126705647Y-72700000D01*
X126685165Y-72557543D01*
X126625377Y-72426627D01*
X126531128Y-72317857D01*
X126531125Y-72317855D01*
X126531125Y-72317854D01*
X126510058Y-72304316D01*
X126464302Y-72251513D01*
X126454358Y-72182354D01*
X126483382Y-72118798D01*
X126510058Y-72095684D01*
X126531125Y-72082145D01*
X126531125Y-72082144D01*
X126531128Y-72082143D01*
X126625377Y-71973373D01*
X126685165Y-71842457D01*
X126705647Y-71700000D01*
X126685165Y-71557543D01*
X126625377Y-71426627D01*
X126531128Y-71317857D01*
X126531125Y-71317855D01*
X126531125Y-71317854D01*
X126510058Y-71304316D01*
X126464302Y-71251513D01*
X126454358Y-71182354D01*
X126483382Y-71118798D01*
X126510058Y-71095684D01*
X126531125Y-71082145D01*
X126531125Y-71082144D01*
X126531128Y-71082143D01*
X126625377Y-70973373D01*
X126685165Y-70842457D01*
X126705647Y-70700000D01*
X126685165Y-70557543D01*
X126625377Y-70426627D01*
X126531128Y-70317857D01*
X126410053Y-70240047D01*
X126410051Y-70240046D01*
X126410049Y-70240045D01*
X126410050Y-70240045D01*
X126271963Y-70199500D01*
X126271961Y-70199500D01*
X126128039Y-70199500D01*
X126128036Y-70199500D01*
X125989949Y-70240045D01*
X125868873Y-70317856D01*
X125793713Y-70404596D01*
X125734935Y-70442370D01*
X125665065Y-70442370D01*
X125606287Y-70404596D01*
X125606286Y-70404595D01*
X125531128Y-70317857D01*
X125410053Y-70240047D01*
X125410051Y-70240046D01*
X125410049Y-70240045D01*
X125410050Y-70240045D01*
X125271963Y-70199500D01*
X125271961Y-70199500D01*
X125128039Y-70199500D01*
X125128036Y-70199500D01*
X124989949Y-70240045D01*
X124868873Y-70317856D01*
X124774623Y-70426626D01*
X124774622Y-70426628D01*
X124714834Y-70557543D01*
X124694353Y-70700000D01*
X117402305Y-70700000D01*
X117331128Y-70617857D01*
X117210053Y-70540047D01*
X117210051Y-70540046D01*
X117210049Y-70540045D01*
X117210050Y-70540045D01*
X117071963Y-70499500D01*
X117071961Y-70499500D01*
X116928039Y-70499500D01*
X116928036Y-70499500D01*
X116789949Y-70540045D01*
X116668873Y-70617856D01*
X116593713Y-70704596D01*
X116534935Y-70742370D01*
X116465065Y-70742370D01*
X116406287Y-70704596D01*
X116368271Y-70660723D01*
X116331128Y-70617857D01*
X116210053Y-70540047D01*
X116210051Y-70540046D01*
X116210049Y-70540045D01*
X116210050Y-70540045D01*
X116071963Y-70499500D01*
X116071961Y-70499500D01*
X115928039Y-70499500D01*
X115928036Y-70499500D01*
X115789949Y-70540045D01*
X115668873Y-70617856D01*
X115574623Y-70726626D01*
X115574622Y-70726628D01*
X115514834Y-70857543D01*
X115494353Y-71000000D01*
X100250500Y-71000000D01*
X100250500Y-61739995D01*
X231169945Y-61739995D01*
X231169945Y-61740006D01*
X231190130Y-61983606D01*
X231250138Y-62220574D01*
X231348330Y-62444430D01*
X231444626Y-62591820D01*
X232048958Y-61987488D01*
X232073978Y-62047891D01*
X232145112Y-62154352D01*
X232235649Y-62244889D01*
X232342110Y-62316023D01*
X232402511Y-62341042D01*
X231797758Y-62945795D01*
X231797758Y-62945797D01*
X231840478Y-62979047D01*
X231840484Y-62979051D01*
X232055468Y-63095395D01*
X232055476Y-63095398D01*
X232286664Y-63174766D01*
X232527779Y-63215001D01*
X232772221Y-63215001D01*
X233013335Y-63174766D01*
X233244523Y-63095398D01*
X233244531Y-63095395D01*
X233459514Y-62979052D01*
X233459514Y-62979051D01*
X233502240Y-62945796D01*
X233502240Y-62945795D01*
X232897488Y-62341042D01*
X232957890Y-62316023D01*
X233064351Y-62244889D01*
X233154888Y-62154352D01*
X233226022Y-62047891D01*
X233251041Y-61987489D01*
X233855372Y-62591820D01*
X233951667Y-62444432D01*
X233951672Y-62444424D01*
X234049861Y-62220574D01*
X234109869Y-61983606D01*
X234130055Y-61740006D01*
X234130055Y-61739995D01*
X234109869Y-61496395D01*
X234049861Y-61259427D01*
X233951669Y-61035571D01*
X233855372Y-60888180D01*
X233251041Y-61492511D01*
X233226022Y-61432111D01*
X233154888Y-61325650D01*
X233064351Y-61235113D01*
X232957890Y-61163979D01*
X232897487Y-61138959D01*
X233502240Y-60534205D01*
X233502240Y-60534204D01*
X233459514Y-60500950D01*
X233244531Y-60384606D01*
X233244523Y-60384603D01*
X233013335Y-60305235D01*
X232772221Y-60265001D01*
X232527779Y-60265001D01*
X232286664Y-60305235D01*
X232055476Y-60384603D01*
X232055468Y-60384606D01*
X231840481Y-60500952D01*
X231797758Y-60534203D01*
X231797757Y-60534205D01*
X232402511Y-61138959D01*
X232342110Y-61163979D01*
X232235649Y-61235113D01*
X232145112Y-61325650D01*
X232073978Y-61432111D01*
X232048958Y-61492512D01*
X231444626Y-60888180D01*
X231348328Y-61035576D01*
X231250138Y-61259427D01*
X231190130Y-61496395D01*
X231169945Y-61739995D01*
X100250500Y-61739995D01*
X100250500Y-53000000D01*
X101144396Y-53000000D01*
X101164778Y-53258990D01*
X101225427Y-53511610D01*
X101324843Y-53751623D01*
X101324845Y-53751627D01*
X101324846Y-53751628D01*
X101460588Y-53973140D01*
X101629311Y-54170689D01*
X101826860Y-54339412D01*
X102048372Y-54475154D01*
X102048374Y-54475154D01*
X102048376Y-54475156D01*
X102109693Y-54500554D01*
X102288390Y-54574573D01*
X102541006Y-54635221D01*
X102800000Y-54655604D01*
X103058994Y-54635221D01*
X103311610Y-54574573D01*
X103551628Y-54475154D01*
X103773140Y-54339412D01*
X103970689Y-54170689D01*
X104139412Y-53973140D01*
X104275154Y-53751628D01*
X104374573Y-53511610D01*
X104435221Y-53258994D01*
X104455604Y-53000000D01*
X240344396Y-53000000D01*
X240364778Y-53258990D01*
X240425427Y-53511610D01*
X240524843Y-53751623D01*
X240524845Y-53751627D01*
X240524846Y-53751628D01*
X240660588Y-53973140D01*
X240829311Y-54170689D01*
X241026860Y-54339412D01*
X241248372Y-54475154D01*
X241248374Y-54475154D01*
X241248376Y-54475156D01*
X241309693Y-54500554D01*
X241488390Y-54574573D01*
X241741006Y-54635221D01*
X242000000Y-54655604D01*
X242258994Y-54635221D01*
X242511610Y-54574573D01*
X242751628Y-54475154D01*
X242973140Y-54339412D01*
X243170689Y-54170689D01*
X243339412Y-53973140D01*
X243475154Y-53751628D01*
X243574573Y-53511610D01*
X243635221Y-53258994D01*
X243655604Y-53000000D01*
X243635221Y-52741006D01*
X243574573Y-52488390D01*
X243475154Y-52248372D01*
X243339412Y-52026860D01*
X243170689Y-51829311D01*
X242973140Y-51660588D01*
X242751628Y-51524846D01*
X242751627Y-51524845D01*
X242751623Y-51524843D01*
X242582052Y-51454605D01*
X242511610Y-51425427D01*
X242511611Y-51425427D01*
X242373921Y-51392370D01*
X242258994Y-51364779D01*
X242258992Y-51364778D01*
X242258991Y-51364778D01*
X242000000Y-51344396D01*
X241741009Y-51364778D01*
X241488389Y-51425427D01*
X241248376Y-51524843D01*
X241026859Y-51660588D01*
X240829311Y-51829311D01*
X240660588Y-52026859D01*
X240524843Y-52248376D01*
X240425427Y-52488389D01*
X240364778Y-52741009D01*
X240344396Y-53000000D01*
X104455604Y-53000000D01*
X104435221Y-52741006D01*
X104374573Y-52488390D01*
X104275154Y-52248372D01*
X104139412Y-52026860D01*
X103970689Y-51829311D01*
X103773140Y-51660588D01*
X103551628Y-51524846D01*
X103551627Y-51524845D01*
X103551623Y-51524843D01*
X103382052Y-51454605D01*
X103311610Y-51425427D01*
X103311611Y-51425427D01*
X103173921Y-51392370D01*
X103058994Y-51364779D01*
X103058992Y-51364778D01*
X103058991Y-51364778D01*
X102800000Y-51344396D01*
X102541009Y-51364778D01*
X102288389Y-51425427D01*
X102048376Y-51524843D01*
X101826859Y-51660588D01*
X101629311Y-51829311D01*
X101460588Y-52026859D01*
X101324843Y-52248376D01*
X101225427Y-52488389D01*
X101164778Y-52741009D01*
X101144396Y-53000000D01*
X100250500Y-53000000D01*
X100250500Y-52503750D01*
X100250726Y-52496263D01*
X100266448Y-52236339D01*
X100268253Y-52221475D01*
X100314515Y-51969026D01*
X100318095Y-51954505D01*
X100394451Y-51709471D01*
X100399753Y-51695489D01*
X100505095Y-51461430D01*
X100512040Y-51448197D01*
X100644826Y-51228542D01*
X100653313Y-51216246D01*
X100811608Y-51014198D01*
X100821523Y-51003007D01*
X101003007Y-50821523D01*
X101014198Y-50811608D01*
X101216246Y-50653313D01*
X101228542Y-50644826D01*
X101448197Y-50512040D01*
X101461430Y-50505095D01*
X101695489Y-50399753D01*
X101709471Y-50394451D01*
X101954505Y-50318095D01*
X101969026Y-50314515D01*
X102221476Y-50268252D01*
X102236335Y-50266448D01*
X102496264Y-50250726D01*
X102503751Y-50250500D01*
X102544170Y-50250500D01*
X242455830Y-50250500D01*
X242496249Y-50250500D01*
X242503736Y-50250726D01*
G37*
%TD.AperFunction*%
%TD*%
M02*
