M48
; DRILL file {KiCad 8.0.6} date 2025-03-19T11:29:40+0200
; FORMAT={-:-/ absolute / inch / decimal}
; #@! TF.CreationDate,2025-03-19T11:29:40+02:00
; #@! TF.GenerationSoftware,Kicad,Pcbnew,8.0.6
; #@! TF.FileFunction,Plated,1,6,PTH
FMAT,2
INCH
; #@! TA.AperFunction,Plated,PTH,ViaDrill
T1C0.0118
; #@! TA.AperFunction,Plated,PTH,ComponentDrill
T2C0.0197
; #@! TA.AperFunction,Plated,PTH,ComponentDrill
T3C0.0300
; #@! TA.AperFunction,Plated,PTH,ComponentDrill
T4C0.0512
; #@! TA.AperFunction,Plated,PTH,ComponentDrill
T5C0.0551
; #@! TA.AperFunction,Plated,PTH,ComponentDrill
T6C0.0630
; #@! TA.AperFunction,Plated,PTH,ComponentDrill
T7C0.0984
%
G90
G05
T1
X4.252Y-3.0315
X4.2533Y-2.7465
X4.2913Y-3.0315
X4.2927Y-2.7465
X4.3307Y-3.0315
X4.3311Y-3.4646
X4.3321Y-2.7465
X4.3811Y-3.6142
X4.4158Y-3.9367
X4.5212Y-3.8394
X4.5669Y-2.7953
X4.5669Y-2.8346
X4.5669Y-2.874
X4.6063Y-2.7953
X4.6063Y-2.8346
X4.6063Y-2.874
X4.7929Y-3.6329
X4.7929Y-3.5542
X4.7929Y-3.5936
X4.7933Y-3.304
X4.7933Y-3.3434
X4.7933Y-3.3828
X4.8323Y-3.5542
X4.8323Y-3.5936
X4.8327Y-3.3434
X4.8327Y-3.3828
X4.8346Y-2.9449
X4.9088Y-2.7146
X4.9291Y-2.7835
X4.9291Y-2.8228
X4.9291Y-2.8622
X4.9685Y-2.7835
X4.9685Y-2.8228
X4.9685Y-2.8622
X5.0089Y-3.9369
X5.0424Y-2.7496
X5.0426Y-3.0347
X5.0685Y-3.4803
X5.0818Y-2.7496
X5.0819Y-3.0347
X5.1024Y-3.2283
X5.1143Y-3.8396
X5.1185Y-3.6142
X5.1212Y-2.7496
X5.1213Y-3.0347
X5.1685Y-3.422
X5.2158Y-3.1319
X5.3543Y-2.874
X5.3543Y-2.7953
X5.3543Y-2.8346
X5.3937Y-2.7953
X5.3937Y-2.8346
X5.3937Y-2.874
X5.5303Y-3.5544
X5.5303Y-3.5937
X5.5303Y-3.6331
X5.5308Y-3.3071
X5.5308Y-3.3465
X5.5308Y-3.3858
X5.5697Y-3.5544
X5.5697Y-3.5937
X5.5702Y-3.3465
X5.5702Y-3.3858
X5.5959Y-3.9367
X5.6299Y-2.9449
X5.7012Y-3.8398
X5.7099Y-2.7154
X5.7323Y-2.8228
X5.7323Y-2.8622
X5.7323Y-2.7835
X5.7717Y-2.7835
X5.7717Y-2.8228
X5.7717Y-2.8622
X5.8298Y-3.0354
X5.8346Y-2.7559
X5.8692Y-3.0354
X5.874Y-2.7559
X5.9085Y-3.0354
X5.9134Y-2.7559
X5.9309Y-3.4803
X5.9574Y-3.2283
X5.9809Y-3.622
X6.063Y-3.1329
X6.0945Y-3.2756
X6.1417Y-2.8346
X6.1417Y-2.874
X6.1417Y-2.7953
X6.1811Y-2.7953
X6.1811Y-2.8346
X6.1811Y-2.874
X6.1909Y-3.9367
X6.2963Y-3.8394
X6.3876Y-3.6341
X6.3876Y-3.5554
X6.3876Y-3.5947
X6.3885Y-3.3048
X6.3885Y-3.3441
X6.3885Y-3.3835
X6.4173Y-2.9449
X6.4269Y-3.5554
X6.4269Y-3.5947
X6.4279Y-3.3441
X6.4279Y-3.3835
X6.4973Y-2.7165
X6.5197Y-2.7835
X6.5197Y-2.8228
X6.5197Y-2.8622
X6.5591Y-2.7835
X6.5591Y-2.8228
X6.5591Y-2.8622
X6.6378Y-2.7874
X6.639Y-3.6524
X6.6772Y-2.7874
X6.7165Y-2.7874
X6.7183Y-3.4724
X6.7559Y-3.2283
X6.7683Y-3.622
X6.7815Y-3.9367
X6.8898Y-3.8425
X6.8964Y-3.1108
X6.8976Y-3.2835
X6.9291Y-2.9528
X6.9291Y-2.874
X6.9291Y-2.9134
X6.9685Y-2.874
X6.9685Y-2.9134
X6.9685Y-2.9528
X7.1748Y-3.5554
X7.1748Y-3.5948
X7.1748Y-3.6342
X7.1777Y-3.3035
X7.1777Y-3.3429
X7.1777Y-3.3822
X7.189Y-2.9528
X7.2141Y-3.5554
X7.2141Y-3.5948
X7.217Y-3.3822
X7.217Y-3.3429
X7.269Y-2.7154
X7.2913Y-2.7835
X7.2913Y-2.8228
X7.2913Y-2.8622
X7.3307Y-2.7835
X7.3307Y-2.8228
X7.3307Y-2.8622
X7.3701Y-3.937
X7.4173Y-2.7795
X7.4567Y-2.7795
X7.4803Y-3.8394
X7.4961Y-2.7795
X7.5057Y-3.4646
X7.5354Y-3.2283
X7.6334Y-3.4286
X7.6693Y-3.1102
X7.7165Y-2.874
X7.7165Y-2.9134
X7.7165Y-2.9528
X7.7559Y-2.874
X7.7559Y-2.9134
X7.7559Y-2.9528
X7.9538Y-3.555
X7.9538Y-3.5944
X7.9538Y-3.6338
X7.9547Y-3.3057
X7.9547Y-3.3451
X7.9547Y-3.3845
X7.9606Y-2.9449
X7.9932Y-3.555
X7.9932Y-3.5944
X7.9941Y-3.3451
X7.9941Y-3.3845
X8.0431Y-2.7055
X8.063Y-2.7756
X8.063Y-2.815
X8.063Y-2.8543
X8.1024Y-2.7756
X8.1024Y-2.815
X8.1024Y-2.8543
X8.2126Y-2.7795
X8.252Y-2.7795
X8.2677Y-3.4646
X8.2913Y-2.7795
X8.2953Y-3.2323
X8.3697Y-3.4646
X8.4331Y-3.1102
X8.4409Y-3.2756
X8.5039Y-2.874
X8.5039Y-2.9134
X8.5039Y-2.9528
X8.5433Y-2.874
X8.5433Y-2.9134
X8.5433Y-2.9528
X8.7004Y-3.9181
X8.7198Y-3.3071
X8.7198Y-3.3465
X8.7198Y-3.3858
X8.7198Y-3.5591
X8.7198Y-3.5984
X8.7198Y-3.6378
X8.7559Y-2.9493
X8.7592Y-3.3465
X8.7592Y-3.3858
X8.7592Y-3.5591
X8.7592Y-3.5984
X8.8349Y-2.7031
X8.8583Y-2.7756
X8.8583Y-2.815
X8.8583Y-2.8543
X8.8583Y-3.8583
X8.8976Y-2.7756
X8.8976Y-2.815
X8.8976Y-2.8543
X8.9134Y-3.6596
X8.9867Y-3.5118
X9.0502Y-3.5148
X9.0925Y-3.2598
X9.0988Y-3.6299
X9.1181Y-3.6596
X9.1417Y-3.1024
X9.1417Y-3.1417
X9.1417Y-3.063
X9.1799Y-3.5699
X9.1799Y-3.6093
X9.1811Y-3.063
X9.1811Y-3.1024
X9.1811Y-3.1417
X9.2205Y-3.063
X9.2205Y-3.1024
X9.2205Y-3.1417
X9.2303Y-3.2106
X9.2598Y-3.063
X9.2598Y-3.1024
X9.2598Y-3.1417
X9.2992Y-3.063
X9.2992Y-3.1024
X9.3386Y-3.063
X9.3386Y-3.1024
X9.3583Y-3.3878
X9.378Y-3.063
X9.378Y-3.1024
X9.378Y-3.1417
X9.4075Y-3.3878
X9.4142Y-3.2137
X9.4173Y-3.063
X9.4173Y-3.1024
X9.4173Y-3.1417
X9.4567Y-3.063
X9.4567Y-3.1024
X9.4567Y-3.1417
X9.4961Y-3.1024
X9.4961Y-3.1417
X9.4961Y-3.063
X9.5551Y-3.2598
T2
X4.0551Y-4.1339
X4.1831Y-4.1339
X4.2224Y-4.1339
X4.7264Y-3.8591
X5.3169Y-3.8591
X5.9075Y-3.8591
X6.498Y-3.8591
X7.0886Y-3.8591
X7.6791Y-3.8591
X9.2815Y-4.3602
X9.3209Y-4.3602
X9.5768Y-3.9469
T3
X8.8189Y-4.252
X8.8976Y-4.252
X8.9764Y-4.252
X9.0551Y-4.252
T4
X8.0823Y-4.0303
X8.4571Y-4.0303
X9.1594Y-2.4307
X9.1594Y-2.8055
T5
X4.4535Y-4.174
X4.6535Y-4.174
X5.0413Y-4.174
X5.2413Y-4.174
X5.6268Y-4.174
X5.8268Y-4.174
X6.2224Y-4.174
X6.4224Y-4.174
X6.813Y-4.174
X7.013Y-4.174
X7.4004Y-4.174
X7.6004Y-4.174
T6
X9.2953Y-3.6325
X9.2953Y-4.1628
X9.4291Y-3.6325
X9.4291Y-4.1628
T7
X4.0472Y-2.0866
X4.0472Y-4.4173
X9.5276Y-2.0866
X9.5354Y-4.4173
M30
