%TF.GenerationSoftware,KiCad,Pcbnew,8.0.6*%
%TF.CreationDate,2025-03-19T14:20:47+02:00*%
%TF.ProjectId,UPD_PCB,5550445f-5043-4422-9e6b-696361645f70,1.1*%
%TF.SameCoordinates,Original*%
%TF.FileFunction,Copper,L4,Inr*%
%TF.FilePolarity,Positive*%
%FSLAX46Y46*%
G04 Gerber Fmt 4.6, Leading zero omitted, Abs format (unit mm)*
G04 Created by KiCad (PCBNEW 8.0.6) date 2025-03-19 14:20:47*
%MOMM*%
%LPD*%
G01*
G04 APERTURE LIST*
G04 Aperture macros list*
%AMRoundRect*
0 Rectangle with rounded corners*
0 $1 Rounding radius*
0 $2 $3 $4 $5 $6 $7 $8 $9 X,Y pos of 4 corners*
0 Add a 4 corners polygon primitive as box body*
4,1,4,$2,$3,$4,$5,$6,$7,$8,$9,$2,$3,0*
0 Add four circle primitives for the rounded corners*
1,1,$1+$1,$2,$3*
1,1,$1+$1,$4,$5*
1,1,$1+$1,$6,$7*
1,1,$1+$1,$8,$9*
0 Add four rect primitives between the rounded corners*
20,1,$1+$1,$2,$3,$4,$5,0*
20,1,$1+$1,$4,$5,$6,$7,0*
20,1,$1+$1,$6,$7,$8,$9,0*
20,1,$1+$1,$8,$9,$2,$3,0*%
G04 Aperture macros list end*
%TA.AperFunction,ComponentPad*%
%ADD10R,1.950000X1.950000*%
%TD*%
%TA.AperFunction,ComponentPad*%
%ADD11C,1.950000*%
%TD*%
%TA.AperFunction,ComponentPad*%
%ADD12C,2.100000*%
%TD*%
%TA.AperFunction,ComponentPad*%
%ADD13C,2.400000*%
%TD*%
%TA.AperFunction,ComponentPad*%
%ADD14RoundRect,0.250000X-0.600000X-0.725000X0.600000X-0.725000X0.600000X0.725000X-0.600000X0.725000X0*%
%TD*%
%TA.AperFunction,ComponentPad*%
%ADD15O,1.700000X1.950000*%
%TD*%
%TA.AperFunction,ComponentPad*%
%ADD16C,2.900000*%
%TD*%
%TA.AperFunction,ComponentPad*%
%ADD17C,1.000000*%
%TD*%
%TA.AperFunction,ComponentPad*%
%ADD18R,0.850000X0.850000*%
%TD*%
%TA.AperFunction,ComponentPad*%
%ADD19O,0.850000X0.850000*%
%TD*%
%TA.AperFunction,ViaPad*%
%ADD20C,0.600000*%
%TD*%
G04 APERTURE END LIST*
D10*
%TO.N,+42V_out*%
%TO.C,J10*%
X205290000Y-102370000D03*
D11*
%TO.N,GND*%
X214810000Y-102370000D03*
%TD*%
D12*
%TO.N,+24V_out*%
%TO.C,J9*%
X187970000Y-106020000D03*
%TO.N,GND*%
X193050000Y-106020000D03*
%TD*%
%TO.N,+5V_out*%
%TO.C,J8*%
X113120001Y-106020000D03*
%TO.N,GND*%
X118200001Y-106020000D03*
%TD*%
%TO.N,+12V_2_out*%
%TO.C,J7*%
X142920000Y-106020000D03*
%TO.N,GND*%
X148000000Y-106020000D03*
%TD*%
%TO.N,+12V_1_out*%
%TO.C,J6*%
X128050000Y-106019999D03*
%TO.N,GND*%
X133130000Y-106019999D03*
%TD*%
%TO.N,+16V_out*%
%TO.C,J5*%
X158050000Y-106020000D03*
%TO.N,GND*%
X163130000Y-106020000D03*
%TD*%
%TO.N,+19V_out*%
%TO.C,J4*%
X173050001Y-106020000D03*
%TO.N,GND*%
X178130001Y-106020000D03*
%TD*%
D10*
%TO.N,IP+*%
%TO.C,J2*%
X232650000Y-71260001D03*
D11*
%TO.N,GND*%
X232650000Y-61740001D03*
%TD*%
D13*
%TO.N,+42V*%
%TO.C,J1*%
X239500000Y-92265000D03*
%TO.N,+42V_out*%
X239500000Y-105735000D03*
%TO.N,+42V*%
X236100000Y-92265000D03*
%TO.N,+42V_out*%
X236100000Y-105735000D03*
%TD*%
D14*
%TO.N,GND*%
%TO.C,J11*%
X223700000Y-108200000D03*
D15*
%TO.N,+5V_out*%
X226200000Y-108200000D03*
%TO.N,INA_SDA*%
X228700000Y-108200000D03*
%TO.N,INA_SCL*%
X231200000Y-108200000D03*
%TD*%
D16*
%TO.N,N/C*%
%TO.C,REF\u002A\u002A*%
X102800000Y-53000000D03*
%TD*%
D17*
%TO.N,GND*%
%TO.C,TP1*%
X103000000Y-105000000D03*
%TD*%
D18*
%TO.N,GND*%
%TO.C,J3*%
X106250000Y-105000000D03*
D19*
%TO.N,+5V_out*%
X107250000Y-105000000D03*
%TD*%
D17*
%TO.N,+5V_out*%
%TO.C,TP7*%
X120050000Y-98020000D03*
%TD*%
%TO.N,+24V_out*%
%TO.C,TP2*%
X195050000Y-98020000D03*
%TD*%
%TO.N,+12V_2_out*%
%TO.C,TP5*%
X150050000Y-98020000D03*
%TD*%
%TO.N,+16V_out*%
%TO.C,TP6*%
X165050000Y-98020000D03*
%TD*%
%TO.N,+12V_1_out*%
%TO.C,TP3*%
X135050000Y-98020000D03*
%TD*%
D16*
%TO.N,N/C*%
%TO.C,REF\u002A\u002A*%
X242200000Y-112200000D03*
%TD*%
%TO.N,N/C*%
%TO.C,REF\u002A\u002A*%
X102800000Y-112200000D03*
%TD*%
D18*
%TO.N,GND*%
%TO.C,J12*%
X235750001Y-110750000D03*
D19*
%TO.N,VIOUT*%
X236750001Y-110750000D03*
%TD*%
D17*
%TO.N,+42V_out*%
%TO.C,TP8*%
X243250000Y-100250000D03*
%TD*%
%TO.N,+19V_out*%
%TO.C,TP4*%
X180050000Y-98020000D03*
%TD*%
D16*
%TO.N,N/C*%
%TO.C,REF\u002A\u002A*%
X242000000Y-53000000D03*
%TD*%
D20*
%TO.N,GND*%
X109034207Y-69760446D03*
X208600000Y-70600000D03*
X143000000Y-74800000D03*
X148200001Y-70000000D03*
X238949999Y-86050000D03*
X169600000Y-70800000D03*
X129077800Y-69840307D03*
X151915000Y-92000000D03*
X209600000Y-70600000D03*
X110034208Y-69760446D03*
X127227117Y-99997643D03*
X122800000Y-74800000D03*
X150076825Y-77099611D03*
X168600000Y-70800000D03*
X150200000Y-70000000D03*
X231108777Y-92200000D03*
X109000000Y-77000000D03*
X131280000Y-86920000D03*
X184632498Y-68970000D03*
X130010000Y-91800000D03*
X187200001Y-100000000D03*
X145032498Y-68969997D03*
X189400000Y-70600000D03*
X222400000Y-74912500D03*
X182600000Y-75000000D03*
X220990824Y-99520244D03*
X108034207Y-69760446D03*
X242699999Y-82800000D03*
X110000000Y-77000000D03*
X128081115Y-77081115D03*
X165032499Y-69000000D03*
X124682498Y-68950000D03*
X163000000Y-74800000D03*
X190400000Y-70600000D03*
X111280000Y-91800000D03*
X130081115Y-77081115D03*
X142136143Y-99992071D03*
X130077800Y-69840307D03*
X202200000Y-74800000D03*
X148076825Y-77099611D03*
X149200000Y-70000000D03*
X108000000Y-77000000D03*
X204294999Y-68720000D03*
X188400000Y-70600000D03*
X128077800Y-69840307D03*
X234449999Y-81550000D03*
X224407500Y-68657500D03*
X233170246Y-90675000D03*
X129081115Y-77081115D03*
X112162500Y-99991249D03*
X171915000Y-91999999D03*
X157250000Y-99991249D03*
X149076825Y-77099611D03*
X212590000Y-88000000D03*
X210600000Y-70600000D03*
X172250000Y-99991250D03*
X193887500Y-87087500D03*
X170600000Y-70800000D03*
%TO.N,+42V*%
X236199999Y-77800000D03*
X186200000Y-70700000D03*
X165600001Y-72700000D03*
X145600000Y-71699999D03*
X225000000Y-70500000D03*
X235199999Y-79799999D03*
X234200000Y-78800000D03*
X234199999Y-77800000D03*
X226000000Y-70500000D03*
X225000000Y-72500000D03*
X166600000Y-72700000D03*
X165600000Y-71700000D03*
X125200000Y-70700000D03*
X233199999Y-77799999D03*
X236199999Y-78800000D03*
X233199999Y-79800000D03*
X204800000Y-72500000D03*
X185200000Y-72700000D03*
X186200000Y-72700000D03*
X235199999Y-77800000D03*
X232200000Y-77799999D03*
X185200000Y-70700000D03*
X226000000Y-71500000D03*
X166600000Y-71700000D03*
X233199999Y-78800000D03*
X225000000Y-71499999D03*
X166600000Y-70700000D03*
X125200000Y-71700000D03*
X146600000Y-71699999D03*
X126200000Y-71700000D03*
X165600000Y-70700000D03*
X126200000Y-72700000D03*
X205800000Y-70500000D03*
X235199999Y-78800000D03*
X232199999Y-79800000D03*
X146600000Y-72700000D03*
X146600000Y-70700000D03*
X185200000Y-71700000D03*
X204800000Y-71499999D03*
X205800000Y-71500000D03*
X125200001Y-72700000D03*
X234200000Y-79799999D03*
X186200000Y-71700000D03*
X145600001Y-70700000D03*
X226000000Y-72500000D03*
X126200000Y-70700000D03*
X204800000Y-70500000D03*
X232199999Y-78800000D03*
X145600000Y-72700000D03*
X205800000Y-72500000D03*
%TO.N,+5V_out*%
X239121248Y-81628751D03*
X170645000Y-88200000D03*
X121740146Y-92276866D03*
X230949999Y-82800000D03*
X210000000Y-88000000D03*
X150645000Y-88400000D03*
X233170246Y-91675001D03*
X226399999Y-92954754D03*
X121740147Y-90276866D03*
X114837501Y-97519999D03*
X237699999Y-86050000D03*
X168630001Y-92770000D03*
X128740001Y-88400000D03*
X214400000Y-83200000D03*
X190645000Y-88000000D03*
X231599999Y-92954754D03*
X175200000Y-83400000D03*
X122740146Y-91276865D03*
X110010000Y-88000000D03*
X121740147Y-91276866D03*
X154800000Y-83200000D03*
X122740146Y-90276866D03*
%TO.N,IP+*%
X241199999Y-79800000D03*
X241199999Y-78800000D03*
X240199999Y-79799999D03*
X240199999Y-78800000D03*
X240199999Y-77800000D03*
X238199999Y-77799999D03*
X241200000Y-77799999D03*
X238199999Y-78800000D03*
X237199999Y-77799999D03*
X238199999Y-79800000D03*
X237199999Y-78800000D03*
X239199999Y-77800000D03*
X239200000Y-79800000D03*
X239200000Y-78800000D03*
%TO.N,INA_SDA*%
X228262500Y-89200000D03*
X229875000Y-89275000D03*
%TO.N,INA_SCL*%
X151318750Y-82000000D03*
X175168751Y-79013750D03*
X214200000Y-79000000D03*
X154000000Y-79575000D03*
X132481250Y-79551250D03*
X171600000Y-82000000D03*
X191400000Y-82000000D03*
X210700000Y-82100000D03*
X129600000Y-82000000D03*
X194800000Y-79000000D03*
%TO.N,+24V*%
X221483513Y-85000000D03*
X216000000Y-74000000D03*
X221483513Y-84000000D03*
X221483513Y-86000000D03*
X216000000Y-75000000D03*
X216000000Y-73000000D03*
X222483513Y-86000000D03*
X222483513Y-85000000D03*
X217000000Y-73000000D03*
X217000000Y-74000000D03*
X217000000Y-75000000D03*
%TO.N,+12V_1*%
X137000000Y-72000000D03*
X140483513Y-86000000D03*
X135999999Y-73000000D03*
X141483513Y-85000000D03*
X140483513Y-84000000D03*
X137000000Y-71000000D03*
X136000000Y-71000000D03*
X140483513Y-85000000D03*
X141483513Y-86000000D03*
X137000000Y-73000000D03*
X136000000Y-72000000D03*
%TO.N,+19V*%
X203050016Y-84965777D03*
X197000001Y-75000000D03*
X197000000Y-74000000D03*
X202050016Y-84965777D03*
X202050016Y-85965777D03*
X196000000Y-73999999D03*
X196000000Y-75000000D03*
X196000000Y-73000000D03*
X202050016Y-83965777D03*
X197000000Y-73000000D03*
X203050016Y-85965777D03*
%TO.N,+12V_2*%
X156000000Y-72000000D03*
X162269080Y-83941147D03*
X157000000Y-71000000D03*
X157000000Y-72000000D03*
X163269080Y-84941148D03*
X163269080Y-85941146D03*
X162269080Y-85941147D03*
X162269080Y-84941147D03*
X157000000Y-73000000D03*
X156000001Y-71000000D03*
X156000000Y-73000000D03*
%TO.N,+16V*%
X176000001Y-73000000D03*
X182312396Y-83908738D03*
X176000001Y-73999999D03*
X182312396Y-85908738D03*
X176000000Y-75000000D03*
X183312397Y-84908738D03*
X177000000Y-73999999D03*
X182312396Y-84908738D03*
X177000000Y-75000000D03*
X183312396Y-85908738D03*
X177000000Y-73000001D03*
%TO.N,+5V_NS*%
X121750000Y-83921959D03*
X117000001Y-73000000D03*
X116000000Y-73000000D03*
X117000000Y-71000000D03*
X116000000Y-72000000D03*
X116000000Y-71000000D03*
X122750000Y-85921959D03*
X121750000Y-85921958D03*
X121750000Y-84921959D03*
X122750000Y-84921959D03*
X117000000Y-72000000D03*
%TO.N,+24V_out*%
X221483513Y-91400000D03*
X222483514Y-90400000D03*
X221483513Y-92400000D03*
X221483513Y-90400000D03*
X190000000Y-97520000D03*
X222483514Y-91399999D03*
%TO.N,+12V_1_out*%
X141470567Y-90280581D03*
X140470567Y-92280581D03*
X140470567Y-90280581D03*
X140470567Y-91280580D03*
X129902118Y-97526393D03*
X141470567Y-91280581D03*
%TO.N,+19V_out*%
X175000000Y-97600000D03*
X203026068Y-90297736D03*
X202026068Y-91297736D03*
X202026068Y-90297736D03*
X202026069Y-92297736D03*
X203026068Y-91297736D03*
%TO.N,+12V_2_out*%
X144811143Y-97530820D03*
X163244211Y-90306474D03*
X162244212Y-90306474D03*
X162244212Y-91306474D03*
X162244211Y-92306474D03*
X163244211Y-91306473D03*
%TO.N,+16V_out*%
X182239014Y-92307606D03*
X183239014Y-90307606D03*
X182239014Y-91307606D03*
X182239014Y-90307606D03*
X183239014Y-91307606D03*
X159925001Y-97519999D03*
%TO.N,+42V_out*%
X225000000Y-98000001D03*
%TD*%
%TA.AperFunction,Conductor*%
%TO.N,+24V_out*%
G36*
X223015677Y-89019685D02*
G01*
X223036319Y-89036319D01*
X224563681Y-90563681D01*
X224597166Y-90625004D01*
X224600000Y-90651362D01*
X224600000Y-95188637D01*
X224580315Y-95255676D01*
X224563681Y-95276318D01*
X220787226Y-99052772D01*
X220766586Y-99069406D01*
X220659694Y-99138102D01*
X220659690Y-99138106D01*
X220565448Y-99246868D01*
X220565445Y-99246872D01*
X220551469Y-99277475D01*
X220526357Y-99313641D01*
X208876319Y-110963681D01*
X208814996Y-110997166D01*
X208788638Y-111000000D01*
X185124000Y-111000000D01*
X185056961Y-110980315D01*
X185011206Y-110927511D01*
X185000000Y-110876000D01*
X185000000Y-106019997D01*
X191794723Y-106019997D01*
X191794723Y-106020002D01*
X191813793Y-106237975D01*
X191813793Y-106237979D01*
X191870422Y-106449322D01*
X191870424Y-106449326D01*
X191870425Y-106449330D01*
X191916661Y-106548484D01*
X191962897Y-106647638D01*
X191962898Y-106647639D01*
X192088402Y-106826877D01*
X192243123Y-106981598D01*
X192422361Y-107107102D01*
X192620670Y-107199575D01*
X192832023Y-107256207D01*
X193014926Y-107272208D01*
X193049998Y-107275277D01*
X193050000Y-107275277D01*
X193050002Y-107275277D01*
X193078254Y-107272805D01*
X193267977Y-107256207D01*
X193479330Y-107199575D01*
X193677639Y-107107102D01*
X193856877Y-106981598D01*
X194011598Y-106826877D01*
X194137102Y-106647639D01*
X194229575Y-106449330D01*
X194286207Y-106237977D01*
X194305277Y-106020000D01*
X194286207Y-105802023D01*
X194229575Y-105590670D01*
X194137102Y-105392362D01*
X194137100Y-105392359D01*
X194137099Y-105392357D01*
X194011599Y-105213124D01*
X194011596Y-105213121D01*
X193856877Y-105058402D01*
X193677639Y-104932898D01*
X193677640Y-104932898D01*
X193677638Y-104932897D01*
X193578484Y-104886661D01*
X193479330Y-104840425D01*
X193479326Y-104840424D01*
X193479322Y-104840422D01*
X193267977Y-104783793D01*
X193050002Y-104764723D01*
X193049998Y-104764723D01*
X192904682Y-104777436D01*
X192832023Y-104783793D01*
X192832020Y-104783793D01*
X192620677Y-104840422D01*
X192620668Y-104840426D01*
X192422361Y-104932898D01*
X192422357Y-104932900D01*
X192243121Y-105058402D01*
X192088402Y-105213121D01*
X191962900Y-105392357D01*
X191962898Y-105392361D01*
X191870426Y-105590668D01*
X191870422Y-105590677D01*
X191813793Y-105802020D01*
X191813793Y-105802024D01*
X191794723Y-106019997D01*
X185000000Y-106019997D01*
X185000000Y-101375247D01*
X204114500Y-101375247D01*
X204114500Y-103364752D01*
X204126131Y-103423229D01*
X204126132Y-103423230D01*
X204170447Y-103489552D01*
X204236769Y-103533867D01*
X204236770Y-103533868D01*
X204295247Y-103545499D01*
X204295250Y-103545500D01*
X204295252Y-103545500D01*
X206284750Y-103545500D01*
X206284751Y-103545499D01*
X206299568Y-103542552D01*
X206343229Y-103533868D01*
X206343229Y-103533867D01*
X206343231Y-103533867D01*
X206409552Y-103489552D01*
X206453867Y-103423231D01*
X206453867Y-103423229D01*
X206453868Y-103423229D01*
X206465499Y-103364752D01*
X206465500Y-103364750D01*
X206465500Y-102369999D01*
X213629464Y-102369999D01*
X213629464Y-102370000D01*
X213649564Y-102586918D01*
X213649564Y-102586920D01*
X213649565Y-102586923D01*
X213709183Y-102796459D01*
X213806288Y-102991472D01*
X213937573Y-103165322D01*
X214098568Y-103312088D01*
X214098575Y-103312092D01*
X214098576Y-103312093D01*
X214283786Y-103426770D01*
X214283792Y-103426773D01*
X214306664Y-103435633D01*
X214486931Y-103505470D01*
X214701074Y-103545500D01*
X214701076Y-103545500D01*
X214918924Y-103545500D01*
X214918926Y-103545500D01*
X215133069Y-103505470D01*
X215336210Y-103426772D01*
X215521432Y-103312088D01*
X215682427Y-103165322D01*
X215813712Y-102991472D01*
X215910817Y-102796459D01*
X215970435Y-102586923D01*
X215990536Y-102370000D01*
X215970435Y-102153077D01*
X215910817Y-101943541D01*
X215813712Y-101748528D01*
X215682427Y-101574678D01*
X215521432Y-101427912D01*
X215521428Y-101427909D01*
X215521423Y-101427906D01*
X215336213Y-101313229D01*
X215336207Y-101313226D01*
X215251113Y-101280260D01*
X215133069Y-101234530D01*
X214918926Y-101194500D01*
X214701074Y-101194500D01*
X214486931Y-101234530D01*
X214445845Y-101250447D01*
X214283792Y-101313226D01*
X214283786Y-101313229D01*
X214098576Y-101427906D01*
X214098566Y-101427913D01*
X213937574Y-101574676D01*
X213806288Y-101748527D01*
X213709184Y-101943537D01*
X213649564Y-102153081D01*
X213629464Y-102369999D01*
X206465500Y-102369999D01*
X206465500Y-101375249D01*
X206465499Y-101375247D01*
X206453868Y-101316770D01*
X206453867Y-101316769D01*
X206409552Y-101250447D01*
X206343230Y-101206132D01*
X206343229Y-101206131D01*
X206284752Y-101194500D01*
X206284748Y-101194500D01*
X204295252Y-101194500D01*
X204295247Y-101194500D01*
X204236770Y-101206131D01*
X204236769Y-101206132D01*
X204170447Y-101250447D01*
X204126132Y-101316769D01*
X204126131Y-101316770D01*
X204114500Y-101375247D01*
X185000000Y-101375247D01*
X185000000Y-100000000D01*
X186694354Y-100000000D01*
X186714835Y-100142456D01*
X186774623Y-100273371D01*
X186774624Y-100273373D01*
X186868873Y-100382143D01*
X186989948Y-100459953D01*
X186989951Y-100459954D01*
X186989950Y-100459954D01*
X187128037Y-100500499D01*
X187128039Y-100500500D01*
X187128040Y-100500500D01*
X187271963Y-100500500D01*
X187271963Y-100500499D01*
X187410054Y-100459953D01*
X187531129Y-100382143D01*
X187625378Y-100273373D01*
X187685166Y-100142457D01*
X187705648Y-100000000D01*
X187685166Y-99857543D01*
X187625378Y-99726627D01*
X187531129Y-99617857D01*
X187410054Y-99540047D01*
X187410052Y-99540046D01*
X187410050Y-99540045D01*
X187410051Y-99540045D01*
X187271964Y-99499500D01*
X187271962Y-99499500D01*
X187128040Y-99499500D01*
X187128037Y-99499500D01*
X186989950Y-99540045D01*
X186868874Y-99617856D01*
X186774624Y-99726626D01*
X186774623Y-99726628D01*
X186714835Y-99857543D01*
X186694354Y-100000000D01*
X185000000Y-100000000D01*
X185000000Y-99951362D01*
X185019685Y-99884323D01*
X185036319Y-99863681D01*
X188863681Y-96036319D01*
X188925004Y-96002834D01*
X188951362Y-96000000D01*
X213000001Y-96000000D01*
X217000000Y-92000000D01*
X217000000Y-89124000D01*
X217019685Y-89056961D01*
X217072489Y-89011206D01*
X217124000Y-89000000D01*
X222948638Y-89000000D01*
X223015677Y-89019685D01*
G37*
%TD.AperFunction*%
%TD*%
%TA.AperFunction,Conductor*%
%TO.N,+16V_out*%
G36*
X183171178Y-88927291D02*
G01*
X183191820Y-88943925D01*
X184119182Y-89871287D01*
X184152667Y-89932610D01*
X184155501Y-89958968D01*
X184155501Y-92856244D01*
X184135816Y-92923283D01*
X184119182Y-92943925D01*
X183191820Y-93871287D01*
X183130497Y-93904772D01*
X183104139Y-93907606D01*
X172092393Y-93907606D01*
X168000000Y-97999999D01*
X168000000Y-110876000D01*
X167980315Y-110943039D01*
X167927511Y-110988794D01*
X167876000Y-111000000D01*
X154124000Y-111000000D01*
X154056961Y-110980315D01*
X154011206Y-110927511D01*
X154000000Y-110876000D01*
X154000000Y-106019997D01*
X161874723Y-106019997D01*
X161874723Y-106020002D01*
X161893793Y-106237975D01*
X161893793Y-106237979D01*
X161950422Y-106449322D01*
X161950424Y-106449326D01*
X161950425Y-106449330D01*
X161996661Y-106548484D01*
X162042897Y-106647638D01*
X162042898Y-106647639D01*
X162168402Y-106826877D01*
X162323123Y-106981598D01*
X162502361Y-107107102D01*
X162700670Y-107199575D01*
X162912023Y-107256207D01*
X163094926Y-107272208D01*
X163129998Y-107275277D01*
X163130000Y-107275277D01*
X163130002Y-107275277D01*
X163158254Y-107272805D01*
X163347977Y-107256207D01*
X163559330Y-107199575D01*
X163757639Y-107107102D01*
X163936877Y-106981598D01*
X164091598Y-106826877D01*
X164217102Y-106647639D01*
X164309575Y-106449330D01*
X164366207Y-106237977D01*
X164385277Y-106020000D01*
X164366207Y-105802023D01*
X164309575Y-105590670D01*
X164217102Y-105392362D01*
X164217100Y-105392359D01*
X164217099Y-105392357D01*
X164091599Y-105213124D01*
X164091596Y-105213121D01*
X163936877Y-105058402D01*
X163757639Y-104932898D01*
X163757640Y-104932898D01*
X163757638Y-104932897D01*
X163658484Y-104886661D01*
X163559330Y-104840425D01*
X163559326Y-104840424D01*
X163559322Y-104840422D01*
X163347977Y-104783793D01*
X163130002Y-104764723D01*
X163129998Y-104764723D01*
X162984682Y-104777436D01*
X162912023Y-104783793D01*
X162912020Y-104783793D01*
X162700677Y-104840422D01*
X162700668Y-104840426D01*
X162502361Y-104932898D01*
X162502357Y-104932900D01*
X162323121Y-105058402D01*
X162168402Y-105213121D01*
X162042900Y-105392357D01*
X162042898Y-105392361D01*
X161950426Y-105590668D01*
X161950422Y-105590677D01*
X161893793Y-105802020D01*
X161893793Y-105802024D01*
X161874723Y-106019997D01*
X154000000Y-106019997D01*
X154000000Y-99991249D01*
X156744353Y-99991249D01*
X156764834Y-100133705D01*
X156764835Y-100133707D01*
X156824623Y-100264622D01*
X156918872Y-100373392D01*
X157039947Y-100451202D01*
X157039950Y-100451203D01*
X157039949Y-100451203D01*
X157178036Y-100491748D01*
X157178038Y-100491749D01*
X157178039Y-100491749D01*
X157321962Y-100491749D01*
X157321962Y-100491748D01*
X157460053Y-100451202D01*
X157581128Y-100373392D01*
X157675377Y-100264622D01*
X157735165Y-100133706D01*
X157755647Y-99991249D01*
X157735165Y-99848792D01*
X157675377Y-99717876D01*
X157581128Y-99609106D01*
X157460053Y-99531296D01*
X157460051Y-99531295D01*
X157460049Y-99531294D01*
X157460050Y-99531294D01*
X157321963Y-99490749D01*
X157321961Y-99490749D01*
X157178039Y-99490749D01*
X157178036Y-99490749D01*
X157039949Y-99531294D01*
X156918873Y-99609105D01*
X156824623Y-99717875D01*
X156824622Y-99717877D01*
X156764834Y-99848792D01*
X156744353Y-99991249D01*
X154000000Y-99991249D01*
X154000000Y-99051362D01*
X154019685Y-98984323D01*
X154036319Y-98963681D01*
X157963681Y-95036319D01*
X158025004Y-95002834D01*
X158051362Y-95000000D01*
X164000000Y-95000000D01*
X166230000Y-92770000D01*
X168124354Y-92770000D01*
X168144835Y-92912456D01*
X168149780Y-92923283D01*
X168204624Y-93043373D01*
X168298873Y-93152143D01*
X168419948Y-93229953D01*
X168419951Y-93229954D01*
X168419950Y-93229954D01*
X168558037Y-93270499D01*
X168558039Y-93270500D01*
X168558040Y-93270500D01*
X168701963Y-93270500D01*
X168701963Y-93270499D01*
X168840054Y-93229953D01*
X168961129Y-93152143D01*
X169055378Y-93043373D01*
X169115166Y-92912457D01*
X169135648Y-92770000D01*
X169115166Y-92627543D01*
X169055378Y-92496627D01*
X168961129Y-92387857D01*
X168840054Y-92310047D01*
X168840052Y-92310046D01*
X168840050Y-92310045D01*
X168840051Y-92310045D01*
X168701964Y-92269500D01*
X168701962Y-92269500D01*
X168558040Y-92269500D01*
X168558037Y-92269500D01*
X168419950Y-92310045D01*
X168298874Y-92387856D01*
X168204624Y-92496626D01*
X168204623Y-92496628D01*
X168144835Y-92627543D01*
X168124354Y-92770000D01*
X166230000Y-92770000D01*
X167000001Y-91999999D01*
X171409353Y-91999999D01*
X171429834Y-92142455D01*
X171487855Y-92269500D01*
X171489623Y-92273372D01*
X171583872Y-92382142D01*
X171704947Y-92459952D01*
X171704950Y-92459953D01*
X171704949Y-92459953D01*
X171812107Y-92491416D01*
X171829855Y-92496628D01*
X171843036Y-92500498D01*
X171843038Y-92500499D01*
X171843039Y-92500499D01*
X171986962Y-92500499D01*
X171986962Y-92500498D01*
X172125053Y-92459952D01*
X172246128Y-92382142D01*
X172340377Y-92273372D01*
X172400165Y-92142456D01*
X172420647Y-91999999D01*
X172400165Y-91857542D01*
X172340377Y-91726626D01*
X172246128Y-91617856D01*
X172125053Y-91540046D01*
X172125051Y-91540045D01*
X172125049Y-91540044D01*
X172125050Y-91540044D01*
X171986963Y-91499499D01*
X171986961Y-91499499D01*
X171843039Y-91499499D01*
X171843036Y-91499499D01*
X171704949Y-91540044D01*
X171583873Y-91617855D01*
X171489623Y-91726625D01*
X171489622Y-91726627D01*
X171429834Y-91857542D01*
X171409353Y-91999999D01*
X167000001Y-91999999D01*
X169990000Y-89010000D01*
X169990000Y-89009996D01*
X169991166Y-89007183D01*
X170018046Y-88966953D01*
X170041077Y-88943923D01*
X170102401Y-88910439D01*
X170128756Y-88907606D01*
X183104139Y-88907606D01*
X183171178Y-88927291D01*
G37*
%TD.AperFunction*%
%TD*%
%TA.AperFunction,Conductor*%
%TO.N,+12V_2*%
G36*
X158268179Y-70294687D02*
G01*
X158288821Y-70311321D01*
X162491642Y-74514142D01*
X162525127Y-74575465D01*
X162520143Y-74645157D01*
X162516760Y-74653325D01*
X162514836Y-74657537D01*
X162514834Y-74657543D01*
X162494353Y-74800000D01*
X162514834Y-74942456D01*
X162574622Y-75073371D01*
X162574623Y-75073373D01*
X162668872Y-75182143D01*
X162789947Y-75259953D01*
X162789950Y-75259954D01*
X162789949Y-75259954D01*
X162928036Y-75300499D01*
X162928038Y-75300500D01*
X162928039Y-75300500D01*
X163071961Y-75300500D01*
X163160643Y-75274461D01*
X163230510Y-75274461D01*
X163283257Y-75305757D01*
X164963681Y-76986181D01*
X164997166Y-77047504D01*
X165000000Y-77073862D01*
X165000000Y-86354415D01*
X164980315Y-86421454D01*
X164963681Y-86442096D01*
X163839284Y-87566494D01*
X163777961Y-87599979D01*
X163751603Y-87602813D01*
X159149176Y-87602813D01*
X159082137Y-87583128D01*
X159061495Y-87566494D01*
X157036319Y-85541318D01*
X157002834Y-85479995D01*
X157000000Y-85453637D01*
X157000000Y-80928189D01*
X156999999Y-80928188D01*
X152586320Y-76514508D01*
X152552835Y-76453185D01*
X152550001Y-76426827D01*
X152550001Y-71221361D01*
X152569686Y-71154322D01*
X152586320Y-71133680D01*
X153408679Y-70311321D01*
X153470002Y-70277836D01*
X153496360Y-70275002D01*
X158201140Y-70275002D01*
X158268179Y-70294687D01*
G37*
%TD.AperFunction*%
%TD*%
%TA.AperFunction,Conductor*%
%TO.N,+12V_2_out*%
G36*
X163176376Y-88926159D02*
G01*
X163197018Y-88942793D01*
X164124379Y-89870154D01*
X164157864Y-89931477D01*
X164160698Y-89957835D01*
X164160698Y-92855112D01*
X164141013Y-92922151D01*
X164124379Y-92942793D01*
X163197018Y-93870155D01*
X163135695Y-93903640D01*
X163109337Y-93906474D01*
X157093525Y-93906474D01*
X153000000Y-97999999D01*
X153000000Y-110876000D01*
X152980315Y-110943039D01*
X152927511Y-110988794D01*
X152876000Y-111000000D01*
X139124000Y-111000000D01*
X139056961Y-110980315D01*
X139011206Y-110927511D01*
X139000000Y-110876000D01*
X139000000Y-106019997D01*
X146744723Y-106019997D01*
X146744723Y-106020002D01*
X146763793Y-106237975D01*
X146763793Y-106237979D01*
X146820422Y-106449322D01*
X146820424Y-106449326D01*
X146820425Y-106449330D01*
X146866661Y-106548484D01*
X146912897Y-106647638D01*
X146912898Y-106647639D01*
X147038402Y-106826877D01*
X147193123Y-106981598D01*
X147372361Y-107107102D01*
X147570670Y-107199575D01*
X147782023Y-107256207D01*
X147964926Y-107272208D01*
X147999998Y-107275277D01*
X148000000Y-107275277D01*
X148000002Y-107275277D01*
X148028254Y-107272805D01*
X148217977Y-107256207D01*
X148429330Y-107199575D01*
X148627639Y-107107102D01*
X148806877Y-106981598D01*
X148961598Y-106826877D01*
X149087102Y-106647639D01*
X149179575Y-106449330D01*
X149236207Y-106237977D01*
X149255277Y-106020000D01*
X149236207Y-105802023D01*
X149179575Y-105590670D01*
X149087102Y-105392362D01*
X149087100Y-105392359D01*
X149087099Y-105392357D01*
X148961599Y-105213124D01*
X148961596Y-105213121D01*
X148806877Y-105058402D01*
X148627639Y-104932898D01*
X148627640Y-104932898D01*
X148627638Y-104932897D01*
X148528484Y-104886661D01*
X148429330Y-104840425D01*
X148429326Y-104840424D01*
X148429322Y-104840422D01*
X148217977Y-104783793D01*
X148000002Y-104764723D01*
X147999998Y-104764723D01*
X147854682Y-104777436D01*
X147782023Y-104783793D01*
X147782020Y-104783793D01*
X147570677Y-104840422D01*
X147570668Y-104840426D01*
X147372361Y-104932898D01*
X147372357Y-104932900D01*
X147193121Y-105058402D01*
X147038402Y-105213121D01*
X146912900Y-105392357D01*
X146912898Y-105392361D01*
X146820426Y-105590668D01*
X146820422Y-105590677D01*
X146763793Y-105802020D01*
X146763793Y-105802024D01*
X146744723Y-106019997D01*
X139000000Y-106019997D01*
X139000000Y-99992071D01*
X141630496Y-99992071D01*
X141650977Y-100134527D01*
X141710391Y-100264622D01*
X141710766Y-100265444D01*
X141805015Y-100374214D01*
X141926090Y-100452024D01*
X141926093Y-100452025D01*
X141926092Y-100452025D01*
X142033250Y-100483488D01*
X142061382Y-100491749D01*
X142064179Y-100492570D01*
X142064181Y-100492571D01*
X142064182Y-100492571D01*
X142208105Y-100492571D01*
X142208105Y-100492570D01*
X142346196Y-100452024D01*
X142467271Y-100374214D01*
X142561520Y-100265444D01*
X142621308Y-100134528D01*
X142641790Y-99992071D01*
X142621308Y-99849614D01*
X142561520Y-99718698D01*
X142467271Y-99609928D01*
X142346196Y-99532118D01*
X142346194Y-99532117D01*
X142346192Y-99532116D01*
X142346193Y-99532116D01*
X142208106Y-99491571D01*
X142208104Y-99491571D01*
X142064182Y-99491571D01*
X142064179Y-99491571D01*
X141926092Y-99532116D01*
X141805016Y-99609927D01*
X141710766Y-99718697D01*
X141710765Y-99718699D01*
X141650977Y-99849614D01*
X141630496Y-99992071D01*
X139000000Y-99992071D01*
X139000000Y-99051362D01*
X139019685Y-98984323D01*
X139036319Y-98963681D01*
X146000000Y-92000000D01*
X151409353Y-92000000D01*
X151429834Y-92142456D01*
X151489622Y-92273371D01*
X151489623Y-92273373D01*
X151583872Y-92382143D01*
X151704947Y-92459953D01*
X151704950Y-92459954D01*
X151704949Y-92459954D01*
X151843036Y-92500499D01*
X151843038Y-92500500D01*
X151843039Y-92500500D01*
X151986962Y-92500500D01*
X151986962Y-92500499D01*
X152125053Y-92459953D01*
X152246128Y-92382143D01*
X152340377Y-92273373D01*
X152400165Y-92142457D01*
X152420647Y-92000000D01*
X152400165Y-91857543D01*
X152340377Y-91726627D01*
X152246128Y-91617857D01*
X152125053Y-91540047D01*
X152125051Y-91540046D01*
X152125049Y-91540045D01*
X152125050Y-91540045D01*
X151986963Y-91499500D01*
X151986961Y-91499500D01*
X151843039Y-91499500D01*
X151843036Y-91499500D01*
X151704949Y-91540045D01*
X151583873Y-91617856D01*
X151489623Y-91726626D01*
X151489622Y-91726628D01*
X151429834Y-91857543D01*
X151409353Y-92000000D01*
X146000000Y-92000000D01*
X149057207Y-88942793D01*
X149118530Y-88909308D01*
X149144888Y-88906474D01*
X163109337Y-88906474D01*
X163176376Y-88926159D01*
G37*
%TD.AperFunction*%
%TD*%
%TA.AperFunction,Conductor*%
%TO.N,+24V*%
G36*
X218790679Y-71294687D02*
G01*
X218811321Y-71311321D01*
X221969357Y-74469358D01*
X222002842Y-74530681D01*
X221997858Y-74600373D01*
X221979326Y-74631607D01*
X221979418Y-74631666D01*
X221977774Y-74634223D01*
X221975395Y-74638234D01*
X221974628Y-74639118D01*
X221974622Y-74639128D01*
X221914834Y-74770043D01*
X221894353Y-74912500D01*
X221914834Y-75054956D01*
X221974622Y-75185871D01*
X221974623Y-75185873D01*
X222068872Y-75294643D01*
X222189947Y-75372453D01*
X222189950Y-75372454D01*
X222189949Y-75372454D01*
X222328036Y-75412999D01*
X222328038Y-75413000D01*
X222328039Y-75413000D01*
X222471962Y-75413000D01*
X222471962Y-75412999D01*
X222610050Y-75372454D01*
X222610051Y-75372454D01*
X222610053Y-75372453D01*
X222685731Y-75323817D01*
X222752770Y-75304133D01*
X222819809Y-75323817D01*
X222840451Y-75340452D01*
X224963681Y-77463682D01*
X224997166Y-77525005D01*
X225000000Y-77551363D01*
X225000000Y-85948638D01*
X224980315Y-86015677D01*
X224963681Y-86036319D01*
X223036319Y-87963681D01*
X222974996Y-87997166D01*
X222948638Y-88000000D01*
X218546362Y-88000000D01*
X218479323Y-87980315D01*
X218458681Y-87963681D01*
X217036319Y-86541319D01*
X217002834Y-86479996D01*
X217000000Y-86453638D01*
X217000000Y-80000000D01*
X212586319Y-75586319D01*
X212552834Y-75524996D01*
X212550000Y-75498638D01*
X212550000Y-72221361D01*
X212569685Y-72154322D01*
X212586319Y-72133680D01*
X213408678Y-71311321D01*
X213470001Y-71277836D01*
X213496359Y-71275002D01*
X218723640Y-71275002D01*
X218790679Y-71294687D01*
G37*
%TD.AperFunction*%
%TD*%
%TA.AperFunction,Conductor*%
%TO.N,+12V_1_out*%
G36*
X143015677Y-88900266D02*
G01*
X143036319Y-88916900D01*
X143963681Y-89844262D01*
X143997166Y-89905585D01*
X144000000Y-89931943D01*
X144000000Y-91948637D01*
X143980315Y-92015676D01*
X143963681Y-92036318D01*
X138000000Y-98000000D01*
X138000000Y-110876000D01*
X137980315Y-110943039D01*
X137927511Y-110988794D01*
X137876000Y-111000000D01*
X124124000Y-111000000D01*
X124056961Y-110980315D01*
X124011206Y-110927511D01*
X124000000Y-110876000D01*
X124000000Y-106019996D01*
X131874723Y-106019996D01*
X131874723Y-106020001D01*
X131893793Y-106237974D01*
X131893793Y-106237978D01*
X131950422Y-106449321D01*
X131950424Y-106449325D01*
X131950425Y-106449329D01*
X131996661Y-106548483D01*
X132042897Y-106647637D01*
X132067998Y-106683485D01*
X132168402Y-106826876D01*
X132323123Y-106981597D01*
X132502361Y-107107101D01*
X132700670Y-107199574D01*
X132912023Y-107256206D01*
X133094926Y-107272207D01*
X133129998Y-107275276D01*
X133130000Y-107275276D01*
X133130002Y-107275276D01*
X133158254Y-107272804D01*
X133347977Y-107256206D01*
X133559330Y-107199574D01*
X133757639Y-107107101D01*
X133936877Y-106981597D01*
X134091598Y-106826876D01*
X134217102Y-106647638D01*
X134309575Y-106449329D01*
X134366207Y-106237976D01*
X134385277Y-106019999D01*
X134366207Y-105802022D01*
X134309575Y-105590669D01*
X134217102Y-105392361D01*
X134217100Y-105392358D01*
X134217099Y-105392356D01*
X134091599Y-105213123D01*
X134091596Y-105213120D01*
X133936877Y-105058401D01*
X133757642Y-104932899D01*
X133757638Y-104932896D01*
X133658484Y-104886660D01*
X133559330Y-104840424D01*
X133559326Y-104840423D01*
X133559322Y-104840421D01*
X133347977Y-104783792D01*
X133130002Y-104764722D01*
X133129998Y-104764722D01*
X132984682Y-104777435D01*
X132912023Y-104783792D01*
X132912020Y-104783792D01*
X132700677Y-104840421D01*
X132700668Y-104840425D01*
X132502361Y-104932897D01*
X132502357Y-104932899D01*
X132323121Y-105058401D01*
X132168402Y-105213120D01*
X132042900Y-105392356D01*
X132042898Y-105392360D01*
X131950426Y-105590667D01*
X131950422Y-105590676D01*
X131893793Y-105802019D01*
X131893793Y-105802023D01*
X131874723Y-106019996D01*
X124000000Y-106019996D01*
X124000000Y-99997643D01*
X126721470Y-99997643D01*
X126741951Y-100140099D01*
X126799195Y-100265444D01*
X126801740Y-100271016D01*
X126895989Y-100379786D01*
X127017064Y-100457596D01*
X127017067Y-100457597D01*
X127017066Y-100457597D01*
X127155153Y-100498142D01*
X127155155Y-100498143D01*
X127155156Y-100498143D01*
X127299079Y-100498143D01*
X127299079Y-100498142D01*
X127437170Y-100457596D01*
X127558245Y-100379786D01*
X127652494Y-100271016D01*
X127712282Y-100140100D01*
X127732764Y-99997643D01*
X127712282Y-99855186D01*
X127652494Y-99724270D01*
X127558245Y-99615500D01*
X127437170Y-99537690D01*
X127437168Y-99537689D01*
X127437166Y-99537688D01*
X127437167Y-99537688D01*
X127299080Y-99497143D01*
X127299078Y-99497143D01*
X127155156Y-99497143D01*
X127155153Y-99497143D01*
X127017066Y-99537688D01*
X126895990Y-99615499D01*
X126801740Y-99724269D01*
X126801739Y-99724271D01*
X126741951Y-99855186D01*
X126721470Y-99997643D01*
X124000000Y-99997643D01*
X124000000Y-96938859D01*
X124019685Y-96871820D01*
X124036319Y-96851178D01*
X129310914Y-91576582D01*
X129372235Y-91543099D01*
X129441927Y-91548083D01*
X129497860Y-91589955D01*
X129522277Y-91655419D01*
X129521331Y-91681911D01*
X129504353Y-91799999D01*
X129524834Y-91942456D01*
X129527657Y-91948637D01*
X129584623Y-92073373D01*
X129678872Y-92182143D01*
X129799947Y-92259953D01*
X129799950Y-92259954D01*
X129799949Y-92259954D01*
X129938036Y-92300499D01*
X129938038Y-92300500D01*
X129938039Y-92300500D01*
X130081962Y-92300500D01*
X130081962Y-92300499D01*
X130220053Y-92259953D01*
X130341128Y-92182143D01*
X130435377Y-92073373D01*
X130495165Y-91942457D01*
X130515647Y-91800000D01*
X130495165Y-91657543D01*
X130435377Y-91526627D01*
X130341128Y-91417857D01*
X130220053Y-91340047D01*
X130220051Y-91340046D01*
X130220049Y-91340045D01*
X130220050Y-91340045D01*
X130081963Y-91299500D01*
X130081961Y-91299500D01*
X129938039Y-91299500D01*
X129908636Y-91308133D01*
X129838766Y-91308132D01*
X129779989Y-91270356D01*
X129750965Y-91206800D01*
X129760909Y-91137642D01*
X129786019Y-91101477D01*
X131970597Y-88916900D01*
X132031920Y-88883415D01*
X132058278Y-88880581D01*
X142948638Y-88880581D01*
X143015677Y-88900266D01*
G37*
%TD.AperFunction*%
%TD*%
%TA.AperFunction,Conductor*%
%TO.N,+19V*%
G36*
X198790679Y-71294687D02*
G01*
X198811321Y-71311321D01*
X201809978Y-74309978D01*
X201843463Y-74371301D01*
X201838479Y-74440993D01*
X201816011Y-74478860D01*
X201774625Y-74526622D01*
X201774622Y-74526628D01*
X201714834Y-74657543D01*
X201694353Y-74800000D01*
X201714834Y-74942456D01*
X201774622Y-75073371D01*
X201774623Y-75073373D01*
X201868872Y-75182143D01*
X201989947Y-75259953D01*
X201989950Y-75259954D01*
X201989949Y-75259954D01*
X202128036Y-75300499D01*
X202128038Y-75300500D01*
X202128039Y-75300500D01*
X202271962Y-75300500D01*
X202271962Y-75300499D01*
X202410053Y-75259953D01*
X202513192Y-75193670D01*
X202538590Y-75177348D01*
X202540571Y-75180431D01*
X202588331Y-75158615D01*
X202657490Y-75168552D01*
X202693670Y-75193670D01*
X204963681Y-77463681D01*
X204997166Y-77525004D01*
X205000000Y-77551362D01*
X205000000Y-85948638D01*
X204980315Y-86015677D01*
X204963681Y-86036319D01*
X203036319Y-87963681D01*
X202974996Y-87997166D01*
X202948638Y-88000000D01*
X198546362Y-88000000D01*
X198479323Y-87980315D01*
X198458681Y-87963681D01*
X197036319Y-86541319D01*
X197002834Y-86479996D01*
X197000000Y-86453638D01*
X197000000Y-85948638D01*
X197000001Y-80000000D01*
X192586319Y-75586318D01*
X192552834Y-75524995D01*
X192550000Y-75498637D01*
X192550000Y-72221361D01*
X192569685Y-72154322D01*
X192586319Y-72133680D01*
X193408678Y-71311321D01*
X193470001Y-71277836D01*
X193496359Y-71275002D01*
X198723640Y-71275002D01*
X198790679Y-71294687D01*
G37*
%TD.AperFunction*%
%TD*%
%TA.AperFunction,Conductor*%
%TO.N,+5V_out*%
G36*
X124015677Y-88896551D02*
G01*
X124036319Y-88913185D01*
X125963681Y-90840547D01*
X125997166Y-90901870D01*
X126000000Y-90928228D01*
X126000000Y-92948637D01*
X125980315Y-93015676D01*
X125963681Y-93036318D01*
X122400000Y-96599998D01*
X122400000Y-110876000D01*
X122380315Y-110943039D01*
X122327511Y-110988794D01*
X122276000Y-111000000D01*
X107084000Y-111000000D01*
X107016961Y-110980315D01*
X106971206Y-110927511D01*
X106960000Y-110876000D01*
X106960000Y-106019997D01*
X116944724Y-106019997D01*
X116944724Y-106020002D01*
X116963794Y-106237975D01*
X116963794Y-106237979D01*
X117020423Y-106449322D01*
X117020425Y-106449326D01*
X117020426Y-106449330D01*
X117066662Y-106548484D01*
X117112898Y-106647638D01*
X117112899Y-106647639D01*
X117238403Y-106826877D01*
X117393124Y-106981598D01*
X117572362Y-107107102D01*
X117770671Y-107199575D01*
X117982024Y-107256207D01*
X118164927Y-107272208D01*
X118199999Y-107275277D01*
X118200001Y-107275277D01*
X118200003Y-107275277D01*
X118228255Y-107272805D01*
X118417978Y-107256207D01*
X118629331Y-107199575D01*
X118827640Y-107107102D01*
X119006878Y-106981598D01*
X119161599Y-106826877D01*
X119287103Y-106647639D01*
X119379576Y-106449330D01*
X119436208Y-106237977D01*
X119455278Y-106020000D01*
X119436208Y-105802023D01*
X119379576Y-105590670D01*
X119287103Y-105392362D01*
X119287101Y-105392359D01*
X119287100Y-105392357D01*
X119161600Y-105213124D01*
X119161597Y-105213121D01*
X119006878Y-105058402D01*
X118827640Y-104932898D01*
X118827641Y-104932898D01*
X118827639Y-104932897D01*
X118728485Y-104886661D01*
X118629331Y-104840425D01*
X118629327Y-104840424D01*
X118629323Y-104840422D01*
X118417978Y-104783793D01*
X118200003Y-104764723D01*
X118199999Y-104764723D01*
X118054683Y-104777436D01*
X117982024Y-104783793D01*
X117982021Y-104783793D01*
X117770678Y-104840422D01*
X117770669Y-104840426D01*
X117572362Y-104932898D01*
X117572358Y-104932900D01*
X117393122Y-105058402D01*
X117238403Y-105213121D01*
X117112901Y-105392357D01*
X117112899Y-105392361D01*
X117020427Y-105590668D01*
X117020423Y-105590677D01*
X116963794Y-105802020D01*
X116963794Y-105802024D01*
X116944724Y-106019997D01*
X106960000Y-106019997D01*
X106960000Y-99991249D01*
X111656853Y-99991249D01*
X111677334Y-100133705D01*
X111737122Y-100264620D01*
X111737123Y-100264622D01*
X111831372Y-100373392D01*
X111952447Y-100451202D01*
X111952450Y-100451203D01*
X111952449Y-100451203D01*
X112090536Y-100491748D01*
X112090538Y-100491749D01*
X112090539Y-100491749D01*
X112234462Y-100491749D01*
X112234462Y-100491748D01*
X112372553Y-100451202D01*
X112493628Y-100373392D01*
X112587877Y-100264622D01*
X112647665Y-100133706D01*
X112668147Y-99991249D01*
X112647665Y-99848792D01*
X112587877Y-99717876D01*
X112493628Y-99609106D01*
X112372553Y-99531296D01*
X112372551Y-99531295D01*
X112372549Y-99531294D01*
X112372550Y-99531294D01*
X112234463Y-99490749D01*
X112234461Y-99490749D01*
X112090539Y-99490749D01*
X112090536Y-99490749D01*
X111952449Y-99531294D01*
X111831373Y-99609105D01*
X111737123Y-99717875D01*
X111737122Y-99717877D01*
X111677334Y-99848792D01*
X111656853Y-99991249D01*
X106960000Y-99991249D01*
X106960000Y-97091362D01*
X106979685Y-97024323D01*
X106996319Y-97003681D01*
X115086815Y-88913185D01*
X115148138Y-88879700D01*
X115174496Y-88876866D01*
X123948638Y-88876866D01*
X124015677Y-88896551D01*
G37*
%TD.AperFunction*%
%TD*%
%TA.AperFunction,Conductor*%
%TO.N,+5V_NS*%
G36*
X118268179Y-70366498D02*
G01*
X118288821Y-70383132D01*
X122331831Y-74426142D01*
X122365316Y-74487465D01*
X122360332Y-74557157D01*
X122356945Y-74565333D01*
X122314834Y-74657543D01*
X122294353Y-74800000D01*
X122314834Y-74942456D01*
X122374622Y-75073371D01*
X122374623Y-75073373D01*
X122468872Y-75182143D01*
X122589947Y-75259953D01*
X122589950Y-75259954D01*
X122589949Y-75259954D01*
X122728036Y-75300499D01*
X122728038Y-75300500D01*
X122728039Y-75300500D01*
X122871962Y-75300500D01*
X122871962Y-75300499D01*
X123010050Y-75259954D01*
X123010051Y-75259954D01*
X123010053Y-75259953D01*
X123020704Y-75253107D01*
X123087741Y-75233420D01*
X123154782Y-75253101D01*
X123175428Y-75269739D01*
X124963681Y-77057992D01*
X124997166Y-77119315D01*
X125000000Y-77145673D01*
X125000000Y-86426227D01*
X124980315Y-86493266D01*
X124963681Y-86513908D01*
X123839284Y-87638305D01*
X123777961Y-87671790D01*
X123751603Y-87674624D01*
X119149175Y-87674624D01*
X119082136Y-87654939D01*
X119061494Y-87638305D01*
X117036319Y-85613130D01*
X117002834Y-85551807D01*
X117000000Y-85525449D01*
X117000000Y-81000000D01*
X112586319Y-76586319D01*
X112552834Y-76524996D01*
X112550000Y-76498638D01*
X112550000Y-71293172D01*
X112569685Y-71226133D01*
X112586319Y-71205491D01*
X113408678Y-70383132D01*
X113470001Y-70349647D01*
X113496359Y-70346813D01*
X118201140Y-70346813D01*
X118268179Y-70366498D01*
G37*
%TD.AperFunction*%
%TD*%
%TA.AperFunction,Conductor*%
%TO.N,+19V_out*%
G36*
X205015677Y-88917421D02*
G01*
X205036319Y-88934055D01*
X205963681Y-89861417D01*
X205997166Y-89922740D01*
X206000000Y-89949098D01*
X206000000Y-93948637D01*
X205980315Y-94015676D01*
X205963681Y-94036318D01*
X205036319Y-94963681D01*
X204974996Y-94997166D01*
X204948638Y-95000000D01*
X188264999Y-95000000D01*
X183000001Y-100264999D01*
X183000000Y-100265000D01*
X183000000Y-110876000D01*
X182980315Y-110943039D01*
X182927511Y-110988794D01*
X182876000Y-111000000D01*
X169124000Y-111000000D01*
X169056961Y-110980315D01*
X169011206Y-110927511D01*
X169000000Y-110876000D01*
X169000000Y-106019997D01*
X176874724Y-106019997D01*
X176874724Y-106020002D01*
X176893794Y-106237975D01*
X176893794Y-106237979D01*
X176950423Y-106449322D01*
X176950425Y-106449326D01*
X176950426Y-106449330D01*
X176996662Y-106548484D01*
X177042898Y-106647638D01*
X177042899Y-106647639D01*
X177168403Y-106826877D01*
X177323124Y-106981598D01*
X177502362Y-107107102D01*
X177700671Y-107199575D01*
X177912024Y-107256207D01*
X178094927Y-107272208D01*
X178129999Y-107275277D01*
X178130001Y-107275277D01*
X178130003Y-107275277D01*
X178158255Y-107272805D01*
X178347978Y-107256207D01*
X178559331Y-107199575D01*
X178757640Y-107107102D01*
X178936878Y-106981598D01*
X179091599Y-106826877D01*
X179217103Y-106647639D01*
X179309576Y-106449330D01*
X179366208Y-106237977D01*
X179385278Y-106020000D01*
X179366208Y-105802023D01*
X179309576Y-105590670D01*
X179217103Y-105392362D01*
X179217101Y-105392359D01*
X179217100Y-105392357D01*
X179091600Y-105213124D01*
X179091597Y-105213121D01*
X178936878Y-105058402D01*
X178757640Y-104932898D01*
X178757641Y-104932898D01*
X178757639Y-104932897D01*
X178658485Y-104886661D01*
X178559331Y-104840425D01*
X178559327Y-104840424D01*
X178559323Y-104840422D01*
X178347978Y-104783793D01*
X178130003Y-104764723D01*
X178129999Y-104764723D01*
X177984683Y-104777436D01*
X177912024Y-104783793D01*
X177912021Y-104783793D01*
X177700678Y-104840422D01*
X177700669Y-104840426D01*
X177502362Y-104932898D01*
X177502358Y-104932900D01*
X177323122Y-105058402D01*
X177168403Y-105213121D01*
X177042901Y-105392357D01*
X177042899Y-105392361D01*
X176950427Y-105590668D01*
X176950423Y-105590677D01*
X176893794Y-105802020D01*
X176893794Y-105802024D01*
X176874724Y-106019997D01*
X169000000Y-106019997D01*
X169000000Y-99991250D01*
X171744353Y-99991250D01*
X171764834Y-100133706D01*
X171768831Y-100142457D01*
X171824623Y-100264623D01*
X171918872Y-100373393D01*
X172039947Y-100451203D01*
X172039950Y-100451204D01*
X172039949Y-100451204D01*
X172178036Y-100491749D01*
X172178038Y-100491750D01*
X172178039Y-100491750D01*
X172321962Y-100491750D01*
X172321962Y-100491749D01*
X172460053Y-100451203D01*
X172581128Y-100373393D01*
X172675377Y-100264623D01*
X172735165Y-100133707D01*
X172755647Y-99991250D01*
X172735165Y-99848793D01*
X172675377Y-99717877D01*
X172581128Y-99609107D01*
X172460053Y-99531297D01*
X172460051Y-99531296D01*
X172460049Y-99531295D01*
X172460050Y-99531295D01*
X172321963Y-99490750D01*
X172321961Y-99490750D01*
X172178039Y-99490750D01*
X172178036Y-99490750D01*
X172039949Y-99531295D01*
X171918873Y-99609106D01*
X171824623Y-99717876D01*
X171824622Y-99717878D01*
X171764834Y-99848793D01*
X171744353Y-99991250D01*
X169000000Y-99991250D01*
X169000000Y-98766362D01*
X169019685Y-98699323D01*
X169036319Y-98678681D01*
X172678681Y-95036319D01*
X172740004Y-95002834D01*
X172766362Y-95000000D01*
X183000000Y-95000000D01*
X185000000Y-93000000D01*
X185000000Y-91051362D01*
X185019685Y-90984323D01*
X185036319Y-90963681D01*
X187065945Y-88934055D01*
X187127268Y-88900570D01*
X187153626Y-88897736D01*
X204948638Y-88897736D01*
X205015677Y-88917421D01*
G37*
%TD.AperFunction*%
%TD*%
%TA.AperFunction,Conductor*%
%TO.N,+12V_1*%
G36*
X137268180Y-70366498D02*
G01*
X137288822Y-70383132D01*
X143963681Y-77057991D01*
X143997166Y-77119314D01*
X144000000Y-77145672D01*
X144000000Y-86426226D01*
X143980315Y-86493265D01*
X143963681Y-86513907D01*
X142839284Y-87638305D01*
X142777961Y-87671790D01*
X142751603Y-87674624D01*
X138149175Y-87674624D01*
X138082136Y-87654939D01*
X138061494Y-87638305D01*
X136036319Y-85613130D01*
X136002834Y-85551807D01*
X136000000Y-85525449D01*
X136000000Y-81000000D01*
X131586319Y-76586319D01*
X131552834Y-76524996D01*
X131550000Y-76498638D01*
X131550000Y-71293172D01*
X131569685Y-71226133D01*
X131586319Y-71205491D01*
X132408678Y-70383132D01*
X132470001Y-70349647D01*
X132496359Y-70346813D01*
X137201141Y-70346813D01*
X137268180Y-70366498D01*
G37*
%TD.AperFunction*%
%TD*%
%TA.AperFunction,Conductor*%
%TO.N,+16V*%
G36*
X178790679Y-71294687D02*
G01*
X178811321Y-71311321D01*
X182130048Y-74630048D01*
X182163533Y-74691371D01*
X182158549Y-74761063D01*
X182155161Y-74769240D01*
X182114835Y-74857541D01*
X182114834Y-74857542D01*
X182094353Y-75000000D01*
X182114834Y-75142456D01*
X182174622Y-75273371D01*
X182174623Y-75273373D01*
X182268872Y-75382143D01*
X182389947Y-75459953D01*
X182389950Y-75459954D01*
X182389949Y-75459954D01*
X182528036Y-75500499D01*
X182528038Y-75500500D01*
X182528039Y-75500500D01*
X182671962Y-75500500D01*
X182671962Y-75500499D01*
X182810053Y-75459953D01*
X182817242Y-75455332D01*
X182884280Y-75435646D01*
X182951320Y-75455328D01*
X182971965Y-75471965D01*
X184963681Y-77463681D01*
X184997166Y-77525004D01*
X185000000Y-77551362D01*
X185000000Y-85948638D01*
X184980315Y-86015677D01*
X184963681Y-86036319D01*
X183036319Y-87963681D01*
X182974996Y-87997166D01*
X182948638Y-88000000D01*
X178546362Y-88000000D01*
X178479323Y-87980315D01*
X178458681Y-87963681D01*
X177036319Y-86541319D01*
X177002834Y-86479996D01*
X177000000Y-86453638D01*
X177000000Y-80000000D01*
X172586319Y-75586319D01*
X172552834Y-75524996D01*
X172550000Y-75498638D01*
X172550000Y-72221361D01*
X172569685Y-72154322D01*
X172586319Y-72133680D01*
X173408678Y-71311321D01*
X173470001Y-71277836D01*
X173496359Y-71275002D01*
X178723640Y-71275002D01*
X178790679Y-71294687D01*
G37*
%TD.AperFunction*%
%TD*%
M02*
